<?xml version="1.0" encoding="utf-8"?>
<!-- Generator: Adobe Illustrator 16.0.0, SVG Export Plug-In . SVG Version: 6.00 Build 0)  -->
<!DOCTYPE svg PUBLIC "-//W3C//DTD SVG 1.1//EN" "http://www.w3.org/Graphics/SVG/1.1/DTD/svg11.dtd">
<svg version="1.1" id="Layer_1" xmlns="http://www.w3.org/2000/svg" xmlns:xlink="http://www.w3.org/1999/xlink" x="0px" y="0px"
	 width="1000.4px" height="305.9px" viewBox="0 0 1000.4 305.9" enable-background="new 0 0 1000.4 305.9" xml:space="preserve">
<g>
	<g>
		<g>
			<path fill="#FFFFFF" d="M899,168.9c0-5,4-9,9-9h22.4c-27.8-17.5-67.7-16.5-67.7-16.5h-798l3.6,4.6l328,61.1
				c0,0,47.1,13.2,62,13.2h272.3h181.9c0,0,51.5,0.2,86.6-17.3c-9.3-22.4-50.2-26.9-50.2-26.9c0-0.1-0.1-0.1-0.1-0.2H908
				C903.1,177.9,899,173.9,899,168.9z"/>
		</g>
		<g>
			<path fill="#C7C7C7" d="M930.4,159.9H908c-5,0-9,4-9,9c0,5,4,9,9,9h40.8C944.2,170.4,937.7,164.5,930.4,159.9z"/>
		</g>
	</g>
	<g>
		<rect x="851.8" y="244.6" fill="#ADADAD" width="13.4" height="49.5"/>
	</g>
	<g>
		<rect x="529.1" y="244.7" fill="#ADADAD" width="13.4" height="49.5"/>
	</g>
	<g>
		<path fill="#EBEBEB" d="M912.6,222.3H730.7H458.4c-15,0-62-13.2-62-13.2L68.4,148l19.8,25.1c8.6,5.7,37.8,11.7,37.8,11.7
			l227.2,47.6C468.6,253.4,532.6,253,532.6,253h303.1c66.4,0,112.5-6.3,112.5-6.3c43.2-5.7,52.3-38.3,52.3-38.3
			c-0.3-1.2-0.8-2.2-1.2-3.3C964.1,222.5,912.6,222.3,912.6,222.3z"/>
	</g>
	<g>
		<polygon fill="#FFFFFF" points="213.7,143.4 76.2,22 7.2,22 70.7,143.4 		"/>
	</g>
	<g>
		<polygon fill="#C7C7C7" points="191.2,143.4 49.1,116.8 0,116.8 95.6,157.4 145.4,162.4 		"/>
	</g>
	<g>
		<path fill="#4D4D4D" d="M533,291.2c0,8.1-6.6,14.7-14.7,14.7c-8.1,0-14.7-6.6-14.7-14.7c0-8.1,6.6-14.7,14.7-14.7
			C526.4,276.4,533,283,533,291.2z"/>
	</g>
	<g>
		<path fill="#C7C7C7" d="M523.6,291.2c0,2.9-2.4,5.3-5.3,5.3c-2.9,0-5.3-2.4-5.3-5.3c0-2.9,2.4-5.3,5.3-5.3
			C521.2,285.9,523.6,288.3,523.6,291.2z"/>
	</g>
	<g>
		<path fill="#4D4D4D" d="M567.9,291.2c0,8.1-6.6,14.7-14.7,14.7c-8.1,0-14.7-6.6-14.7-14.7c0-8.1,6.6-14.7,14.7-14.7
			C561.3,276.4,567.9,283,567.9,291.2z"/>
	</g>
	<g>
		<path fill="#C7C7C7" d="M558.5,291.2c0,2.9-2.4,5.3-5.3,5.3c-2.9,0-5.3-2.4-5.3-5.3c0-2.9,2.4-5.3,5.3-5.3
			C556.1,285.9,558.5,288.3,558.5,291.2z"/>
	</g>
	<g>
		<path fill="#4D4D4D" d="M873.6,291.2c0,8.1-6.6,14.7-14.7,14.7c-8.1,0-14.7-6.6-14.7-14.7c0-8.1,6.6-14.7,14.7-14.7
			C867,276.4,873.6,283,873.6,291.2z"/>
	</g>
	<g>
		<path fill="#C7C7C7" d="M864.1,291.2c0,2.9-2.4,5.3-5.3,5.3c-2.9,0-5.3-2.4-5.3-5.3c0-2.9,2.4-5.3,5.3-5.3
			C861.7,285.9,864.1,288.3,864.1,291.2z"/>
	</g>
	<g>
		<polygon fill="#C7C7C7" points="426.7,208.4 273.7,125.2 315.6,125.2 730.7,211.5 730.7,222.3 458.4,222.3 		"/>
	</g>
	<g>
		<g>
			<path fill="#4D4D4D" d="M532.7,209.1c-12.2,2.2-25.7,5.2-39.3,9.8v11.4l39.3-5.1V209.1z"/>
		</g>
		<g>
			<polygon fill="#5C5C5C" points="532.7,225.2 493.3,230.3 493.3,243.1 532.7,243.1 			"/>
		</g>
		<g>
			<polygon fill="#4D4D4D" points="532.7,243.1 493.3,243.1 493.3,256 532.7,261.1 			"/>
		</g>
		<g>
			<path fill="#5C5C5C" d="M493.3,256v11.4c13.7,4.5,27.2,7.6,39.3,9.7v-16.1L493.3,256z"/>
		</g>
	</g>
	<g>
		<path fill="#ADADAD" d="M637.4,216.5V209c-5.5-3-11.8-4.7-18.6-4.7h-38.6c0,0-19.6,0-46,4.5c-0.5,0.1-1.1,0.2-1.6,0.3v11.1
			C545.3,217.2,589.3,208.6,637.4,216.5z"/>
	</g>
	<g>
		<path fill="#C7C7C7" d="M532.7,220.2v5v18v18v16.1c0.5,0.1,1.1,0.2,1.6,0.3c26.4,4.5,46,4.5,46,4.5h38.6c6.7,0,13-1.7,18.6-4.7
			v-60.8C589.3,208.6,545.3,217.2,532.7,220.2z"/>
	</g>
	<g>
		<path fill="#C7C7C7" d="M849.6,170.3c0,4.2-3.4,7.6-7.6,7.6c-4.2,0-7.6-3.4-7.6-7.6c0-4.2,3.4-7.6,7.6-7.6
			C846.2,162.7,849.6,166.1,849.6,170.3z"/>
	</g>
	<g>
		<path fill="#C7C7C7" d="M818.8,170.3c0,4.2-3.4,7.6-7.6,7.6c-4.2,0-7.6-3.4-7.6-7.6c0-4.2,3.4-7.6,7.6-7.6
			C815.4,162.7,818.8,166.1,818.8,170.3z"/>
	</g>
	<g>
		<path fill="#C7C7C7" d="M788,170.3c0,4.2-3.4,7.6-7.6,7.6c-4.2,0-7.6-3.4-7.6-7.6c0-4.2,3.4-7.6,7.6-7.6
			C784.6,162.7,788,166.1,788,170.3z"/>
	</g>
	<g>
		<path fill="#C7C7C7" d="M757.2,170.3c0,4.2-3.4,7.6-7.6,7.6s-7.6-3.4-7.6-7.6c0-4.2,3.4-7.6,7.6-7.6S757.2,166.1,757.2,170.3z"/>
	</g>
	<g>
		<path fill="#C7C7C7" d="M726.5,170.3c0,4.2-3.4,7.6-7.6,7.6c-4.2,0-7.6-3.4-7.6-7.6c0-4.2,3.4-7.6,7.6-7.6
			C723.1,162.7,726.5,166.1,726.5,170.3z"/>
	</g>
	<g>
		<path fill="#C7C7C7" d="M695.7,170.3c0,4.2-3.4,7.6-7.6,7.6c-4.2,0-7.6-3.4-7.6-7.6c0-4.2,3.4-7.6,7.6-7.6
			C692.3,162.7,695.7,166.1,695.7,170.3z"/>
	</g>
	<g>
		<path fill="#C7C7C7" d="M664.9,170.3c0,4.2-3.4,7.6-7.6,7.6c-4.2,0-7.6-3.4-7.6-7.6c0-4.2,3.4-7.6,7.6-7.6
			C661.5,162.7,664.9,166.1,664.9,170.3z"/>
	</g>
	<g>
		<path fill="#C7C7C7" d="M634.1,170.3c0,4.2-3.4,7.6-7.6,7.6c-4.2,0-7.6-3.4-7.6-7.6c0-4.2,3.4-7.6,7.6-7.6
			C630.7,162.7,634.1,166.1,634.1,170.3z"/>
	</g>
	<g>
		<path fill="#C7C7C7" d="M603.3,170.3c0,4.2-3.4,7.6-7.6,7.6c-4.2,0-7.6-3.4-7.6-7.6c0-4.2,3.4-7.6,7.6-7.6
			C599.9,162.7,603.3,166.1,603.3,170.3z"/>
	</g>
	<g>
		<path fill="#C7C7C7" d="M572.6,170.3c0,4.2-3.4,7.6-7.6,7.6c-4.2,0-7.6-3.4-7.6-7.6c0-4.2,3.4-7.6,7.6-7.6
			C569.2,162.7,572.6,166.1,572.6,170.3z"/>
	</g>
	<g>
		<path fill="#C7C7C7" d="M541.8,170.3c0,4.2-3.4,7.6-7.6,7.6s-7.6-3.4-7.6-7.6c0-4.2,3.4-7.6,7.6-7.6S541.8,166.1,541.8,170.3z"/>
	</g>
	<g>
		<path fill="#C7C7C7" d="M511,170.3c0,4.2-3.4,7.6-7.6,7.6c-4.2,0-7.6-3.4-7.6-7.6c0-4.2,3.4-7.6,7.6-7.6
			C507.6,162.7,511,166.1,511,170.3z"/>
	</g>
	<g>
		<path fill="#C7C7C7" d="M480.2,170.3c0,4.2-3.4,7.6-7.6,7.6s-7.6-3.4-7.6-7.6c0-4.2,3.4-7.6,7.6-7.6S480.2,166.1,480.2,170.3z"/>
	</g>
	<g>
		<path fill="#C7C7C7" d="M449.4,170.3c0,4.2-3.4,7.6-7.6,7.6c-4.2,0-7.6-3.4-7.6-7.6c0-4.2,3.4-7.6,7.6-7.6
			C446,162.7,449.4,166.1,449.4,170.3z"/>
	</g>
	<g>
		<path fill="#C7C7C7" d="M418.7,170.3c0,4.2-3.4,7.6-7.6,7.6c-4.2,0-7.6-3.4-7.6-7.6c0-4.2,3.4-7.6,7.6-7.6
			C415.3,162.7,418.7,166.1,418.7,170.3z"/>
	</g>
	<g>
		<path fill="#C7C7C7" d="M387.9,170.3c0,4.2-3.4,7.6-7.6,7.6c-4.2,0-7.6-3.4-7.6-7.6c0-4.2,3.4-7.6,7.6-7.6
			C384.5,162.7,387.9,166.1,387.9,170.3z"/>
	</g>
	<g>
		<path fill="#C7C7C7" d="M357.1,170.3c0,4.2-3.4,7.6-7.6,7.6s-7.6-3.4-7.6-7.6c0-4.2,3.4-7.6,7.6-7.6S357.1,166.1,357.1,170.3z"/>
	</g>
	<g>
		<path fill="#C7C7C7" d="M326.3,170.3c0,4.2-3.4,7.6-7.6,7.6c-4.2,0-7.6-3.4-7.6-7.6c0-4.2,3.4-7.6,7.6-7.6
			C322.9,162.7,326.3,166.1,326.3,170.3z"/>
	</g>
</g>
</svg>
