<?xml version="1.0" encoding="utf-8"?>
<!-- Generator: Adobe Illustrator 16.0.0, SVG Export Plug-In . SVG Version: 6.00 Build 0)  -->
<!DOCTYPE svg PUBLIC "-//W3C//DTD SVG 1.1//EN" "http://www.w3.org/Graphics/SVG/1.1/DTD/svg11.dtd">
<svg version="1.1" id="Layer_1" xmlns="http://www.w3.org/2000/svg" xmlns:xlink="http://www.w3.org/1999/xlink" x="0px" y="0px"
	 width="2015.66px" height="396.854px" viewBox="134.784 74.784 2015.66 396.854"
	 enable-background="new 134.784 74.784 2015.66 396.854" xml:space="preserve">
<path fill="#1B8EFF" d="M333.209,74.784c-109.588,0-198.425,88.838-198.425,198.425c0,23.287,4.025,45.633,11.396,66.397
	c14.202,26.919,43.521,24.809,74.878,11.423c1.057-2.092,2.519-4.461,4.357-7.071l-0.006,0.006l-22.582-23.771
	c-3.057-3.221-2.582-8.393,1.01-11.003l2.408-1.746c4.367-3.169,9.907-4.263,15.147-2.979l32.086,7.847
	c9.373-9.315,20.151-19.316,31.628-29.379l-64.192-21.875c-5.079-1.729-6.647-8.146-2.942-12.026l3.798-3.973
	c6.319-6.613,15.101-10.309,24.246-10.209l97.878,1.056c25.747-18.574,49.666-32.852,64.973-36.715
	c4.093-1.031,8.217-1.956,12.238-2.669l-24.558,19.501l1.693,9.49l37.818-30.458c10.87-0.141,18.262,2.848,20.563,11.973
	C467.442,249.9,286.999,345.42,248.289,361.921c-20.84,29.967-32.927,61.084-15.729,81.927c0.212,0.256,1.41,1.215,1.792,1.433
	c29.106,16.757,62.859,26.357,98.859,26.357c109.585,0,198.425-88.84,198.425-198.424
	C531.634,163.622,442.796,74.784,333.209,74.784z M421.922,341.342l-4.051,3.283c-2.526,2.052-6.103,2.199-8.787,0.355
	l-44.042-30.251c-2.142-1.475-2.118-4.65,0.049-6.088l44.541-29.549c1.959-1.304,4.626-0.447,5.461,1.754l13.528,35.561
	C432.003,325.293,429.3,335.347,421.922,341.342z"/>
<g>
	<path fill="#1B8EFF" d="M695.59,341.012c-9.27,7.194-18.199,12.577-26.864,16.196c-8.666,3.617-18.39,5.428-29.124,5.428
		c-9.849,0-18.498-1.954-25.902-5.859c-7.447-3.861-13.194-9.146-17.199-15.765c-4.053-6.66-6.056-13.854-6.056-21.626
		c0-10.488,3.331-19.442,9.946-26.813c6.663-7.414,15.794-12.357,27.394-14.896c2.436-0.575,8.489-1.826,18.117-3.797
		c9.627-1.968,17.921-3.766,24.796-5.398c6.873-1.631,14.34-3.619,22.396-5.965c-0.463-10.116-2.525-17.524-6.104-22.25
		c-3.62-4.725-11.082-7.089-22.396-7.089c-9.739,0-17.062,1.361-22.009,4.063c-4.902,2.724-9.13,6.785-12.637,12.229
		c-3.508,5.423-5.979,9.004-7.401,10.723c-1.475,1.734-4.565,2.613-9.372,2.613c-4.293,0-7.992-1.4-11.147-4.156
		c-3.155-2.754-4.71-6.28-4.71-10.597c0-6.729,2.4-13.279,7.158-19.654c4.798-6.373,12.205-11.597,22.346-15.715
		c10.094-4.132,22.701-6.185,37.771-6.185c16.823,0,30.07,1.996,39.695,5.968c9.671,3.974,16.447,10.276,20.467,18.886
		c3.979,8.611,5.963,20.032,5.963,34.264c0,8.974-0.018,16.611-0.094,22.875c-0.031,6.264-0.123,13.248-0.194,20.904
		c0,7.238,1.201,14.738,3.56,22.539c2.399,7.85,3.604,12.876,3.604,15.088c0,3.939-1.843,7.544-5.57,10.764
		c-3.687,3.221-7.854,4.854-12.545,4.854c-3.938,0-7.804-1.89-11.678-5.573C703.967,353.38,699.928,348.031,695.59,341.012z
		 M693.09,285.556c-5.622,2.037-13.809,4.199-24.51,6.49c-10.703,2.338-18.133,4.021-22.25,5.092
		c-4.119,1.074-8.058,3.188-11.819,6.296c-3.718,3.159-5.58,7.498-5.58,13.12c0,5.798,2.184,10.763,6.587,14.847
		c4.404,4.037,10.131,6.104,17.256,6.104c7.595,0,14.595-1.666,20.999-4.998c6.402-3.332,11.117-7.608,14.128-12.832
		c3.429-5.844,5.188-15.359,5.188-28.643L693.09,285.556L693.09,285.556z"/>
	<path fill="#1B8EFF" d="M907.037,315.16c0,4.76-1.41,9.885-4.273,15.332c-2.865,5.398-7.194,10.569-13.071,15.473
		c-5.832,4.949-13.188,8.908-22.105,11.871c-8.876,3.015-18.902,4.521-30.035,4.521c-23.661,0-42.178-6.937-55.454-20.713
		c-13.278-13.821-19.941-32.312-19.941-55.554c0-15.713,3.043-29.604,9.128-41.688c6.087-12.063,14.896-21.409,26.384-28.016
		c11.532-6.584,25.276-9.876,41.279-9.876c9.915,0,19.03,1.451,27.336,4.349c8.271,2.899,15.289,6.641,21.057,11.222
		c5.769,4.582,10.125,9.468,13.169,14.681c3.043,5.19,4.564,10.021,4.564,14.516c0,4.602-1.698,8.488-5.098,11.652
		c-3.441,3.188-7.572,4.783-12.443,4.783c-3.188,0-5.814-0.826-7.932-2.455c-2.115-1.646-4.458-4.275-7.068-7.928
		c-4.688-7.127-9.573-12.461-14.698-16.004c-5.079-3.564-11.581-5.334-19.415-5.334c-11.354,0-20.485,4.421-27.395,13.264
		c-6.951,8.843-10.381,20.943-10.381,36.306c0,7.197,0.894,13.793,2.646,19.852c1.793,6.053,4.376,11.166,7.735,15.426
		c3.362,4.264,7.451,7.524,12.207,9.707c4.761,2.184,10.025,3.313,15.715,3.313c7.703,0,14.271-1.791,19.75-5.335
		c5.479-3.586,10.286-8.986,14.515-16.292c2.354-4.339,4.867-7.702,7.593-10.142c2.725-2.434,6.051-3.65,9.948-3.65
		c4.691,0,8.598,1.795,11.677,5.337C905.5,307.36,907.037,311.155,907.037,315.16z"/>
	<path fill="#1B8EFF" d="M1047.457,294.111h-74.969c0.063,8.698,1.842,16.357,5.241,23.021c3.441,6.664,7.942,11.632,13.646,15.039
		c5.651,3.363,11.898,5.047,18.74,5.047c4.581,0,8.748-0.561,12.544-1.633c3.797-1.073,7.465-2.756,11.052-5.049
		c3.54-2.287,6.794-4.738,9.808-7.354c3.01-2.656,6.867-6.197,11.67-10.668c1.928-1.728,4.762-2.548,8.417-2.548
		c3.938,0,7.122,1.076,9.519,3.222c2.431,2.147,3.648,5.19,3.648,9.131c0,3.479-1.318,7.496-4.039,12.157
		c-2.721,4.611-6.824,9.054-12.299,13.313c-5.479,4.262-12.354,7.787-20.617,10.621c-8.313,2.786-17.815,4.229-28.593,4.229
		c-24.639,0-43.748-7.063-57.429-21.098c-13.682-14.033-20.475-33.076-20.475-57.139c0-11.309,1.684-21.818,5.048-31.503
		c3.362-9.695,8.269-18.011,14.734-24.928c6.46-6.928,14.404-12.234,23.855-15.942c9.45-3.685,19.941-5.539,31.478-5.539
		c14.961,0,27.793,3.16,38.539,9.479c10.703,6.319,18.739,14.482,24.073,24.497c5.334,10.017,7.979,20.219,7.979,30.611
		c0,9.641-2.757,15.889-8.268,18.752C1065.252,292.656,1057.484,294.111,1047.457,294.111z M972.489,272.341h69.489
		c-0.931-13.102-4.454-22.912-10.619-29.41c-6.12-6.519-14.192-9.756-24.222-9.756c-9.514,0-17.379,3.292-23.5,9.899
		C977.52,249.661,973.771,259.417,972.489,272.341z"/>
	<path fill="#1B8EFF" d="M1234.733,312.516c0,10.558-2.577,19.594-7.688,27.151c-5.16,7.516-12.768,13.25-22.825,17.107
		c-10.062,3.906-22.329,5.859-36.718,5.859c-13.746,0-25.563-2.112-35.367-6.344c-9.854-4.229-17.1-9.467-21.771-15.811
		c-4.691-6.296-7.013-12.652-7.013-18.982c0-4.229,1.459-7.848,4.467-10.813c3.014-3.012,6.809-4.516,11.39-4.516
		c4.005,0,7.119,1.006,9.273,2.933c2.146,1.97,4.184,4.724,6.151,8.312c3.938,6.84,8.647,11.918,14.129,15.281
		c5.479,3.363,12.94,5.049,22.396,5.049c7.656,0,13.979-1.699,18.891-5.097c4.9-3.442,7.351-7.319,7.351-11.726
		c0-6.729-2.563-11.676-7.642-14.752c-5.127-3.076-13.521-6.055-25.229-8.844c-13.171-3.25-23.934-6.711-32.199-10.332
		c-8.269-3.572-14.914-8.354-19.856-14.228c-4.974-5.911-7.44-13.159-7.44-21.771c0-7.679,2.29-14.929,6.871-21.769
		c4.58-6.839,11.326-12.279,20.28-16.362c8.953-4.063,19.75-6.104,32.345-6.104c9.959,0,18.85,1.042,26.766,3.1
		c7.913,2.059,14.497,4.815,19.799,8.267c5.306,3.476,9.311,7.305,12.063,11.533c2.759,4.205,4.136,8.323,4.136,12.35
		c0,4.407-1.444,8.001-4.423,10.813c-2.933,2.812-7.118,4.205-12.54,4.205c-3.94,0-7.29-1.128-10.046-3.364
		c-2.757-2.258-5.928-5.623-9.468-10.116c-2.899-3.739-6.34-6.728-10.234-8.986c-3.938-2.235-9.272-3.364-16.048-3.364
		c-6.906,0-12.675,1.465-17.254,4.421c-4.582,2.955-6.871,6.623-6.871,11.028c0,4.017,1.682,7.321,5.046,9.899
		c3.363,2.558,7.913,4.688,13.604,6.369c5.73,1.692,13.611,3.765,23.593,6.196c11.887,2.901,21.606,6.368,29.166,10.378
		c7.516,4.01,13.248,8.793,17.108,14.271C1232.781,299.208,1234.733,305.455,1234.733,312.516z"/>
	<path fill="#1B8EFF" d="M1390.578,312.516c0,10.558-2.578,19.594-7.688,27.151c-5.157,7.516-12.768,13.25-22.823,17.107
		c-10.062,3.906-22.328,5.859-36.72,5.859c-13.789,0-25.563-2.112-35.371-6.344c-9.849-4.229-17.115-9.467-21.768-15.811
		c-4.693-6.296-7.017-12.652-7.017-18.982c0-4.229,1.496-7.848,4.47-10.813c3.014-3.012,6.808-4.516,11.39-4.516
		c4.005,0,7.082,1.006,9.272,2.933c2.146,1.97,4.184,4.724,6.153,8.312c3.938,6.84,8.647,11.918,14.128,15.281
		c5.479,3.363,12.938,5.049,22.395,5.049c7.656,0,13.938-1.699,18.886-5.097c4.905-3.442,7.354-7.319,7.354-11.726
		c0-6.729-2.563-11.676-7.646-14.752c-5.121-3.076-13.52-6.055-25.196-8.844c-13.194-3.25-23.959-6.711-32.229-10.332
		c-8.269-3.572-14.913-8.354-19.849-14.228c-4.98-5.911-7.447-13.159-7.447-21.771c0-7.679,2.289-14.929,6.868-21.769
		c4.581-6.839,11.326-12.279,20.28-16.362c8.953-4.063,19.707-6.104,32.371-6.104c9.936,0,18.825,1.042,26.738,3.1
		c7.913,2.059,14.498,4.815,19.801,8.267c5.302,3.476,9.309,7.305,12.063,11.533c2.756,4.205,4.132,8.323,4.132,12.35
		c0,4.407-1.438,8.001-4.423,10.813c-2.933,2.812-7.101,4.205-12.543,4.205c-3.938,0-7.288-1.128-10.043-3.364
		c-2.76-2.258-5.932-5.623-9.469-10.116c-2.899-3.739-6.344-6.728-10.281-8.986c-3.896-2.235-9.229-3.364-15.991-3.364
		c-6.918,0-12.685,1.465-17.269,4.421c-4.582,2.955-6.873,6.623-6.873,11.028c0,4.017,1.687,7.321,5.051,9.899
		c3.362,2.558,7.912,4.688,13.646,6.369c5.687,1.692,13.563,3.765,23.551,6.196c11.887,2.901,21.608,6.368,29.166,10.378
		c7.514,4.01,13.203,8.793,17.11,14.271C1388.668,299.208,1390.578,305.455,1390.578,312.516z"/>
	<path fill="#1B8EFF" d="M1566.512,284.693c0,11.424-1.794,21.947-5.334,31.573c-3.542,9.676-8.697,17.94-15.428,24.894
		c-6.773,6.906-14.782,12.225-24.172,15.905c-9.341,3.685-19.863,5.573-31.572,5.573c-11.609,0-22.062-1.905-31.332-5.622
		c-9.272-3.763-17.271-9.115-24.076-16.099c-6.76-6.981-11.919-15.217-15.428-24.701c-3.505-9.482-5.284-19.992-5.284-31.524
		c0-11.597,1.793-22.234,5.334-31.861c3.59-9.649,8.668-17.884,15.332-24.724c6.616-6.815,14.674-12.088,24.125-15.787
		c9.45-3.708,19.909-5.55,31.332-5.55c11.597,0,22.118,1.884,31.572,5.623c9.451,3.74,17.541,9.075,24.313,16.003
		c6.729,6.929,11.825,15.162,15.332,24.702C1564.779,262.659,1566.512,273.194,1566.512,284.693z M1528.02,284.693
		c0-15.634-3.411-27.8-10.283-36.499c-6.873-8.698-16.133-13.047-27.73-13.047c-7.481,0-14.108,1.932-19.799,5.815
		c-5.734,3.885-10.14,9.612-13.215,17.204c-3.076,7.57-4.611,16.421-4.611,26.528c0,10.029,1.521,18.759,4.564,26.24
		c3.042,7.524,7.369,13.229,13.022,17.202c5.7,3.975,12.334,5.966,20.035,5.966c11.601,0,20.854-4.349,27.73-13.125
		C1524.607,312.248,1528.02,300.121,1528.02,284.693z"/>
	<path opacity="0.8" fill="#F58021" enable-background="new    " d="M1593.615,210.134h9.127v-11.509
		c0-11.974,1.521-21.497,4.566-28.57c3.043-7.071,8.157-12.207,15.427-15.45c7.271-3.221,17.203-4.831,29.842-4.831
		c22.378,0,33.546,5.478,33.546,16.413c0,3.565-1.146,6.607-3.507,9.13c-2.323,2.525-5.079,3.796-8.271,3.796
		c-1.503,0-4.084-0.288-7.734-0.84c-3.651-0.554-6.729-0.842-9.273-0.842c-6.906,0-11.344,2.042-13.312,6.104
		c-1.973,4.084-2.979,9.899-2.979,17.492v9.107h9.418c14.608,0,21.913,4.406,21.913,13.215c0,6.264-1.954,10.236-5.813,11.919
		c-3.907,1.685-9.261,2.531-16.1,2.531h-9.418v101.535c0,7.545-1.766,13.328-5.385,17.303c-3.618,4.021-8.251,6.005-13.982,6.005
		c-5.399,0-9.937-1.983-13.556-6.005c-3.573-3.975-5.384-9.756-5.384-17.303V237.8h-10.524c-5.733,0-10.14-1.273-13.216-3.853
		c-3.075-2.579-4.612-5.926-4.612-10.043C1574.392,214.739,1580.799,210.134,1593.615,210.134z"/>
	<path opacity="0.8" fill="#F58021" enable-background="new    " d="M1789.348,341.012c-9.271,7.194-18.244,12.577-26.91,16.196
		c-8.666,3.617-18.348,5.428-29.121,5.428c-9.854,0-18.454-1.954-25.902-5.859c-7.448-3.861-13.198-9.146-17.203-15.765
		c-4.045-6.66-6.055-13.854-6.055-21.626c0-10.488,3.33-19.442,9.994-26.813c6.615-7.414,15.75-12.357,27.348-14.896
		c2.437-0.575,8.486-1.826,18.114-3.797c9.671-1.968,17.923-3.766,24.798-5.398c6.871-1.631,14.336-3.619,22.396-5.965
		c-0.464-10.116-2.484-17.524-6.104-22.25c-3.619-4.725-11.082-7.089-22.396-7.089c-9.738,0-17.062,1.361-21.963,4.063
		c-4.905,2.724-9.131,6.785-12.64,12.229c-3.508,5.423-6.008,9.004-7.447,10.723c-1.475,1.734-4.566,2.613-9.323,2.613
		c-4.341,0-8.045-1.4-11.194-4.156c-3.108-2.754-4.707-6.28-4.707-10.597c0-6.729,2.399-13.279,7.203-19.654
		c4.76-6.373,12.208-11.597,22.301-15.715c10.093-4.132,22.7-6.185,37.771-6.185c16.825,0,30.112,1.996,39.741,5.968
		c9.627,3.974,16.45,10.276,20.424,18.886c3.976,8.611,5.96,20.032,5.96,34.264c0,8.974-0.018,16.611-0.051,22.875
		c-0.078,6.264-0.127,13.248-0.237,20.904c0,7.238,1.201,14.738,3.604,22.539c2.354,7.85,3.559,12.876,3.559,15.088
		c0,3.939-1.843,7.544-5.526,10.764c-3.732,3.221-7.896,4.854-12.594,4.854c-3.938,0-7.802-1.89-11.631-5.573
		C1797.725,353.38,1793.641,348.031,1789.348,341.012z M1786.803,285.556c-5.624,2.037-13.766,4.199-24.51,6.49
		c-10.702,2.338-18.135,4.021-22.25,5.092c-4.119,1.074-8.059,3.188-11.774,6.296c-3.765,3.159-5.623,7.498-5.623,13.12
		c0,5.798,2.178,10.763,6.585,14.847c4.404,4.037,10.172,6.104,17.261,6.104c7.586,0,14.586-1.666,20.993-4.998
		s11.118-7.608,14.129-12.832c3.475-5.844,5.189-15.359,5.189-28.643V285.556L1786.803,285.556z M1763.782,151.746h18.936
		c4.807,0,7.16,0.697,7.16,2.091c0,0.754-2.61,3.796-7.834,9.13c-5.271,5.334-10.524,10.438-15.858,15.307
		c-5.373,4.87-9.064,7.825-11.101,8.842c-5.335,2.725-11.067,4.086-17.151,4.086c-4.008,0-6.011-1.184-6.011-3.531
		c0-1.57,1.215-4.349,3.649-8.266l6.297-11.798c3.652-6.839,6.84-11.188,9.563-13.047
		C1754.155,152.674,1758.271,151.746,1763.782,151.746z"/>
	<path opacity="0.8" fill="#F58021" enable-background="new    " d="M2000.795,315.16c0,4.76-1.457,9.885-4.281,15.332
		c-2.863,5.398-7.233,10.569-13.065,15.473c-5.88,4.949-13.23,8.908-22.105,11.871c-8.924,3.015-18.949,4.521-30.084,4.521
		c-23.661,0-42.134-6.937-55.454-20.713c-13.278-13.821-19.939-32.312-19.939-55.554c0-15.713,3.043-29.604,9.127-41.688
		c6.087-12.063,14.896-21.409,26.43-28.016c11.486-6.584,25.275-9.876,41.277-9.876c9.914,0,19.026,1.451,27.296,4.349
		c8.267,2.899,15.281,6.641,21.05,11.222c5.766,4.582,10.172,9.468,13.215,14.681c3.043,5.19,4.564,10.021,4.564,14.516
		c0,4.602-1.698,8.488-5.142,11.652c-3.396,3.188-7.574,4.783-12.403,4.783c-3.189,0-5.854-0.826-7.97-2.455
		c-2.066-1.646-4.457-4.275-7.063-7.928c-4.693-7.127-9.579-12.461-14.7-16.004c-5.085-3.564-11.586-5.334-19.418-5.334
		c-11.344,0-20.44,4.421-27.394,13.264c-6.906,8.843-10.382,20.943-10.382,36.306c0,7.197,0.896,13.793,2.646,19.852
		c1.792,6.053,4.374,11.166,7.737,15.426c3.361,4.264,7.448,7.524,12.205,9.707c4.804,2.184,10.024,3.313,15.764,3.313
		c7.654,0,14.228-1.791,19.704-5.335c5.478-3.586,10.331-8.986,14.556-16.292c2.323-4.339,4.828-7.702,7.547-10.142
		c2.726-2.434,6.058-3.65,9.998-3.65c4.646,0,8.557,1.795,11.632,5.337C1999.211,307.36,2000.795,311.155,2000.795,315.16z"/>
	<path opacity="0.8" fill="#F58021" enable-background="new    " d="M2053.563,188.941c-5.334,0-9.898-1.626-13.696-4.903
		c-3.796-3.275-5.675-7.913-5.675-13.911c0-5.422,1.953-9.9,5.818-13.407c3.903-3.509,8.393-5.262,13.553-5.262
		c4.979,0,9.384,1.595,13.216,4.781c3.827,3.165,5.722,7.802,5.722,13.889c0,5.9-1.86,10.509-5.577,13.839
		C2063.156,187.276,2058.719,188.941,2053.563,188.941z M2072.498,228.54v110.792c0,7.658-1.824,13.455-5.457,17.398
		c-3.629,3.938-8.287,5.907-13.909,5.907c-5.62,0-10.188-2.048-13.653-6.052c-3.549-4.008-5.277-9.771-5.277-17.254V229.669
		c0-7.592,1.729-13.301,5.277-17.132c3.471-3.852,8.033-5.767,13.653-5.767c5.623,0,10.282,1.915,13.909,5.767
		C2070.673,216.367,2072.498,221.701,2072.498,228.54z"/>
	<path opacity="0.8" fill="#F58021" enable-background="new    " d="M2112.096,339.333v-166.25c0-7.679,1.742-13.48,5.142-17.419
		c3.396-3.918,8.039-5.887,13.841-5.887c5.795,0,10.487,1.932,14.032,5.814c3.539,3.886,5.334,9.724,5.334,17.492v166.25
		c0,7.769-1.813,13.584-5.427,17.442c-3.577,3.906-8.254,5.86-13.939,5.86c-5.621,0-10.188-2.051-13.694-6.055
		C2113.871,352.58,2112.096,346.814,2112.096,339.333z"/>
</g>
</svg>
