<?xml version="1.0" encoding="utf-8"?>
<!-- Generator: Adobe Illustrator 16.0.0, SVG Export Plug-In . SVG Version: 6.00 Build 0)  -->
<!DOCTYPE svg PUBLIC "-//W3C//DTD SVG 1.1//EN" "http://www.w3.org/Graphics/SVG/1.1/DTD/svg11.dtd">
<svg version="1.1" id="Layer_1" xmlns="http://www.w3.org/2000/svg" xmlns:xlink="http://www.w3.org/1999/xlink" x="0px" y="0px"
	 width="2247.225px" height="543.054px" viewBox="0 0 2247.225 543.054" enable-background="new 0 0 2247.225 543.054"
	 xml:space="preserve">
<path fill="#6454A2" d="M273.209,17.708c-141.109,0-255.5,114.391-255.5,255.5c0,29.987,5.183,58.761,14.674,85.494
	c18.287,34.663,56.039,31.949,96.416,14.712c1.36-2.695,3.243-5.744,5.61-9.105l-0.007,0.006l-29.078-30.611
	c-3.936-4.146-3.325-10.804,1.301-14.167l3.101-2.247c5.623-4.082,12.756-5.489,19.505-3.835l41.315,10.101
	c12.069-11.995,25.947-24.873,40.726-37.83l-82.657-28.167c-6.54-2.227-8.559-10.49-3.788-15.485l4.89-5.115
	c8.138-8.516,19.444-13.275,31.221-13.147l126.031,1.361c33.155-23.917,63.951-42.302,83.663-47.276
	c5.271-1.328,10.58-2.519,15.758-3.438l-31.621,25.111l2.178,12.22l48.698-39.218c13.996-0.182,23.513,3.667,26.478,15.416
	c13.928,55.205-218.417,178.202-268.262,199.45c-26.833,38.582-42.398,78.654-20.254,105.493c0.273,0.331,1.815,1.56,2.306,1.842
	c37.479,21.578,80.942,33.937,127.296,33.937c141.108,0,255.5-114.392,255.5-255.5C528.709,132.099,414.318,17.708,273.209,17.708z
	 M387.439,360.938l-5.213,4.23c-3.254,2.642-7.86,2.83-11.316,0.456l-56.709-38.951c-2.759-1.899-2.726-5.987,0.062-7.838
	l57.354-38.05c2.522-1.676,5.955-0.576,7.031,2.257l17.419,45.791C400.42,340.275,396.94,353.221,387.439,360.938z"/>
<g>
	<path fill="#5C499E" d="M695.59,341.012c-9.269,7.195-18.199,12.577-26.864,16.196c-8.666,3.617-18.39,5.428-29.124,5.428
		c-9.849,0-18.498-1.954-25.904-5.859c-7.448-3.861-13.195-9.147-17.2-15.765c-4.052-6.66-6.055-13.855-6.055-21.626
		c0-10.488,3.331-19.442,9.948-26.813c6.663-7.414,15.794-12.357,27.392-14.896c2.435-0.575,8.489-1.826,18.117-3.797
		c9.627-1.968,17.921-3.766,24.796-5.398c6.873-1.631,14.34-3.619,22.395-5.965c-0.463-10.116-2.527-17.524-6.104-22.25
		c-3.62-4.725-11.082-7.089-22.394-7.089c-9.74,0-17.061,1.361-22.009,4.062c-4.902,2.724-9.129,6.785-12.636,12.229
		c-3.508,5.423-5.979,9.004-7.402,10.723c-1.474,1.734-4.567,2.613-9.372,2.613c-4.293,0-7.992-1.4-11.149-4.156
		c-3.155-2.754-4.71-6.28-4.71-10.597c0-6.729,2.402-13.279,7.159-19.654c4.797-6.373,12.206-11.597,22.345-15.715
		c10.093-4.132,22.701-6.185,37.772-6.185c16.823,0,30.07,1.996,39.695,5.968c9.671,3.974,16.448,10.276,20.467,18.886
		c3.978,8.611,5.963,20.032,5.963,34.264c0,8.975-0.017,16.611-0.094,22.875c-0.031,6.265-0.123,13.249-0.194,20.905
		c0,7.239,1.201,14.738,3.558,22.539c2.401,7.849,3.603,12.876,3.603,15.088c0,3.939-1.843,7.544-5.572,10.763
		c-3.685,3.222-7.852,4.854-12.544,4.854c-3.938,0-7.803-1.889-11.677-5.573C703.967,353.381,699.928,348.031,695.59,341.012z
		 M693.09,285.556c-5.622,2.037-13.808,4.2-24.509,6.49c-10.704,2.339-18.133,4.021-22.25,5.092
		c-4.12,1.075-8.058,3.188-11.82,6.296c-3.718,3.16-5.58,7.498-5.58,13.12c0,5.798,2.182,10.763,6.587,14.847
		c4.404,4.037,10.129,6.104,17.254,6.104c7.595,0,14.595-1.665,20.999-4.997s11.119-7.609,14.128-12.832
		c3.429-5.845,5.19-15.36,5.19-28.643L693.09,285.556L693.09,285.556z"/>
	<path fill="#5C499E" d="M907.038,315.159c0,4.761-1.411,9.885-4.274,15.332c-2.867,5.399-7.196,10.57-13.073,15.474
		c-5.832,4.948-13.186,8.907-22.106,11.871c-8.876,3.012-18.902,4.518-30.035,4.518c-23.661,0-42.178-6.934-55.454-20.713
		c-13.28-13.821-19.943-32.309-19.943-55.552c0-15.715,3.043-29.604,9.128-41.688c6.087-12.063,14.896-21.409,26.383-28.016
		c11.533-6.584,25.277-9.876,41.28-9.876c9.915,0,19.03,1.451,27.336,4.349c8.273,2.899,15.289,6.641,21.056,11.222
		c5.767,4.582,10.125,9.468,13.169,14.681c3.043,5.19,4.565,10.02,4.565,14.516c0,4.602-1.699,8.488-5.096,11.652
		c-3.443,3.187-7.574,4.783-12.445,4.783c-3.188,0-5.815-0.826-7.93-2.455c-2.117-1.646-4.458-4.275-7.07-7.928
		c-4.688-7.127-9.574-12.461-14.699-16.004c-5.079-3.564-11.581-5.334-19.415-5.334c-11.354,0-20.485,4.421-27.394,13.264
		c-6.951,8.843-10.38,20.943-10.38,36.306c0,7.198,0.892,13.793,2.644,19.85c1.793,6.053,4.376,11.167,7.736,15.427
		c3.364,4.262,7.452,7.525,12.207,9.707c4.76,2.182,10.027,3.314,15.715,3.314c7.703,0,14.271-1.791,19.75-5.335
		c5.479-3.586,10.286-8.987,14.514-16.292c2.354-4.339,4.867-7.702,7.593-10.14c2.723-2.434,6.05-3.652,9.948-3.652
		c4.692,0,8.598,1.795,11.677,5.337C905.5,307.36,907.038,311.155,907.038,315.159z"/>
	<path fill="#5C499E" d="M1047.457,294.111h-74.968c0.064,8.698,1.842,16.358,5.242,23.021c3.442,6.665,7.943,11.632,13.646,15.039
		c5.652,3.363,11.899,5.047,18.741,5.047c4.581,0,8.748-0.56,12.544-1.633s7.464-2.756,11.051-5.048
		c3.54-2.288,6.794-4.739,9.806-7.354c3.01-2.656,6.869-6.197,11.67-10.668c1.928-1.727,4.762-2.546,8.417-2.546
		c3.938,0,7.122,1.075,9.518,3.22c2.431,2.148,3.649,5.191,3.649,9.131c0,3.478-1.318,7.496-4.039,12.157
		c-2.721,4.612-6.824,9.053-12.299,13.311c-5.479,4.262-12.352,7.787-20.617,10.621c-8.313,2.788-17.816,4.228-28.593,4.228
		c-24.637,0-43.748-7.062-57.427-21.096c-13.681-14.033-20.474-33.077-20.474-57.138c0-11.308,1.683-21.818,5.047-31.503
		c3.363-9.695,8.267-18.011,14.735-24.928c6.46-6.928,14.405-12.234,23.857-15.942c9.45-3.685,19.942-5.539,31.476-5.539
		c14.961,0,27.793,3.16,38.539,9.479c10.703,6.319,18.741,14.482,24.075,24.497c5.334,10.017,7.979,20.219,7.979,30.611
		c0,9.642-2.757,15.891-8.268,18.753C1065.252,292.656,1057.484,294.111,1047.457,294.111z M972.489,272.341h69.49
		c-0.93-13.102-4.455-22.912-10.62-29.41c-6.12-6.519-14.192-9.756-24.22-9.756c-9.514,0-17.379,3.292-23.5,9.899
		C977.519,249.661,973.771,259.417,972.489,272.341z"/>
	<path fill="#5C499E" d="M1234.733,312.516c0,10.558-2.577,19.594-7.688,27.152c-5.16,7.515-12.767,13.249-22.825,17.109
		c-10.061,3.906-22.329,5.86-36.718,5.86c-13.746,0-25.564-2.113-35.367-6.342c-9.854-4.229-17.099-9.467-21.772-15.811
		c-4.692-6.296-7.013-12.653-7.013-18.982c0-4.229,1.459-7.848,4.467-10.813c3.013-3.012,6.808-4.516,11.389-4.516
		c4.005,0,7.119,1.007,9.274,2.933c2.146,1.97,4.183,4.724,6.152,8.312c3.94,6.839,8.649,11.918,14.128,15.281
		s12.942,5.048,22.395,5.048c7.657,0,13.979-1.698,18.889-5.096c4.902-3.442,7.351-7.32,7.351-11.726
		c0-6.728-2.563-11.676-7.642-14.752c-5.126-3.076-13.521-6.055-25.228-8.844c-13.17-3.25-23.933-6.71-32.199-10.331
		c-8.268-3.573-14.914-8.352-19.858-14.226c-4.972-5.911-7.441-13.159-7.441-21.771c0-7.679,2.29-14.929,6.872-21.769
		c4.58-6.839,11.326-12.279,20.28-16.362c8.953-4.062,19.75-6.104,32.344-6.104c9.959,0,18.85,1.042,26.766,3.1
		c7.913,2.059,14.497,4.815,19.799,8.267c5.304,3.476,9.309,7.305,12.063,11.533c2.758,4.205,4.135,8.323,4.135,12.35
		c0,4.407-1.444,8.001-4.423,10.813c-2.932,2.812-7.118,4.205-12.54,4.205c-3.94,0-7.29-1.128-10.046-3.364
		c-2.756-2.258-5.927-5.623-9.467-10.116c-2.9-3.739-6.34-6.728-10.235-8.986c-3.939-2.235-9.273-3.364-16.047-3.364
		c-6.907,0-12.675,1.465-17.254,4.421c-4.582,2.955-6.872,6.623-6.872,11.028c0,4.017,1.682,7.321,5.046,9.899
		c3.364,2.558,7.913,4.686,13.604,6.369c5.732,1.692,13.613,3.765,23.593,6.196c11.886,2.901,21.608,6.368,29.166,10.381
		c7.515,4.009,13.248,8.793,17.11,14.271C1232.781,299.208,1234.733,305.455,1234.733,312.516z"/>
	<path fill="#5C499E" d="M1390.579,312.516c0,10.558-2.578,19.594-7.688,27.152c-5.159,7.515-12.768,13.249-22.825,17.109
		c-10.06,3.906-22.328,5.86-36.718,5.86c-13.789,0-25.565-2.113-35.372-6.342c-9.848-4.229-17.116-9.467-21.767-15.811
		c-4.693-6.296-7.016-12.653-7.016-18.982c0-4.229,1.496-7.848,4.47-10.813c3.013-3.012,6.807-4.516,11.389-4.516
		c4.005,0,7.082,1.007,9.273,2.933c2.147,1.97,4.183,4.724,6.153,8.312c3.938,6.839,8.649,11.918,14.128,15.281
		c5.478,3.363,12.938,5.048,22.394,5.048c7.657,0,13.938-1.698,18.886-5.096c4.905-3.442,7.354-7.32,7.354-11.726
		c0-6.728-2.563-11.676-7.645-14.752c-5.122-3.076-13.519-6.055-25.198-8.844c-13.195-3.25-23.959-6.71-32.229-10.331
		c-8.268-3.573-14.913-8.352-19.848-14.226c-4.981-5.911-7.448-13.159-7.448-21.771c0-7.679,2.29-14.929,6.869-21.769
		c4.581-6.839,11.326-12.279,20.28-16.362c8.953-4.062,19.707-6.104,32.371-6.104c9.936,0,18.827,1.042,26.74,3.1
		c7.913,2.059,14.498,4.815,19.8,8.267c5.301,3.476,9.308,7.305,12.063,11.533c2.755,4.205,4.131,8.323,4.131,12.35
		c0,4.407-1.44,8.001-4.422,10.813c-2.933,2.812-7.101,4.205-12.544,4.205c-3.938,0-7.288-1.128-10.043-3.364
		c-2.759-2.258-5.931-5.623-9.468-10.116c-2.9-3.739-6.343-6.728-10.281-8.986c-3.896-2.235-9.231-3.364-15.992-3.364
		c-6.918,0-12.684,1.465-17.268,4.421c-4.582,2.955-6.873,6.623-6.873,11.028c0,4.017,1.686,7.321,5.05,9.899
		c3.363,2.558,7.912,4.686,13.645,6.369c5.686,1.692,13.564,3.765,23.551,6.196c11.886,2.901,21.608,6.368,29.166,10.381
		c7.513,4.009,13.203,8.793,17.111,14.271C1388.669,299.208,1390.579,305.455,1390.579,312.516z"/>
	<path fill="#5C499E" d="M1566.512,284.693c0,11.423-1.794,21.947-5.334,31.573c-3.542,9.676-8.698,17.941-15.427,24.893
		c-6.774,6.907-14.783,12.225-24.172,15.906c-9.341,3.685-19.864,5.573-31.573,5.573c-11.609,0-22.061-1.905-31.332-5.622
		c-9.274-3.763-17.27-9.115-24.076-16.098c-6.759-6.982-11.919-15.217-15.427-24.702c-3.505-9.482-5.285-19.992-5.285-31.524
		c0-11.597,1.793-22.234,5.334-31.861c3.59-9.649,8.668-17.884,15.332-24.724c6.617-6.815,14.674-12.088,24.125-15.787
		c9.451-3.708,19.91-5.55,31.332-5.55c11.597,0,22.119,1.884,31.573,5.623c9.451,3.74,17.541,9.075,24.315,16.003
		c6.729,6.929,11.825,15.162,15.332,24.702C1564.779,262.659,1566.512,273.194,1566.512,284.693z M1528.019,284.693
		c0-15.634-3.412-27.8-10.284-36.499c-6.873-8.698-16.132-13.047-27.731-13.047c-7.482,0-14.109,1.932-19.799,5.815
		c-5.734,3.885-10.139,9.612-13.215,17.204c-3.076,7.57-4.611,16.422-4.611,26.528c0,10.029,1.521,18.759,4.565,26.24
		c3.042,7.525,7.369,13.229,13.024,17.202c5.7,3.975,12.334,5.966,20.035,5.966c11.6,0,20.855-4.348,27.731-13.125
		C1524.607,312.247,1528.019,300.12,1528.019,284.693z"/>
	<path opacity="0.8" fill="#F58021" enable-background="new    " d="M1593.616,210.134h9.127v-11.509
		c0-11.974,1.521-21.497,4.568-28.57c3.043-7.071,8.157-12.207,15.425-15.45c7.271-3.221,17.204-4.831,29.842-4.831
		c22.378,0,33.545,5.478,33.545,16.413c0,3.565-1.147,6.607-3.506,9.13c-2.324,2.525-5.08,3.796-8.27,3.796
		c-1.503,0-4.084-0.288-7.736-0.84c-3.652-0.554-6.729-0.842-9.274-0.842c-6.906,0-11.343,2.042-13.311,6.104
		c-1.971,4.084-2.978,9.899-2.978,17.492v9.107h9.418c14.609,0,21.913,4.406,21.913,13.215c0,6.264-1.954,10.236-5.814,11.919
		c-3.908,1.685-9.26,2.531-16.099,2.531h-9.418v101.534c0,7.546-1.765,13.329-5.384,17.302c-3.619,4.019-8.251,6.004-13.983,6.004
		c-5.401,0-9.936-1.985-13.555-6.004c-3.574-3.973-5.384-9.754-5.384-17.302V237.8h-10.524c-5.734,0-10.14-1.273-13.216-3.853
		c-3.076-2.579-4.613-5.926-4.613-10.043C1574.392,214.739,1580.799,210.134,1593.616,210.134z"/>
	<path opacity="0.8" fill="#F58021" enable-background="new    " d="M1789.348,341.012c-9.271,7.195-18.245,12.577-26.911,16.196
		c-8.666,3.617-18.347,5.428-29.122,5.428c-9.852,0-18.454-1.954-25.902-5.859c-7.449-3.861-13.199-9.147-17.204-15.765
		c-4.045-6.66-6.054-13.855-6.054-21.626c0-10.488,3.33-19.442,9.994-26.813c6.617-7.414,15.75-12.357,27.347-14.896
		c2.435-0.575,8.487-1.826,18.115-3.797c9.671-1.968,17.922-3.766,24.797-5.398c6.872-1.631,14.336-3.619,22.395-5.965
		c-0.463-10.116-2.485-17.524-6.104-22.25c-3.62-4.725-11.082-7.089-22.395-7.089c-9.739,0-17.06,1.361-21.962,4.062
		c-4.907,2.724-9.131,6.785-12.639,12.229c-3.508,5.423-6.008,9.004-7.448,10.723c-1.474,1.734-4.568,2.613-9.324,2.613
		c-4.34,0-8.044-1.4-11.195-4.156c-3.109-2.754-4.707-6.28-4.707-10.597c0-6.729,2.4-13.279,7.203-19.654
		c4.76-6.373,12.208-11.597,22.301-15.715c10.092-4.132,22.7-6.185,37.771-6.185c16.826,0,30.113,1.996,39.742,5.968
		c9.627,3.974,16.45,10.276,20.424,18.886c3.974,8.611,5.96,20.032,5.96,34.264c0,8.975-0.018,16.611-0.051,22.875
		c-0.078,6.265-0.127,13.249-0.237,20.905c0,7.239,1.201,14.738,3.603,22.539c2.356,7.849,3.558,12.876,3.558,15.088
		c0,3.939-1.843,7.544-5.528,10.763c-3.733,3.222-7.897,4.854-12.592,4.854c-3.938,0-7.802-1.889-11.631-5.573
		C1797.725,353.381,1793.641,348.031,1789.348,341.012z M1786.803,285.556c-5.624,2.037-13.765,4.2-24.51,6.49
		c-10.702,2.339-18.134,4.021-22.25,5.092c-4.119,1.075-8.058,3.188-11.774,6.296c-3.765,3.16-5.623,7.498-5.623,13.12
		c0,5.798,2.176,10.763,6.585,14.847c4.404,4.037,10.171,6.104,17.259,6.104c7.586,0,14.586-1.665,20.994-4.997
		s11.119-7.609,14.128-12.832c3.475-5.845,5.191-15.36,5.191-28.643V285.556L1786.803,285.556z M1763.783,151.746h18.935
		c4.805,0,7.16,0.697,7.16,2.091c0,0.754-2.611,3.796-7.834,9.13c-5.27,5.334-10.525,10.438-15.858,15.307
		c-5.373,4.87-9.066,7.825-11.101,8.842c-5.335,2.725-11.068,4.086-17.152,4.086c-4.007,0-6.01-1.184-6.01-3.531
		c0-1.57,1.215-4.349,3.65-8.266l6.297-11.798c3.652-6.839,6.839-11.188,9.563-13.047
		C1754.155,152.674,1758.271,151.746,1763.783,151.746z"/>
	<path opacity="0.8" fill="#F58021" enable-background="new    " d="M2000.795,315.159c0,4.761-1.457,9.885-4.282,15.332
		c-2.863,5.399-7.234,10.57-13.066,15.474c-5.878,4.948-13.231,8.907-22.106,11.871c-8.924,3.012-18.95,4.518-30.084,4.518
		c-23.661,0-42.134-6.934-55.454-20.713c-13.28-13.821-19.941-32.309-19.941-55.552c0-15.715,3.042-29.604,9.126-41.688
		c6.087-12.063,14.897-21.409,26.43-28.016c11.486-6.584,25.276-9.876,41.277-9.876c9.915,0,19.028,1.451,27.296,4.349
		c8.267,2.899,15.283,6.641,21.05,11.222c5.766,4.582,10.171,9.468,13.214,14.681c3.043,5.19,4.565,10.02,4.565,14.516
		c0,4.602-1.698,8.488-5.141,11.652c-3.396,3.187-7.573,4.783-12.403,4.783c-3.19,0-5.855-0.826-7.97-2.455
		c-2.067-1.646-4.456-4.275-7.064-7.928c-4.694-7.127-9.579-12.461-14.7-16.004c-5.085-3.564-11.586-5.334-19.418-5.334
		c-11.344,0-20.442,4.421-27.394,13.264c-6.906,8.843-10.381,20.943-10.381,36.306c0,7.198,0.896,13.793,2.646,19.85
		c1.792,6.053,4.374,11.167,7.737,15.427c3.362,4.262,7.449,7.525,12.205,9.707c4.804,2.182,10.026,3.314,15.764,3.314
		c7.654,0,14.226-1.791,19.704-5.335c5.478-3.586,10.331-8.987,14.555-16.292c2.324-4.339,4.829-7.702,7.548-10.14
		c2.723-2.434,6.055-3.652,9.998-3.652c4.646,0,8.554,1.795,11.63,5.337C1999.211,307.36,2000.795,311.155,2000.795,315.159z"/>
	<path opacity="0.8" fill="#F58021" enable-background="new    " d="M2053.562,188.941c-5.334,0-9.899-1.626-13.697-4.903
		c-3.795-3.275-5.673-7.913-5.673-13.911c0-5.422,1.953-9.9,5.818-13.407c3.904-3.509,8.391-5.262,13.552-5.262
		c4.979,0,9.383,1.595,13.215,4.781c3.828,3.165,5.721,7.802,5.721,13.889c0,5.9-1.86,10.509-5.577,13.839
		C2063.157,187.276,2058.719,188.941,2053.562,188.941z M2072.498,228.54v110.792c0,7.658-1.824,13.455-5.457,17.398
		c-3.628,3.938-8.287,5.907-13.909,5.907c-5.62,0-10.187-2.047-13.653-6.051c-3.55-4.008-5.28-9.771-5.28-17.255V229.669
		c0-7.592,1.73-13.301,5.28-17.132c3.469-3.852,8.033-5.767,13.653-5.767c5.623,0,10.283,1.915,13.909,5.767
		C2070.673,216.367,2072.498,221.701,2072.498,228.54z"/>
	<path opacity="0.8" fill="#F58021" enable-background="new    " d="M2112.096,339.333v-166.25c0-7.679,1.742-13.48,5.14-17.419
		c3.395-3.918,8.04-5.887,13.84-5.887c5.796,0,10.488,1.932,14.033,5.814c3.539,3.886,5.334,9.724,5.334,17.492v166.25
		c0,7.769-1.811,13.585-5.426,17.445c-3.577,3.906-8.254,5.86-13.94,5.86c-5.622,0-10.19-2.049-13.695-6.053
		C2113.872,352.58,2112.096,346.814,2112.096,339.333z"/>
</g>
</svg>
