<?xml version="1.0" encoding="utf-8"?>
<!-- Generator: Adobe Illustrator 16.0.0, SVG Export Plug-In . SVG Version: 6.00 Build 0)  -->
<!DOCTYPE svg PUBLIC "-//W3C//DTD SVG 1.1//EN" "http://www.w3.org/Graphics/SVG/1.1/DTD/svg11.dtd">
<svg version="1.1" id="Layer_1" xmlns="http://www.w3.org/2000/svg" xmlns:xlink="http://www.w3.org/1999/xlink" x="0px" y="0px"
	 width="2015.66px" height="405.041px" viewBox="0 0 2015.66 405.041" enable-background="new 0 0 2015.66 405.041"
	 xml:space="preserve">
<g transform="matrix(1.25 0 0 -1.25 0 45)">
	<g>
		<g>
			<g>
				<path fill="#1B8EFF" stroke="#1B8EFF" stroke-width="12" stroke-miterlimit="10" d="M272.291-11.586
					c0-17.446-14.151-31.586-31.586-31.586c-17.436,0-31.587,14.14-31.587,31.586C209.118,5.859,223.269,20,240.705,20
					C258.14,20,272.291,5.86,272.291-11.586"/>
				<path fill="#1B8EFF" stroke="#1B8EFF" stroke-width="12" stroke-miterlimit="10" d="M93.935-75.39l24.922,24.91l40.63-12.182
					l-27.745-29.973c18.595-7.307,34.555-19.742,46.241-35.578l52.813,52.823c3.927,3.927,5.518,9.644,4.148,15.024
					c-1.359,5.391-5.455,9.676-10.77,11.266L118.898-17.514c-5.57,1.685-11.602,0.159-15.709-3.959L71.602-53.059
					c-6.17-6.16-6.17-16.162,0-22.331C77.774-81.559,87.764-81.559,93.935-75.39"/>
				<path fill="#1B8EFF" stroke="#1B8EFF" stroke-width="12" stroke-miterlimit="10" d="M263.026-127.498
					c-3.327,3.782-8.287,5.78-13.288,5.298l-71.448-6.497c6.655-9.129,11.95-19.298,15.414-30.314l37.355,3.391l-16.363-73.648
					c-1.894-8.519,3.475-16.938,11.992-18.836c1.147-0.252,2.307-0.38,3.433-0.38c7.255,0,13.771,5.003,15.405,12.373l21.058,94.757
					C267.68-136.435,266.353-131.287,263.026-127.498"/>
				<path fill="#1B8EFF" stroke="#1B8EFF" stroke-width="12" stroke-miterlimit="10" d="M93.293-253.746
					c-34.882,0-63.173,28.28-63.173,63.173c0,34.891,28.291,63.183,63.173,63.183c34.891,0,63.184-28.292,63.184-63.183
					C156.475-225.466,128.185-253.746,93.293-253.746 M93.293-106.342c-46.516,0-84.22-37.716-84.22-84.23
					c0-46.516,37.704-84.23,84.22-84.23c46.527,0,84.239,37.713,84.239,84.23C177.532-144.059,139.818-106.342,93.293-106.342"/>
			</g>
		</g>
	</g>
</g>
<g>
	<path fill="#1B8EFF" d="M550.805,220.073c-9.271,7.193-18.198,12.576-26.863,16.195c-8.666,3.614-18.391,5.428-29.124,5.428
		c-9.85,0-18.498-1.953-25.899-5.859c-7.446-3.859-13.192-9.145-17.198-15.764c-4.057-6.66-6.06-13.854-6.06-21.626
		c0-10.488,3.331-19.442,9.946-26.813c6.663-7.414,15.794-12.357,27.396-14.896c2.438-0.575,8.486-1.826,18.114-3.797
		c9.627-1.968,17.922-3.766,24.797-5.398c6.872-1.631,14.342-3.618,22.396-5.965c-0.464-10.116-2.525-17.523-6.104-22.25
		c-3.619-4.725-11.081-7.089-22.396-7.089c-9.739,0-17.063,1.361-22.01,4.063c-4.901,2.724-9.131,6.784-12.641,12.229
		c-3.508,5.423-5.979,9.004-7.397,10.723c-1.479,1.734-4.564,2.613-9.371,2.613c-4.294,0-7.992-1.399-11.147-4.156
		c-3.152-2.754-4.71-6.279-4.71-10.597c0-6.729,2.4-13.279,7.158-19.654c4.798-6.373,12.205-11.597,22.346-15.715
		c10.098-4.132,22.701-6.185,37.771-6.185c16.822,0,30.068,1.996,39.693,5.968c9.672,3.974,16.444,10.276,20.469,18.886
		c3.979,8.611,5.963,20.032,5.963,34.265c0,8.974-0.021,16.61-0.096,22.875c-0.029,6.264-0.122,13.248-0.192,20.903
		c0,7.238,1.201,14.737,3.561,22.539c2.398,7.851,3.604,12.876,3.604,15.088c0,3.938-1.844,7.544-5.57,10.765
		c-3.687,3.221-7.854,4.854-12.545,4.854c-3.938,0-7.804-1.89-11.678-5.572C559.183,232.44,555.144,227.093,550.805,220.073z
		 M548.305,164.617c-5.621,2.037-13.813,4.199-24.511,6.49c-10.702,2.338-18.136,4.021-22.25,5.092
		c-4.118,1.074-8.061,3.188-11.817,6.296c-3.719,3.159-5.58,7.498-5.58,13.12c0,5.798,2.184,10.763,6.587,14.847
		c4.403,4.037,10.131,6.104,17.256,6.104c7.598,0,14.598-1.666,20.999-4.998c6.402-3.332,11.117-7.604,14.128-12.832
		c3.432-5.844,5.188-15.359,5.188-28.643V164.617L548.305,164.617z"/>
	<path fill="#1B8EFF" d="M762.251,194.221c0,4.76-1.406,9.885-4.271,15.332c-2.865,5.397-7.194,10.568-13.071,15.474
		c-5.832,4.949-13.188,8.908-22.104,11.871c-8.877,3.017-18.902,4.521-30.035,4.521c-23.661,0-42.179-6.938-55.454-20.712
		c-13.278-13.821-19.938-32.312-19.938-55.554c0-15.713,3.043-29.604,9.128-41.688c6.088-12.063,14.896-21.408,26.386-28.016
		c11.53-6.584,25.271-9.876,41.275-9.876c9.914,0,19.029,1.451,27.338,4.349c8.271,2.899,15.287,6.642,21.059,11.223
		c5.769,4.582,10.125,9.468,13.169,14.681c3.043,5.189,4.563,10.021,4.563,14.516c0,4.603-1.697,8.488-5.101,11.652
		c-3.438,3.188-7.572,4.783-12.44,4.783c-3.188,0-5.813-0.826-7.935-2.455c-2.115-1.646-4.458-4.275-7.065-7.928
		c-4.688-7.127-9.572-12.461-14.697-16.004c-5.078-3.563-11.58-5.334-19.414-5.334c-11.354,0-20.485,4.421-27.396,13.264
		c-6.948,8.843-10.381,20.943-10.381,36.306c0,7.197,0.896,13.793,2.646,19.853c1.794,6.053,4.376,11.166,7.731,15.426
		c3.362,4.264,7.451,7.521,12.207,9.708c4.764,2.184,10.025,3.313,15.716,3.313c7.702,0,14.271-1.791,19.75-5.335
		c5.479-3.586,10.285-8.985,14.519-16.292c2.354-4.339,4.866-7.702,7.593-10.142c2.728-2.434,6.051-3.65,9.948-3.65
		c4.688,0,8.598,1.795,11.677,5.337C760.718,186.421,762.251,190.216,762.251,194.221z"/>
	<path fill="#1B8EFF" d="M902.675,173.172h-74.973c0.063,8.698,1.845,16.357,5.241,23.021c3.44,6.664,7.941,11.632,13.646,15.039
		c5.647,3.363,11.896,5.047,18.736,5.047c4.581,0,8.748-0.561,12.544-1.633c3.799-1.069,7.468-2.756,11.056-5.049
		c3.54-2.287,6.794-4.738,9.809-7.354c3.01-2.656,6.866-6.197,11.67-10.668c1.93-1.729,4.764-2.548,8.417-2.548
		c3.938,0,7.122,1.076,9.521,3.222c2.432,2.147,3.646,5.19,3.646,9.131c0,3.479-1.314,7.496-4.039,12.157
		c-2.721,4.61-6.82,9.054-12.299,13.313c-5.479,4.262-12.354,7.783-20.617,10.617c-8.313,2.785-17.813,4.23-28.593,4.23
		c-24.639,0-43.748-7.064-57.429-21.1c-13.687-14.033-20.479-33.078-20.479-57.142c0-11.309,1.688-21.817,5.049-31.503
		c3.361-9.694,8.271-18.011,14.733-24.928c6.46-6.928,14.404-12.234,23.854-15.942c9.448-3.685,19.938-5.538,31.479-5.538
		c14.961,0,27.793,3.159,38.539,9.479c10.703,6.319,18.739,14.482,24.073,24.497c5.334,10.017,7.979,20.219,7.979,30.611
		c0,9.641-2.757,15.889-8.268,18.752C920.469,171.718,912.698,173.172,902.675,173.172z M827.703,151.402h69.489
		c-0.932-13.102-4.454-22.912-10.619-29.41c-6.12-6.52-14.189-9.756-24.222-9.756c-9.515,0-17.38,3.292-23.5,9.899
		C832.735,128.722,828.986,138.478,827.703,151.402z"/>
	<path fill="#1B8EFF" d="M1089.948,191.577c0,10.559-2.577,19.594-7.688,27.15c-5.159,7.517-12.771,13.25-22.824,17.104
		c-10.063,3.904-22.329,5.857-36.719,5.857c-13.745,0-25.563-2.109-35.366-6.345c-9.854-4.229-17.101-9.468-21.771-15.812
		c-4.688-6.297-7.013-12.651-7.013-18.981c0-4.229,1.459-7.849,4.467-10.813c3.018-3.012,6.813-4.516,11.395-4.516
		c4.005,0,7.118,1.006,9.271,2.933c2.146,1.97,4.188,4.725,6.151,8.313c3.938,6.842,8.646,11.919,14.129,15.28
		c5.479,3.362,12.939,5.05,22.396,5.05c7.654,0,13.979-1.697,18.894-5.098c4.896-3.441,7.351-7.318,7.351-11.726
		c0-6.729-2.563-11.676-7.642-14.752c-5.127-3.076-13.521-6.055-25.229-8.844c-13.171-3.25-23.934-6.711-32.195-10.332
		c-8.271-3.572-14.914-8.354-19.855-14.229c-4.975-5.911-7.438-13.159-7.438-21.771c0-7.68,2.289-14.93,6.87-21.77
		c4.578-6.839,11.323-12.278,20.277-16.361c8.953-4.063,19.75-6.104,32.348-6.104c9.959,0,18.852,1.042,26.768,3.1
		c7.913,2.06,14.497,4.815,19.799,8.268c5.307,3.476,9.313,7.305,12.063,11.533c2.762,4.205,4.139,8.322,4.139,12.35
		c0,4.407-1.443,8.001-4.424,10.813c-2.936,2.812-7.117,4.204-12.54,4.204c-3.938,0-7.29-1.128-10.048-3.363
		c-2.758-2.258-5.929-5.623-9.469-10.116c-2.896-3.739-6.34-6.729-10.231-8.986c-3.938-2.234-9.271-3.363-16.051-3.363
		c-6.903,0-12.675,1.465-17.254,4.421c-4.582,2.955-6.871,6.623-6.871,11.027c0,4.018,1.686,7.321,5.049,9.899
		c3.36,2.558,7.91,4.688,13.604,6.369c5.729,1.691,13.61,3.765,23.593,6.195c11.889,2.901,21.605,6.368,29.166,10.379
		c7.519,4.01,13.248,8.793,17.107,14.271C1087.995,178.269,1089.948,184.516,1089.948,191.577z"/>
	<path fill="#1B8EFF" d="M1245.792,191.577c0,10.559-2.574,19.594-7.688,27.15c-5.157,7.517-12.77,13.25-22.823,17.104
		c-10.063,3.904-22.328,5.857-36.72,5.857c-13.789,0-25.563-2.109-35.371-6.345c-9.85-4.229-17.115-9.468-21.769-15.812
		c-4.692-6.297-7.021-12.651-7.021-18.981c0-4.229,1.496-7.849,4.471-10.813c3.018-3.012,6.812-4.516,11.394-4.516
		c4.005,0,7.082,1.006,9.271,2.933c2.146,1.97,4.188,4.725,6.153,8.313c3.938,6.842,8.646,11.919,14.128,15.28
		c5.479,3.362,12.938,5.05,22.396,5.05c7.652,0,13.938-1.697,18.887-5.098c4.904-3.441,7.354-7.318,7.354-11.726
		c0-6.729-2.563-11.676-7.646-14.752c-5.121-3.076-13.521-6.055-25.196-8.844c-13.193-3.25-23.959-6.711-32.229-10.332
		c-8.271-3.572-14.913-8.354-19.853-14.229c-4.979-5.911-7.446-13.159-7.446-21.771c0-7.68,2.288-14.93,6.867-21.77
		c4.581-6.839,11.326-12.278,20.28-16.361c8.953-4.063,19.707-6.104,32.371-6.104c9.937,0,18.823,1.042,26.735,3.1
		c7.913,2.06,14.498,4.815,19.803,8.268c5.303,3.476,9.31,7.305,12.063,11.533c2.757,4.205,4.135,8.322,4.135,12.35
		c0,4.407-1.438,8.001-4.426,10.813c-2.934,2.812-7.103,4.204-12.543,4.204c-3.938,0-7.286-1.128-10.043-3.363
		c-2.761-2.258-5.933-5.623-9.47-10.116c-2.896-3.739-6.344-6.729-10.28-8.986c-3.896-2.234-9.229-3.363-15.988-3.363
		c-6.918,0-12.688,1.465-17.271,4.421c-4.582,2.955-6.873,6.623-6.873,11.027c0,4.018,1.688,7.321,5.052,9.899
		c3.361,2.558,7.911,4.688,13.646,6.369c5.688,1.691,13.563,3.765,23.552,6.195c11.888,2.901,21.607,6.368,29.166,10.379
		c7.516,4.01,13.203,8.793,17.109,14.271C1243.885,178.269,1245.792,184.516,1245.792,191.577z"/>
	<path fill="#1B8EFF" d="M1421.728,163.754c0,11.425-1.794,21.947-5.334,31.573c-3.542,9.676-8.697,17.939-15.429,24.895
		c-6.772,6.905-14.781,12.228-24.173,15.904c-9.341,3.686-19.862,5.572-31.571,5.572c-11.608,0-22.063-1.904-31.332-5.621
		c-9.271-3.764-17.271-9.115-24.075-16.1c-6.761-6.98-11.919-15.22-15.429-24.704c-3.506-9.482-5.283-19.992-5.283-31.524
		c0-11.597,1.793-22.233,5.334-31.86c3.59-9.649,8.668-17.884,15.332-24.725c6.614-6.814,14.674-12.088,24.125-15.787
		c9.448-3.707,19.908-5.55,31.332-5.55c11.598,0,22.117,1.885,31.57,5.623c9.451,3.74,17.541,9.075,24.313,16.003
		c6.729,6.93,11.825,15.162,15.332,24.702C1419.993,141.721,1421.728,152.255,1421.728,163.754z M1383.235,163.754
		c0-15.634-3.411-27.8-10.283-36.499c-6.873-8.697-16.133-13.047-27.729-13.047c-7.481,0-14.108,1.933-19.8,5.815
		c-5.733,3.885-10.144,9.612-13.216,17.204c-3.074,7.569-4.609,16.421-4.609,26.527c0,10.029,1.521,18.76,4.563,26.24
		c3.042,7.524,7.369,13.229,13.022,17.202c5.699,3.975,12.334,5.966,20.034,5.966c11.602,0,20.854-4.349,27.729-13.125
		C1379.822,191.309,1383.235,179.182,1383.235,163.754z"/>
	<path opacity="0.8" fill="#F58021" enable-background="new    " d="M1448.829,89.195h9.127V77.686
		c0-11.975,1.521-21.497,4.566-28.57c3.043-7.071,8.157-12.207,15.427-15.45c7.271-3.221,17.203-4.831,29.843-4.831
		c22.381,0,33.549,5.479,33.549,16.413c0,3.565-1.146,6.607-3.511,9.13c-2.319,2.525-5.077,3.797-8.271,3.797
		c-1.503,0-4.084-0.288-7.734-0.841c-3.647-0.554-6.729-0.842-9.271-0.842c-6.905,0-11.345,2.042-13.313,6.104
		c-1.973,4.084-2.979,9.898-2.979,17.491v9.107h9.418c14.604,0,21.912,4.406,21.912,13.215c0,6.265-1.953,10.236-5.813,11.919
		c-3.907,1.686-9.261,2.531-16.1,2.531h-9.418v101.535c0,7.545-1.771,13.328-5.388,17.306c-3.616,4.021-8.252,6.006-13.979,6.006
		c-5.399,0-9.938-1.979-13.558-6.006c-3.571-3.978-5.387-9.759-5.387-17.306V116.86h-10.521c-5.732,0-10.142-1.273-13.216-3.853
		s-4.611-5.927-4.611-10.044C1429.608,93.801,1436.014,89.195,1448.829,89.195z"/>
	<path opacity="0.8" fill="#F58021" enable-background="new    " d="M1644.564,220.073c-9.271,7.193-18.244,12.576-26.91,16.195
		c-8.666,3.614-18.349,5.428-29.121,5.428c-9.854,0-18.454-1.953-25.899-5.859c-7.446-3.859-13.196-9.145-17.202-15.764
		c-4.046-6.66-6.059-13.854-6.059-21.626c0-10.488,3.33-19.442,9.994-26.813c6.615-7.414,15.75-12.357,27.351-14.896
		c2.438-0.575,8.483-1.826,18.111-3.797c9.672-1.968,17.924-3.766,24.799-5.398c6.87-1.631,14.338-3.618,22.396-5.965
		c-0.464-10.116-2.484-17.523-6.104-22.25c-3.616-4.725-11.082-7.089-22.396-7.089c-9.738,0-17.063,1.361-21.964,4.063
		c-4.904,2.724-9.131,6.784-12.643,12.229c-3.509,5.423-6.009,9.004-7.444,10.723c-1.479,1.734-4.565,2.613-9.322,2.613
		c-4.341,0-8.046-1.399-11.194-4.156c-3.104-2.754-4.707-6.279-4.707-10.597c0-6.729,2.399-13.279,7.203-19.654
		c4.761-6.373,12.208-11.597,22.302-15.715c10.096-4.132,22.699-6.185,37.771-6.185c16.824,0,30.111,1.996,39.74,5.968
		c9.627,3.974,16.447,10.276,20.424,18.886c3.977,8.611,5.961,20.032,5.961,34.265c0,8.974-0.021,16.61-0.053,22.875
		c-0.077,6.264-0.127,13.248-0.235,20.903c0,7.238,1.2,14.737,3.604,22.539c2.354,7.851,3.561,12.876,3.561,15.088
		c0,3.938-1.845,7.544-5.523,10.765c-3.732,3.221-7.896,4.854-12.597,4.854c-3.938,0-7.803-1.89-11.631-5.572
		C1652.941,232.44,1648.857,227.093,1644.564,220.073z M1642.019,164.617c-5.624,2.037-13.768,4.199-24.511,6.49
		c-10.701,2.338-18.137,4.021-22.25,5.092c-4.119,1.074-8.063,3.188-11.773,6.296c-3.766,3.159-5.623,7.498-5.623,13.12
		c0,5.798,2.178,10.763,6.585,14.847c4.403,4.037,10.172,6.104,17.261,6.104c7.589,0,14.589-1.666,20.993-4.998
		c6.407-3.332,11.118-7.604,14.13-12.832c3.477-5.844,5.188-15.359,5.188-28.643V164.617L1642.019,164.617z M1618.996,30.807h18.938
		c4.807,0,7.16,0.696,7.16,2.091c0,0.754-2.61,3.796-7.834,9.13c-5.271,5.334-10.524,10.438-15.858,15.307
		c-5.373,4.87-9.063,7.825-11.101,8.843c-5.336,2.725-11.067,4.086-17.151,4.086c-4.008,0-6.011-1.185-6.011-3.531
		c0-1.57,1.215-4.349,3.646-8.266l6.301-11.799c3.648-6.839,6.84-11.188,9.563-13.047
		C1609.369,31.735,1613.486,30.807,1618.996,30.807z"/>
	<path opacity="0.8" fill="#F58021" enable-background="new    " d="M1856.01,194.221c0,4.76-1.457,9.885-4.28,15.332
		c-2.863,5.397-7.233,10.568-13.065,15.474c-5.88,4.949-13.229,8.908-22.104,11.871c-8.924,3.017-18.949,4.521-30.084,4.521
		c-23.661,0-42.135-6.938-55.454-20.712c-13.278-13.821-19.938-32.312-19.938-55.554c0-15.713,3.043-29.604,9.127-41.688
		c6.087-12.063,14.896-21.408,26.431-28.016c11.485-6.584,25.274-9.876,41.276-9.876c9.913,0,19.022,1.451,27.296,4.349
		c8.268,2.899,15.279,6.642,21.051,11.223c5.766,4.582,10.172,9.468,13.215,14.681c3.043,5.189,4.563,10.021,4.563,14.516
		c0,4.603-1.697,8.488-5.146,11.652c-3.396,3.188-7.574,4.783-12.4,4.783c-3.188,0-5.854-0.826-7.973-2.455
		c-2.063-1.646-4.457-4.275-7.063-7.928c-4.693-7.127-9.579-12.461-14.7-16.004c-5.085-3.563-11.586-5.334-19.418-5.334
		c-11.345,0-20.439,4.421-27.396,13.264c-6.903,8.843-10.384,20.943-10.384,36.306c0,7.197,0.896,13.793,2.646,19.853
		c1.793,6.053,4.375,11.166,7.735,15.426c3.359,4.264,7.446,7.521,12.204,9.708c4.807,2.184,10.023,3.313,15.768,3.313
		c7.65,0,14.228-1.791,19.702-5.335c5.479-3.586,10.33-8.985,14.558-16.292c2.322-4.339,4.828-7.702,7.547-10.142
		c2.729-2.434,6.061-3.65,9.998-3.65c4.646,0,8.559,1.795,11.632,5.337C1854.427,186.421,1856.01,190.216,1856.01,194.221z"/>
	<path opacity="0.8" fill="#F58021" enable-background="new    " d="M1908.778,68.002c-5.334,0-9.896-1.626-13.696-4.902
		c-3.796-3.275-5.675-7.913-5.675-13.911c0-5.422,1.953-9.9,5.818-13.407c3.898-3.509,8.393-5.262,13.553-5.262
		c4.979,0,9.384,1.595,13.216,4.781c3.827,3.164,5.722,7.802,5.722,13.889c0,5.899-1.855,10.509-5.573,13.839
		C1918.37,66.337,1913.934,68.002,1908.778,68.002z M1927.716,107.601v110.792c0,7.654-1.824,13.453-5.457,17.396
		c-3.631,3.938-8.287,5.905-13.908,5.905s-10.188-2.047-13.653-6.051c-3.549-4.011-5.274-9.771-5.274-17.254V108.729
		c0-7.592,1.729-13.301,5.274-17.132c3.474-3.853,8.032-5.768,13.653-5.768c5.623,0,10.281,1.915,13.908,5.768
		C1925.889,95.429,1927.716,100.763,1927.716,107.601z"/>
	<path opacity="0.8" fill="#F58021" enable-background="new    " d="M1967.312,218.394V52.144c0-7.68,1.741-13.48,5.142-17.419
		c3.396-3.918,8.039-5.888,13.845-5.888c5.795,0,10.483,1.933,14.028,5.814c3.539,3.886,5.334,9.724,5.334,17.492v166.25
		c0,7.769-1.813,13.584-5.427,17.438c-3.577,3.906-8.254,5.859-13.938,5.859c-5.621,0-10.188-2.051-13.693-6.058
		C1969.089,231.642,1967.312,225.875,1967.312,218.394z"/>
</g>
<g>
	<path fill="#536273" d="M1346.552,330.864c0,16.074-34.688,54.143-110.543,58.373c-20.304,1.129-48.504-5.639-48.504-31.301
		c0-9.025-1.41-10.438,31.302-53.58c-7.896-0.564-25.942-1.41-25.942-10.998c0-12.127,39.479-12.691,47.938-15.229
		c18.33-17.766,36.938-41.455,65.143-41.455c-1.976,4.795-3.948,8.461-27.354,35.814c63.729-8.742,78.677-27.919,78.11-35.531
		c-0.28-6.204-8.179-16.074-40.89-13.817c-6.486,0.563-36.379,4.229-79.242,19.739c1.691,0.847,3.948,1.976,3.948,4.229
		c0,4.229-6.485,5.923-10.151,6.482c-17.481,2.82-22.842,5.359-39.195,10.719c-2.538,0.847-5.643,1.976-8.741,1.976
		c-4.795,0-7.052-2.82-7.052-7.615c0-1.973,4.229-12.125,12.975-23.688c5.922-7.896,14.1-18.608,23.688-22.274
		c27.354-10.435,80.088-21.432,109.416-21.432c48.504,0,60.064,19.176,60.064,34.406c0,45.686-85.445,57.243-118.439,63.729
		l-5.64,5.073C1277.465,298.151,1346.552,303.792,1346.552,330.864z M1229.241,325.788c-3.666,3.947-9.87,10.152-9.87,16.074
		c0,12.125,22.277,15.51,31.305,15.51c25.099-0.283,64.015-18.613,64.015-29.893c0-14.664-58.092-18.896-69.654-18.896
		L1229.241,325.788z"/>
	<path fill="#536273" d="M1380.11,324.942c-9.87,15.51-21.714,22.842-33.84,34.967l-1.129-12.408
		c7.332-5.922,13.255-12.971,18.611-20.586c-5.925-0.563-7.613-2.82-7.613-8.742c0-20.303,28.765-40.607,35.531-40.607
		c2.817,0,5.073,2.259,5.073,4.795c0,2.818-0.847,5.357-1.975,7.896c26.508-3.666,42.018-7.049,44.838-3.666
		c4.229,5.359,6.204,9.871,6.771,14.947c0,8.74-5.356,12.971-11.847,18.33c-8.178,7.049-21.995,20.865-21.995,32.146
		c0,4.514,4.515,7.896,8.741,7.896c12.126,0,29.896-18.33,39.198-25.379l1.974,10.434c-10.716,12.125-43.146,43.429-59.22,43.429
		c-11.845,0-19.177-10.998-19.177-21.715c0-19.177,14.664-34.121,25.942-47.656l-0.563-0.563L1380.11,324.942z"/>
	<path fill="#536273" d="M1504.469,366.96c-5.357,4.23-23.405,18.895-29.895,18.895c-7.896,0-24.252-18.61-24.813-33.272
		c-1.128-35.25,72.189-71.349,104.9-72.188c12.975-0.281,18.33,10.149,18.33,13.532c0,3.388-7.332,6.205-9.869,7.054
		c5.357,2.256,8.18,5.354,8.18,11.563c0,9.023-24.532,28.764-24.532,42.018c0,4.795,4.229,6.771,8.74,6.771
		c11.846,0,27.918-14.384,40.044-22.563l2.256,10.438c-12.126,13.813-49.913,43.989-63.73,43.989
		c-9.306,0-13.536-6.77-13.536-14.944c0-9.021,6.771-23.972,10.438-31.582l-0.564-0.563L1504.469,366.96z M1470.348,359.628
		c0.281,1.41,1.409,6.486,5.64,5.641c5.644-1.129,14.384-0.283,70.218-56.684l-0.563-0.563
		C1478.525,328.608,1470.348,345.81,1470.348,359.628z"/>
	<path fill="#536273" d="M1693.973,337.632l2.818,10.717c-17.201,17.201-47.938,42.863-70.498,41.734
		c-18.896-0.846-39.765-11.563-44.841-32.146c-1.689,1.691-3.666,3.666-6.202,3.666c-2.818,0-4.793-2.817-4.793-5.356
		c0-3.666,4.512-7.613,6.768-9.869l61.193-56.119c0.563-9.305,5.923-18.329,16.071-18.329c8.46,0,10.152,2.538,10.998,10.438
		c1.128,10.715,5.357,20.303,5.357,32.711c0,23.123-18.611,40.326-36.659,51.324c18.048,3.102,29.046-5.359,42.862-15.793
		L1693.973,337.632z M1598.094,343.554c10.435,0.564,16.639,9.307,21.996,16.639c16.92-10.436,21.433-15.229,22.274-31.584
		c-0.846-5.922-1.974-13.532-3.666-23.123L1598.094,343.554z"/>
	<path fill="#536273" d="M1776.598,349.476c-12.69,15.51-37.507,40.894-58.938,40.894c-16.638,0-24.252-19.179-24.252-33.562
		c0-34.404,35.25-67.961,52.171-67.961c4.793,0,12.406,1.691,12.406,7.896c0,14.1-27.917,39.197-39.762,47.375
		c-2.256,11.561,1.975,17.766,14.945,17.766c14.943,0,29.606-14.945,40.891-23.125L1776.598,349.476z M1749.525,271.079
		c0-11.561,13.536-21.713,24.534-21.713c5.076,0,9.306,3.666,9.306,8.742c0,11.276-10.434,25.098-22.56,25.098
		C1754.037,283.206,1749.525,277.849,1749.525,271.079z"/>
	<path fill="#536273" d="M1865.145,344.399c-15.511,16.074-42.02,44.557-66.27,44.557c-20.589,0-25.102-20.021-25.102-36.66
		c0-29.609,12.689-61.477,31.021-84.035c24.813-30.738,51.604-56.963,60.629-56.963c4.794,0,5.922,6.768,5.642,10.434
		c-1.976,26.791-9.308,51.605-70.5,110.826c-2.538,4.793-3.384,12.689-1.975,19.457c2.538,6.486,6.482,12.127,14.101,12.127
		c15.51,0,37.227-18.049,48.504-28.201L1865.145,344.399z M1806.772,306.612c20.021-18.613,37.506-45.688,42.582-61.758
		c-13.818,6.768-29.895,32.146-43.146,61.19L1806.772,306.612z"/>
</g>
</svg>
