<svg xmlns="http://www.w3.org/2000/svg" xmlns:xlink="http://www.w3.org/1999/xlink" width="1920" height="338" viewBox="0 0 1920 338">
    <defs>
        <path id="a" d="M0 0h1920v338H0z"/>
        <linearGradient id="b" x1="48.015%" x2="48.015%" y1="36.04%" y2="75.248%">
            <stop offset="0%" stop-color="#FAFDFE"/>
            <stop offset="100%" stop-color="#FFF"/>
        </linearGradient>
        <filter id="d" width="107.1%" height="131.9%" x="-3.5%" y="-16%" filterUnits="objectBoundingBox">
            <feGaussianBlur in="SourceGraphic" stdDeviation="22.715"/>
        </filter>
    </defs>
    <g fill="none" fill-rule="evenodd">
        <mask id="c" fill="#fff">
            <use xlink:href="#a"/>
        </mask>
        <use fill="#FFF" xlink:href="#a"/>
        <path fill="url(#b)" d="M987.695-62.655c11.56-19.419 32.768-29.399 48.817-29.399 5.277 0 10.294 1.23 14.955 3.364 7.412-31.246 36.286-54.563 70.854-54.563 29.307 0 54.462 16.756 65.97 40.849 11.374-16.28 28.403-26.664 47.45-26.664 20.477 0 42.339 11.968 56.59 30.412 11.973-22.34 32.469-37.611 50.692-42.494 7.442-1.994 14.98-2.155 22.361-.908-1.355-46.864 30.553-90.656 79.3-103.718 41.33-11.074 83.135 3.05 108.467 32.677 7.075-19.499 19.34-35.905 35.6-46.26 6.532.024 116.949.024 331.249 0v600H0v-600c235.569-2.188 355.254-2.188 359.055 0 18.115 10.428 32.063 27.25 38.224 46.61 12.734-.757 26.148.607 39.58 4.458 40.209 11.53 68.643 41.62 74.076 74.031 29.039-13.779 54.595-11.671 69.27-2.854 4.523 2.718 8.19 6.356 11.087 10.585 22.445-22.966 59.204-28.08 88.835-10.277 25.12 15.094 38.053 42.413 35.508 68.991 10.213-4.56 21-6.592 31.391-5.746a82.913 82.913 0 0 1 17.706-6.995c27.749-7.435 55.96.184 76.014 17.831 10.526-7.208 22.726-12.947 36.223-16.564 35.405-9.486 70.4-2.1 92.882 16.682 5.868-.503 11.834-.53 17.844-.048z" mask="url(#c)"/>
        <path fill="#FFF" d="M1370.018 170.15c10.126-17.089 30.217-20.715 43.551-15.15.457-2.26 1.336-4.412 2.731-6.333 4.528-6.232 14.743-11.598 29.194-10.997-3.449-14.38 3.038-31.841 17.666-43.686 4.886-3.957 10.202-6.88 15.61-8.805-1.12-11.968 3.567-24.253 13.613-32.388 9.476-7.674 21.58-9.926 32.554-7.148-2.576-21.54 9.634-52.657 50.737-64.303 26.834-7.603 45.372 1.346 57.397 7.626 6.825-16.255 18.263-31.774 33.873-44.414 10.858-8.793 22.673-15.29 34.69-19.568-2.489-26.596 7.93-53.899 30.255-71.978 21.06-17.054 47.96-22.059 72.349-15.886-3.826-31.986 5-66.964 25.513-98.12H1920v600h-615.468c36.906-101.174 58.735-157.458 65.486-168.85zM476.756 29.443c15.278 12.513 24.608 30.348 26.4 49.065 6.474-1.052 12.992-.34 18.308 2.252 7.703 3.757 12.541 11.315 13.93 20.143 9.407-7.474 22.885-9.289 34.738-3.508 13.98 6.819 21.058 21.944 17.892 36.043 2.306.056 4.578.548 6.712 1.59 6.49 3.165 13.1 11.385 13.944 21.518a48.567 48.567 0 0 1 7.207 3.54c12.797-3.162 28.407.754 40.854 11.574 4.745 4.125 8.547 8.853 11.382 13.844 11.591-3.181 24.504-.698 34.26 7.782a37.308 37.308 0 0 1 5.78 6.322c4.37 1.707 8.332 4.657 11.563 8.516 4.213-11.251 104.07 36.395 59.3 130.876H0v-599.656h95.766c7.958 7.37 11.183 17.052 9.675 29.047 35.756-15.524 79.522-9.893 111.814 18.178 38.088 33.109 47.57 86.457 27.948 128.659 3.668-4.21 22.51-39.356 63.15-34.075 44.536 5.788 57.11 35.363 62.303 50.446a45.816 45.816 0 0 1 2.092 8.812c9.497.974 18.39 4.436 24.888 10.085 9.443 8.209 13.41 20.696 12.034 33.67 16.089-6.986 35.782-4.452 50.312 8.18 11.269 9.795 16.973 23.528 16.774 37.097z" mask="url(#c)"/>
        <path fill="#F6FAFB" d="M1146.977 135.119c5.77-12.283 16.917-22.126 31.34-25.99 18.596-4.983 37.407 1.372 48.805 14.703 4.45-12.264 13.49-21.748 25.576-24.986 8.317-2.229 17.828-1.443 26.79 1.846 17.023-18.283 41.29-39.353 83.856-25.032 38.842 13.069 40.369 52.918 41.82 58.31.865-46.533 32.773-90.325 81.52-103.387 41.33-11.074 83.135 3.05 108.467 32.677 9.89-27.255 29.98-48.334 56.84-55.53 18.483-4.953 39.62-3.206 59.538 4.102a101.822 101.822 0 0 1 12.764-15.563c25.068-25.068 59.978-34.193 92.257-27.507a237.257 237.257 0 0 1 12.326-13.28c19.8-19.8 41.882-35.164 64.522-45.886-9.668-42.465 0-62.55 26.602-62.55.463 65.894.463 194.74 0 386.54H.633C.576 3.654.547-134.183.547-179.923c0-4.752 29.206.684 43.87 4.889 43.79 12.557 75.93 45.988 88.779 86.35 20.209-1.202 41.479.963 62.785 7.073 58.36 16.734 101.086 58.13 114.52 104.432C330.539 7.61 357.256 1.707 383.306 9.176c27.614 7.919 47.872 28.98 55.973 54.434 12.734-.757 26.148.607 39.58 4.458 19.306 5.537 35.899 15.352 48.533 27.649 8.615-10.48 22.183-25.961 49.854-29.447 42.387-5.34 65.784 18.532 71.829 39.366 22.41 64.122 208.335 136.805 275.788 139.22 79.742 2.854 198.621-38.223 222.114-109.737z" filter="url(#d)" mask="url(#c)"/>
        <path fill="#FFF" d="M1146.977 155.119c5.77-12.283 16.917-22.126 31.34-25.99 18.596-4.983 37.407 1.372 48.805 14.703 4.45-12.264 13.49-21.748 25.576-24.986 8.317-2.229 17.828-1.443 26.79 1.846 17.023-18.283 41.29-39.353 83.856-25.032 38.842 13.069 40.369 52.918 41.82 58.31.865-46.533 32.773-90.325 81.52-103.387 41.33-11.074 83.135 3.05 108.467 32.677 9.89-27.255 29.98-48.334 56.84-55.53 18.483-4.953 39.62-3.206 59.538 4.102a101.822 101.822 0 0 1 12.764-15.563c25.068-25.068 59.978-34.193 92.257-27.507a237.257 237.257 0 0 1 12.326-13.28c19.8-19.8 41.882-35.164 64.522-45.886-9.668-42.465 0-62.55 26.602-62.55.463 65.894.463 223.212 0 471.954H.633C.576 52.125.547-114.183.547-159.923c0-4.752 29.206.684 43.87 4.889 43.79 12.557 75.93 45.988 88.779 86.35 20.209-1.202 41.479.963 62.785 7.073 58.36 16.734 101.086 58.13 114.52 104.432 20.038-15.211 46.755-21.114 72.805-13.645 27.614 7.919 47.872 28.98 55.973 54.434 12.734-.757 26.148.607 39.58 4.458 19.306 5.537 35.899 15.352 48.533 27.649 8.615-10.48 22.183-25.961 49.854-29.447 42.387-5.34 65.784 18.532 71.829 39.366 9.016-6.844 21.038-9.5 32.76-6.14 12.425 3.563 21.54 13.04 25.185 24.494 5.73-.34 11.766.273 17.81 2.006 18.092 5.188 30.887 18.727 33.331 33.311 13.067-6.2 24.566-5.252 31.17-1.284 15.088-5.571 31.628-7.872 44.96.138 11.304 6.792 17.123 19.085 15.978 31.044 4.596-2.052 9.45-2.966 14.125-2.586 20.453-6.493 33.148-3.064 42.171 4.876 4.736-3.243 10.226-5.826 16.299-7.453 15.93-4.268 31.677-.945 41.794 7.506 13.23-8.759 22.773-13.25 29.995-13.25 10.064-12.546 23.056-23.038 38.61-23.038 13.188 0 24.507 7.54 29.685 18.38 5.118-7.324 12.78-11.997 21.35-11.997 5.914 0 12.085 2.219 17.442 6.002 9.816-16.037 26.02-27.977 45.237-32.526z" mask="url(#c)"/>
    </g>
</svg>
