<?xml version="1.0" encoding="utf-8"?>
<!-- Generator: Adobe Illustrator 16.0.0, SVG Export Plug-In . SVG Version: 6.00 Build 0)  -->
<!DOCTYPE svg PUBLIC "-//W3C//DTD SVG 1.1//EN" "http://www.w3.org/Graphics/SVG/1.1/DTD/svg11.dtd">
<svg version="1.1" id="Layer_1" xmlns="http://www.w3.org/2000/svg" xmlns:xlink="http://www.w3.org/1999/xlink" x="0px" y="0px"
	 width="800px" height="198.918px" viewBox="0 0 800 198.918" enable-background="new 0 0 800 198.918" xml:space="preserve">
<path fill="#FFFFFF" d="M687.362,88.57c-2.364,0-4.668,0.246-6.922,0.634c-1.955-19.565-18.465-34.843-38.544-34.843
	c-8.662,0-16.634,2.878-23.085,7.683c-4.761-4.747-11.327-7.683-18.583-7.683c-5.936,0-11.396,1.988-15.799,5.307
	c-5.345-3.343-11.642-5.307-18.409-5.307c-14.472,0-26.87,8.838-32.117,21.41c-5.217-3.177-11.323-5.037-17.88-5.037
	c-19.054,0-34.5,15.449-34.5,34.502c0,1.563,0.142,3.095,0.342,4.604c-8.621,5.365-14.377,14.898-14.377,25.802
	c0,16.795,13.615,30.409,30.408,30.409c5.218,0,10.123-1.318,14.414-3.633c4.426,7.865,12.831,13.187,22.496,13.187
	c8.069,0,15.269-3.709,19.997-9.506c5.633,3.655,12.337,5.8,19.551,5.8c10.906,0,20.652-4.872,27.25-12.538
	c7.108,7.491,17.135,12.188,28.273,12.188c11.816,0,22.382-5.272,29.535-13.571c7.252,6.979,17.088,11.289,27.948,11.289
	c22.282,0,40.348-18.065,40.348-40.349C727.71,106.635,709.646,88.57,687.362,88.57z"/>
<path fill="#FFFFFF" d="M459.175,111.172c-0.146-0.019-0.292-0.019-0.438-0.037c1.184-3.033,2.067-6.229,2.521-9.6
	c3.064-22.787-12.927-43.739-35.71-46.8c-15.259-2.051-29.662,4.467-38.455,15.817c-5.318-3.609-11.505-6.105-18.311-7.023
	c-20.938-2.813-40.336,10.012-46.524,29.472c-16.348,4.979-29.155,19.047-31.578,37.092c-3.316,24.671,13.998,47.355,38.667,50.669
	c6.984,0.938,13.789,0.174,20.062-1.894c6.794,9.367,17.229,16.063,29.604,17.725c17.385,2.337,33.714-5.893,42.638-19.711
	c6.335,8.064,15.681,13.775,26.647,15.252c22.357,3.002,42.918-12.686,45.918-35.043
	C497.219,134.735,481.532,114.176,459.175,111.172z"/>
<path fill="#FFFFFF" d="M320.089,82.621c0-0.027,0.004-0.054,0.004-0.081c0-25.072-20.328-45.398-45.4-45.398
	c-17.033,0-31.855,9.394-39.622,23.271c-6.939-4.835-15.357-7.694-24.458-7.694c-20.525,0-37.659,14.443-41.839,33.716
	c-2.254-0.372-4.552-0.613-6.909-0.613c-23.261,0-42.116,18.854-42.116,42.115c0,23.263,18.855,42.117,42.116,42.117
	c8.289,0,15.993-2.431,22.509-6.562c5.825,7.367,14.822,12.111,24.943,12.111c9.314,0,17.668-4.029,23.483-10.412
	c6.673,6.436,15.734,10.412,25.735,10.412c12.908,0,24.268-6.604,30.914-16.605c7.725,6.859,17.859,11.056,28.999,11.056
	c24.17,0,43.76-19.593,43.76-43.757C362.208,102.682,343.489,83.49,320.089,82.621z"/>
</svg>
