<?xml version="1.0" encoding="utf-8"?>
<!-- Generator: Adobe Illustrator 16.0.0, SVG Export Plug-In . SVG Version: 6.00 Build 0)  -->
<!DOCTYPE svg PUBLIC "-//W3C//DTD SVG 1.1//EN" "http://www.w3.org/Graphics/SVG/1.1/DTD/svg11.dtd">
<svg version="1.1" id="Layer_1" xmlns="http://www.w3.org/2000/svg" xmlns:xlink="http://www.w3.org/1999/xlink" x="0px" y="0px"
	 width="800px" height="198.918px" viewBox="0 0 800 198.918" enable-background="new 0 0 800 198.918" xml:space="preserve">
<path fill="#FFFFFF" d="M35.419,111.504c-0.245-1.606-0.409-3.238-0.409-4.914c0-16.824,12.732-30.665,29.083-32.437
	c0-0.066-0.011-0.133-0.011-0.201c0-19.992,16.206-36.199,36.199-36.199c16.215,0,29.937,10.666,34.544,25.359
	c4.569-3.732,10.401-5.977,16.761-5.977c11.896,0,21.963,7.836,25.318,18.629c3.939-2.058,8.41-3.238,13.162-3.238
	c14.395,0,26.264,10.68,28.196,24.541c2.634-1.118,5.531-1.738,8.573-1.738c12.123,0,21.949,9.827,21.949,21.947
	c0,3.042-0.621,5.937-1.737,8.57c11.945,1.78,21.119,12.053,21.119,24.493c0,13.695-11.104,24.8-24.798,24.8
	c-6.619,0-12.614-2.608-17.061-6.833c-4.477,3.552-10.128,5.691-16.289,5.691c-8.107,0-15.352-3.684-20.163-9.465
	c-6.28,5.328-14.397,8.553-23.276,8.553c-7.464,0-14.396-2.268-20.148-6.153c-3.312,2.295-7.326,3.646-11.663,3.646
	c-7.517,0-14.072-4.055-17.647-10.086c-4.776,8.807-14.099,14.789-24.822,14.789c-10.705,0-20.013-5.961-24.797-14.742
	c-5.592,6.486-13.852,10.609-23.09,10.609c-16.843,0-30.498-13.656-30.498-30.5C13.917,126.939,22.966,115.344,35.419,111.504z"/>
<path fill="#FFFFFF" d="M792.5,93.62c0-17.154-11.787-31.523-27.693-35.549c-8.528-16.525-25.732-27.846-45.613-27.846
	c-7.232,0-14.11,1.516-20.354,4.215c-10.847-12.648-26.912-20.691-44.88-20.691c-18.306,0-34.664,8.326-45.511,21.389
	c-2.431-0.363-4.896-0.613-7.424-0.613c-17.208,0-32.383,8.709-41.361,21.957c-5.52-3.031-11.854-4.768-18.599-4.768
	c-18.02,0-33.115,12.344-37.413,29.02c-25.306,0.477-45.682,21.101-45.682,46.519c0,25.713,20.848,46.563,46.563,46.563
	c12.608,0,24.03-5.035,32.417-13.178c6.473,8.742,16.831,14.434,28.542,14.434c10.059,0,19.122-4.197,25.586-10.914
	c6.928,6.871,16.461,11.127,26.993,11.127c12.644,0,23.82-6.148,30.803-15.592c8.782,9.113,21.087,14.805,34.741,14.805
	c12.889,0,24.565-5.08,33.225-13.311c6.904,4.912,15.324,7.822,24.44,7.822c23.341,0,42.265-18.922,42.265-42.266
	c0-2.822-0.29-5.574-0.818-8.242C788.775,111.958,792.5,103.235,792.5,93.62z"/>
</svg>
