<?xml version="1.0" encoding="utf-8"?>
<!-- Generator: Adobe Illustrator 16.0.0, SVG Export Plug-In . SVG Version: 6.00 Build 0)  -->
<!DOCTYPE svg PUBLIC "-//W3C//DTD SVG 1.1//EN" "http://www.w3.org/Graphics/SVG/1.1/DTD/svg11.dtd">
<svg version="1.1" id="Layer_1" xmlns="http://www.w3.org/2000/svg" xmlns:xlink="http://www.w3.org/1999/xlink" x="0px" y="0px"
	 width="800px" height="198.919px" viewBox="0 0 800 198.919" enable-background="new 0 0 800 198.919" xml:space="preserve">
<path fill="#FFFFFF" d="M298.478,92.646c-2.17,0-4.265,0.308-6.27,0.837c0.245-1.362,0.393-2.756,0.393-4.188
	c0-11.974-8.875-21.851-20.398-23.477c0.001-0.087,0.013-0.171,0.013-0.261c0-14.962-12.129-27.091-27.091-27.091
	c-11.511,0-21.32,7.192-25.245,17.318c-2.356-0.851-4.888-1.341-7.539-1.341c-8.166,0-15.283,4.419-19.145,10.98
	c-4.612-3.422-10.303-5.47-16.485-5.47c-12.983,0-23.852,8.933-26.871,20.981c-0.289-0.01-0.571-0.044-0.862-0.044
	c-13.998,0-25.346,11.348-25.346,25.348c0,13.995,11.348,25.344,25.346,25.344c0.816,0,1.621-0.045,2.417-0.123
	c-0.128,1.04-0.214,2.094-0.214,3.17c0,14.261,11.56,25.823,25.822,25.823c9.491,0,17.763-5.137,22.25-12.765
	c1.584,0.282,3.205,0.453,4.87,0.453c8.132,0,15.424-3.519,20.498-9.093c2.294,0.555,4.675,0.882,7.138,0.882
	c2.188,0,4.32-0.245,6.379-0.688c3.585,8.656,12.107,14.748,22.059,14.748c10.966,0,20.183-7.402,22.981-17.475
	c4.203,3.341,9.513,5.351,15.3,5.351c13.593,0,24.61-11.017,24.61-24.609C323.088,103.666,312.071,92.646,298.478,92.646z"/>
<path fill="#FFFFFF" d="M585.732,65.75c-0.527,0-1.043,0.055-1.566,0.078c-2.311-15.479-15.623-27.362-31.746-27.362
	c-11.816,0-22.117,6.397-27.701,15.9c-3.455-2.709-7.799-4.339-12.529-4.339c-11.24,0-20.348,9.11-20.348,20.347
	c0,0.084,0.012,0.167,0.012,0.256c-12.879,0.24-23.248,10.737-23.248,23.676c0,12.522,9.721,22.752,22.025,23.614
	c3.891,13.017,15.945,22.513,30.229,22.513c5.002,0,9.711-1.196,13.914-3.266c4.184,3.41,9.516,5.463,15.334,5.463
	c9.477,0,17.66-5.438,21.66-13.354c4.25,1.968,8.971,3.1,13.965,3.1c18.398,0,33.314-14.916,33.314-33.313
	S604.131,65.75,585.732,65.75z"/>
</svg>
