<?xml version="1.0" encoding="utf-8"?>
<!-- Generator: Adobe Illustrator 16.0.0, SVG Export Plug-In . SVG Version: 6.00 Build 0)  -->
<!DOCTYPE svg PUBLIC "-//W3C//DTD SVG 1.1//EN" "http://www.w3.org/Graphics/SVG/1.1/DTD/svg11.dtd">
<svg version="1.1" id="Layer_1" xmlns="http://www.w3.org/2000/svg" xmlns:xlink="http://www.w3.org/1999/xlink" x="0px" y="0px"
	 width="1199px" height="426px" viewBox="0 0 1199 426" enable-background="new 0 0 1199 426" xml:space="preserve">
<g>
	<g>
		<g>
			<path fill="#FFFFFF" stroke="#B2B2B2" stroke-miterlimit="10" d="M184.293,145.529l-40.351-6.035
				c-0.015,0.098-0.114,0.083-0.129,0.184c0,0-41.115-1.599-53.627,19.176c32.126,22.5,83.088,29.922,83.088,29.922l179.898,26.909
				l269.304,40.282c14.736,2.203,63.271-3.883,63.271-3.883l333.43-11.907l4.24-4.018L234.199,118.11c0,0-39.313-6.891-69.396,6.304
				l22.153,3.313c4.945,0.74,8.309,5.288,7.569,10.232S189.138,146.254,184.293,145.529z"/>
		</g>
		<g>
			<path fill="#C7C7C7" stroke="#B2B2B2" stroke-miterlimit="10" d="M143.942,139.494l40.351,6.035
				c4.945,0.74,9.492-2.625,10.232-7.569s-2.625-9.493-7.569-10.232l-22.153-3.313C156.903,127.883,149.601,132.757,143.942,139.494
				z"/>
		</g>
	</g>
	<g>
		<path fill="#EBEBEB" stroke="#B2B2B2" stroke-miterlimit="10" d="M89.972,158.925c-0.557,1.029-1.199,1.944-1.673,3.085
			c0,0,4.177,33.588,46.058,45.617c0,0,44.661,13.048,110.331,22.872l299.764,44.838c0,0,63.238,9.863,180.474,6.165l231.742-13.466
			c0,0,29.766-1.614,39.115-5.979l23.295-21.896l-333.43,11.906c0,0-48.436,6.102-63.271,3.883L353.073,215.67l-179.899-26.909
			C173.175,188.761,122.212,181.339,89.972,158.925z"/>
	</g>
	<g>
		<polygon fill="#FFFFFF" stroke="#B2B2B2" stroke-miterlimit="10" points="1017.485,235.271 1098.246,124.602 1030.004,114.394 
			876.059,214.118 		"/>
	</g>
	<g>
		<polygon fill="#C7C7C7" stroke="#B2B2B2" stroke-miterlimit="10" points="940.795,243.013 990.787,245.435 1091.342,219.422 
			1042.781,212.159 898.311,217.445 		"/>
	</g>
	<g>
		<polygon fill="#C7C7C7" stroke="#B2B2B2" stroke-miterlimit="10" points="622.379,255.951 353.074,215.67 354.673,204.987 
			777.971,181.044 819.41,187.243 655.786,246.894 		"/>
	</g>
	<g>
		<g>
			<path fill="#4D4D4D" stroke="#B2B2B2" stroke-miterlimit="10" d="M548.467,247.828l38.113,10.857l1.687-11.274
				c-12.771-6.562-25.678-11.525-37.418-15.505L548.467,247.828z"/>
		</g>
		<g>
			<polygon fill="#5C5C5C" stroke="#B2B2B2" stroke-miterlimit="10" points="545.82,265.532 584.784,271.36 586.678,258.7 
				548.467,247.828 			"/>
		</g>
		<g>
			<polygon fill="#4D4D4D" stroke="#B2B2B2" stroke-miterlimit="10" points="543.157,283.334 582.876,284.116 584.784,271.36 
				545.82,265.532 			"/>
		</g>
		<g>
			<path fill="#5C5C5C" stroke="#B2B2B2" stroke-miterlimit="10" d="M543.269,283.247l-2.382,15.924
				c12.279-0.287,26.088-1.356,40.303-3.78l1.687-11.274L543.269,283.247z"/>
		</g>
	</g>
	<g>
		<path fill="#ADADAD" stroke="#B2B2B2" stroke-miterlimit="10" d="M549.305,242.899l1.642-10.979
			c-0.479-0.175-1.058-0.362-1.538-0.534c-25.444-8.355-44.828-11.256-44.828-11.256l-38.176-5.709
			c-6.726-1.006-13.207-0.259-19.09,1.895l-1.109,7.418C494.945,223.039,537.189,238.052,549.305,242.899z"/>
	</g>
	<g>
		<path fill="#C7C7C7" stroke="#B2B2B2" stroke-miterlimit="10" d="M446.092,223.82l-8.994,60.13
			c5.095,3.796,11.073,6.41,17.7,7.401l38.175,5.71c0,0,19.386,2.898,46.16,2.354c0.509-0.027,1.119-0.036,1.628-0.061l2.382-15.924
			l2.663-17.802l2.663-17.802l0.74-4.945C537.189,238.052,494.945,223.039,446.092,223.82z"/>
	</g>
	<g>
		<path fill="#C7C7C7" d="M251.815,140.261c4.154,0.621,7.014,4.487,6.393,8.641c-0.621,4.154-4.488,7.013-8.641,6.392
			c-4.154-0.621-7.014-4.488-6.393-8.641C243.796,142.5,247.662,139.639,251.815,140.261z"/>
	</g>
	<g>
		<path fill="#C7C7C7" d="M282.278,144.817c4.154,0.621,7.013,4.486,6.392,8.64c-0.622,4.154-4.487,7.013-8.64,6.392
			c-4.155-0.622-7.014-4.488-6.393-8.641S278.123,144.196,282.278,144.817z"/>
	</g>
	<g>
		<path fill="#C7C7C7" d="M312.738,149.373c4.155,0.622,7.013,4.487,6.392,8.641c-0.621,4.153-4.485,7.013-8.64,6.392
			c-4.155-0.622-7.014-4.488-6.393-8.64C304.718,151.612,308.583,148.752,312.738,149.373z"/>
	</g>
	<g>
		<path fill="#C7C7C7" d="M343.199,153.93c4.155,0.621,7.014,4.486,6.392,8.641c-0.621,4.153-4.486,7.013-8.641,6.392
			c-4.155-0.622-7.014-4.488-6.392-8.64C335.18,156.168,339.044,153.308,343.199,153.93z"/>
	</g>
	<g>
		<path fill="#C7C7C7" d="M373.561,158.471c4.155,0.622,7.013,4.487,6.392,8.641c-0.621,4.154-4.485,7.014-8.64,6.393
			c-4.155-0.622-7.014-4.488-6.393-8.641C365.542,160.71,369.406,157.849,373.561,158.471z"/>
	</g>
	<g>
		<path fill="#C7C7C7" d="M404.023,163.027c4.155,0.621,7.014,4.487,6.393,8.641c-0.622,4.154-4.486,7.013-8.641,6.392
			c-4.155-0.621-7.013-4.487-6.392-8.64C396.003,165.266,399.867,162.406,404.023,163.027z"/>
	</g>
	<g>
		<path fill="#C7C7C7" d="M556.229,185.794c4.154,0.621,7.013,4.487,6.392,8.641s-4.487,7.013-8.641,6.392
			c-4.155-0.622-7.014-4.488-6.393-8.64C548.209,188.033,552.075,185.173,556.229,185.794z"/>
	</g>
	<g>
		<path fill="#C7C7C7" d="M586.691,190.35c4.155,0.622,7.014,4.487,6.392,8.641c-0.621,4.154-4.486,7.013-8.641,6.392
			c-4.155-0.622-7.014-4.488-6.393-8.641S582.535,189.729,586.691,190.35z"/>
	</g>
	<g>
		<path fill="#C7C7C7" d="M617.151,194.906c4.156,0.622,7.016,4.487,6.394,8.641c-0.622,4.153-4.486,7.013-8.642,6.391
			c-4.154-0.621-7.013-4.487-6.392-8.64S612.996,194.285,617.151,194.906z"/>
	</g>
	<g>
		<path fill="#C7C7C7" d="M647.613,199.463c4.155,0.621,7.015,4.487,6.394,8.641c-0.621,4.153-4.487,7.013-8.643,6.391
			c-4.154-0.621-7.013-4.488-6.392-8.64C639.594,201.702,643.458,198.841,647.613,199.463z"/>
	</g>
	<g>
		<path fill="#C7C7C7" d="M677.975,204.004c4.154,0.621,7.014,4.487,6.393,8.641s-4.486,7.013-8.641,6.392
			c-4.156-0.622-7.014-4.488-6.393-8.641C669.955,206.243,673.82,203.382,677.975,204.004z"/>
	</g>
	<g>
		<path fill="#C7C7C7" d="M708.436,208.561c4.154,0.621,7.016,4.487,6.393,8.641c-0.621,4.154-4.486,7.013-8.641,6.392
			c-4.154-0.622-7.014-4.487-6.393-8.64C700.416,210.8,704.281,207.939,708.436,208.561z"/>
	</g>
	<g>
		<path fill="#C7C7C7" d="M738.897,213.117c4.154,0.622,7.014,4.487,6.393,8.641c-0.621,4.152-4.486,7.013-8.641,6.391
			c-4.154-0.621-7.014-4.487-6.393-8.64C730.877,215.355,734.742,212.495,738.897,213.117z"/>
	</g>
	<g>
		<path fill="#C7C7C7" d="M434.483,167.583c4.155,0.622,7.015,4.487,6.394,8.641c-0.622,4.154-4.488,7.013-8.643,6.392
			c-4.154-0.621-7.013-4.487-6.392-8.64C426.464,169.823,430.329,166.962,434.483,167.583z"/>
	</g>
	<g>
		<path fill="#C7C7C7" d="M464.945,172.14c4.154,0.622,7.014,4.487,6.392,8.641c-0.621,4.154-4.488,7.013-8.641,6.392
			c-4.154-0.622-7.014-4.488-6.393-8.64C456.925,174.379,460.791,171.519,464.945,172.14z"/>
	</g>
	<g>
		<path fill="#C7C7C7" d="M495.406,176.696c4.154,0.621,7.013,4.486,6.392,8.641c-0.622,4.153-4.488,7.013-8.641,6.392
			c-4.155-0.621-7.014-4.488-6.393-8.641S491.252,176.075,495.406,176.696z"/>
	</g>
	<g>
		<path fill="#C7C7C7" d="M525.768,181.237c4.154,0.622,7.014,4.487,6.393,8.641c-0.622,4.153-4.488,7.013-8.641,6.391
			c-4.154-0.621-7.014-4.488-6.393-8.64C517.747,183.477,521.615,180.616,525.768,181.237z"/>
	</g>
	<g>
		<path fill="#C7C7C7" d="M769.358,217.674c4.156,0.621,7.014,4.486,6.393,8.641c-0.621,4.152-4.484,7.013-8.641,6.391
			c-4.154-0.621-7.014-4.487-6.393-8.641C761.338,219.912,765.203,217.051,769.358,217.674z"/>
	</g>
</g>
</svg>
