<?xml version="1.0" encoding="utf-8"?>
<!-- Generator: Adobe Illustrator 16.0.0, SVG Export Plug-In . SVG Version: 6.00 Build 0)  -->
<!DOCTYPE svg PUBLIC "-//W3C//DTD SVG 1.1//EN" "http://www.w3.org/Graphics/SVG/1.1/DTD/svg11.dtd">
<svg version="1.1" xmlns="http://www.w3.org/2000/svg" xmlns:xlink="http://www.w3.org/1999/xlink" x="0px" y="0px" width="1000px"
	 height="312.757px" viewBox="0 0 1000 312.757" enable-background="new 0 0 1000 312.757" xml:space="preserve">
<g id="Bg">
</g>
<g id="Shadow">
</g>
<g id="Object">
	<g>
		<g>
			<g>
				<rect x="292.266" y="113.295" fill="#DEEEF9" width="40.399" height="160.805"/>
				<rect x="298.867" y="101.767" fill="#DEEEF9" width="27.197" height="67.575"/>
				<rect x="304.922" y="94.454" fill="#DEEEF9" width="15.086" height="37.483"/>
				<polygon fill="#DEEEF9" points="317.606,113.714 307.325,113.714 307.325,88.17 311.034,88.17 314.709,88.17 317.606,88.17 				
					"/>
				<g>
					<polygon fill="#DEEEF9" points="311.789,102.591 310.673,102.591 310.673,77.047 311.076,77.047 311.474,77.047 
						311.789,77.047 					"/>
					<polygon fill="#DEEEF9" points="314.258,93.761 313.143,93.761 313.143,68.217 313.545,68.217 313.943,68.217 314.258,68.217 
											"/>
				</g>
				<rect x="291.189" y="112.884" fill="#DEEEF9" width="42.554" height="1.712"/>
				<rect x="297.875" y="100.942" fill="#DEEEF9" width="29.182" height="1.649"/>
				<rect x="303.823" y="93.761" fill="#DEEEF9" width="16.817" height="1.265"/>
				<rect x="301.368" y="104.509" opacity="0.29" fill="#DEEEF9" width="1.265" height="7.082"/>
				<rect x="304.866" y="104.509" opacity="0.29" fill="#DEEEF9" width="1.265" height="7.082"/>
				<rect x="308.365" y="104.509" opacity="0.29" fill="#DEEEF9" width="1.265" height="7.082"/>
				<rect x="311.863" y="104.509" opacity="0.29" fill="#DEEEF9" width="1.265" height="7.082"/>
				<rect x="315.361" y="104.509" opacity="0.29" fill="#DEEEF9" width="1.265" height="7.082"/>
				<rect x="318.86" y="104.509" opacity="0.29" fill="#DEEEF9" width="1.265" height="7.082"/>
				<rect x="322.358" y="104.509" opacity="0.29" fill="#DEEEF9" width="1.265" height="7.082"/>
				<rect x="295.812" y="119.707" fill="#DEEEF9" width="3.055" height="8.401"/>
				<rect x="301.862" y="119.707" opacity="0.29" fill="#DEEEF9" width="3.055" height="8.401"/>
				<rect x="307.913" y="119.707" fill="#DEEEF9" width="3.055" height="8.401"/>
				<rect x="313.963" y="119.707" fill="#DEEEF9" width="3.055" height="8.401"/>
				<rect x="320.014" y="119.707" fill="#DEEEF9" width="3.055" height="8.401"/>
				<rect x="326.064" y="119.707" fill="#DEEEF9" width="3.055" height="8.401"/>
				<rect x="295.812" y="132.801" fill="#DEEEF9" width="3.055" height="8.4"/>
				<rect x="301.862" y="132.801" fill="#DEEEF9" width="3.055" height="8.4"/>
				<rect x="307.913" y="132.801" fill="#DEEEF9" width="3.055" height="8.4"/>
				<rect x="313.963" y="132.801" opacity="0.29" fill="#DEEEF9" width="3.055" height="8.4"/>
				<rect x="320.014" y="132.801" fill="#DEEEF9" width="3.055" height="8.4"/>
				<rect x="326.064" y="132.801" fill="#DEEEF9" width="3.055" height="8.4"/>
				<rect x="295.812" y="145.896" fill="#DEEEF9" width="3.055" height="8.4"/>
				<rect x="301.862" y="145.896" fill="#DEEEF9" width="3.055" height="8.4"/>
				<rect x="307.913" y="145.896" fill="#DEEEF9" width="3.055" height="8.4"/>
				<rect x="313.963" y="145.896" fill="#DEEEF9" width="3.055" height="8.4"/>
				<rect x="320.014" y="145.896" opacity="0.29" fill="#DEEEF9" width="3.055" height="8.4"/>
				<rect x="326.064" y="145.896" opacity="0.29" fill="#DEEEF9" width="3.055" height="8.4"/>
				<rect x="295.812" y="158.99" opacity="0.29" fill="#DEEEF9" width="3.055" height="8.4"/>
				<rect x="301.862" y="158.99" fill="#DEEEF9" width="3.055" height="8.4"/>
				<rect x="307.913" y="158.99" fill="#DEEEF9" width="3.055" height="8.4"/>
				<rect x="313.963" y="158.99" fill="#DEEEF9" width="3.055" height="8.4"/>
				<rect x="320.014" y="158.99" fill="#DEEEF9" width="3.055" height="8.4"/>
				<rect x="326.064" y="158.99" fill="#DEEEF9" width="3.055" height="8.4"/>
				<rect x="295.812" y="172.085" fill="#DEEEF9" width="3.055" height="8.401"/>
				<rect x="301.862" y="172.085" opacity="0.29" fill="#DEEEF9" width="3.055" height="8.401"/>
				<rect x="307.913" y="172.085" fill="#DEEEF9" width="3.055" height="8.401"/>
				<rect x="313.963" y="172.085" opacity="0.29" fill="#DEEEF9" width="3.055" height="8.401"/>
				<rect x="320.014" y="172.085" fill="#DEEEF9" width="3.055" height="8.401"/>
				<rect x="326.064" y="172.085" fill="#DEEEF9" width="3.055" height="8.401"/>
				<rect x="295.812" y="185.18" fill="#DEEEF9" width="3.055" height="8.4"/>
				<rect x="301.862" y="185.18" fill="#DEEEF9" width="3.055" height="8.4"/>
				<rect x="307.913" y="185.18" fill="#DEEEF9" width="3.055" height="8.4"/>
				<rect x="313.963" y="185.18" fill="#DEEEF9" width="3.055" height="8.4"/>
				<rect x="320.014" y="185.18" fill="#DEEEF9" width="3.055" height="8.4"/>
				<rect x="326.064" y="185.18" opacity="0.29" fill="#DEEEF9" width="3.055" height="8.4"/>
				<rect x="295.812" y="198.274" fill="#DEEEF9" width="3.055" height="8.401"/>
				<rect x="301.862" y="198.274" opacity="0.29" fill="#DEEEF9" width="3.055" height="8.401"/>
				<rect x="307.913" y="198.274" opacity="0.29" fill="#DEEEF9" width="3.055" height="8.401"/>
				<rect x="313.963" y="198.274" fill="#DEEEF9" width="3.055" height="8.401"/>
				<rect x="320.014" y="198.274" fill="#DEEEF9" width="3.055" height="8.401"/>
				<rect x="326.064" y="198.274" fill="#DEEEF9" width="3.055" height="8.401"/>
				<rect x="295.812" y="211.369" fill="#DEEEF9" width="3.055" height="8.4"/>
				<rect x="301.862" y="211.369" fill="#DEEEF9" width="3.055" height="8.4"/>
				<rect x="307.913" y="211.369" fill="#DEEEF9" width="3.055" height="8.4"/>
				<rect x="313.963" y="211.369" fill="#DEEEF9" width="3.055" height="8.4"/>
				<rect x="320.014" y="211.369" opacity="0.29" fill="#DEEEF9" width="3.055" height="8.4"/>
				<rect x="326.064" y="211.369" fill="#DEEEF9" width="3.055" height="8.4"/>
				<rect x="295.812" y="224.463" fill="#DEEEF9" width="3.055" height="8.401"/>
				<rect x="301.862" y="224.463" opacity="0.29" fill="#DEEEF9" width="3.055" height="8.401"/>
				<rect x="307.913" y="224.463" fill="#DEEEF9" width="3.055" height="8.401"/>
				<rect x="313.963" y="224.463" fill="#DEEEF9" width="3.055" height="8.401"/>
				<rect x="320.014" y="224.463" fill="#DEEEF9" width="3.055" height="8.401"/>
				<rect x="326.064" y="224.463" fill="#DEEEF9" width="3.055" height="8.401"/>
				<rect x="295.812" y="237.559" fill="#DEEEF9" width="3.055" height="8.4"/>
				<rect x="301.862" y="237.559" fill="#DEEEF9" width="3.055" height="8.4"/>
				<rect x="307.913" y="237.559" fill="#DEEEF9" width="3.055" height="8.4"/>
				<rect x="313.963" y="237.559" opacity="0.29" fill="#DEEEF9" width="3.055" height="8.4"/>
				<rect x="320.014" y="237.559" fill="#DEEEF9" width="3.055" height="8.4"/>
				<rect x="326.064" y="237.559" opacity="0.29" fill="#DEEEF9" width="3.055" height="8.4"/>
				<rect x="295.812" y="250.652" opacity="0.29" fill="#DEEEF9" width="3.055" height="8.4"/>
				<rect x="301.862" y="250.652" fill="#DEEEF9" width="3.055" height="8.4"/>
				<rect x="307.913" y="250.652" opacity="0.29" fill="#DEEEF9" width="3.055" height="8.4"/>
				<rect x="313.963" y="250.652" fill="#DEEEF9" width="3.055" height="8.4"/>
				<rect x="320.014" y="250.652" fill="#DEEEF9" width="3.055" height="8.4"/>
				<rect x="326.064" y="250.652" fill="#DEEEF9" width="3.055" height="8.4"/>
			</g>
			<g>
				<rect x="174.937" y="119.412" fill="#DEEEF9" width="64.942" height="135.463"/>
				<rect x="173.092" y="117.083" fill="#DEEEF9" width="68.633" height="3.829"/>
				<rect x="177.12" y="112.182" fill="#DEEEF9" width="60.577" height="18.199"/>
				<rect x="181.757" y="104.735" fill="#DEEEF9" width="23.987" height="19.884"/>
				<polygon fill="#DEEEF9" points="195.639,110.339 181.757,110.339 181.757,99.872 191.713,99.872 				"/>
				<rect x="187.351" y="91.184" fill="#DEEEF9" width="1.346" height="23.315"/>
				<circle fill="#DEEEF9" cx="188.025" cy="89.975" r="1.208"/>
			</g>
			<polygon fill="#DEEEF9" points="777.666,265.188 706.578,265.188 697.707,66.02 777.666,82.617 			"/>
			<polygon fill="#DEEEF9" points="467.521,151.445 467.521,84.858 456.372,84.858 456.372,67.021 452.389,67.021 452.389,40.862 
				430.445,40.862 430.445,21.637 428.492,21.637 428.492,40.862 424.193,40.862 424.193,16.796 422.241,16.796 422.241,40.862 
				408.368,40.862 408.368,84.858 401.202,84.858 401.202,151.445 395.059,151.445 395.059,272.729 471.84,272.729 471.84,151.445 
							"/>
		</g>
		<rect x="84.175" y="262.719" fill="#DEEEF9" width="849.37" height="20.201"/>
		<polygon fill="#D0E3EF" points="584.141,277.971 546.529,277.971 561.184,202.655 584.141,202.655 		"/>
		<g>
			<rect x="53.7" y="280.904" fill="#D0E3EF" width="891.8" height="31.853"/>
			<polygon fill="#D0E3EF" points="553.317,138.6 553.317,105.226 541.24,105.226 541.24,92.52 534.779,92.52 534.779,81.847 
				532.513,81.847 532.513,63.55 531.927,63.55 531.927,81.847 529.659,81.847 529.659,92.52 523.198,92.52 523.198,105.226 
				511.214,105.226 511.214,138.6 508.723,138.6 508.723,199.192 490.142,199.192 490.142,268.264 508.723,268.264 527.305,268.264 
				555.717,268.264 555.717,138.6 			"/>
			<polygon fill="#D0E3EF" points="622.723,176.938 564.268,176.938 564.268,178 566.913,178 566.913,276.841 620.078,276.841 
				620.078,178 622.723,178 			"/>
			<rect x="304.347" y="201.557" fill="#D0E3EF" width="51.826" height="82.335"/>
			<rect x="207.408" y="243.741" fill="#D0E3EF" width="89.132" height="40.151"/>
			<rect x="255.183" y="154.036" fill="#D0E3EF" width="19.567" height="98.6"/>
			<rect x="259.503" y="127.734" fill="#D0E3EF" width="1.017" height="53.62"/>
			<rect x="262.807" y="131.801" fill="#D0E3EF" width="1.017" height="53.62"/>
			<rect x="256.692" y="147.937" fill="#D0E3EF" width="11.959" height="13.214"/>
			<rect x="293.047" y="216.296" fill="#D0E3EF" width="34.052" height="67.597"/>
			<rect x="364.574" y="144.763" fill="#D0E3EF" width="63.921" height="139.13"/>
			<rect x="370.854" y="139.981" fill="#D0E3EF" width="51.361" height="23.173"/>
			<rect x="359.619" y="147.673" fill="#D0E3EF" width="73.831" height="1.627"/>
			<rect x="352.992" y="213.628" fill="#D0E3EF" width="30.119" height="70.265"/>
			<rect x="137.27" y="210.959" fill="#D0E3EF" width="34.561" height="72.933"/>
			<g>
				<rect x="148.452" y="191.138" fill="#D0E3EF" width="68.867" height="92.755"/>
				<rect x="144.434" y="187.58" fill="#D0E3EF" width="74.664" height="3.558"/>
				<rect x="151.501" y="177.924" fill="#D0E3EF" width="30.265" height="18.805"/>
				<rect x="191.652" y="177.924" fill="#D0E3EF" width="5.083" height="11.435"/>
				<rect x="201.817" y="177.924" fill="#D0E3EF" width="5.59" height="11.435"/>
			</g>
			<rect x="118.465" y="255.686" fill="#D0E3EF" width="36.085" height="28.207"/>
			<rect x="104.835" y="243.741" fill="#D0E3EF" width="17.087" height="40.151"/>
			<rect x="84.175" y="269.789" fill="#D0E3EF" width="29.204" height="14.104"/>
			<rect x="422.215" y="252.636" fill="#D0E3EF" width="359.849" height="31.257"/>
			<rect x="763.768" y="202.475" fill="#D0E3EF" width="55.567" height="81.418"/>
			<rect x="811.203" y="234.13" fill="#D0E3EF" width="55.568" height="49.304"/>
			<rect x="595.707" y="226.889" fill="#D0E3EF" width="31.172" height="41.375"/>
			<rect x="791.551" y="125.047" fill="#D0E3EF" width="39.305" height="158.846"/>
			<polygon fill="#D0E3EF" points="895.572,283.893 843.73,283.893 843.73,191.138 883.035,191.138 			"/>
			<rect x="872.87" y="262.719" fill="#D0E3EF" width="45.403" height="21.174"/>
			<rect x="820.69" y="91.861" fill="#D0E3EF" width="1.354" height="43.166"/>
			<rect x="825.265" y="101.124" fill="#D0E3EF" width="1.354" height="43.167"/>
			<rect x="816.539" y="107.083" fill="#D0E3EF" width="1.355" height="43.167"/>
			<rect x="845.764" y="183.641" fill="#D0E3EF" width="18.551" height="14.612"/>
			<rect x="847.797" y="178.431" fill="#D0E3EF" width="14.484" height="8.213"/>
			<rect x="871.684" y="187.922" fill="#D0E3EF" width="3.559" height="5.9"/>
			<rect x="876.501" y="182.539" fill="#D0E3EF" width="5.082" height="11.283"/>
		</g>
		<g>
			<g>
				<rect x="595.551" y="160.878" fill="#B2D6EA" width="47.119" height="151.878"/>
				<rect x="592.029" y="161.778" fill="#B2D6EA" width="54.16" height="1.54"/>
				<rect x="593.495" y="183.112" fill="#B2D6EA" width="51.229" height="1.535"/>
				<rect x="593.495" y="203.773" fill="#B2D6EA" width="51.229" height="1.534"/>
				<rect x="593.495" y="224.434" fill="#B2D6EA" width="51.229" height="1.535"/>
				<rect x="593.495" y="245.095" fill="#B2D6EA" width="51.229" height="1.534"/>
				<rect x="593.495" y="265.756" fill="#B2D6EA" width="51.229" height="1.534"/>
				<rect x="593.495" y="286.417" fill="#B2D6EA" width="51.229" height="1.534"/>
				<rect x="590.238" y="157.582" fill="#B2D6EA" width="57.742" height="4.196"/>
				<rect x="599.791" y="168.306" opacity="0.29" fill="#B2D6EA" width="4.896" height="12.133"/>
				<rect x="610.742" y="168.306" fill="#B2D6EA" width="4.895" height="12.133"/>
				<rect x="621.692" y="168.306" fill="#B2D6EA" width="4.896" height="12.133"/>
				<rect x="632.643" y="168.306" fill="#B2D6EA" width="4.896" height="12.133"/>
				<rect x="599.791" y="188.143" fill="#B2D6EA" width="4.896" height="12.133"/>
				<rect x="610.742" y="188.143" opacity="0.29" fill="#B2D6EA" width="4.895" height="12.133"/>
				<rect x="621.692" y="188.143" fill="#B2D6EA" width="4.896" height="12.133"/>
				<rect x="632.643" y="188.143" fill="#B2D6EA" width="4.896" height="12.133"/>
				<rect x="599.791" y="208.804" fill="#B2D6EA" width="4.896" height="12.133"/>
				<rect x="610.742" y="208.804" fill="#B2D6EA" width="4.895" height="12.133"/>
				<rect x="621.692" y="208.804" fill="#B2D6EA" width="4.896" height="12.133"/>
				<rect x="632.643" y="208.804" opacity="0.29" fill="#B2D6EA" width="4.896" height="12.133"/>
				<rect x="599.791" y="229.465" fill="#B2D6EA" width="4.896" height="12.133"/>
				<rect x="610.742" y="229.465" opacity="0.29" fill="#B2D6EA" width="4.895" height="12.133"/>
				<rect x="621.692" y="229.465" opacity="0.29" fill="#B2D6EA" width="4.896" height="12.133"/>
				<rect x="632.643" y="229.465" fill="#B2D6EA" width="4.896" height="12.133"/>
				<rect x="599.791" y="250.126" opacity="0.29" fill="#B2D6EA" width="4.896" height="12.133"/>
				<rect x="610.742" y="250.126" fill="#B2D6EA" width="4.895" height="12.133"/>
				<rect x="621.692" y="250.126" fill="#B2D6EA" width="4.896" height="12.133"/>
				<rect x="632.643" y="250.126" fill="#B2D6EA" width="4.896" height="12.133"/>
				<rect x="599.791" y="270.787" fill="#B2D6EA" width="4.896" height="12.133"/>
				<rect x="610.742" y="270.787" fill="#B2D6EA" width="4.895" height="12.133"/>
				<rect x="621.692" y="270.787" opacity="0.29" fill="#B2D6EA" width="4.896" height="12.133"/>
				<rect x="632.643" y="270.787" fill="#B2D6EA" width="4.896" height="12.133"/>
				<rect x="599.791" y="291.447" fill="#B2D6EA" width="4.896" height="12.133"/>
				<rect x="610.742" y="291.447" opacity="0.29" fill="#B2D6EA" width="4.895" height="12.133"/>
				<rect x="621.692" y="291.447" fill="#B2D6EA" width="4.896" height="12.133"/>
				<rect x="632.643" y="291.447" opacity="0.29" fill="#B2D6EA" width="4.896" height="12.133"/>
				<rect x="598.524" y="151.792" fill="#B2D6EA" width="16.026" height="7.889"/>
				<rect x="597.437" y="151.567" fill="#B2D6EA" width="18.2" height="1.349"/>
			</g>
			<g>
				<polygon fill="#B2D6EA" points="528.016,312.757 465.249,312.757 465.249,168.451 528.016,153.098 				"/>
				<rect x="462.491" y="165.911" fill="#B2D6EA" width="5.515" height="146.846"/>
				<rect x="478.183" y="161.773" fill="#B2D6EA" width="5.515" height="150.983"/>
				<rect x="493.874" y="157.475" fill="#B2D6EA" width="5.515" height="155.282"/>
				<rect x="509.566" y="153.973" fill="#B2D6EA" width="5.516" height="158.784"/>
				<rect x="525.258" y="150.249" fill="#B2D6EA" width="5.516" height="162.508"/>
				<rect x="469.435" y="178.234" opacity="0.29" fill="#B2D6EA" width="7.32" height="11.152"/>
				<rect x="485.126" y="178.234" opacity="0.29" fill="#B2D6EA" width="7.32" height="11.152"/>
				<rect x="500.818" y="178.234" fill="#B2D6EA" width="7.321" height="11.152"/>
				<rect x="516.51" y="178.234" opacity="0.29" fill="#B2D6EA" width="7.32" height="11.152"/>
				<rect x="469.435" y="197.653" fill="#B2D6EA" width="7.32" height="11.151"/>
				<rect x="485.126" y="197.653" fill="#B2D6EA" width="7.32" height="11.151"/>
				<rect x="500.818" y="197.653" opacity="0.29" fill="#B2D6EA" width="7.321" height="11.151"/>
				<rect x="516.51" y="197.653" opacity="0.29" fill="#B2D6EA" width="7.32" height="11.151"/>
				<rect x="469.435" y="217.072" opacity="0.29" fill="#B2D6EA" width="7.32" height="11.151"/>
				<rect x="485.126" y="217.072" opacity="0.29" fill="#B2D6EA" width="7.32" height="11.151"/>
				<rect x="500.818" y="217.072" opacity="0.29" fill="#B2D6EA" width="7.321" height="11.151"/>
				<rect x="516.51" y="217.072" fill="#B2D6EA" width="7.32" height="11.151"/>
				<rect x="469.435" y="236.49" opacity="0.29" fill="#B2D6EA" width="7.32" height="11.152"/>
				<rect x="485.126" y="236.49" fill="#B2D6EA" width="7.32" height="11.152"/>
				<rect x="500.818" y="236.49" opacity="0.29" fill="#B2D6EA" width="7.321" height="11.152"/>
				<rect x="516.51" y="236.49" opacity="0.29" fill="#B2D6EA" width="7.32" height="11.152"/>
				<rect x="469.435" y="255.909" opacity="0.29" fill="#B2D6EA" width="7.32" height="11.151"/>
				<rect x="485.126" y="255.909" opacity="0.29" fill="#B2D6EA" width="7.32" height="11.151"/>
				<rect x="500.818" y="255.909" fill="#B2D6EA" width="7.321" height="11.151"/>
				<rect x="516.51" y="255.909" opacity="0.29" fill="#B2D6EA" width="7.32" height="11.151"/>
				<rect x="469.435" y="275.328" fill="#B2D6EA" width="7.32" height="11.151"/>
				<rect x="485.126" y="275.328" fill="#B2D6EA" width="7.32" height="11.151"/>
				<rect x="500.818" y="275.328" opacity="0.29" fill="#B2D6EA" width="7.321" height="11.151"/>
				<rect x="516.51" y="275.328" opacity="0.29" fill="#B2D6EA" width="7.32" height="11.151"/>
				<rect x="469.435" y="294.746" opacity="0.29" fill="#B2D6EA" width="7.32" height="11.152"/>
				<rect x="485.126" y="294.746" fill="#B2D6EA" width="7.32" height="11.152"/>
				<rect x="500.818" y="294.746" opacity="0.29" fill="#B2D6EA" width="7.321" height="11.152"/>
				<rect x="516.51" y="294.746" fill="#B2D6EA" width="7.32" height="11.152"/>
			</g>
			<polygon fill="#B2D6EA" points="286.197,175.364 286.197,176.862 284.705,176.862 284.705,181.132 310.968,181.132 
				310.968,312.757 267.87,312.757 267.87,188 267.87,181.132 267.87,176.862 266.306,176.862 266.306,175.364 			"/>
			<rect x="359.618" y="235.152" fill="#B2D6EA" width="36.916" height="77.604"/>
			<g>
				<rect x="198.72" y="217.361" fill="#B2D6EA" width="30.008" height="95.396"/>
				<rect x="222.785" y="237.238" fill="#B2D6EA" width="32.702" height="75.519"/>
				<rect x="209.516" y="213.533" fill="#B2D6EA" width="13.268" height="11.416"/>
				<rect x="225.03" y="235.994" fill="#B2D6EA" width="34.859" height="2.793"/>
			</g>
			<rect x="251.974" y="269.629" fill="#B2D6EA" width="36.663" height="43.128"/>
			<rect x="133.48" y="234.549" fill="#B2D6EA" width="29.823" height="78.208"/>
			<rect x="107.6" y="273.523" fill="#B2D6EA" width="39.234" height="39.233"/>
			<rect x="64.399" y="267.111" fill="#B2D6EA" width="24.541" height="45.646"/>
			<rect x="84.175" y="298.459" fill="#B2D6EA" width="58.003" height="14.298"/>
			<rect x="42.18" y="293.838" fill="#B2D6EA" width="29.728" height="18.919"/>
			<rect x="163.303" y="283.893" fill="#B2D6EA" width="46.213" height="28.864"/>
			<rect x="298.867" y="300.322" fill="#B2D6EA" width="71.987" height="12.435"/>
			<rect x="426.498" y="300.322" fill="#B2D6EA" width="71.986" height="12.435"/>
			<polygon fill="#B2D6EA" points="368.051,263.816 340.689,263.816 329.119,306.539 368.051,306.539 			"/>
			<rect x="380.697" y="201.654" fill="#B2D6EA" width="0.762" height="47.395"/>
			<rect x="384.509" y="217.692" fill="#B2D6EA" width="1.016" height="27.966"/>
			<rect x="379.062" y="222.648" fill="#B2D6EA" width="13.843" height="13.842"/>
			<rect x="376.724" y="221.572" fill="#B2D6EA" width="18.334" height="1.24"/>
			<rect x="389.82" y="272.729" fill="#B2D6EA" width="44.729" height="40.028"/>
			<rect x="425.996" y="228.664" fill="#B2D6EA" width="28.737" height="77.234"/>
			<rect x="538.228" y="243.184" fill="#B2D6EA" width="45.913" height="69.573"/>
			<rect x="523.83" y="287.121" fill="#B2D6EA" width="52.346" height="25.636"/>
			<rect x="581.598" y="303.58" fill="#B2D6EA" width="34.039" height="9.177"/>
			<rect x="634.026" y="287.121" fill="#B2D6EA" width="55.344" height="25.636"/>
			<g>
				<rect x="656.076" y="220.002" fill="#B2D6EA" width="68.867" height="92.755"/>
				<rect x="654.297" y="216.444" fill="#B2D6EA" width="74.664" height="3.558"/>
				<rect x="691.629" y="206.788" fill="#B2D6EA" width="30.265" height="18.805"/>
				<rect x="676.66" y="206.788" fill="#B2D6EA" width="5.082" height="11.435"/>
				<rect x="665.986" y="206.788" fill="#B2D6EA" width="5.591" height="11.435"/>
			</g>
			<g>
				<rect x="772.285" y="177.294" fill="#B2D6EA" width="54.513" height="135.463"/>
				<rect x="770.736" y="174.964" fill="#B2D6EA" width="57.61" height="3.829"/>
				<rect x="774.117" y="170.063" fill="#B2D6EA" width="50.848" height="18.199"/>
				<rect x="800.938" y="162.616" fill="#B2D6EA" width="20.136" height="19.885"/>
				<polygon fill="#B2D6EA" points="809.42,168.221 821.073,168.221 821.073,157.753 812.715,157.753 				"/>
				<rect x="815.246" y="149.065" fill="#B2D6EA" width="1.131" height="23.314"/>
				<ellipse fill="#B2D6EA" cx="815.812" cy="147.857" rx="1.015" ry="1.208"/>
			</g>
			<rect x="819.335" y="256.834" fill="#B2D6EA" width="24.396" height="55.923"/>
			<rect x="749.844" y="229.569" fill="#B2D6EA" width="27.822" height="83.188"/>
			<polygon fill="#B2D6EA" points="763.768,312.757 724.576,312.757 724.576,268.264 757.654,282.92 			"/>
			<rect x="835.721" y="288.593" fill="#B2D6EA" width="59.852" height="24.164"/>
			<rect x="873.463" y="216.296" fill="#B2D6EA" width="34.768" height="96.461"/>
			<rect x="900.098" y="294.746" fill="#B2D6EA" width="57.602" height="18.011"/>
			<rect x="871.684" y="214.53" fill="#B2D6EA" width="38.139" height="3.162"/>
			<rect x="902.809" y="200.919" fill="#B2D6EA" width="0.762" height="19.439"/>
			<rect x="897.727" y="203.38" fill="#B2D6EA" width="0.762" height="15.595"/>
			<polygon fill="#B2D6EA" points="921.105,252.636 905.604,252.636 905.604,296.83 927.713,296.83 			"/>
		</g>
	</g>
	<g>
		<g opacity="0.52">
			<rect x="201.817" y="222.191" fill="#FFFFFF" width="2.271" height="2.271"/>
			<rect x="206.381" y="222.191" fill="#FFFFFF" width="2.271" height="2.271"/>
			<rect x="201.817" y="227.528" fill="#FFFFFF" width="2.271" height="2.271"/>
			<rect x="206.381" y="227.528" fill="#FFFFFF" width="2.271" height="2.271"/>
			<rect x="201.817" y="232.688" fill="#FFFFFF" width="2.271" height="2.271"/>
			<rect x="211.453" y="222.191" fill="#FFFFFF" width="2.271" height="2.271"/>
		</g>
		<rect x="368.052" y="153.973" opacity="0.5" fill="#FFFFFF" width="1.549" height="8.576"/>
		<rect x="373.39" y="153.973" opacity="0.5" fill="#FFFFFF" width="1.55" height="8.576"/>
		<rect x="378.729" y="153.973" opacity="0.5" fill="#FFFFFF" width="1.549" height="8.576"/>
		<rect x="384.068" y="153.973" opacity="0.5" fill="#FFFFFF" width="1.549" height="8.576"/>
		<rect x="389.407" y="153.973" opacity="0.5" fill="#FFFFFF" width="1.549" height="8.576"/>
		<rect x="394.746" y="153.973" opacity="0.5" fill="#FFFFFF" width="1.549" height="8.576"/>
		<rect x="400.085" y="153.973" opacity="0.5" fill="#FFFFFF" width="1.549" height="8.576"/>
		<rect x="405.424" y="153.973" opacity="0.5" fill="#FFFFFF" width="1.549" height="8.576"/>
		<rect x="410.762" y="153.973" opacity="0.5" fill="#FFFFFF" width="1.549" height="8.576"/>
		<rect x="416.101" y="153.973" opacity="0.5" fill="#FFFFFF" width="1.55" height="8.576"/>
		<rect x="421.44" y="153.973" opacity="0.5" fill="#FFFFFF" width="1.549" height="8.576"/>
		<rect x="368.052" y="165.911" opacity="0.5" fill="#FFFFFF" width="1.549" height="8.575"/>
		<rect x="373.39" y="165.911" opacity="0.5" fill="#FFFFFF" width="1.55" height="8.575"/>
		<rect x="378.729" y="165.911" opacity="0.5" fill="#FFFFFF" width="1.549" height="8.575"/>
		<rect x="384.068" y="165.911" opacity="0.5" fill="#FFFFFF" width="1.549" height="8.575"/>
		<rect x="389.407" y="165.911" opacity="0.5" fill="#FFFFFF" width="1.549" height="8.575"/>
		<rect x="394.746" y="165.911" opacity="0.5" fill="#FFFFFF" width="1.549" height="8.575"/>
		<rect x="400.085" y="165.911" opacity="0.5" fill="#FFFFFF" width="1.549" height="8.575"/>
		<rect x="405.424" y="165.911" opacity="0.5" fill="#FFFFFF" width="1.549" height="8.575"/>
		<rect x="410.762" y="165.911" opacity="0.5" fill="#FFFFFF" width="1.549" height="8.575"/>
		<rect x="416.101" y="165.911" opacity="0.5" fill="#FFFFFF" width="1.55" height="8.575"/>
		<rect x="421.44" y="165.911" opacity="0.5" fill="#FFFFFF" width="1.549" height="8.575"/>
		<rect x="368.052" y="177.849" opacity="0.5" fill="#FFFFFF" width="1.549" height="8.575"/>
		<rect x="373.39" y="177.849" opacity="0.5" fill="#FFFFFF" width="1.55" height="8.575"/>
		<rect x="378.729" y="177.849" opacity="0.5" fill="#FFFFFF" width="1.549" height="8.575"/>
		<rect x="384.068" y="177.849" opacity="0.5" fill="#FFFFFF" width="1.549" height="8.575"/>
		<rect x="389.407" y="177.849" opacity="0.5" fill="#FFFFFF" width="1.549" height="8.575"/>
		<rect x="394.746" y="177.849" opacity="0.5" fill="#FFFFFF" width="1.549" height="8.575"/>
		<rect x="400.085" y="177.849" opacity="0.5" fill="#FFFFFF" width="1.549" height="8.575"/>
		<rect x="405.424" y="177.849" opacity="0.5" fill="#FFFFFF" width="1.549" height="8.575"/>
		<rect x="410.762" y="177.849" opacity="0.5" fill="#FFFFFF" width="1.549" height="8.575"/>
		<rect x="416.101" y="177.849" opacity="0.5" fill="#FFFFFF" width="1.55" height="8.575"/>
		<rect x="421.44" y="177.849" opacity="0.5" fill="#FFFFFF" width="1.549" height="8.575"/>
		<rect x="384.068" y="189.787" opacity="0.5" fill="#FFFFFF" width="1.549" height="8.575"/>
		<rect x="389.407" y="189.787" opacity="0.5" fill="#FFFFFF" width="1.549" height="8.575"/>
		<rect x="394.746" y="189.787" opacity="0.5" fill="#FFFFFF" width="1.549" height="8.575"/>
		<rect x="400.085" y="189.787" opacity="0.5" fill="#FFFFFF" width="1.549" height="8.575"/>
		<rect x="405.424" y="189.787" opacity="0.5" fill="#FFFFFF" width="1.549" height="8.575"/>
		<rect x="410.762" y="189.787" opacity="0.5" fill="#FFFFFF" width="1.549" height="8.575"/>
		<rect x="416.101" y="189.787" opacity="0.5" fill="#FFFFFF" width="1.55" height="8.575"/>
		<rect x="421.44" y="189.787" opacity="0.5" fill="#FFFFFF" width="1.549" height="8.575"/>
		<rect x="389.407" y="202.387" opacity="0.5" fill="#FFFFFF" width="1.549" height="8.575"/>
		<rect x="394.746" y="202.387" opacity="0.5" fill="#FFFFFF" width="1.549" height="8.575"/>
		<rect x="400.085" y="202.387" opacity="0.5" fill="#FFFFFF" width="1.549" height="8.575"/>
		<rect x="405.424" y="202.387" opacity="0.5" fill="#FFFFFF" width="1.549" height="8.575"/>
		<rect x="410.762" y="202.387" opacity="0.5" fill="#FFFFFF" width="1.549" height="8.575"/>
		<rect x="416.101" y="202.387" opacity="0.5" fill="#FFFFFF" width="1.55" height="8.575"/>
		<rect x="421.44" y="202.387" opacity="0.5" fill="#FFFFFF" width="1.549" height="8.575"/>
		<rect x="471.265" y="175.256" opacity="0.33" fill="#FFFFFF" width="3.66" height="9.283"/>
		<rect x="471.265" y="193.012" opacity="0.33" fill="#FFFFFF" width="3.66" height="9.282"/>
		<rect x="471.265" y="210.767" opacity="0.33" fill="#FFFFFF" width="3.66" height="9.284"/>
		<rect x="471.265" y="228.523" opacity="0.33" fill="#FFFFFF" width="3.66" height="9.282"/>
		<rect x="471.265" y="245.263" opacity="0.33" fill="#FFFFFF" width="3.66" height="9.282"/>
		<rect x="471.265" y="263.018" opacity="0.33" fill="#FFFFFF" width="3.66" height="9.283"/>
		<rect x="486.956" y="175.256" opacity="0.33" fill="#FFFFFF" width="3.66" height="9.283"/>
		<rect x="486.956" y="193.012" opacity="0.33" fill="#FFFFFF" width="3.66" height="9.282"/>
		<rect x="486.956" y="210.767" opacity="0.33" fill="#FFFFFF" width="3.66" height="9.284"/>
		<rect x="486.956" y="228.523" opacity="0.33" fill="#FFFFFF" width="3.66" height="9.282"/>
		<rect x="486.956" y="245.263" opacity="0.33" fill="#FFFFFF" width="3.66" height="9.282"/>
		<rect x="486.956" y="263.018" opacity="0.33" fill="#FFFFFF" width="3.66" height="9.283"/>
		<rect x="502.648" y="175.256" opacity="0.33" fill="#FFFFFF" width="3.66" height="9.283"/>
		<rect x="502.648" y="193.012" opacity="0.33" fill="#FFFFFF" width="3.66" height="9.282"/>
		<rect x="502.648" y="210.767" opacity="0.33" fill="#FFFFFF" width="3.66" height="9.284"/>
		<rect x="502.648" y="228.523" opacity="0.33" fill="#FFFFFF" width="3.66" height="9.282"/>
		<rect x="502.648" y="245.263" opacity="0.33" fill="#FFFFFF" width="3.66" height="9.282"/>
		<rect x="502.648" y="263.018" opacity="0.33" fill="#FFFFFF" width="3.66" height="9.283"/>
		<rect x="518.34" y="175.256" opacity="0.33" fill="#FFFFFF" width="3.66" height="9.283"/>
		<rect x="518.34" y="193.012" opacity="0.33" fill="#FFFFFF" width="3.66" height="9.282"/>
		<rect x="518.34" y="210.767" opacity="0.33" fill="#FFFFFF" width="3.66" height="9.284"/>
		<rect x="518.34" y="228.523" opacity="0.33" fill="#FFFFFF" width="3.66" height="9.282"/>
		<rect x="518.34" y="245.263" opacity="0.33" fill="#FFFFFF" width="3.66" height="9.282"/>
		<rect x="518.34" y="263.018" opacity="0.33" fill="#FFFFFF" width="3.66" height="9.283"/>
		<rect x="412.312" y="45.806" opacity="0.5" fill="#FFFFFF" width="3.045" height="8.123"/>
		<rect x="419.826" y="45.806" opacity="0.5" fill="#FFFFFF" width="3.045" height="8.123"/>
		<rect x="427.339" y="45.806" opacity="0.5" fill="#FFFFFF" width="3.045" height="8.123"/>
		<rect x="434.853" y="45.806" opacity="0.5" fill="#FFFFFF" width="3.045" height="8.123"/>
		<rect x="412.312" y="59.336" opacity="0.5" fill="#FFFFFF" width="3.045" height="8.124"/>
		<rect x="419.826" y="59.336" opacity="0.5" fill="#FFFFFF" width="3.045" height="8.124"/>
		<rect x="427.339" y="59.336" opacity="0.5" fill="#FFFFFF" width="3.045" height="8.124"/>
		<rect x="434.853" y="59.336" opacity="0.5" fill="#FFFFFF" width="3.045" height="8.124"/>
		<rect x="412.312" y="72.865" opacity="0.5" fill="#FFFFFF" width="3.045" height="8.124"/>
		<rect x="419.826" y="72.865" opacity="0.5" fill="#FFFFFF" width="3.045" height="8.124"/>
		<rect x="443.376" y="45.806" opacity="0.5" fill="#FFFFFF" width="3.045" height="8.123"/>
		<rect x="209.517" y="128.107" opacity="0.4" fill="#FFFFFF" width="1.937" height="7.447"/>
		<rect x="216.35" y="128.107" opacity="0.4" fill="#FFFFFF" width="1.936" height="7.447"/>
		<rect x="224.344" y="128.107" opacity="0.4" fill="#FFFFFF" width="1.937" height="7.447"/>
		<rect x="231.177" y="128.107" opacity="0.4" fill="#FFFFFF" width="1.937" height="7.447"/>
		<rect x="194.336" y="128.107" opacity="0.4" fill="#FFFFFF" width="1.936" height="7.447"/>
		<rect x="201.169" y="128.107" opacity="0.4" fill="#FFFFFF" width="1.937" height="7.447"/>
		<rect x="209.517" y="141.039" opacity="0.4" fill="#FFFFFF" width="1.937" height="7.447"/>
		<rect x="216.35" y="141.039" opacity="0.4" fill="#FFFFFF" width="1.936" height="7.447"/>
		<rect x="224.344" y="141.039" opacity="0.4" fill="#FFFFFF" width="1.937" height="7.447"/>
		<rect x="231.177" y="141.039" opacity="0.4" fill="#FFFFFF" width="1.937" height="7.447"/>
		<rect x="194.336" y="141.039" opacity="0.4" fill="#FFFFFF" width="1.936" height="7.447"/>
		<rect x="201.169" y="141.039" opacity="0.4" fill="#FFFFFF" width="1.937" height="7.447"/>
		<rect x="209.517" y="153.97" opacity="0.4" fill="#FFFFFF" width="1.937" height="7.447"/>
		<rect x="216.35" y="153.97" opacity="0.4" fill="#FFFFFF" width="1.936" height="7.447"/>
		<rect x="224.344" y="153.97" opacity="0.4" fill="#FFFFFF" width="1.937" height="7.447"/>
		<rect x="231.177" y="153.97" opacity="0.4" fill="#FFFFFF" width="1.937" height="7.447"/>
		<rect x="194.336" y="153.97" opacity="0.4" fill="#FFFFFF" width="1.936" height="7.447"/>
		<rect x="201.169" y="153.97" opacity="0.4" fill="#FFFFFF" width="1.937" height="7.447"/>
		<rect x="570.916" y="185.18" opacity="0.5" fill="#FFFFFF" width="3" height="11.549"/>
		<rect x="580.098" y="185.18" opacity="0.5" fill="#FFFFFF" width="3" height="11.549"/>
		<rect x="588.738" y="185.18" opacity="0.5" fill="#FFFFFF" width="3.001" height="11.549"/>
		<rect x="777.666" y="187.58" opacity="0.33" fill="#FFFFFF" width="2.277" height="6.495"/>
		<rect x="784.805" y="187.58" opacity="0.33" fill="#FFFFFF" width="2.278" height="6.495"/>
		<rect x="777.666" y="187.58" opacity="0.33" fill="#FFFFFF" width="2.277" height="6.495"/>
		<rect x="784.805" y="187.58" opacity="0.33" fill="#FFFFFF" width="2.278" height="6.495"/>
		<rect x="791.551" y="187.58" opacity="0.33" fill="#FFFFFF" width="2.277" height="6.495"/>
		<rect x="798.69" y="187.58" opacity="0.33" fill="#FFFFFF" width="2.278" height="6.495"/>
		<rect x="777.666" y="199.227" opacity="0.33" fill="#FFFFFF" width="2.277" height="6.495"/>
		<rect x="784.805" y="199.227" opacity="0.33" fill="#FFFFFF" width="2.278" height="6.495"/>
		<rect x="777.666" y="199.227" opacity="0.33" fill="#FFFFFF" width="2.277" height="6.495"/>
		<rect x="784.805" y="199.227" opacity="0.33" fill="#FFFFFF" width="2.278" height="6.495"/>
		<rect x="791.551" y="199.227" opacity="0.33" fill="#FFFFFF" width="2.277" height="6.495"/>
		<rect x="798.69" y="199.227" opacity="0.33" fill="#FFFFFF" width="2.278" height="6.495"/>
		<rect x="777.666" y="211.624" opacity="0.33" fill="#FFFFFF" width="2.277" height="6.495"/>
		<rect x="784.805" y="211.624" opacity="0.33" fill="#FFFFFF" width="2.278" height="6.495"/>
		<rect x="777.666" y="211.624" opacity="0.33" fill="#FFFFFF" width="2.277" height="6.495"/>
		<rect x="784.805" y="211.624" opacity="0.33" fill="#FFFFFF" width="2.278" height="6.495"/>
		<rect x="791.551" y="211.624" opacity="0.33" fill="#FFFFFF" width="2.277" height="6.495"/>
		<rect x="798.69" y="211.624" opacity="0.33" fill="#FFFFFF" width="2.278" height="6.495"/>
		<rect x="806.494" y="187.58" opacity="0.33" fill="#FFFFFF" width="2.277" height="6.495"/>
		<rect x="806.494" y="199.227" opacity="0.33" fill="#FFFFFF" width="2.277" height="6.495"/>
		<rect x="813.634" y="187.58" opacity="0.33" fill="#FFFFFF" width="2.278" height="6.495"/>
		<rect x="599.791" y="168.306" opacity="0.33" fill="#FFFFFF" width="2.447" height="10.125"/>
		<rect x="611.966" y="168.306" opacity="0.33" fill="#FFFFFF" width="2.448" height="10.125"/>
		<rect x="624.141" y="168.306" opacity="0.33" fill="#FFFFFF" width="2.447" height="10.125"/>
		<rect x="636.314" y="168.306" opacity="0.33" fill="#FFFFFF" width="2.448" height="10.125"/>
		<rect x="599.791" y="189.147" opacity="0.33" fill="#FFFFFF" width="2.447" height="10.125"/>
		<rect x="611.966" y="189.147" opacity="0.33" fill="#FFFFFF" width="2.448" height="10.125"/>
		<rect x="624.141" y="189.147" opacity="0.33" fill="#FFFFFF" width="2.447" height="10.125"/>
		<rect x="636.314" y="189.147" opacity="0.33" fill="#FFFFFF" width="2.448" height="10.125"/>
		<rect x="599.791" y="210.506" opacity="0.33" fill="#FFFFFF" width="2.447" height="10.126"/>
		<rect x="611.966" y="210.506" opacity="0.33" fill="#FFFFFF" width="2.448" height="10.126"/>
		<rect x="624.141" y="210.506" opacity="0.33" fill="#FFFFFF" width="2.447" height="10.126"/>
		<rect x="636.314" y="210.506" opacity="0.33" fill="#FFFFFF" width="2.448" height="10.126"/>
		<rect x="599.791" y="231.865" opacity="0.33" fill="#FFFFFF" width="2.447" height="10.126"/>
		<rect x="611.966" y="231.865" opacity="0.33" fill="#FFFFFF" width="2.448" height="10.126"/>
		<rect x="624.141" y="231.865" opacity="0.33" fill="#FFFFFF" width="2.447" height="10.126"/>
		<rect x="636.314" y="231.865" opacity="0.33" fill="#FFFFFF" width="2.448" height="10.126"/>
		<rect x="599.791" y="251.268" opacity="0.33" fill="#FFFFFF" width="2.447" height="10.125"/>
		<rect x="611.966" y="251.268" opacity="0.33" fill="#FFFFFF" width="2.448" height="10.125"/>
		<rect x="624.141" y="251.268" opacity="0.33" fill="#FFFFFF" width="2.447" height="10.125"/>
		<rect x="599.791" y="272.907" opacity="0.33" fill="#FFFFFF" width="2.447" height="10.126"/>
		<rect x="611.966" y="272.907" opacity="0.33" fill="#FFFFFF" width="2.448" height="10.126"/>
		<rect x="624.141" y="272.907" opacity="0.33" fill="#FFFFFF" width="2.447" height="10.126"/>
		<rect x="636.314" y="251.268" opacity="0.33" fill="#FFFFFF" width="2.448" height="10.125"/>
		<rect x="876.541" y="221.84" opacity="0.33" fill="#FFFFFF" width="2.501" height="5.813"/>
		<rect x="876.541" y="231.223" opacity="0.33" fill="#FFFFFF" width="2.501" height="5.813"/>
		<rect x="882.957" y="221.84" opacity="0.33" fill="#FFFFFF" width="2.5" height="5.813"/>
	</g>
</g>
</svg>
