<?xml version="1.0" encoding="utf-8"?>
<!-- Generator: Adobe Illustrator 16.0.0, SVG Export Plug-In . SVG Version: 6.00 Build 0)  -->
<!DOCTYPE svg PUBLIC "-//W3C//DTD SVG 1.1//EN" "http://www.w3.org/Graphics/SVG/1.1/DTD/svg11.dtd">
<svg version="1.1" id="Layer_1" xmlns="http://www.w3.org/2000/svg" xmlns:xlink="http://www.w3.org/1999/xlink" x="0px" y="0px"
	 width="600px" height="600px" viewBox="-91.836 -91.836 600 600" enable-background="new -91.836 -91.836 600 600"
	 xml:space="preserve">
<circle opacity="0.1" fill="#6454A2" enable-background="new    " cx="208.164" cy="208.164" r="300"/>
<g id="Layer_2_1_">
	<g>
		<g>
			<path fill="#6454A2" d="M412.675,157.634l-37.951-37.951c-4.514-4.515-11.707-4.889-16.666-0.869
				c-17.145,13.902-41.861,12.594-57.501-3.042c-15.638-15.636-16.94-40.356-3.042-57.502c4.021-4.959,3.646-12.153-0.867-16.667
				L258.695,3.652c-4.867-4.868-12.764-4.869-17.631,0L3.651,241.064c-4.869,4.867-4.869,12.764,0,17.631l37.951,37.949
				c0.004,0.006,0.009,0.012,0.012,0.014c4.868,4.869,12.763,4.869,17.631,0c0.453-0.453,0.865-0.936,1.235-1.438
				c0.851-1.021,1.744-2,2.663-2.921c16.787-16.786,44.098-16.786,60.884-0.002c16.785,16.785,16.785,44.102-0.001,60.885
				c-1.056,1.059-2.194,2.08-3.381,3.043c-2.744,2.227-4.414,5.51-4.599,9.033c-0.184,3.527,1.138,6.969,3.636,9.465l37.949,37.949
				c4.869,4.869,12.764,4.869,17.632,0l237.41-237.409C417.544,170.397,417.544,162.503,412.675,157.634z M252.363,236.585
				c0,0.978-0.475,1.894-1.271,2.457c-0.518,0.367-1.129,0.558-1.745,0.558c-0.332,0-0.668-0.058-0.99-0.168l-38.754-13.509
				c-0.355,12.076-1.348,23.216-2.871,32.088c-0.276,1.609-0.568,3.121-0.872,4.537l20.18,11.213
				c0.52,0.289,0.842,0.837,0.842,1.433v6.83c0,0.528-0.258,1.024-0.688,1.334c-0.28,0.197-0.612,0.303-0.948,0.303
				c-0.183,0-0.363-0.031-0.537-0.092l-23.586-8.223c-1.084,1.364-2.569,2.51-4.546,2.51s-3.463-1.146-4.547-2.51l-23.586,8.223
				c-0.501,0.176-1.055,0.096-1.486-0.211c-0.433-0.31-0.689-0.808-0.689-1.334v-6.83c0-0.596,0.322-1.146,0.842-1.433
				l20.179-11.213c-0.305-1.416-0.596-2.928-0.872-4.537c-1.523-8.872-2.513-20.012-2.871-32.088l-38.753,13.509
				c-0.922,0.319-1.942,0.178-2.737-0.39c-0.795-0.563-1.268-1.479-1.268-2.457v-12.567c0-1.097,0.593-2.104,1.549-2.636
				l8.754-4.862v-3.959c0-2.664,2.158-4.821,4.82-4.821c2.213,0,4.072,1.491,4.64,3.522l7.366-4.093v-3.647
				c0-2.664,2.158-4.821,4.82-4.821c2.115,0,3.908,1.364,4.559,3.258l6.535-3.632c0.484-9.355,1.363-17.938,2.586-25.063
				c0.971-5.649,2.117-10.129,3.41-13.312c0.656-1.616,2.652-6.532,6.75-6.532c4.098,0,6.094,4.917,6.75,6.532
				c1.293,3.182,2.439,7.661,3.41,13.312c1.223,7.123,2.102,15.707,2.586,25.063l6.532,3.632c0.648-1.896,2.441-3.258,4.56-3.258
				c2.662,0,4.82,2.157,4.82,4.821v3.647l7.364,4.093c0.566-2.031,2.431-3.522,4.642-3.522c2.664,0,4.819,2.159,4.819,4.821v3.959
				l8.756,4.862c0.953,0.531,1.55,1.539,1.55,2.636v12.567H252.363L252.363,236.585z M334.117,203.359
				c-5.076,5.078-13.313,5.078-18.385,0L212.968,100.598c-5.075-5.077-5.075-13.308,0-18.385c5.076-5.077,13.31-5.077,18.386,0
				l102.768,102.766C339.195,190.055,339.195,198.286,334.117,203.359z"/>
		</g>
	</g>
</g>
<g id="Capa_1_1_">
	<circle fill="#FFFFFF" stroke="#000000" stroke-miterlimit="10" cx="319.189" cy="319.278" r="80.5"/>
	<g>
		<path fill="#FFC107" d="M319.188,235.779c-46.041,0-83.498,37.457-83.498,83.5c0,46.041,37.457,83.499,83.498,83.499
			c46.044,0,83.499-37.458,83.499-83.499C402.688,273.236,365.23,235.779,319.188,235.779z M319.188,385.198
			c-36.349,0-65.919-29.571-65.919-65.919c0-36.351,29.571-65.922,65.919-65.922c36.351,0,65.923,29.572,65.923,65.922
			C385.109,355.626,355.537,385.198,319.188,385.198z"/>
		<path fill="#FFC107" d="M364.011,316.7h-32.605c-1.188-1.931-2.813-3.56-4.744-4.745v-39.199c0-4.127-3.345-7.471-7.473-7.471
			c-4.126,0-7.473,3.344-7.473,7.471v39.199c-4.104,2.521-6.853,7.053-6.853,12.215c0,7.898,6.427,14.325,14.324,14.325
			c5.16,0,9.692-2.747,12.216-6.853h32.605c4.126,0,7.473-3.348,7.473-7.475C371.482,320.044,368.137,316.7,364.011,316.7z"/>
	</g>
</g>
</svg>
