<?xml version="1.0" encoding="utf-8"?>
<!-- Generator: Adobe Illustrator 16.0.0, SVG Export Plug-In . SVG Version: 6.00 Build 0)  -->
<!DOCTYPE svg PUBLIC "-//W3C//DTD SVG 1.1//EN" "http://www.w3.org/Graphics/SVG/1.1/DTD/svg11.dtd">
<svg version="1.1" id="Layer_1" xmlns="http://www.w3.org/2000/svg" xmlns:xlink="http://www.w3.org/1999/xlink" x="0px" y="0px"
	 width="600px" height="600px" viewBox="-91.836 -91.836 600 600" enable-background="new -91.836 -91.836 600 600"
	 xml:space="preserve">
<circle opacity="0.1" fill="#6454A2" enable-background="new    " cx="208.164" cy="208.164" r="300"/>
<g id="Layer_2">
	<g>
		<g>
			<path fill="#6454A2" d="M412.675,157.634l-37.951-37.951c-4.514-4.515-11.707-4.889-16.666-0.869
				c-17.145,13.902-41.86,12.594-57.501-3.042c-15.638-15.636-16.939-40.356-3.042-57.502c4.021-4.959,3.646-12.153-0.867-16.667
				L258.695,3.652c-4.867-4.868-12.764-4.869-17.631,0L3.651,241.064c-4.869,4.867-4.869,12.764,0,17.631l37.951,37.949
				c0.004,0.006,0.009,0.012,0.012,0.014c4.868,4.869,12.763,4.869,17.631,0c0.453-0.453,0.865-0.936,1.235-1.438
				c0.851-1.021,1.744-2,2.663-2.922c16.787-16.785,44.098-16.785,60.884-0.002c16.785,16.785,16.785,44.103-0.001,60.886
				c-1.056,1.059-2.194,2.08-3.381,3.043c-2.744,2.227-4.414,5.51-4.599,9.032c-0.184,3.527,1.138,6.97,3.636,9.466l37.949,37.948
				c4.869,4.869,12.764,4.869,17.632,0l237.41-237.409C417.544,170.397,417.544,162.503,412.675,157.634z M252.363,236.585
				c0,0.978-0.475,1.894-1.271,2.457c-0.518,0.367-1.129,0.558-1.744,0.558c-0.332,0-0.668-0.058-0.99-0.168l-38.754-13.509
				c-0.355,12.076-1.349,23.216-2.872,32.088c-0.276,1.609-0.568,3.121-0.872,4.537l20.18,11.213
				c0.521,0.289,0.842,0.837,0.842,1.433v6.83c0,0.528-0.258,1.024-0.688,1.334c-0.279,0.197-0.611,0.304-0.947,0.304
				c-0.184,0-0.363-0.031-0.537-0.093l-23.586-8.223c-1.084,1.364-2.569,2.51-4.546,2.51s-3.463-1.146-4.547-2.51l-23.586,8.223
				c-0.501,0.177-1.055,0.097-1.486-0.211c-0.433-0.31-0.689-0.808-0.689-1.334v-6.83c0-0.596,0.322-1.146,0.842-1.433
				l20.179-11.213c-0.305-1.416-0.596-2.928-0.872-4.537c-1.523-8.872-2.513-20.012-2.871-32.088l-38.753,13.509
				c-0.922,0.319-1.942,0.178-2.737-0.39c-0.795-0.563-1.268-1.479-1.268-2.457v-12.567c0-1.097,0.593-2.104,1.549-2.636
				l8.754-4.862v-3.959c0-2.664,2.158-4.82,4.82-4.82c2.213,0,4.072,1.49,4.64,3.521l7.366-4.093v-3.648
				c0-2.663,2.158-4.821,4.82-4.821c2.115,0,3.908,1.364,4.559,3.258l6.535-3.632c0.484-9.356,1.363-17.938,2.586-25.062
				c0.971-5.65,2.117-10.129,3.41-13.312c0.656-1.616,2.652-6.532,6.75-6.532s6.094,4.917,6.75,6.532
				c1.293,3.182,2.439,7.661,3.41,13.312c1.223,7.123,2.102,15.706,2.586,25.062l6.531,3.632c0.648-1.895,2.441-3.258,4.561-3.258
				c2.662,0,4.82,2.158,4.82,4.821v3.648l7.363,4.093c0.566-2.031,2.432-3.521,4.643-3.521c2.664,0,4.818,2.158,4.818,4.82v3.959
				l8.756,4.862c0.953,0.531,1.551,1.539,1.551,2.636v12.567H252.363L252.363,236.585z M334.117,203.36
				c-5.076,5.077-13.313,5.077-18.385,0L212.968,100.598c-5.076-5.077-5.076-13.308,0-18.385c5.076-5.077,13.31-5.077,18.386,0
				l102.769,102.765C339.195,190.055,339.195,198.286,334.117,203.36z"/>
		</g>
	</g>
</g>
<g id="Capa_1">
	<circle fill="#FFFFFF" stroke="#000000" stroke-miterlimit="10" cx="319.189" cy="319.278" r="80.5"/>
	<g>
		<path fill="#DC3545" d="M378.26,260.208c-32.567-32.569-85.568-32.575-118.142,0c-32.575,32.573-32.57,85.567,0,118.142
			c32.569,32.574,85.565,32.573,118.142,0C410.831,345.775,410.831,292.777,378.26,260.208z M352.133,352.223
			c-2.511,2.508-6.579,2.508-9.088,0l-23.854-23.855L294.2,353.355c-2.512,2.513-6.576,2.513-9.088,0c-2.51-2.51-2.51-6.578,0-9.086
			l24.99-24.992l-23.854-23.854c-2.512-2.511-2.512-6.582,0-9.088c2.508-2.509,6.574-2.509,9.087,0l23.855,23.855l22.72-22.721
			c2.509-2.509,6.575-2.509,9.086,0c2.511,2.512,2.511,6.579,0,9.088l-22.719,22.719l23.854,23.855
			C354.641,345.643,354.641,349.711,352.133,352.223z"/>
	</g>
</g>
</svg>
