<?xml version="1.0" encoding="utf-8"?>
<!-- Generator: Adobe Illustrator 16.0.0, SVG Export Plug-In . SVG Version: 6.00 Build 0)  -->
<!DOCTYPE svg PUBLIC "-//W3C//DTD SVG 1.1//EN" "http://www.w3.org/Graphics/SVG/1.1/DTD/svg11.dtd">
<svg version="1.1" id="Layer_1" xmlns="http://www.w3.org/2000/svg" xmlns:xlink="http://www.w3.org/1999/xlink" x="0px" y="0px"
	 width="600px" height="600px" viewBox="-91.836 -91.836 600 600" enable-background="new -91.836 -91.836 600 600"
	 xml:space="preserve">
<circle opacity="0.1" fill="#6454A2" enable-background="new    " cx="208.164" cy="208.164" r="300"/>
<g>
	<path fill="#6454A2" d="M196.891,291.638c-0.707-0.708-1.75-0.979-2.714-0.704l-37.512,10.718
		c-1.328-2.059-2.784-4.213-4.376-6.468c-8.779-12.423-20.911-26.915-34.914-41.77l62.448-30.17
		c0.521-0.257,0.987-0.586,1.385-0.987c0.738-0.733,1.241-1.695,1.419-2.748c0.279-1.628-0.252-3.29-1.417-4.454l-15.021-15.021
		c-1.308-1.308-3.223-1.798-5-1.294l-16.272,4.646l-4.733-4.728c-3.18-3.18-8.338-3.183-11.523,0
		c-2.643,2.642-3.081,6.648-1.332,9.755l-13.692,3.911l-4.36-4.363c-3.183-3.182-8.339-3.185-11.518-0.005
		c-2.529,2.526-3.04,6.299-1.554,9.344l-12.149,3.474c-11.758-10.606-23.064-19.811-33.038-26.859
		c-7.912-5.592-14.633-9.576-19.979-11.833c-2.719-1.148-10.975-4.639-15.872,0.26c-4.895,4.892-1.409,13.155-0.262,15.874
		c2.261,5.346,6.24,12.07,11.834,19.98c7.049,9.975,16.259,21.275,26.857,33.038l-3.475,12.149
		c-3.035-1.492-6.806-0.978-9.334,1.548c-3.183,3.183-3.183,8.342,0,11.523l4.358,4.358l-3.911,13.695
		c-3.104-1.752-7.111-1.309-9.753,1.331c-3.183,3.183-3.183,8.346,0,11.527l4.729,4.726l-4.65,16.274
		c-0.503,1.777-0.01,3.689,1.299,5.002l15.019,15.021c1.168,1.163,2.829,1.694,4.454,1.422c1.621-0.279,3.015-1.324,3.736-2.812
		l30.163-62.443c14.862,13.999,29.354,26.127,41.777,34.914c2.253,1.589,4.408,3.048,6.462,4.378l-10.713,37.51
		c-0.276,0.966-0.008,2.008,0.7,2.716l8.159,8.159c0.634,0.634,1.538,0.918,2.419,0.772c0.888-0.147,1.643-0.72,2.033-1.526
		l18.36-38.004c2.926,0.334,6.066-0.072,8.429-2.438c2.361-2.359,2.772-5.504,2.434-8.428l38.008-18.362
		c0.285-0.14,0.537-0.317,0.754-0.538c0.401-0.398,0.667-0.914,0.771-1.492c0.146-0.885-0.142-1.782-0.773-2.421L196.891,291.638z"
		/>
	<path fill="#6454A2" d="M170.803,63.058c-0.282,0.139-0.536,0.319-0.751,0.534c-0.399,0.4-0.675,0.919-0.771,1.495
		c-0.151,0.888,0.137,1.784,0.771,2.419l8.159,8.158c0.711,0.71,1.75,0.98,2.718,0.702l37.515-10.715
		c1.327,2.06,2.781,4.21,4.371,6.465c8.779,12.424,20.914,26.919,34.914,41.775l-62.447,30.171c-0.52,0.25-0.988,0.584-1.386,0.984
		c-0.739,0.739-1.244,1.694-1.42,2.75c-0.279,1.626,0.253,3.286,1.42,4.451l15.021,15.02c1.307,1.309,3.219,1.803,4.999,1.298
		l16.274-4.652l4.733,4.729c3.181,3.183,8.337,3.184,11.518,0.003c2.643-2.645,3.08-6.648,1.336-9.749l13.695-3.917l4.361,4.358
		c3.183,3.183,8.334,3.188,11.517,0.004c2.526-2.528,3.039-6.301,1.551-9.339l12.15-3.473c11.762,10.6,23.065,19.807,33.039,26.854
		c7.907,5.594,14.626,9.578,19.982,11.832c2.714,1.147,10.971,4.64,15.865-0.256c4.9-4.896,1.408-13.158,0.262-15.875
		c-2.265-5.346-6.237-12.071-11.832-19.983c-7.047-9.974-16.254-21.278-26.854-33.038l3.471-12.148
		c3.037,1.489,6.803,0.975,9.336-1.553c3.182-3.178,3.182-8.34,0-11.521l-4.36-4.358l3.909-13.69
		c3.105,1.748,7.109,1.306,9.752-1.334c3.182-3.182,3.188-8.343,0.005-11.525l-4.729-4.729l4.645-16.268
		c0.506-1.779,0.016-3.692-1.292-5.003l-15.024-15.02c-1.159-1.166-2.822-1.699-4.444-1.422c-1.629,0.279-3.021,1.322-3.738,2.81
		L288.874,82.75c-14.86-14.002-29.349-26.131-41.771-34.917c-2.256-1.59-4.41-3.045-6.464-4.378l10.715-37.51
		c0.271-0.962,0.006-2.004-0.707-2.712l-8.158-8.159c-0.636-0.635-1.537-0.919-2.421-0.772c-0.879,0.148-1.638,0.715-2.027,1.522
		L219.683,33.83c-2.928-0.332-6.071,0.077-8.434,2.436c-2.356,2.362-2.771,5.506-2.43,8.43L170.803,63.058z"/>
</g>
<g>
	<path fill="#DC3545" stroke="#DC3545" stroke-width="16" stroke-miterlimit="10" d="M389.861,356.557
		c12.081-18.492,18.853-39.813,19.429-61.946c0.79-30.795-10.48-59.463-31.74-80.729c-1.821-1.817-4.237-2.818-6.803-2.818
		c-2.57,0-4.982,1.001-6.801,2.819c-3.749,3.751-3.749,9.854,0,13.602c17.496,17.495,26.771,41.164,26.109,66.633
		c-0.495,19.243-6.607,37.782-17.502,53.723v8.718L389.861,356.557L389.861,356.557z"/>
	<path fill="#DC3545" stroke="#DC3545" stroke-width="16" stroke-miterlimit="10" d="M331.447,397.661
		c-1.99-1.991-2.983-4.517-2.979-7.577v-5.583c-12.419,5.426-25.827,8.296-39.601,8.296c-23.519-0.002-45.426-8.521-62.02-24.053
		l10.877-1.896c5.226-0.912,8.736-5.9,7.821-11.131c-0.804-4.615-4.787-7.964-9.463-7.964c-0.552,0-1.114,0.049-1.662,0.144
		l-31.653,5.523c-4.592,0.799-7.938,4.762-7.964,9.415l-0.186,31.166c-0.015,2.572,0.972,4.991,2.776,6.817
		c1.806,1.831,4.216,2.844,6.841,2.857c5.271,0,9.584-4.285,9.619-9.557l0.068-11.135c20.144,18.75,46.6,29.027,74.937,29.028h0.014
		c17.694-0.001,34.883-3.929,50.604-11.37h-0.448C335.968,400.646,333.438,399.649,331.447,397.661z"/>
</g>
</svg>
