<?xml version="1.0" encoding="utf-8"?>
<!-- Generator: Adobe Illustrator 16.0.0, SVG Export Plug-In . SVG Version: 6.00 Build 0)  -->
<!DOCTYPE svg PUBLIC "-//W3C//DTD SVG 1.1//EN" "http://www.w3.org/Graphics/SVG/1.1/DTD/svg11.dtd">
<svg version="1.1" id="Layer_1" xmlns="http://www.w3.org/2000/svg" xmlns:xlink="http://www.w3.org/1999/xlink" x="0px" y="0px"
	 width="600px" height="600px" viewBox="-91.836 -91.836 600 600" enable-background="new -91.836 -91.836 600 600"
	 xml:space="preserve">
<circle opacity="0.1" fill="#6454A2" enable-background="new    " cx="208.164" cy="208.164" r="300"/>
<g>
	<g>
		<path fill="#6454A2" d="M272.614,120.98V33.02h0.836c8.284,0,15-6.716,15-15s-6.716-15-15-15h-15.836H152.619h-15.836
			c-8.284,0-15,6.716-15,15s6.716,15,15,15h0.836v87.961c-26.107,6.784-45.383,30.509-45.383,58.738v154.147
			c0,28.36,19.457,52.174,45.75,58.832v5.094c0,7.902,6.43,14.335,14.334,14.335c7.902,0,14.332-6.433,14.332-14.335v-3.235h76.93
			v3.235c0,7.902,6.433,14.335,14.332,14.335c7.902,0,14.334-6.433,14.334-14.335v-5.094c26.293-6.656,45.75-30.472,45.75-58.832
			V179.72C317.997,151.489,298.72,127.765,272.614,120.98z M242.614,33.02v86.011h-74.996V33.02H242.614z M259.45,193.793H150.783
			c-7.363,0-13.332-5.97-13.332-13.333c0-7.364,5.969-13.333,13.332-13.333H259.45c7.362,0,13.331,5.97,13.331,13.333
			C272.782,187.824,266.813,193.793,259.45,193.793z"/>
	</g>
</g>
<path fill="#FFC107" d="M404.563,320.518c0-46.673-37.831-84.5-84.498-84.5c-46.669,0-84.501,37.828-84.501,84.5
	c0,46.666,37.832,84.497,84.501,84.497C366.73,405.015,404.563,367.184,404.563,320.518z"/>
<path fill="#FFFFFF" d="M282.642,295.144c0-4.74,1.521-9.541,4.564-14.407c3.043-4.864,7.483-8.894,13.321-12.087
	c5.839-3.191,12.647-4.79,20.433-4.79c7.233,0,13.62,1.336,19.159,4.004c5.539,2.671,9.814,6.3,12.835,10.892
	c3.02,4.591,4.528,9.578,4.528,14.969c0,4.24-0.86,7.958-2.582,11.15c-1.723,3.191-3.769,5.949-6.139,8.271
	c-2.37,2.321-6.624,6.224-12.76,11.713c-1.697,1.547-3.059,2.906-4.08,4.078c-1.021,1.174-1.784,2.246-2.282,3.22
	c-0.5,0.973-0.887,1.944-1.159,2.918c-0.275,0.973-0.687,2.684-1.234,5.127c-0.948,5.188-3.918,7.784-8.905,7.784
	c-2.596,0-4.779-0.848-6.551-2.547c-1.771-1.694-2.654-4.215-2.654-7.559c0-4.191,0.646-7.82,1.944-10.891
	c1.298-3.068,3.02-5.764,5.164-8.082c2.146-2.32,5.039-5.076,8.683-8.271c3.191-2.794,5.501-4.902,6.924-6.324
	c1.422-1.422,2.619-3.006,3.592-4.752c0.974-1.746,1.461-3.643,1.461-5.688c0-3.992-1.484-7.359-4.454-10.104
	c-2.969-2.743-6.799-4.116-11.487-4.116c-5.489,0-9.531,1.387-12.124,4.154c-2.597,2.77-4.791,6.848-6.586,12.236
	c-1.695,5.64-4.916,8.457-9.655,8.457c-2.796,0-5.153-0.983-7.073-2.957C283.602,299.573,282.642,297.439,282.642,295.144z
	 M319.163,377.171c-3.043,0-5.699-0.985-7.97-2.957c-2.271-1.969-3.405-4.728-3.405-8.271c0-3.144,1.098-5.786,3.293-7.934
	c2.194-2.145,4.89-3.219,8.082-3.219c3.146,0,5.789,1.074,7.936,3.219c2.145,2.146,3.219,4.79,3.219,7.934
	c0,3.494-1.122,6.238-3.368,8.233C324.702,376.173,322.108,377.171,319.163,377.171z"/>
</svg>
