<?xml version="1.0" encoding="utf-8"?>
<!-- Generator: Adobe Illustrator 16.0.0, SVG Export Plug-In . SVG Version: 6.00 Build 0)  -->
<!DOCTYPE svg PUBLIC "-//W3C//DTD SVG 1.1//EN" "http://www.w3.org/Graphics/SVG/1.1/DTD/svg11.dtd">
<svg version="1.1" id="Layer_1" xmlns="http://www.w3.org/2000/svg" xmlns:xlink="http://www.w3.org/1999/xlink" x="0px" y="0px"
	 width="600px" height="600px" viewBox="-91.836 -91.836 600 600" enable-background="new -91.836 -91.836 600 600"
	 xml:space="preserve">
<circle opacity="0.1" fill="#6454A2" cx="208.164" cy="208.164" r="300"/>
<g>
	<g>
		<path fill="#6454A2" d="M382.624,217.599l-29.051-16.144v-13.14c0-8.836-7.164-16-16-16c-7.342,0-13.514,4.951-15.396,11.692
			l-24.445-13.585v-12.107c0-8.836-7.164-16-16-16c-7.021,0-12.967,4.525-15.125,10.813l-21.689-12.053
			c-1.605-31.051-4.52-59.535-8.582-83.175c-3.221-18.753-7.027-33.617-11.315-44.179c-2.18-5.362-8.807-21.679-22.403-21.679
			c-13.598,0-20.224,16.317-22.402,21.679c-4.289,10.562-8.097,25.426-11.318,44.179c-4.06,23.64-6.975,52.124-8.582,83.175
			l-21.69,12.053c-2.157-6.287-8.106-10.813-15.124-10.813c-8.837,0-16,7.164-16,16v12.107l-24.448,13.585
			c-1.882-6.741-8.055-11.692-15.396-11.692c-8.837,0-16,7.164-16,16v13.14l-29.053,16.144c-3.174,1.766-5.143,5.109-5.143,8.74
			v41.719c0,3.236,1.568,6.275,4.208,8.15c2.64,1.877,6.024,2.355,9.083,1.291l128.616-44.828
			c1.189,40.082,4.47,77.047,9.528,106.496c0.917,5.342,1.884,10.355,2.895,15.059l-66.969,37.215
			c-1.725,0.959-2.794,2.773-2.794,4.75v22.66c0,1.762,0.852,3.41,2.286,4.432c1.434,1.018,3.272,1.277,4.935,0.701l78.279-27.285
			c3.598,4.531,8.53,8.33,15.088,8.33c6.559,0,11.49-3.799,15.088-8.33l78.278,27.285c0.584,0.199,1.188,0.303,1.787,0.303
			c1.111,0,2.217-0.342,3.145-1.004c1.436-1.021,2.285-2.67,2.285-4.432v-22.662c0-1.975-1.068-3.791-2.793-4.748l-66.969-37.215
			c1.01-4.699,1.977-9.715,2.895-15.059c5.061-29.447,8.34-66.414,9.527-106.496l128.617,44.828c1.07,0.375,2.184,0.559,3.289,0.559
			c2.051,0,4.078-0.631,5.791-1.85c2.643-1.875,4.209-4.914,4.209-8.15v-41.719C387.769,222.708,385.8,219.362,382.624,217.599z"/>
	</g>
</g>
<circle fill="#FFFFFF" stroke="#000000" stroke-miterlimit="10" cx="317.522" cy="319.696" r="74.529"/>
<path fill="#DC3545" d="M319.189,229.679c-50.557,0-91.684,41.128-91.684,91.681s41.127,91.683,91.682,91.683
	s91.681-41.13,91.681-91.683S369.74,229.679,319.189,229.679z M319.189,260.671c11.118,0,21.55,3.008,30.521,8.251l-82.961,82.963
	c-5.243-8.974-8.253-19.403-8.253-30.525C258.497,287.895,285.723,260.671,319.189,260.671z M319.189,382.052
	c-11.123,0-21.552-3.01-30.525-8.253l82.962-82.963c5.242,8.974,8.252,19.404,8.252,30.523
	C379.878,354.826,352.652,382.052,319.189,382.052z"/>
</svg>
