<?xml version="1.0" encoding="utf-8"?>
<!-- Generator: Adobe Illustrator 16.0.0, SVG Export Plug-In . SVG Version: 6.00 Build 0)  -->
<!DOCTYPE svg PUBLIC "-//W3C//DTD SVG 1.1//EN" "http://www.w3.org/Graphics/SVG/1.1/DTD/svg11.dtd">
<svg version="1.1" id="Layer_1" xmlns="http://www.w3.org/2000/svg" xmlns:xlink="http://www.w3.org/1999/xlink" x="0px" y="0px"
	 width="1000.4px" height="305.9px" viewBox="0 0 1000.4 305.9" enable-background="new 0 0 1000.4 305.9" xml:space="preserve">
<g>
	<g>
		<g>
			<path fill="#FFFFFF" d="M899.001,168.9c0-5,4-9,9-9H930.4c-27.8-17.5-67.7-16.5-67.7-16.5h-798l3.6,4.6L396.301,209.1
				c0,0,47.1,13.199,62,13.199h272.3h181.9c0,0,51.5,0.2,86.6-17.3c-9.3-22.399-50.2-26.899-50.2-26.899c0-0.101-0.1-0.101-0.1-0.2
				h-40.8C903.1,177.9,899.001,173.9,899.001,168.9z"/>
		</g>
		<g>
			<path fill="#C7C7C7" d="M930.4,159.9h-22.399c-5,0-9,4-9,9s4,9,9,9h40.8C944.2,170.4,937.7,164.5,930.4,159.9z"/>
		</g>
	</g>
	<g>
		<rect x="851.801" y="244.6" fill="#ADADAD" width="13.399" height="49.5"/>
	</g>
	<g>
		<rect x="529.1" y="244.7" fill="#ADADAD" width="13.4" height="49.5"/>
	</g>
	<g>
		<path fill="#EBEBEB" d="M912.6,222.3H730.7H458.4c-15,0-62-13.199-62-13.199L68.4,148L88.2,173.1C96.8,178.8,126,184.8,126,184.8
			L353.2,232.4c115.4,21,179.4,20.6,179.4,20.6h303.1c66.4,0,112.5-6.3,112.5-6.3c43.2-5.7,52.3-38.3,52.3-38.3
			c-0.3-1.2-0.8-2.2-1.199-3.3C964.1,222.5,912.6,222.3,912.6,222.3z"/>
	</g>
	<g>
		<polygon fill="#FFFFFF" points="213.7,143.4 76.2,22 7.2,22 70.7,143.4 		"/>
	</g>
	<g>
		<polygon fill="#C7C7C7" points="191.2,143.4 49.1,116.8 0,116.8 95.6,157.4 145.4,162.4 		"/>
	</g>
	<g>
		<path fill="#4D4D4D" d="M533.001,291.2c0,8.1-6.601,14.7-14.7,14.7c-8.101,0-14.7-6.601-14.7-14.7s6.6-14.7,14.7-14.7
			C526.4,276.4,533.001,283,533.001,291.2z"/>
	</g>
	<g>
		<path fill="#C7C7C7" d="M523.6,291.2c0,2.9-2.4,5.3-5.3,5.3c-2.9,0-5.3-2.399-5.3-5.3s2.399-5.3,5.3-5.3
			C521.2,285.9,523.6,288.3,523.6,291.2z"/>
	</g>
	<g>
		<path fill="#4D4D4D" d="M567.9,291.2c0,8.1-6.6,14.7-14.7,14.7c-8.1,0-14.699-6.601-14.699-14.7s6.6-14.7,14.699-14.7
			C561.301,276.4,567.9,283,567.9,291.2z"/>
	</g>
	<g>
		<path fill="#C7C7C7" d="M558.501,291.2c0,2.9-2.4,5.3-5.301,5.3c-2.899,0-5.3-2.399-5.3-5.3s2.4-5.3,5.3-5.3
			C556.1,285.9,558.501,288.3,558.501,291.2z"/>
	</g>
	<g>
		<path fill="#4D4D4D" d="M873.6,291.2c0,8.1-6.6,14.7-14.7,14.7c-8.1,0-14.7-6.601-14.7-14.7s6.601-14.7,14.7-14.7
			C867.001,276.4,873.6,283,873.6,291.2z"/>
	</g>
	<g>
		<path fill="#C7C7C7" d="M864.1,291.2c0,2.9-2.4,5.3-5.3,5.3c-2.9,0-5.3-2.399-5.3-5.3s2.399-5.3,5.3-5.3
			C861.7,285.9,864.1,288.3,864.1,291.2z"/>
	</g>
	<g>
		<polygon fill="#C7C7C7" points="426.7,208.4 273.7,125.2 315.6,125.2 730.7,211.5 730.7,222.3 458.4,222.3 		"/>
	</g>
	<g>
		<g>
			<path fill="#4D4D4D" d="M532.7,209.1c-12.199,2.199-25.699,5.199-39.3,9.8V230.3l39.3-5.1V209.1z"/>
		</g>
		<g>
			<polygon fill="#5C5C5C" points="532.7,225.2 493.301,230.3 493.301,243.1 532.7,243.1 			"/>
		</g>
		<g>
			<polygon fill="#4D4D4D" points="532.7,243.1 493.301,243.1 493.301,256 532.7,261.1 			"/>
		</g>
		<g>
			<path fill="#5C5C5C" d="M493.301,256v11.4c13.7,4.5,27.2,7.6,39.3,9.7V261L493.301,256z"/>
		</g>
	</g>
	<g>
		<path fill="#ADADAD" d="M637.4,216.5V209c-5.5-3-11.8-4.7-18.6-4.7H580.2c0,0-19.6,0-46,4.5c-0.5,0.101-1.1,0.2-1.6,0.301v11.1
			C545.301,217.2,589.301,208.6,637.4,216.5z"/>
	</g>
	<g>
		<path fill="#C7C7C7" d="M532.7,220.2v5v18v18v16.1c0.5,0.101,1.101,0.2,1.601,0.301c26.399,4.5,46,4.5,46,4.5h38.6
			c6.7,0,13-1.7,18.6-4.7v-60.8C589.301,208.6,545.301,217.2,532.7,220.2z"/>
	</g>
	<g>
		<path fill="#C7C7C7" d="M849.6,170.3c0,4.2-3.4,7.601-7.6,7.601c-4.2,0-7.601-3.4-7.601-7.601c0-4.199,3.4-7.6,7.601-7.6
			C846.2,162.7,849.6,166.1,849.6,170.3z"/>
	</g>
	<g>
		<path fill="#C7C7C7" d="M818.801,170.3c0,4.2-3.4,7.601-7.601,7.601c-4.199,0-7.6-3.4-7.6-7.601c0-4.199,3.4-7.6,7.6-7.6
			C815.4,162.7,818.801,166.1,818.801,170.3z"/>
	</g>
	<g>
		<path fill="#C7C7C7" d="M788.001,170.3c0,4.2-3.4,7.601-7.601,7.601s-7.6-3.4-7.6-7.601c0-4.199,3.399-7.6,7.6-7.6
			S788.001,166.1,788.001,170.3z"/>
	</g>
	<g>
		<path fill="#C7C7C7" d="M757.2,170.3c0,4.2-3.399,7.601-7.6,7.601s-7.6-3.4-7.6-7.601c0-4.199,3.399-7.6,7.6-7.6
			S757.2,166.1,757.2,170.3z"/>
	</g>
	<g>
		<path fill="#C7C7C7" d="M726.501,170.3c0,4.2-3.4,7.601-7.601,7.601s-7.6-3.4-7.6-7.601c0-4.199,3.399-7.6,7.6-7.6
			S726.501,166.1,726.501,170.3z"/>
	</g>
	<g>
		<path fill="#C7C7C7" d="M695.7,170.3c0,4.2-3.399,7.601-7.6,7.601s-7.6-3.4-7.6-7.601c0-4.199,3.399-7.6,7.6-7.6
			S695.7,166.1,695.7,170.3z"/>
	</g>
	<g>
		<path fill="#C7C7C7" d="M664.9,170.3c0,4.2-3.399,7.601-7.6,7.601s-7.601-3.4-7.601-7.601c0-4.199,3.4-7.6,7.601-7.6
			S664.9,166.1,664.9,170.3z"/>
	</g>
	<g>
		<path fill="#C7C7C7" d="M634.1,170.3c0,4.2-3.4,7.601-7.6,7.601c-4.2,0-7.601-3.4-7.601-7.601c0-4.199,3.4-7.6,7.601-7.6
			C630.7,162.7,634.1,166.1,634.1,170.3z"/>
	</g>
	<g>
		<path fill="#C7C7C7" d="M603.301,170.3c0,4.2-3.4,7.601-7.601,7.601c-4.199,0-7.6-3.4-7.6-7.601c0-4.199,3.4-7.6,7.6-7.6
			C599.9,162.7,603.301,166.1,603.301,170.3z"/>
	</g>
	<g>
		<path fill="#C7C7C7" d="M572.6,170.3c0,4.2-3.4,7.601-7.6,7.601c-4.2,0-7.601-3.4-7.601-7.601c0-4.199,3.4-7.6,7.601-7.6
			C569.2,162.7,572.6,166.1,572.6,170.3z"/>
	</g>
	<g>
		<path fill="#C7C7C7" d="M541.801,170.3c0,4.2-3.4,7.601-7.601,7.601c-4.199,0-7.6-3.4-7.6-7.601c0-4.199,3.4-7.6,7.6-7.6
			C538.4,162.7,541.801,166.1,541.801,170.3z"/>
	</g>
	<g>
		<path fill="#C7C7C7" d="M511.001,170.3c0,4.2-3.4,7.601-7.601,7.601s-7.6-3.4-7.6-7.601c0-4.199,3.399-7.6,7.6-7.6
			S511.001,166.1,511.001,170.3z"/>
	</g>
	<g>
		<path fill="#C7C7C7" d="M480.2,170.3c0,4.2-3.399,7.601-7.6,7.601s-7.6-3.4-7.6-7.601c0-4.199,3.399-7.6,7.6-7.6
			S480.2,166.1,480.2,170.3z"/>
	</g>
	<g>
		<path fill="#C7C7C7" d="M449.4,170.3c0,4.2-3.399,7.601-7.6,7.601s-7.601-3.4-7.601-7.601c0-4.199,3.4-7.6,7.601-7.6
			S449.4,166.1,449.4,170.3z"/>
	</g>
	<g>
		<path fill="#C7C7C7" d="M418.7,170.3c0,4.2-3.399,7.601-7.6,7.601s-7.6-3.4-7.6-7.601c0-4.199,3.399-7.6,7.6-7.6
			S418.7,166.1,418.7,170.3z"/>
	</g>
	<g>
		<path fill="#C7C7C7" d="M387.9,170.3c0,4.2-3.399,7.601-7.6,7.601s-7.601-3.4-7.601-7.601c0-4.199,3.4-7.6,7.601-7.6
			S387.9,166.1,387.9,170.3z"/>
	</g>
	<g>
		<path fill="#C7C7C7" d="M357.1,170.3c0,4.2-3.4,7.601-7.6,7.601c-4.2,0-7.601-3.4-7.601-7.601c0-4.199,3.4-7.6,7.601-7.6
			C353.7,162.7,357.1,166.1,357.1,170.3z"/>
	</g>
	<g>
		<path fill="#C7C7C7" d="M326.301,170.3c0,4.2-3.4,7.601-7.601,7.601s-7.6-3.4-7.6-7.601c0-4.199,3.399-7.6,7.6-7.6
			S326.301,166.1,326.301,170.3z"/>
	</g>
</g>
</svg>
