<?xml version="1.0" encoding="utf-8"?>
<!-- Generator: Adobe Illustrator 16.0.0, SVG Export Plug-In . SVG Version: 6.00 Build 0)  -->
<!DOCTYPE svg PUBLIC "-//W3C//DTD SVG 1.1//EN" "http://www.w3.org/Graphics/SVG/1.1/DTD/svg11.dtd">
<svg version="1.1" id="Layer_1" xmlns="http://www.w3.org/2000/svg" xmlns:xlink="http://www.w3.org/1999/xlink" x="0px" y="0px"
	 width="1282.611px" height="173.928px" viewBox="0 0 1282.611 173.928" enable-background="new 0 0 1282.611 173.928"
	 xml:space="preserve">
<g>
	<g>
		
			<linearGradient id="SVGID_1_" gradientUnits="userSpaceOnUse" x1="262.5237" y1="123.376" x2="263.55" y2="130.939" gradientTransform="matrix(1 0 0 -1 -8.3599 197.9824)">
			<stop  offset="0.0266" style="stop-color:#F7FBFE"/>
			<stop  offset="0.2704" style="stop-color:#E8F4FD"/>
			<stop  offset="0.6016" style="stop-color:#DBEEFC"/>
			<stop  offset="0.8964" style="stop-color:#D6ECFC"/>
		</linearGradient>
		<rect x="253.931" y="69.214" fill="url(#SVGID_1_)" width="1.496" height="3.185"/>
		
			<linearGradient id="SVGID_2_" gradientUnits="userSpaceOnUse" x1="264.905" y1="123.377" x2="265.9314" y2="130.94" gradientTransform="matrix(1 0 0 -1 -8.3599 197.9824)">
			<stop  offset="0.0266" style="stop-color:#F7FBFE"/>
			<stop  offset="0.2704" style="stop-color:#E8F4FD"/>
			<stop  offset="0.6016" style="stop-color:#DBEEFC"/>
			<stop  offset="0.8964" style="stop-color:#D6ECFC"/>
		</linearGradient>
		<rect x="256.313" y="69.214" fill="url(#SVGID_2_)" width="1.496" height="3.185"/>
		
			<linearGradient id="SVGID_3_" gradientUnits="userSpaceOnUse" x1="267.2844" y1="123.375" x2="268.3108" y2="130.9381" gradientTransform="matrix(1 0 0 -1 -8.3599 197.9824)">
			<stop  offset="0.0266" style="stop-color:#F7FBFE"/>
			<stop  offset="0.2704" style="stop-color:#E8F4FD"/>
			<stop  offset="0.6016" style="stop-color:#DBEEFC"/>
			<stop  offset="0.8964" style="stop-color:#D6ECFC"/>
		</linearGradient>
		<rect x="258.693" y="69.214" fill="url(#SVGID_3_)" width="1.496" height="3.185"/>
		
			<linearGradient id="SVGID_4_" gradientUnits="userSpaceOnUse" x1="269.6667" y1="123.375" x2="270.6931" y2="130.9381" gradientTransform="matrix(1 0 0 -1 -8.3599 197.9824)">
			<stop  offset="0.0266" style="stop-color:#F7FBFE"/>
			<stop  offset="0.2704" style="stop-color:#E8F4FD"/>
			<stop  offset="0.6016" style="stop-color:#DBEEFC"/>
			<stop  offset="0.8964" style="stop-color:#D6ECFC"/>
		</linearGradient>
		<rect x="261.074" y="69.214" fill="url(#SVGID_4_)" width="1.495" height="3.185"/>
		
			<linearGradient id="SVGID_5_" gradientUnits="userSpaceOnUse" x1="272.0471" y1="123.375" x2="273.0736" y2="130.9392" gradientTransform="matrix(1 0 0 -1 -8.3599 197.9824)">
			<stop  offset="0.0266" style="stop-color:#F7FBFE"/>
			<stop  offset="0.2704" style="stop-color:#E8F4FD"/>
			<stop  offset="0.6016" style="stop-color:#DBEEFC"/>
			<stop  offset="0.8964" style="stop-color:#D6ECFC"/>
		</linearGradient>
		<rect x="263.454" y="69.214" fill="url(#SVGID_5_)" width="1.497" height="3.185"/>
		
			<linearGradient id="SVGID_6_" gradientUnits="userSpaceOnUse" x1="274.4275" y1="123.375" x2="275.4538" y2="130.9381" gradientTransform="matrix(1 0 0 -1 -8.3599 197.9824)">
			<stop  offset="0.0266" style="stop-color:#F7FBFE"/>
			<stop  offset="0.2704" style="stop-color:#E8F4FD"/>
			<stop  offset="0.6016" style="stop-color:#DBEEFC"/>
			<stop  offset="0.8964" style="stop-color:#D6ECFC"/>
		</linearGradient>
		<rect x="265.835" y="69.214" fill="url(#SVGID_6_)" width="1.497" height="3.185"/>
		
			<linearGradient id="SVGID_7_" gradientUnits="userSpaceOnUse" x1="276.8088" y1="123.376" x2="277.8352" y2="130.9391" gradientTransform="matrix(1 0 0 -1 -8.3599 197.9824)">
			<stop  offset="0.0266" style="stop-color:#F7FBFE"/>
			<stop  offset="0.2704" style="stop-color:#E8F4FD"/>
			<stop  offset="0.6016" style="stop-color:#DBEEFC"/>
			<stop  offset="0.8964" style="stop-color:#D6ECFC"/>
		</linearGradient>
		<rect x="268.216" y="69.214" fill="url(#SVGID_7_)" width="1.497" height="3.185"/>
	</g>
	<g opacity="0.75">
		
			<linearGradient id="SVGID_8_" gradientUnits="userSpaceOnUse" x1="259.8967" y1="116.1953" x2="260.9462" y2="123.9289" gradientTransform="matrix(1 0 0 -1 -8.3599 197.9824)">
			<stop  offset="0.0266" style="stop-color:#F7FBFE"/>
			<stop  offset="0.2704" style="stop-color:#E8F4FD"/>
			<stop  offset="0.6016" style="stop-color:#DBEEFC"/>
			<stop  offset="0.8964" style="stop-color:#D6ECFC"/>
		</linearGradient>
		<rect x="251.035" y="76.308" fill="url(#SVGID_8_)" width="2.059" height="3.186"/>
		
			<linearGradient id="SVGID_9_" gradientUnits="userSpaceOnUse" x1="263.1741" y1="116.1953" x2="264.2236" y2="123.9289" gradientTransform="matrix(1 0 0 -1 -8.3599 197.9824)">
			<stop  offset="0.0266" style="stop-color:#F7FBFE"/>
			<stop  offset="0.2704" style="stop-color:#E8F4FD"/>
			<stop  offset="0.6016" style="stop-color:#DBEEFC"/>
			<stop  offset="0.8964" style="stop-color:#D6ECFC"/>
		</linearGradient>
		<rect x="254.312" y="76.308" fill="url(#SVGID_9_)" width="2.061" height="3.186"/>
		
			<linearGradient id="SVGID_10_" gradientUnits="userSpaceOnUse" x1="266.45" y1="116.1963" x2="267.4991" y2="123.9277" gradientTransform="matrix(1 0 0 -1 -8.3599 197.9824)">
			<stop  offset="0.0266" style="stop-color:#F7FBFE"/>
			<stop  offset="0.2704" style="stop-color:#E8F4FD"/>
			<stop  offset="0.6016" style="stop-color:#DBEEFC"/>
			<stop  offset="0.8964" style="stop-color:#D6ECFC"/>
		</linearGradient>
		<rect x="257.588" y="76.308" fill="url(#SVGID_10_)" width="2.059" height="3.186"/>
		
			<linearGradient id="SVGID_11_" gradientUnits="userSpaceOnUse" x1="269.7253" y1="116.1953" x2="270.7748" y2="123.9289" gradientTransform="matrix(1 0 0 -1 -8.3599 197.9824)">
			<stop  offset="0.0266" style="stop-color:#F7FBFE"/>
			<stop  offset="0.2704" style="stop-color:#E8F4FD"/>
			<stop  offset="0.6016" style="stop-color:#DBEEFC"/>
			<stop  offset="0.8964" style="stop-color:#D6ECFC"/>
		</linearGradient>
		<rect x="260.864" y="76.308" fill="url(#SVGID_11_)" width="2.06" height="3.186"/>
		
			<linearGradient id="SVGID_12_" gradientUnits="userSpaceOnUse" x1="273.0032" y1="116.1943" x2="274.0527" y2="123.9278" gradientTransform="matrix(1 0 0 -1 -8.3599 197.9824)">
			<stop  offset="0.0266" style="stop-color:#F7FBFE"/>
			<stop  offset="0.2704" style="stop-color:#E8F4FD"/>
			<stop  offset="0.6016" style="stop-color:#DBEEFC"/>
			<stop  offset="0.8964" style="stop-color:#D6ECFC"/>
		</linearGradient>
		<rect x="264.141" y="76.308" fill="url(#SVGID_12_)" width="2.061" height="3.186"/>
		
			<linearGradient id="SVGID_13_" gradientUnits="userSpaceOnUse" x1="276.2786" y1="116.1973" x2="277.3278" y2="123.9287" gradientTransform="matrix(1 0 0 -1 -8.3599 197.9824)">
			<stop  offset="0.0266" style="stop-color:#F7FBFE"/>
			<stop  offset="0.2704" style="stop-color:#E8F4FD"/>
			<stop  offset="0.6016" style="stop-color:#DBEEFC"/>
			<stop  offset="0.8964" style="stop-color:#D6ECFC"/>
		</linearGradient>
		<rect x="267.417" y="76.308" fill="url(#SVGID_13_)" width="2.059" height="3.186"/>
		
			<linearGradient id="SVGID_14_" gradientUnits="userSpaceOnUse" x1="279.5559" y1="116.1943" x2="280.6053" y2="123.9268" gradientTransform="matrix(1 0 0 -1 -8.3599 197.9824)">
			<stop  offset="0.0266" style="stop-color:#F7FBFE"/>
			<stop  offset="0.2704" style="stop-color:#E8F4FD"/>
			<stop  offset="0.6016" style="stop-color:#DBEEFC"/>
			<stop  offset="0.8964" style="stop-color:#D6ECFC"/>
		</linearGradient>
		<rect x="270.694" y="76.308" fill="url(#SVGID_14_)" width="2.06" height="3.186"/>
	</g>
	
		<linearGradient id="SVGID_15_" gradientUnits="userSpaceOnUse" x1="251.6101" y1="-43.083" x2="284.5885" y2="199.9295" gradientTransform="matrix(1 0 0 -1 -8.3599 197.9824)">
		<stop  offset="0.0266" style="stop-color:#F7FBFE"/>
		<stop  offset="0.2704" style="stop-color:#E8F4FD"/>
		<stop  offset="0.6016" style="stop-color:#DBEEFC"/>
		<stop  offset="0.8964" style="stop-color:#D6ECFC"/>
	</linearGradient>
	<polygon fill="url(#SVGID_15_)" points="272.361,95.416 276.036,73.448 271.492,72.385 272.249,68.137 264.935,68.137 
		264.935,66.245 265.731,66.245 265.731,65.304 257.623,65.304 257.623,66.245 258.637,66.245 258.637,68.137 251.322,68.137 
		252.08,72.385 247.536,73.448 252.08,96.285 255.454,99.664 252.539,172.381 271.032,172.381 268.687,99.838 	"/>
</g>
<g>
	<g>
		
			<linearGradient id="SVGID_16_" gradientUnits="userSpaceOnUse" x1="325.8792" y1="123.3779" x2="326.9052" y2="130.9388" gradientTransform="matrix(1 0 0 -1 -8.3599 197.9824)">
			<stop  offset="0.0266" style="stop-color:#F7FBFE"/>
			<stop  offset="0.2704" style="stop-color:#E8F4FD"/>
			<stop  offset="0.6016" style="stop-color:#DBEEFC"/>
			<stop  offset="0.8964" style="stop-color:#D6ECFC"/>
		</linearGradient>
		<rect x="317.286" y="69.214" fill="url(#SVGID_16_)" width="1.496" height="3.185"/>
		
			<linearGradient id="SVGID_17_" gradientUnits="userSpaceOnUse" x1="328.2605" y1="123.3779" x2="329.2866" y2="130.9388" gradientTransform="matrix(1 0 0 -1 -8.3599 197.9824)">
			<stop  offset="0.0266" style="stop-color:#F7FBFE"/>
			<stop  offset="0.2704" style="stop-color:#E8F4FD"/>
			<stop  offset="0.6016" style="stop-color:#DBEEFC"/>
			<stop  offset="0.8964" style="stop-color:#D6ECFC"/>
		</linearGradient>
		<rect x="319.668" y="69.214" fill="url(#SVGID_17_)" width="1.495" height="3.185"/>
		
			<linearGradient id="SVGID_18_" gradientUnits="userSpaceOnUse" x1="330.6404" y1="123.377" x2="331.6667" y2="130.94" gradientTransform="matrix(1 0 0 -1 -8.3599 197.9824)">
			<stop  offset="0.0266" style="stop-color:#F7FBFE"/>
			<stop  offset="0.2704" style="stop-color:#E8F4FD"/>
			<stop  offset="0.6016" style="stop-color:#DBEEFC"/>
			<stop  offset="0.8964" style="stop-color:#D6ECFC"/>
		</linearGradient>
		<rect x="322.048" y="69.214" fill="url(#SVGID_18_)" width="1.496" height="3.185"/>
		
			<linearGradient id="SVGID_19_" gradientUnits="userSpaceOnUse" x1="333.0217" y1="123.376" x2="334.0478" y2="130.9369" gradientTransform="matrix(1 0 0 -1 -8.3599 197.9824)">
			<stop  offset="0.0266" style="stop-color:#F7FBFE"/>
			<stop  offset="0.2704" style="stop-color:#E8F4FD"/>
			<stop  offset="0.6016" style="stop-color:#DBEEFC"/>
			<stop  offset="0.8964" style="stop-color:#D6ECFC"/>
		</linearGradient>
		<rect x="324.429" y="69.214" fill="url(#SVGID_19_)" width="1.496" height="3.185"/>
		
			<linearGradient id="SVGID_20_" gradientUnits="userSpaceOnUse" x1="335.4031" y1="123.376" x2="336.4292" y2="130.9369" gradientTransform="matrix(1 0 0 -1 -8.3599 197.9824)">
			<stop  offset="0.0266" style="stop-color:#F7FBFE"/>
			<stop  offset="0.2704" style="stop-color:#E8F4FD"/>
			<stop  offset="0.6016" style="stop-color:#DBEEFC"/>
			<stop  offset="0.8964" style="stop-color:#D6ECFC"/>
		</linearGradient>
		<rect x="326.81" y="69.214" fill="url(#SVGID_20_)" width="1.497" height="3.185"/>
		
			<linearGradient id="SVGID_21_" gradientUnits="userSpaceOnUse" x1="337.7825" y1="123.375" x2="338.8087" y2="130.937" gradientTransform="matrix(1 0 0 -1 -8.3599 197.9824)">
			<stop  offset="0.0266" style="stop-color:#F7FBFE"/>
			<stop  offset="0.2704" style="stop-color:#E8F4FD"/>
			<stop  offset="0.6016" style="stop-color:#DBEEFC"/>
			<stop  offset="0.8964" style="stop-color:#D6ECFC"/>
		</linearGradient>
		<rect x="329.19" y="69.214" fill="url(#SVGID_21_)" width="1.497" height="3.185"/>
		
			<linearGradient id="SVGID_22_" gradientUnits="userSpaceOnUse" x1="340.1638" y1="123.375" x2="341.1902" y2="130.9381" gradientTransform="matrix(1 0 0 -1 -8.3599 197.9824)">
			<stop  offset="0.0266" style="stop-color:#F7FBFE"/>
			<stop  offset="0.2704" style="stop-color:#E8F4FD"/>
			<stop  offset="0.6016" style="stop-color:#DBEEFC"/>
			<stop  offset="0.8964" style="stop-color:#D6ECFC"/>
		</linearGradient>
		<rect x="331.571" y="69.214" fill="url(#SVGID_22_)" width="1.497" height="3.185"/>
	</g>
	<g opacity="0.75">
		
			<linearGradient id="SVGID_23_" gradientUnits="userSpaceOnUse" x1="323.2527" y1="116.1953" x2="324.302" y2="123.9278" gradientTransform="matrix(1 0 0 -1 -8.3599 197.9824)">
			<stop  offset="0.0266" style="stop-color:#F7FBFE"/>
			<stop  offset="0.2704" style="stop-color:#E8F4FD"/>
			<stop  offset="0.6016" style="stop-color:#DBEEFC"/>
			<stop  offset="0.8964" style="stop-color:#D6ECFC"/>
		</linearGradient>
		<rect x="314.391" y="76.308" fill="url(#SVGID_23_)" width="2.059" height="3.186"/>
		
			<linearGradient id="SVGID_24_" gradientUnits="userSpaceOnUse" x1="326.5286" y1="116.1953" x2="327.5781" y2="123.9289" gradientTransform="matrix(1 0 0 -1 -8.3599 197.9824)">
			<stop  offset="0.0266" style="stop-color:#F7FBFE"/>
			<stop  offset="0.2704" style="stop-color:#E8F4FD"/>
			<stop  offset="0.6016" style="stop-color:#DBEEFC"/>
			<stop  offset="0.8964" style="stop-color:#D6ECFC"/>
		</linearGradient>
		<rect x="317.666" y="76.308" fill="url(#SVGID_24_)" width="2.061" height="3.186"/>
		
			<linearGradient id="SVGID_25_" gradientUnits="userSpaceOnUse" x1="329.8059" y1="116.1953" x2="330.8554" y2="123.9289" gradientTransform="matrix(1 0 0 -1 -8.3599 197.9824)">
			<stop  offset="0.0266" style="stop-color:#F7FBFE"/>
			<stop  offset="0.2704" style="stop-color:#E8F4FD"/>
			<stop  offset="0.6016" style="stop-color:#DBEEFC"/>
			<stop  offset="0.8964" style="stop-color:#D6ECFC"/>
		</linearGradient>
		<rect x="320.944" y="76.308" fill="url(#SVGID_25_)" width="2.06" height="3.186"/>
		
			<linearGradient id="SVGID_26_" gradientUnits="userSpaceOnUse" x1="333.0828" y1="116.1973" x2="334.1318" y2="123.9276" gradientTransform="matrix(1 0 0 -1 -8.3599 197.9824)">
			<stop  offset="0.0266" style="stop-color:#F7FBFE"/>
			<stop  offset="0.2704" style="stop-color:#E8F4FD"/>
			<stop  offset="0.6016" style="stop-color:#DBEEFC"/>
			<stop  offset="0.8964" style="stop-color:#D6ECFC"/>
		</linearGradient>
		<rect x="324.22" y="76.308" fill="url(#SVGID_26_)" width="2.059" height="3.186"/>
		
			<linearGradient id="SVGID_27_" gradientUnits="userSpaceOnUse" x1="336.3586" y1="116.1982" x2="337.4078" y2="123.9296" gradientTransform="matrix(1 0 0 -1 -8.3599 197.9824)">
			<stop  offset="0.0266" style="stop-color:#F7FBFE"/>
			<stop  offset="0.2704" style="stop-color:#E8F4FD"/>
			<stop  offset="0.6016" style="stop-color:#DBEEFC"/>
			<stop  offset="0.8964" style="stop-color:#D6ECFC"/>
		</linearGradient>
		<rect x="327.495" y="76.308" fill="url(#SVGID_27_)" width="2.061" height="3.186"/>
		
			<linearGradient id="SVGID_28_" gradientUnits="userSpaceOnUse" x1="339.6345" y1="116.1982" x2="340.6834" y2="123.9274" gradientTransform="matrix(1 0 0 -1 -8.3599 197.9824)">
			<stop  offset="0.0266" style="stop-color:#F7FBFE"/>
			<stop  offset="0.2704" style="stop-color:#E8F4FD"/>
			<stop  offset="0.6016" style="stop-color:#DBEEFC"/>
			<stop  offset="0.8964" style="stop-color:#D6ECFC"/>
		</linearGradient>
		<rect x="330.773" y="76.308" fill="url(#SVGID_28_)" width="2.059" height="3.186"/>
		
			<linearGradient id="SVGID_29_" gradientUnits="userSpaceOnUse" x1="342.9109" y1="116.1963" x2="343.9604" y2="123.9299" gradientTransform="matrix(1 0 0 -1 -8.3599 197.9824)">
			<stop  offset="0.0266" style="stop-color:#F7FBFE"/>
			<stop  offset="0.2704" style="stop-color:#E8F4FD"/>
			<stop  offset="0.6016" style="stop-color:#DBEEFC"/>
			<stop  offset="0.8964" style="stop-color:#D6ECFC"/>
		</linearGradient>
		<rect x="334.049" y="76.308" fill="url(#SVGID_29_)" width="2.059" height="3.186"/>
	</g>
	
		<linearGradient id="SVGID_30_" gradientUnits="userSpaceOnUse" x1="314.9656" y1="-43.083" x2="347.944" y2="199.9295" gradientTransform="matrix(1 0 0 -1 -8.3599 197.9824)">
		<stop  offset="0.0266" style="stop-color:#F7FBFE"/>
		<stop  offset="0.2704" style="stop-color:#E8F4FD"/>
		<stop  offset="0.6016" style="stop-color:#DBEEFC"/>
		<stop  offset="0.8964" style="stop-color:#D6ECFC"/>
	</linearGradient>
	<polygon fill="url(#SVGID_30_)" points="335.716,95.416 339.392,73.448 334.847,72.385 335.604,68.137 328.289,68.137 
		328.289,66.245 329.086,66.245 329.086,65.304 320.978,65.304 320.978,66.245 321.991,66.245 321.991,68.137 314.678,68.137 
		315.436,72.385 310.891,73.448 315.436,96.285 318.809,99.664 315.895,172.381 334.388,172.381 332.041,99.838 	"/>
</g>
<g>
	<g>
		<g>
			<g>
				<g>
					<circle fill="#C2E3FA" cx="542.629" cy="144.628" r="13.57"/>
					<polygon fill="#BAE0FA" points="542.631,154.349 550.916,149.34 542.75,153.372 					"/>
					<polygon fill="#BAE0FA" points="533.967,149.543 542.252,154.552 542.135,153.575 					"/>
					<polygon fill="#BAE0FA" points="542.514,148.933 550.799,143.925 542.631,147.956 					"/>
					<polygon fill="#BAE0FA" points="533.967,143.925 542.252,148.933 542.135,147.956 					"/>
					<polygon fill="#BAE0FA" points="542.514,143.354 550.799,138.347 542.631,142.377 					"/>
					<polygon fill="#BAE0FA" points="534.229,138.347 542.514,143.354 542.395,142.377 					"/>
					<path fill="#B1DCF9" d="M542.18,140.747l-1.295,29.703c-0.015,0.214,0.158,0.396,0.371,0.396h2.514
						c0.219,0,0.387-0.181,0.371-0.396l-1.215-29.702C542.896,140.282,542.209,140.281,542.18,140.747z"/>
				</g>
				<path opacity="0.2" fill="#9AD1F7" enable-background="new    " d="M542.629,131.058c-7.49,0-13.566,6.076-13.566,13.571
					c0,7.086,5.434,12.896,12.359,13.509l-0.537,12.313c-0.014,0.214,0.158,0.396,0.371,0.396h2.514
					c0.219,0,0.387-0.181,0.371-0.396l-0.504-12.303c7.022-0.519,12.563-6.365,12.563-13.52
					C556.2,137.134,550.122,131.058,542.629,131.058z"/>
			</g>
			<g>
				<g>
					<circle fill="#C2E3FA" cx="502.318" cy="144.628" r="13.57"/>
					<polygon fill="#BAE0FA" points="502.32,154.349 510.605,149.34 502.439,153.372 					"/>
					<polygon fill="#BAE0FA" points="493.656,149.543 501.941,154.552 501.822,153.575 					"/>
					<polygon fill="#BAE0FA" points="502.2,148.933 510.486,143.925 502.32,147.956 					"/>
					<polygon fill="#BAE0FA" points="493.656,143.925 501.941,148.933 501.822,147.956 					"/>
					<polygon fill="#BAE0FA" points="502.2,143.354 510.486,138.347 502.32,142.377 					"/>
					<polygon fill="#BAE0FA" points="493.918,138.347 502.2,143.354 502.084,142.377 					"/>
					<path fill="#B1DCF9" d="M501.868,140.747l-1.295,29.703c-0.016,0.214,0.158,0.396,0.371,0.396h2.515
						c0.217,0,0.385-0.181,0.37-0.396l-1.217-29.702C502.584,140.282,501.898,140.281,501.868,140.747z"/>
				</g>
				<path opacity="0.2" fill="#9AD1F7" enable-background="new    " d="M502.318,131.058c-7.492,0-13.565,6.076-13.565,13.571
					c0,7.086,5.434,12.896,12.358,13.509l-0.537,12.313c-0.016,0.214,0.158,0.396,0.371,0.396h2.515c0.217,0,0.385-0.181,0.37-0.396
					l-0.504-12.303c7.023-0.519,12.564-6.365,12.564-13.52C515.891,137.134,509.813,131.058,502.318,131.058z"/>
			</g>
			<g>
				<g>
					<circle fill="#C2E3FA" cx="463.189" cy="144.628" r="13.57"/>
					<polygon fill="#BAE0FA" points="463.191,154.349 471.477,149.34 463.311,153.372 					"/>
					<polygon fill="#BAE0FA" points="454.527,149.543 462.813,154.552 462.693,153.575 					"/>
					<polygon fill="#BAE0FA" points="463.072,148.933 471.357,143.925 463.191,147.956 					"/>
					<polygon fill="#BAE0FA" points="454.527,143.925 462.813,148.933 462.693,147.956 					"/>
					<polygon fill="#BAE0FA" points="463.072,143.354 471.357,138.347 463.191,142.377 					"/>
					<polygon fill="#BAE0FA" points="454.787,138.347 463.072,143.354 462.953,142.377 					"/>
					<path fill="#B1DCF9" d="M462.74,140.747l-1.295,29.703c-0.016,0.214,0.158,0.396,0.37,0.396h2.515
						c0.218,0,0.387-0.181,0.371-0.396l-1.217-29.702C463.454,140.282,462.769,140.281,462.74,140.747z"/>
				</g>
				<path opacity="0.2" fill="#9AD1F7" enable-background="new    " d="M463.189,131.058c-7.492,0-13.567,6.076-13.567,13.571
					c0,7.086,5.436,12.896,12.359,13.509l-0.536,12.313c-0.016,0.214,0.158,0.396,0.37,0.396h2.515c0.218,0,0.387-0.181,0.371-0.396
					l-0.504-12.303c7.022-0.519,12.564-6.365,12.564-13.52C476.762,137.134,470.684,131.058,463.189,131.058z"/>
			</g>
			<g>
				<g>
					<circle fill="#C2E3FA" cx="522.945" cy="143.156" r="15.06"/>
					<polygon fill="#BAE0FA" points="522.947,153.944 532.143,148.385 523.079,152.858 					"/>
					<polygon fill="#BAE0FA" points="513.331,148.612 522.527,154.169 522.395,153.084 					"/>
					<polygon fill="#BAE0FA" points="522.816,147.935 532.01,142.375 522.947,146.849 					"/>
					<polygon fill="#BAE0FA" points="513.331,142.375 522.527,147.935 522.395,146.849 					"/>
					<polygon fill="#BAE0FA" points="522.816,141.743 532.01,136.185 522.947,140.659 					"/>
					<polygon fill="#BAE0FA" points="513.62,136.185 522.816,141.743 522.684,140.659 					"/>
					<path fill="#B1DCF9" d="M522.445,138.849l-1.436,32.963c-0.019,0.238,0.176,0.44,0.41,0.44h2.791
						c0.241,0,0.428-0.2,0.411-0.438l-1.35-32.963C523.24,138.333,522.479,138.332,522.445,138.849z"/>
				</g>
			</g>
			<g>
				<g>
					<circle fill="#C2E3FA" cx="482.945" cy="143.156" r="15.06"/>
					<polygon fill="#BAE0FA" points="482.947,153.944 492.143,148.385 483.079,152.858 					"/>
					<polygon fill="#BAE0FA" points="473.331,148.612 482.527,154.169 482.395,153.084 					"/>
					<polygon fill="#BAE0FA" points="482.816,147.935 492.011,142.375 482.947,146.849 					"/>
					<polygon fill="#BAE0FA" points="473.331,142.375 482.527,147.935 482.395,146.849 					"/>
					<polygon fill="#BAE0FA" points="482.816,141.743 492.011,136.185 482.947,140.659 					"/>
					<polygon fill="#BAE0FA" points="473.62,136.185 482.816,141.743 482.685,140.659 					"/>
					<path fill="#B1DCF9" d="M482.446,138.849l-1.437,32.963c-0.018,0.238,0.176,0.44,0.411,0.44h2.79
						c0.241,0,0.428-0.2,0.411-0.438l-1.35-32.963C483.24,138.333,482.479,138.332,482.446,138.849z"/>
				</g>
			</g>
		</g>
		<g>
			<g>
				<g>
					<circle fill="#C2E3FA" cx="1200.216" cy="143.87" r="13.57"/>
					<polygon fill="#BAE0FA" points="1200.218,153.589 1208.503,148.582 1200.337,152.613 					"/>
					<polygon fill="#BAE0FA" points="1191.554,148.785 1199.839,153.793 1199.722,152.815 					"/>
					<polygon fill="#BAE0FA" points="1200.101,148.174 1208.386,143.167 1200.218,147.197 					"/>
					<polygon fill="#BAE0FA" points="1191.554,143.167 1199.839,148.174 1199.722,147.197 					"/>
					<polygon fill="#BAE0FA" points="1200.101,142.597 1208.386,137.588 1200.218,141.619 					"/>
					<polygon fill="#BAE0FA" points="1191.815,137.588 1200.101,142.597 1199.981,141.619 					"/>
					<path fill="#B1DCF9" d="M1199.767,139.988l-1.295,29.702c-0.015,0.215,0.157,0.396,0.371,0.396h2.514
						c0.219,0,0.387-0.18,0.371-0.396l-1.215-29.701C1200.483,139.522,1199.796,139.522,1199.767,139.988z"/>
				</g>
				<path opacity="0.2" fill="#9AD1F7" enable-background="new    " d="M1200.216,130.299c-7.49,0-13.566,6.076-13.566,13.571
					c0,7.086,5.434,12.896,12.359,13.509l-0.537,12.312c-0.015,0.215,0.157,0.396,0.371,0.396h2.514c0.219,0,0.387-0.18,0.371-0.396
					l-0.504-12.303c7.022-0.518,12.563-6.365,12.563-13.519C1213.787,136.375,1207.709,130.299,1200.216,130.299z"/>
			</g>
			<g>
				<g>
					<circle fill="#C2E3FA" cx="1159.905" cy="143.87" r="13.57"/>
					<polygon fill="#BAE0FA" points="1159.906,153.589 1168.192,148.582 1160.026,152.613 					"/>
					<polygon fill="#BAE0FA" points="1151.242,148.785 1159.528,153.793 1159.408,152.815 					"/>
					<polygon fill="#BAE0FA" points="1159.787,148.174 1168.073,143.167 1159.906,147.197 					"/>
					<polygon fill="#BAE0FA" points="1151.242,143.167 1159.528,148.174 1159.408,147.197 					"/>
					<polygon fill="#BAE0FA" points="1159.787,142.597 1168.073,137.588 1159.906,141.619 					"/>
					<polygon fill="#BAE0FA" points="1151.505,137.588 1159.787,142.597 1159.671,141.619 					"/>
					<path fill="#B1DCF9" d="M1159.455,139.988l-1.295,29.702c-0.016,0.215,0.158,0.396,0.371,0.396h2.515
						c0.217,0,0.385-0.18,0.37-0.396l-1.217-29.701C1160.171,139.522,1159.485,139.522,1159.455,139.988z"/>
				</g>
				<path opacity="0.2" fill="#9AD1F7" enable-background="new    " d="M1159.905,130.299c-7.492,0-13.565,6.076-13.565,13.571
					c0,7.086,5.434,12.896,12.358,13.509l-0.537,12.312c-0.016,0.215,0.158,0.396,0.371,0.396h2.515c0.217,0,0.385-0.18,0.37-0.396
					l-0.504-12.303c7.023-0.518,12.564-6.365,12.564-13.519C1173.478,136.375,1167.399,130.299,1159.905,130.299z"/>
			</g>
			<g>
				<g>
					<circle fill="#C2E3FA" cx="1120.776" cy="143.87" r="13.57"/>
					<polygon fill="#BAE0FA" points="1120.778,153.589 1129.063,148.582 1120.897,152.613 					"/>
					<polygon fill="#BAE0FA" points="1112.114,148.785 1120.399,153.793 1120.28,152.815 					"/>
					<polygon fill="#BAE0FA" points="1120.658,148.174 1128.944,143.167 1120.778,147.197 					"/>
					<polygon fill="#BAE0FA" points="1112.114,143.167 1120.399,148.174 1120.28,147.197 					"/>
					<polygon fill="#BAE0FA" points="1120.658,142.597 1128.944,137.588 1120.778,141.619 					"/>
					<polygon fill="#BAE0FA" points="1112.375,137.588 1120.658,142.597 1120.541,141.619 					"/>
					<path fill="#B1DCF9" d="M1120.326,139.988l-1.295,29.702c-0.016,0.215,0.158,0.396,0.37,0.396h2.515
						c0.218,0,0.387-0.18,0.371-0.396l-1.217-29.701C1121.041,139.522,1120.355,139.522,1120.326,139.988z"/>
				</g>
				<path opacity="0.2" fill="#9AD1F7" enable-background="new    " d="M1120.776,130.299c-7.492,0-13.566,6.076-13.566,13.571
					c0,7.086,5.435,12.896,12.358,13.509l-0.536,12.312c-0.016,0.215,0.158,0.396,0.37,0.396h2.515c0.218,0,0.387-0.18,0.371-0.396
					l-0.504-12.303c7.022-0.518,12.564-6.365,12.564-13.519C1134.349,136.375,1128.271,130.299,1120.776,130.299z"/>
			</g>
			<g>
				<g>
					<circle fill="#C2E3FA" cx="1080.276" cy="143.87" r="13.57"/>
					<polygon fill="#BAE0FA" points="1080.278,153.589 1088.563,148.582 1080.397,152.613 					"/>
					<polygon fill="#BAE0FA" points="1071.614,148.785 1079.899,153.793 1079.78,152.815 					"/>
					<polygon fill="#BAE0FA" points="1080.158,148.174 1088.444,143.167 1080.278,147.197 					"/>
					<polygon fill="#BAE0FA" points="1071.614,143.167 1079.899,148.174 1079.78,147.197 					"/>
					<polygon fill="#BAE0FA" points="1080.158,142.597 1088.444,137.588 1080.278,141.619 					"/>
					<polygon fill="#BAE0FA" points="1071.875,137.588 1080.158,142.597 1080.041,141.619 					"/>
					<path fill="#B1DCF9" d="M1079.826,139.988l-1.295,29.702c-0.016,0.215,0.158,0.396,0.37,0.396h2.515
						c0.218,0,0.387-0.18,0.371-0.396l-1.217-29.701C1080.541,139.522,1079.855,139.522,1079.826,139.988z"/>
				</g>
				<path opacity="0.2" fill="#9AD1F7" enable-background="new    " d="M1080.276,130.299c-7.492,0-13.566,6.076-13.566,13.571
					c0,7.086,5.435,12.896,12.358,13.509l-0.536,12.312c-0.016,0.215,0.158,0.396,0.37,0.396h2.515c0.218,0,0.387-0.18,0.371-0.396
					l-0.504-12.303c7.022-0.518,12.564-6.365,12.564-13.519C1093.849,136.375,1087.771,130.299,1080.276,130.299z"/>
			</g>
			<g>
				<g>
					<circle fill="#C2E3FA" cx="1180.531" cy="142.397" r="15.06"/>
					<polygon fill="#BAE0FA" points="1180.533,153.185 1189.729,147.626 1180.666,152.101 					"/>
					<polygon fill="#BAE0FA" points="1170.918,147.853 1180.114,153.411 1179.981,152.326 					"/>
					<polygon fill="#BAE0FA" points="1180.403,147.175 1189.597,141.617 1180.533,146.09 					"/>
					<polygon fill="#BAE0FA" points="1170.918,141.617 1180.114,147.175 1179.981,146.09 					"/>
					<polygon fill="#BAE0FA" points="1180.403,140.983 1189.597,135.426 1180.533,139.899 					"/>
					<polygon fill="#BAE0FA" points="1171.207,135.426 1180.403,140.983 1180.271,139.899 					"/>
					<path fill="#B1DCF9" d="M1180.031,138.09l-1.436,32.963c-0.019,0.238,0.176,0.44,0.41,0.44h2.791
						c0.241,0,0.428-0.2,0.412-0.439l-1.351-32.962C1180.826,137.574,1180.065,137.573,1180.031,138.09z"/>
				</g>
			</g>
			<g>
				<g>
					<circle fill="#C2E3FA" cx="1140.531" cy="142.397" r="15.06"/>
					<polygon fill="#BAE0FA" points="1140.533,153.185 1149.729,147.626 1140.666,152.101 					"/>
					<polygon fill="#BAE0FA" points="1130.918,147.853 1140.114,153.411 1139.981,152.326 					"/>
					<polygon fill="#BAE0FA" points="1140.403,147.175 1149.598,141.617 1140.533,146.09 					"/>
					<polygon fill="#BAE0FA" points="1130.918,141.617 1140.114,147.175 1139.981,146.09 					"/>
					<polygon fill="#BAE0FA" points="1140.403,140.983 1149.598,135.426 1140.533,139.899 					"/>
					<polygon fill="#BAE0FA" points="1131.207,135.426 1140.403,140.983 1140.271,139.899 					"/>
					<path fill="#B1DCF9" d="M1140.032,138.09l-1.437,32.963c-0.018,0.238,0.176,0.44,0.411,0.44h2.79
						c0.241,0,0.428-0.2,0.412-0.439l-1.351-32.962C1140.826,137.574,1140.065,137.573,1140.032,138.09z"/>
				</g>
			</g>
			<g>
				<g>
					<circle fill="#C2E3FA" cx="1100.531" cy="142.397" r="15.06"/>
					<polygon fill="#BAE0FA" points="1100.533,153.185 1109.729,147.626 1100.666,152.101 					"/>
					<polygon fill="#BAE0FA" points="1090.918,147.853 1100.114,153.411 1099.981,152.326 					"/>
					<polygon fill="#BAE0FA" points="1100.403,147.175 1109.598,141.617 1100.533,146.09 					"/>
					<polygon fill="#BAE0FA" points="1090.918,141.617 1100.114,147.175 1099.981,146.09 					"/>
					<polygon fill="#BAE0FA" points="1100.403,140.983 1109.598,135.426 1100.533,139.899 					"/>
					<polygon fill="#BAE0FA" points="1091.207,135.426 1100.403,140.983 1100.271,139.899 					"/>
					<path fill="#B1DCF9" d="M1100.032,138.09l-1.437,32.963c-0.018,0.238,0.176,0.44,0.411,0.44h2.79
						c0.241,0,0.428-0.2,0.412-0.439l-1.351-32.962C1100.826,137.574,1100.065,137.573,1100.032,138.09z"/>
				</g>
			</g>
		</g>
		<g>
			<g>
				<g>
					<circle fill="#C2E3FA" cx="765.231" cy="144.5" r="13.569"/>
					<polygon fill="#BAE0FA" points="765.234,154.22 773.519,149.212 765.353,153.244 					"/>
					<polygon fill="#BAE0FA" points="756.57,149.416 764.855,154.424 764.736,153.447 					"/>
					<polygon fill="#BAE0FA" points="765.115,148.806 773.4,143.797 765.234,147.828 					"/>
					<polygon fill="#BAE0FA" points="756.57,143.797 764.855,148.806 764.736,147.828 					"/>
					<polygon fill="#BAE0FA" points="765.115,143.228 773.4,138.219 765.234,142.25 					"/>
					<polygon fill="#BAE0FA" points="756.829,138.219 765.115,143.228 764.996,142.25 					"/>
					<path fill="#B1DCF9" d="M764.781,140.619l-1.294,29.703c-0.015,0.214,0.159,0.396,0.371,0.396h2.515
						c0.218,0,0.386-0.18,0.371-0.396l-1.216-29.702C765.497,140.153,764.811,140.153,764.781,140.619z"/>
				</g>
				<path opacity="0.2" fill="#9AD1F7" enable-background="new    " d="M765.231,130.931c-7.491,0-13.567,6.075-13.567,13.57
					c0,7.086,5.436,12.896,12.36,13.509l-0.537,12.313c-0.015,0.214,0.159,0.396,0.371,0.396h2.515c0.218,0,0.386-0.18,0.371-0.396
					l-0.503-12.304c7.022-0.518,12.564-6.365,12.564-13.519C778.804,137.006,772.726,130.931,765.231,130.931z"/>
			</g>
			<g>
				<g>
					<circle fill="#C2E3FA" cx="725.259" cy="144.5" r="13.569"/>
					<polygon fill="#BAE0FA" points="725.261,154.22 733.546,149.212 725.38,153.244 					"/>
					<polygon fill="#BAE0FA" points="716.597,149.416 724.882,154.424 724.764,153.447 					"/>
					<polygon fill="#BAE0FA" points="725.143,148.806 733.428,143.797 725.261,147.828 					"/>
					<polygon fill="#BAE0FA" points="716.597,143.797 724.882,148.806 724.764,147.828 					"/>
					<polygon fill="#BAE0FA" points="725.143,143.228 733.428,138.219 725.261,142.25 					"/>
					<polygon fill="#BAE0FA" points="716.858,138.219 725.143,143.228 725.024,142.25 					"/>
					<path fill="#B1DCF9" d="M724.81,140.619l-1.295,29.703c-0.015,0.214,0.159,0.396,0.371,0.396h2.515
						c0.217,0,0.386-0.18,0.371-0.396l-1.216-29.702C725.525,140.153,724.838,140.153,724.81,140.619z"/>
				</g>
				<path opacity="0.2" fill="#9AD1F7" enable-background="new    " d="M725.259,130.931c-7.491,0-13.567,6.075-13.567,13.57
					c0,7.086,5.436,12.896,12.359,13.509l-0.537,12.313c-0.016,0.214,0.159,0.396,0.371,0.396h2.515c0.217,0,0.386-0.18,0.371-0.396
					l-0.503-12.304c7.021-0.518,12.563-6.365,12.563-13.519C738.83,137.006,732.753,130.931,725.259,130.931z"/>
			</g>
			<g>
				<g>
					<circle fill="#C2E3FA" cx="684.947" cy="144.5" r="13.569"/>
					<polygon fill="#BAE0FA" points="684.949,154.22 693.235,149.212 685.069,153.244 					"/>
					<polygon fill="#BAE0FA" points="676.285,149.416 684.571,154.424 684.451,153.447 					"/>
					<polygon fill="#BAE0FA" points="684.831,148.806 693.115,143.797 684.949,147.828 					"/>
					<polygon fill="#BAE0FA" points="676.285,143.797 684.571,148.806 684.451,147.828 					"/>
					<polygon fill="#BAE0FA" points="684.831,143.228 693.115,138.219 684.949,142.25 					"/>
					<polygon fill="#BAE0FA" points="676.547,138.219 684.831,143.228 684.713,142.25 					"/>
					<path fill="#B1DCF9" d="M684.497,140.619l-1.294,29.703c-0.015,0.214,0.159,0.396,0.371,0.396h2.516
						c0.217,0,0.385-0.18,0.371-0.396l-1.217-29.702C685.214,140.153,684.527,140.153,684.497,140.619z"/>
				</g>
				<path opacity="0.2" fill="#9AD1F7" enable-background="new    " d="M684.947,130.931c-7.491,0-13.565,6.075-13.565,13.57
					c0,7.086,5.435,12.896,12.358,13.509l-0.537,12.313c-0.015,0.214,0.159,0.396,0.371,0.396h2.516c0.217,0,0.385-0.18,0.371-0.396
					l-0.503-12.304c7.021-0.518,12.563-6.365,12.563-13.519C698.52,137.006,692.442,130.931,684.947,130.931z"/>
			</g>
			<g>
				<g>
					<circle fill="#C2E3FA" cx="645.818" cy="144.5" r="13.569"/>
					<polygon fill="#BAE0FA" points="645.821,154.22 654.106,149.212 645.94,153.244 					"/>
					<polygon fill="#BAE0FA" points="637.156,149.416 645.442,154.424 645.323,153.447 					"/>
					<polygon fill="#BAE0FA" points="645.701,148.806 653.987,143.797 645.821,147.828 					"/>
					<polygon fill="#BAE0FA" points="637.156,143.797 645.442,148.806 645.323,147.828 					"/>
					<polygon fill="#BAE0FA" points="645.701,143.228 653.987,138.219 645.821,142.25 					"/>
					<polygon fill="#BAE0FA" points="637.416,138.219 645.701,143.228 645.582,142.25 					"/>
					<path fill="#B1DCF9" d="M645.368,140.619l-1.295,29.703c-0.015,0.214,0.159,0.396,0.371,0.396h2.516
						c0.217,0,0.386-0.18,0.37-0.396l-1.216-29.702C646.085,140.153,645.398,140.153,645.368,140.619z"/>
				</g>
				<path opacity="0.2" fill="#9AD1F7" enable-background="new    " d="M645.818,130.931c-7.491,0-13.567,6.075-13.567,13.57
					c0,7.086,5.436,12.896,12.359,13.509l-0.537,12.313c-0.015,0.214,0.159,0.396,0.371,0.396h2.516c0.217,0,0.386-0.18,0.37-0.396
					l-0.504-12.304c7.022-0.518,12.564-6.365,12.564-13.519C659.391,137.006,653.313,130.931,645.818,130.931z"/>
			</g>
			<g>
				<g>
					<circle fill="#C2E3FA" cx="605.318" cy="144.5" r="13.569"/>
					<polygon fill="#BAE0FA" points="605.321,154.22 613.606,149.212 605.44,153.244 					"/>
					<polygon fill="#BAE0FA" points="596.656,149.416 604.942,154.424 604.823,153.447 					"/>
					<polygon fill="#BAE0FA" points="605.201,148.806 613.487,143.797 605.321,147.828 					"/>
					<polygon fill="#BAE0FA" points="596.656,143.797 604.942,148.806 604.823,147.828 					"/>
					<polygon fill="#BAE0FA" points="605.201,143.228 613.487,138.219 605.321,142.25 					"/>
					<polygon fill="#BAE0FA" points="596.916,138.219 605.201,143.228 605.082,142.25 					"/>
					<path fill="#B1DCF9" d="M604.868,140.619l-1.295,29.703c-0.015,0.214,0.159,0.396,0.371,0.396h2.516
						c0.217,0,0.386-0.18,0.37-0.396l-1.216-29.702C605.585,140.153,604.898,140.153,604.868,140.619z"/>
				</g>
				<path opacity="0.2" fill="#9AD1F7" enable-background="new    " d="M605.318,130.931c-7.491,0-13.567,6.075-13.567,13.57
					c0,7.086,5.436,12.896,12.359,13.509l-0.537,12.313c-0.015,0.214,0.159,0.396,0.371,0.396h2.516c0.217,0,0.386-0.18,0.37-0.396
					l-0.504-12.304c7.022-0.518,12.564-6.365,12.564-13.519C618.891,137.006,612.813,130.931,605.318,130.931z"/>
			</g>
			<g>
				<g>
					<circle fill="#C2E3FA" cx="785.573" cy="143.028" r="15.06"/>
					<polygon fill="#BAE0FA" points="785.576,153.815 794.772,148.257 785.709,152.731 					"/>
					<polygon fill="#BAE0FA" points="775.962,148.483 785.156,154.042 785.024,152.957 					"/>
					<polygon fill="#BAE0FA" points="785.445,147.806 794.64,142.248 785.576,146.722 					"/>
					<polygon fill="#BAE0FA" points="775.962,142.248 785.156,147.806 785.024,146.722 					"/>
					<polygon fill="#BAE0FA" points="785.445,141.615 794.64,136.058 785.576,140.531 					"/>
					<polygon fill="#BAE0FA" points="776.25,136.058 785.445,141.615 785.314,140.531 					"/>
					<path fill="#B1DCF9" d="M785.075,138.722l-1.437,32.963c-0.017,0.237,0.176,0.439,0.412,0.439h2.791
						c0.24,0,0.428-0.2,0.412-0.439l-1.351-32.961C785.869,138.205,785.108,138.204,785.075,138.722z"/>
				</g>
			</g>
			<g>
				<g>
					<circle fill="#C2E3FA" cx="745.573" cy="143.028" r="15.06"/>
					<polygon fill="#BAE0FA" points="745.576,153.815 754.772,148.257 745.709,152.731 					"/>
					<polygon fill="#BAE0FA" points="735.962,148.483 745.156,154.042 745.024,152.957 					"/>
					<polygon fill="#BAE0FA" points="745.445,147.806 754.64,142.248 745.576,146.722 					"/>
					<polygon fill="#BAE0FA" points="735.962,142.248 745.156,147.806 745.024,146.722 					"/>
					<polygon fill="#BAE0FA" points="745.445,141.615 754.64,136.058 745.576,140.531 					"/>
					<polygon fill="#BAE0FA" points="736.25,136.058 745.445,141.615 745.314,140.531 					"/>
					<path fill="#B1DCF9" d="M745.075,138.722l-1.437,32.963c-0.017,0.237,0.176,0.439,0.412,0.439h2.791
						c0.24,0,0.428-0.2,0.412-0.439l-1.351-32.961C745.869,138.205,745.108,138.204,745.075,138.722z"/>
				</g>
			</g>
			<g>
				<g>
					<circle fill="#C2E3FA" cx="705.573" cy="143.028" r="15.06"/>
					<polygon fill="#BAE0FA" points="705.576,153.815 714.772,148.257 705.709,152.731 					"/>
					<polygon fill="#BAE0FA" points="695.962,148.483 705.156,154.042 705.024,152.957 					"/>
					<polygon fill="#BAE0FA" points="705.445,147.806 714.64,142.248 705.576,146.722 					"/>
					<polygon fill="#BAE0FA" points="695.962,142.248 705.156,147.806 705.024,146.722 					"/>
					<polygon fill="#BAE0FA" points="705.445,141.615 714.64,136.058 705.576,140.531 					"/>
					<polygon fill="#BAE0FA" points="696.25,136.058 705.445,141.615 705.314,140.531 					"/>
					<path fill="#B1DCF9" d="M705.075,138.722l-1.437,32.963c-0.017,0.237,0.176,0.439,0.412,0.439h2.791
						c0.24,0,0.428-0.2,0.412-0.439l-1.351-32.961C705.869,138.205,705.108,138.204,705.075,138.722z"/>
				</g>
			</g>
			<g>
				<g>
					<circle fill="#C2E3FA" cx="665.573" cy="143.028" r="15.06"/>
					<polygon fill="#BAE0FA" points="665.576,153.815 674.772,148.257 665.709,152.731 					"/>
					<polygon fill="#BAE0FA" points="655.962,148.483 665.156,154.042 665.024,152.957 					"/>
					<polygon fill="#BAE0FA" points="665.445,147.806 674.64,142.248 665.576,146.722 					"/>
					<polygon fill="#BAE0FA" points="655.962,142.248 665.156,147.806 665.024,146.722 					"/>
					<polygon fill="#BAE0FA" points="665.445,141.615 674.64,136.058 665.576,140.531 					"/>
					<polygon fill="#BAE0FA" points="656.25,136.058 665.445,141.615 665.314,140.531 					"/>
					<path fill="#B1DCF9" d="M665.075,138.722l-1.437,32.963c-0.017,0.237,0.176,0.439,0.412,0.439h2.791
						c0.24,0,0.428-0.2,0.412-0.439l-1.351-32.961C665.869,138.205,665.108,138.204,665.075,138.722z"/>
				</g>
			</g>
			<g>
				<g>
					<circle fill="#C2E3FA" cx="625.573" cy="143.028" r="15.06"/>
					<polygon fill="#BAE0FA" points="625.576,153.815 634.772,148.257 625.709,152.731 					"/>
					<polygon fill="#BAE0FA" points="615.962,148.483 625.156,154.042 625.024,152.957 					"/>
					<polygon fill="#BAE0FA" points="625.445,147.806 634.64,142.248 625.576,146.722 					"/>
					<polygon fill="#BAE0FA" points="615.962,142.248 625.156,147.806 625.024,146.722 					"/>
					<polygon fill="#BAE0FA" points="625.445,141.615 634.64,136.058 625.576,140.531 					"/>
					<polygon fill="#BAE0FA" points="616.25,136.058 625.445,141.615 625.314,140.531 					"/>
					<path fill="#B1DCF9" d="M625.075,138.722l-1.437,32.963c-0.017,0.237,0.176,0.439,0.412,0.439h2.791
						c0.24,0,0.428-0.2,0.412-0.439l-1.351-32.961C625.869,138.205,625.108,138.204,625.075,138.722z"/>
				</g>
			</g>
		</g>
		<g>
			<g>
				<rect x="842.261" y="98.079" fill="#CFE9FB" width="159.221" height="7.5"/>
				<polygon fill="#ECF6FD" points="842.246,98.079 985.766,98.079 985.766,73.465 989.55,68.352 842.246,68.352 				"/>
				<polygon fill="#DBEEFC" points="866.076,98.079 985.766,98.079 985.766,73.465 986.584,72.36 866.008,72.511 				"/>
				<polygon fill="#BDE1FA" points="867.2,73.465 867.2,98.079 997.937,98.079 985.766,73.465 				"/>
				<rect x="893.791" y="73.465" fill="#ECF6FD" width="1.228" height="24.613"/>
				<rect x="926.518" y="73.465" fill="#ECF6FD" width="1.228" height="24.613"/>
				<rect x="959.243" y="73.465" fill="#ECF6FD" width="1.229" height="24.613"/>
				<polygon fill="#ECF6FD" points="867.2,84.442 867.2,85.567 991.75,85.567 991.193,84.442 				"/>
				<polygon opacity="0.2" fill="#9AD1F7" enable-background="new    " points="871.53,76.5 987.057,76.076 985.766,73.465 
					867.2,73.465 867.2,98.079 997.937,98.079 869.485,95.692 				"/>
			</g>
			<g>
				<polygon fill="#ECF6FD" points="842.261,169.803 1059.979,169.803 1059.979,151.75 1011.912,151.75 1005.572,112.478 
					1059.979,112.478 1063.798,105.578 842.261,105.578 				"/>
				<path opacity="0.2" fill="#9AD1F7" enable-background="new    " d="M953.286,98.079L937.8,98.078l1.588,71.726h56.665
					C995.391,139.801,978.454,113.577,953.286,98.079z"/>
				<polygon fill="#BDE1FA" points="1011.912,151.75 1058.548,151.75 1058.548,112.478 1005.572,112.478 				"/>
				<polygon fill="#ECF6FD" points="1007.552,124.737 1058.548,124.737 1058.548,123.045 1007.278,123.045 				"/>
				<polygon fill="#ECF6FD" points="1009.767,138.455 1058.548,138.455 1058.548,136.763 1009.492,136.763 				"/>
				<rect x="1022.855" y="112.478" fill="#ECF6FD" width="1.637" height="39.271"/>
				<rect x="1041.571" y="112.478" fill="#ECF6FD" width="1.637" height="39.271"/>
				<polygon opacity="0.2" fill="#9AD1F7" enable-background="new    " points="1011.912,151.75 1058.548,151.75 1012.936,150.829 
					1008.436,115.035 1058.548,115.341 1058.548,112.478 1005.572,112.478 				"/>
				<polygon fill="#DBEEFC" points="1010.072,154.409 1059.979,154.409 1059.979,151.75 1011.912,151.75 1005.572,112.478 
					1059.979,112.478 1060.901,110.091 1002.162,110.091 				"/>
			</g>
			<g>
				<rect x="810.193" y="48.137" fill="#ECF6FD" width="32.067" height="57.441"/>
				<rect x="834.034" y="48.137" opacity="0.2" fill="#9AD1F7" enable-background="new    " width="8.227" height="57.441"/>
				<rect x="810.317" y="48.137" opacity="0.2" fill="#FFFFFF" enable-background="new    " width="8.225" height="57.441"/>
				<polygon opacity="0.2" fill="#9AD1F7" enable-background="new    " points="810.193,53.045 842.261,55.807 842.261,48.137 
					810.193,48.137 				"/>
				<polygon fill="#BDE1FA" points="810.193,48.137 842.261,48.137 850.237,15.615 802.216,15.615 				"/>
				<polygon opacity="0.2" fill="#FFFFFF" enable-background="new    " points="802.216,15.615 810.193,48.137 818.418,48.137 
					815.555,15.615 				"/>
				<polygon opacity="0.2" fill="#9AD1F7" enable-background="new    " points="834.034,48.137 842.261,48.137 850.237,15.615 
					836.899,15.615 				"/>
				<rect x="807.538" y="48.137" fill="#BAE0FA" width="37.376" height="2.318"/>
				<rect x="807.538" y="103.341" fill="#BAE0FA" width="37.376" height="2.318"/>
				<rect x="799.877" y="13.296" fill="#BAE0FA" width="52.698" height="2.318"/>
				<polygon fill="#ECF6FD" points="813.305,4.945 802.216,13.296 850.237,13.296 839.149,4.945 				"/>
				<rect x="802.26" y="105.578" fill="#ECF6FD" width="72.271" height="64.225"/>
				<path opacity="0.2" fill="#9AD1F7" enable-background="new    " d="M821.567,169.803h52.963v-64.225c0,0-13.856,0-15.88,0
					C823.252,123.032,821.567,169.803,821.567,169.803z"/>
			</g>
			<g>
				<path fill="#ECF6FD" d="M908.783,92.058c-45.928,0-83.158,34.809-83.158,77.745h166.317
					C991.943,126.866,954.712,92.058,908.783,92.058z"/>
				<path fill="#DBEEFC" d="M908.783,97.47c-42.729,0-77.369,32.385-77.369,72.333h154.738
					C986.153,129.854,951.514,97.47,908.783,97.47z"/>
				<path fill="#BDE1FA" d="M908.783,100.422c-40.985,0-74.212,31.063-74.212,69.381h148.424
					C982.995,131.485,949.77,100.422,908.783,100.422z"/>
				<path fill="#ECF6FD" d="M841.524,169.803h1.661V137.36c-0.581,1.024-1.134,2.064-1.661,3.119V169.803z"/>
				<path fill="#ECF6FD" d="M856.286,169.803h1.66v-50.521c-0.557,0.49-1.119,0.976-1.66,1.482V169.803z"/>
				<path fill="#ECF6FD" d="M871.049,169.803h1.661v-60.63c-0.56,0.291-1.112,0.589-1.661,0.893V169.803z"/>
				<path fill="#ECF6FD" d="M885.811,169.803h1.661v-66.462c-0.558,0.156-1.109,0.319-1.661,0.487V169.803z"/>
				<path fill="#ECF6FD" d="M915.335,169.803h1.659v-68.948c-0.551-0.058-1.104-0.103-1.659-0.147V169.803z"/>
				<path fill="#ECF6FD" d="M930.097,169.803h1.661v-65.975c-0.553-0.168-1.104-0.332-1.661-0.487V169.803z"/>
				<path fill="#ECF6FD" d="M944.858,169.803h1.661v-59.737c-0.55-0.304-1.104-0.602-1.661-0.893V169.803z"/>
				<path fill="#ECF6FD" d="M959.62,169.803h1.66v-49.038c-0.541-0.507-1.104-0.992-1.66-1.481V169.803z"/>
				<path fill="#ECF6FD" d="M974.383,169.803h1.66v-29.323c-0.526-1.055-1.079-2.095-1.66-3.119V169.803z"/>
				<path fill="#ECF6FD" d="M855.83,121.212c-0.572,0.546-1.14,1.098-1.693,1.66h109.294c-0.554-0.563-1.12-1.114-1.693-1.66H855.83
					z"/>
				<path fill="#ECF6FD" d="M838.41,147.784c-0.196,0.553-0.401,1.102-0.585,1.66h141.916c-0.184-0.56-0.388-1.107-0.585-1.66
					H838.41z"/>
				<path fill="#ECF6FD" d="M900.573,169.803h1.66v-69.096c-0.555,0.045-1.109,0.091-1.66,0.147V169.803z"/>
				<rect x="0" y="170.448" fill="#BAE0FA" width="1282.611" height="2.834"/>
				<path opacity="0.2" fill="#9AD1F7" enable-background="new    " d="M908.783,100.422c-40.985,0-74.212,31.063-74.212,69.381
					c0,0,36.691-81.989,133.909-41.224C954.963,111.498,933.257,100.422,908.783,100.422z"/>
			</g>
		</g>
	</g>
</g>
<rect x="1160.028" y="143.519" fill="#B5DDF9" width="0.729" height="22.063"/>
<rect x="1097.853" y="143.519" fill="#B5DDF9" width="0.729" height="22.063"/>
</svg>
