<?xml version="1.0" encoding="utf-8"?>
<!-- Generator: Adobe Illustrator 16.0.0, SVG Export Plug-In . SVG Version: 6.00 Build 0)  -->
<!DOCTYPE svg PUBLIC "-//W3C//DTD SVG 1.1//EN" "http://www.w3.org/Graphics/SVG/1.1/DTD/svg11.dtd">
<svg version="1.1" id="Layer_1" xmlns="http://www.w3.org/2000/svg" xmlns:xlink="http://www.w3.org/1999/xlink" x="0px" y="0px"
	 width="135.885px" height="234.265px" viewBox="0 0 135.885 234.265" enable-background="new 0 0 135.885 234.265"
	 xml:space="preserve">
<g>
	<path fill="#877161" d="M6.256,142.945c3.244-0.712,3.448,17.696,2.633,39.941c-0.817,22.246-2.327,40.487-5.589,40.617
		c-3.1,0.125-3.596-18.215-2.781-40.46C1.334,160.8,3.305,143.593,6.256,142.945z M3.422,219.046
		c1.596-0.172,2.603-16.412,3.329-36.196c0.725-19.785,0.896-36.138-0.701-35.45c-1.452,0.622-2.415,15.991-3.141,35.778
		C2.185,202.959,1.905,219.21,3.422,219.046z"/>
	<path fill="#FFDCA5" d="M12.313,133.529c4.057-0.89,4.313,22.129,3.294,49.945c-1.02,27.817-2.906,50.627-6.985,50.789
		c-3.875,0.157-4.497-22.776-3.479-50.593C6.159,155.856,8.622,134.34,12.313,133.529z M8.773,228.689
		c1.995-0.215,3.253-20.522,4.161-45.261c0.904-24.741,1.118-45.189-0.88-44.329c-1.815,0.778-1.58,19.996-2.486,44.738
		C8.664,208.574,6.877,228.896,8.773,228.689z"/>
	<path fill="#D88E6A" d="M13.592,135.11c3.133-0.893,3.148,21.392,2.145,48.333s-2.637,49.042-5.78,49.23
		c-2.985,0.182-2.217-22.018-1.214-48.959C9.744,156.776,10.742,135.924,13.592,135.11z M10.117,227.275
		c1.539-0.224,4.021-19.896,4.916-43.855c0.891-23.962-0.137-43.762-1.684-42.913c-1.404,0.767-1.375,19.372-2.268,43.335
		C10.191,207.801,8.655,227.49,10.117,227.275z"/>
	<path fill="#877161" d="M126.246,180.506c2.678,22.099,3.721,40.415,0.621,40.551c-3.261,0.144-6.295-17.906-8.975-40.006
		c-2.678-22.099-4.019-40.459-0.726-40.021C120.162,141.427,123.568,158.408,126.246,180.506z M123.875,180.84
		c-2.382-19.657-4.63-34.892-6.129-35.39c-1.65-0.551-0.107,15.729,2.273,35.385c2.383,19.653,4.748,35.752,6.353,35.789
		C127.897,216.661,126.256,200.49,123.875,180.84z"/>
	<path fill="#FFDCA5" d="M121.692,181.518c3.347,27.634,4.649,50.539,0.774,50.707c-4.078,0.18-7.871-22.391-11.22-50.024
		c-3.347-27.634-5.022-50.593-0.905-50.046C114.087,132.652,118.346,153.887,121.692,181.518z M117.295,182.056
		c-2.978-24.579-4.354-43.749-6.229-44.372c-2.063-0.69-0.135,19.668,2.841,44.246c2.979,24.575,5.936,44.706,7.941,44.753
		C123.755,226.729,120.271,206.629,117.295,182.056z"/>
	<path fill="#D88E6A" d="M118.107,181.863c3.259,26.763,5.887,48.819,2.896,48.889c-3.148,0.076-6.629-21.811-9.889-48.572
		c-3.26-26.763-5.112-48.97-1.916-48.343C112.107,134.408,114.851,155.104,118.107,181.863z M115.787,182.187
		c-2.899-23.804-4.43-42.347-5.894-42.992c-1.612-0.716-0.977,19.101,1.921,42.903c2.9,23.8,7.023,43.194,8.576,43.288
		C121.865,225.478,118.684,205.986,115.787,182.187z"/>
	<rect x="12.935" y="182.216" fill="#AF9785" width="100.355" height="2.624"/>
	<polygon fill="#8E7566" points="113.29,182.216 34.658,182.217 42.463,184.841 113.29,184.841 	"/>
	<path fill="#5A4D41" d="M85.19,140.632c0-19.314-9.052-41.185-20.217-41.185s-20.215,21.87-20.215,41.185
		s9.05,28.757,20.215,28.757S85.19,159.946,85.19,140.632z"/>
	<path fill="#3E3127" d="M84.801,140.239c0-15.374-11.579-34.534-19.827-34.534c-8.247,0-19.825,19.16-19.825,34.534
		c0,15.375,11.578,22.892,19.825,22.892C73.222,163.131,84.801,155.614,84.801,140.239z"/>
	<polygon fill="#E2C8B7" points="29.283,160.205 27.504,160.439 38.543,219.235 42.615,218.424 	"/>
	<polygon fill="#E2C8B7" points="103.402,159.323 101.783,158.955 88.336,217.9 92.408,218.738 	"/>
	<path fill="#5A4D41" d="M104.845,154.117c1.054-5.005-0.207-10.218-3.43-14.189c-3.223-3.971-8.064-6.277-13.179-6.277H38.872
		c-4.224,0-8.223,1.905-10.885,5.186c-2.661,3.279-3.702,7.585-2.832,11.719l5.443,25.866h69.554L104.845,154.117z"/>
	<path fill="#3E3127" d="M89.435,149.648c0.646-3.715-0.126-7.585-2.102-10.533c-1.975-2.948-4.943-7.66-8.078-7.66H48.996
		c-2.588,0-5.039,4.415-6.671,6.849c-1.631,2.436-2.27,5.631-1.735,8.701l3.336,19.2H86.56L89.435,149.648z"/>
	<path fill="#935323" d="M4.757,77.09c23.943,21.306,78.426,35.595,115.976,3.261c37.55-32.324-6.008-16.778-10.105-14.089
		c0,0,16.577-0.255,13.979,5.618c-2.603,5.872-27.924,5.378-16.29-15.98C119.944,34.543,87.567-12.651,65.081,3.7
		c0,0-35.318-15.936-42.912,24.748C14.573,69.13,32.775,74.773,19.668,75.67C6.559,76.568,1.17,69.328,6.109,65.01
		c4.935-4.317,7.415,4.032,7.415,4.032s3.829-12.207-6.27-9.355C-2.846,62.541-1.148,71.838,4.757,77.09z"/>
	<path fill="#BF6B2B" d="M61.575,7.122c0.744-6.879-21.387-10.516-32.334,2c-6.69,7.648-10.371,28.418-6.833,32.667
		c2.399,2.882,11.615-6.765,18.67-16.174C47.416,17.164,60.731,14.903,61.575,7.122z"/>
	<path fill="#BF6B2B" d="M65.633,7.24C64.191,0.474,80.858-4.35,93.907,5.956c11.502,9.083,17.755,29.411,14.668,33.999
		c-2.093,3.111-13.831-9.122-21.809-17.763C79.601,14.432,67.266,14.896,65.633,7.24z"/>
	<path fill="#713D18" d="M61.159,19.868c-40.7,15.324-6.002,68.048-43.484,66.332c25.823,14.649,66.667,20.857,97.961-1.852
		C70.07,90.352,102.365,35.24,61.159,19.868z"/>
	<path fill="#F9BE81" d="M93.241,161.855c-1.96,8.028-8.116,26.575-14.864,39.987l-1.906-0.896l12.686-40.108L93.241,161.855z"/>
	<path fill="#F49F61" d="M86.769,182.122c3.031-8.204,5.392-15.837,6.473-20.267l-4.085-1.017l-6.388,20.195
		C84.163,181.272,85.499,181.645,86.769,182.122z"/>
	<path fill="#F9BE81" d="M37.492,163.872c3.111,7.69,13.417,25,21.469,37.526l1.031-1.276l-18.583-37.666L37.492,163.872z"/>
	<path fill="#F49F61" d="M51.147,182.194l-9.738-19.738l-3.917,1.416c1.69,4.18,5.512,11.204,9.936,18.754
		C48.616,182.408,49.86,182.264,51.147,182.194z"/>
	<path fill="#B8C13E" d="M93.453,171.208c3.081-11.835,1.622-14.492,0.455-17.753c-1.684-4.711-9.501-4.419-11.35-5.416
		c-3.4-1.834,5.184-54.198-21.317-52.917c-19.632,0.949-10.083,49.833-16.346,52.118c-2.872,1.048-11.321,1.978-12.82,6.698
		c-1.324,4.174-0.563,4.261,6.061,18.09C42.167,180.443,76.786,169.807,93.453,171.208z"/>
	<g>
		<g>
			<path fill="#A5A837" d="M46.685,143.956c3.28-0.202,4.474-35.751,7.849-45.376C45.158,105.58,48.864,133.653,46.685,143.956z"/>
			<path fill="#A5A837" d="M81.731,144.91c0.302-10.705,2.177-36.205-9.465-46.013C81.789,112.864,77.033,137.08,81.731,144.91z"/>
		</g>
		<path fill="#A5A837" d="M61.993,152.33c-10.772,0-21.203,2.072-30.453,4.596c0.123,2.354,1.86,5.217,6.596,15.103
			c4.031,8.415,38.65-2.222,55.317-0.82c1.726-6.629,2.026-10.377,1.753-12.966C85.907,155.165,74.592,152.33,61.993,152.33z"/>
	</g>
	<rect x="59.793" y="87.798" fill="#F9BE81" width="6.151" height="10.584"/>
	<path fill="#F9BE81" d="M113.194,132.872c1.471,1.753-14.587,4.121-15.833,4.377l-2.225-5.227
		C95.137,132.022,110.884,130.118,113.194,132.872z"/>
	<path fill="#F9BE81" d="M97.384,137.178c-2.599,0.492-21.603-33.747-21.603-33.747l6.444-0.161
		C82.226,103.27,103.025,136.106,97.384,137.178z"/>
	<path fill="#EFA461" d="M92.355,120.639c-4.588-8.615-10.13-17.369-10.13-17.369l-6.444,0.161c0,0,8.006,14.423,14.336,24.412
		C90.358,125.082,91.164,122.594,92.355,120.639z"/>
	<path fill="#F9BE81" d="M12.938,134.806c0.846,1.774,17.702,2.868,19.471,3.024l1.25-4.375
		C33.658,133.455,15.124,131.453,12.938,134.806z"/>
	<path fill="#F9BE81" d="M32.288,137.908c2.657,0.318,17.521-31.107,17.521-31.107l-5.525,0.529
		C44.283,107.33,26.518,137.212,32.288,137.908z"/>
	<path fill="#EFA461" d="M44.283,107.33c0,0-4.091,6.885-7.709,14.121c0.371,0.135,0.739,0.287,1.104,0.46
		c1.306,0.62,2.441,1.444,3.408,2.399c4.399-8.371,8.723-17.51,8.723-17.51L44.283,107.33z"/>
	<path fill="#B8C13E" d="M33.825,111.627c0,0,7.382,12.072,12.958,10.703c4.25-3,7.958-23.874,7.958-23.874
		S41.948,96.504,33.825,111.627z"/>
	<path fill="#B8C13E" d="M92.241,111.456c0,0-4.938,11.07-10.333,10.333S71.714,99.868,71.714,99.868S83.663,98.163,92.241,111.456z
		"/>
	<path fill="#F9BE81" d="M70.265,98.104c-3.01-2.561-6.348-3.277-9.667-2.762c-2.033,0.315-3.943,1.511-5.676,3.394
		c1.37,1.255,4.165,2.114,7.397,2.114C66.071,100.851,69.238,99.694,70.265,98.104z"/>
	<path fill="#E1E55C" d="M36.625,114.443c0.344-0.616-0.289-1.774-1.37-2.567c-1.041-0.761-2.134-0.91-2.476-0.35
		c-0.349,0.565,0.183,1.671,1.224,2.489C35.085,114.867,36.278,115.069,36.625,114.443z"/>
	<path fill="#E1E55C" d="M39.149,117.329c0.348-0.671-0.375-1.954-1.563-2.843c-1.143-0.853-2.315-1.036-2.664-0.432
		c-0.352,0.611,0.253,1.831,1.395,2.749C37.509,117.76,38.8,118.009,39.149,117.329z"/>
	<path fill="#E1E55C" d="M42.763,120.381c0.249-0.779-0.61-2.08-1.869-2.894c-1.214-0.782-2.381-0.828-2.646-0.12
		c-0.271,0.719,0.475,1.978,1.707,2.832C41.234,121.085,42.513,121.174,42.763,120.381z"/>
	<path fill="#E1E55C" d="M47.527,121.896c-0.17-0.929-1.591-1.987-3.135-2.381c-1.5-0.381-2.611,0.004-2.509,0.869
		c0.099,0.884,1.424,1.962,2.996,2.408C46.5,123.249,47.702,122.843,47.527,121.896z"/>
	<path fill="#E1E55C" d="M84.724,119.083c-0.587-0.525-1.83-0.171-2.778,0.769c-0.933,0.933-1.245,2.111-0.698,2.65
		c0.554,0.553,1.792,0.244,2.766-0.701C85.002,120.843,85.32,119.617,84.724,119.083z"/>
	<path fill="#E1E55C" d="M87.781,117.26c-0.626-0.526-1.933-0.143-2.922,0.832c-0.974,0.965-1.288,2.168-0.706,2.71
		c0.591,0.547,1.894,0.213,2.911-0.765C88.095,119.044,88.419,117.79,87.781,117.26z"/>
	<path fill="#E1E55C" d="M90.85,114.557c-0.708-0.435-1.961,0.031-2.803,1.024c-0.832,0.984-0.961,2.143-0.288,2.599
		c0.684,0.466,1.945,0.039,2.816-0.969C91.453,116.192,91.573,114.998,90.85,114.557z"/>
	<path fill="#E1E55C" d="M92.35,110.668c-0.822-0.094-1.812,0.876-2.23,2.158c-0.417,1.283-0.108,2.435,0.703,2.563
		c0.822,0.135,1.844-0.832,2.271-2.156S93.181,110.761,92.35,110.668z"/>
	<path fill="#A5A837" d="M83.659,148.372c-7.375-2.334-15.652-1.539-20.584-2.5c-3.417-0.666,15.916-1.334,18.667-4.917
		C81.534,144.08,83.659,148.372,83.659,148.372z"/>
	<path fill="#A5A837" d="M46.924,143.289c5.265-2.334,11.175-1.539,14.695-2.5c2.439-0.666-11.362-1.334-13.327-4.917
		C48.44,138.997,46.924,143.289,46.924,143.289z"/>
	
		<ellipse transform="matrix(0.9995 0.0328 -0.0328 0.9995 6.0313 -0.3356)" fill="#AF9785" cx="13.242" cy="183.621" rx="0.833" ry="4.166"/>
	
		<ellipse transform="matrix(0.998 -0.0633 0.0633 0.998 -11.3872 7.5517)" fill="#AF9785" cx="113.575" cy="183.621" rx="0.834" ry="4.166"/>
	<path fill="#AF9785" d="M52.575,218.54c0-1.335-3.731-2.417-8.334-2.417c-4.602,0-5.833,1.082-5.833,2.417
		c0,1.334,1.231,2.416,5.833,2.416C48.844,220.956,52.575,219.874,52.575,218.54z"/>
	<path fill="#AF9785" d="M79.075,218.654c0-1.364,3.556-2.47,7.941-2.47c4.384,0,5.558,1.105,5.558,2.47
		c0,1.363-1.174,2.469-5.558,2.469C82.631,221.123,79.075,220.018,79.075,218.654z"/>
	<path fill="#E1E55C" d="M76.313,107.438c-0.816-0.953-5.531-7.769-2.953-9.005c1.687-0.809,2.19,0.834,2.19,0.834L76.313,107.438z"
		/>
	<path fill="#E1E55C" d="M52.648,106.605c0.574-1.104,3.555-8.903,0.632-10.039c-1.911-0.742-1.992,1.087-1.992,1.087
		L52.648,106.605z"/>
	<g>
		<ellipse fill="#E1E55C" cx="64.534" cy="125.171" rx="4.529" ry="4.252"/>
		<polygon fill="#E1E55C" points="66.643,120.227 68.509,121.679 69.339,118.913 		"/>
		<polygon fill="#E1E55C" points="63.307,120.023 65.666,120.187 64.812,117.429 		"/>
		<polygon fill="#E1E55C" points="60.391,121.155 62.503,120.08 60.316,118.15 		"/>
		<polygon fill="#E1E55C" points="69.354,127.965 67.653,129.607 70.273,130.82 		"/>
		<polygon fill="#E1E55C" points="70.027,124.69 69.531,127.003 72.383,126.549 		"/>
		<polygon fill="#E1E55C" points="69.318,121.646 70.085,123.887 72.304,121.997 		"/>
		<polygon fill="#E1E55C" points="61.106,129.59 59.598,127.769 58.19,130.289 		"/>
		<polygon fill="#E1E55C" points="64.32,130.509 62.053,129.839 62.288,132.716 		"/>
		<polygon fill="#E1E55C" points="67.411,130.033 65.117,130.627 66.833,132.984 		"/>
		<polygon fill="#E1E55C" points="59.146,123.874 59.808,121.604 56.931,121.852 		"/>
		<polygon fill="#E1E55C" points="59.637,126.962 59.032,124.672 56.684,126.397 		"/>
	</g>
	<path fill="#A58272" d="M87.202,105.509c-4.237-3.78-8.58-5.105-11.586-5.525l-0.066-0.716c0,0-0.504-1.643-2.19-0.834
		c-0.367,0.176-0.573,0.475-0.677,0.845c-0.14-0.126-0.272-0.26-0.416-0.381c0.005,0.007,0.009,0.015,0.014,0.022
		c-1.751-1.629-3.839-2.813-6.336-3.399v-7.723h-6.151v7.498c-2.149,0.396-3.907,1.425-5.347,2.938
		c-0.151-0.793-0.5-1.408-1.166-1.667c-1.911-0.742-1.992,1.087-1.992,1.087l0.125,0.825c-3.008,0.323-7.622,1.575-12.015,5.726
		c6.382,2.457,15.614,4.001,25.885,4.001C73.589,108.205,81.212,107.194,87.202,105.509z"/>
	<g>
		<g>
			<g>
				<path fill="#F9BE81" d="M93.155,62.678c0.371-2.633,2.08-4.566,3.823-4.32c1.739,0.245,2.852,2.577,2.48,5.208
					c-0.368,2.633-4.25,4.063-5.989,3.817C91.729,67.138,92.787,65.311,93.155,62.678z"/>
				<path fill="#F49F61" d="M93.451,62.831c0.271-1.93,1.527-3.351,2.805-3.172c1.279,0.182,2.093,1.892,1.821,3.825
					c-0.271,1.932-3.119,2.98-4.396,2.802C92.403,66.105,93.18,64.763,93.451,62.831z"/>
				<path fill="#F9BE81" d="M93.395,63.042c0.148-1.058,0.836-1.836,1.534-1.737c0.7,0.097,1.146,1.035,0.998,2.094
					c-0.146,1.059-1.707,1.636-2.404,1.537C92.818,64.836,93.245,64.102,93.395,63.042z"/>
			</g>
			<g>
				<path fill="#F9BE81" d="M31.492,62.749c-0.304-2.64-1.991-4.612-3.771-4.408c-1.776,0.206-2.972,2.512-2.663,5.152
					c0.303,2.639,4.211,4.159,5.989,3.954C32.826,67.241,31.799,65.389,31.492,62.749z"/>
				<path fill="#F49F61" d="M31.1,62.821c-0.22-1.896-1.433-3.315-2.71-3.166c-1.277,0.146-2.136,1.805-1.918,3.701
					c0.219,1.897,3.029,2.988,4.307,2.841C32.055,66.051,31.317,64.717,31.1,62.821z"/>
				<path fill="#F9BE81" d="M31.9,63.473c-0.145-1.252-0.943-2.188-1.786-2.089c-0.842,0.099-1.408,1.192-1.265,2.444
					c0.146,1.253,1.998,1.973,2.84,1.874C32.533,65.604,32.044,64.726,31.9,63.473z"/>
			</g>
			<path fill="#F9BE81" d="M62.729,91.962c-17.696-0.716-47.406-21.674-24.597-57.326c15.61-24.396,31.75-26.581,47.503-1.97
				C110.546,71.589,81.451,92.721,62.729,91.962z"/>
			<defs>
				<filter id="Adobe_OpacityMaskFilter" filterUnits="userSpaceOnUse" x="29.856" y="15.24" width="65.417" height="76.742">
					<feFlood  style="flood-color:white;flood-opacity:1" result="back"/>
					<feBlend  in="SourceGraphic" in2="back" mode="normal"/>
				</filter>
			</defs>
			<mask maskUnits="userSpaceOnUse" x="29.856" y="15.24" width="65.417" height="76.742" id="SVGID_1_">
				<g filter="url(#Adobe_OpacityMaskFilter)">
					<defs>
						<filter id="Adobe_OpacityMaskFilter_1_" filterUnits="userSpaceOnUse" x="29.856" y="15.24" width="65.417" height="76.742">
							<feFlood  style="flood-color:white;flood-opacity:1" result="back"/>
							<feBlend  in="SourceGraphic" in2="back" mode="normal"/>
						</filter>
					</defs>
					<mask maskUnits="userSpaceOnUse" x="29.856" y="15.24" width="65.417" height="76.742" id="SVGID_1_">
						<g filter="url(#Adobe_OpacityMaskFilter_1_)">
						</g>
					</mask>
					<linearGradient id="SVGID_2_" gradientUnits="userSpaceOnUse" x1="62.5649" y1="74.2051" x2="62.5649" y2="102.2064">
						<stop  offset="0" style="stop-color:#000000"/>
						<stop  offset="1" style="stop-color:#FFFFFF"/>
					</linearGradient>
					<path mask="url(#SVGID_1_)" fill="url(#SVGID_2_)" d="M62.729,91.962c-17.696-0.716-47.406-21.674-24.597-57.326
						c15.61-24.396,31.75-26.581,47.503-1.97C110.546,71.589,81.451,92.721,62.729,91.962z"/>
				</g>
			</mask>
			<linearGradient id="SVGID_3_" gradientUnits="userSpaceOnUse" x1="62.5649" y1="74.2051" x2="62.5649" y2="102.2064">
				<stop  offset="0" style="stop-color:#BF4E27"/>
				<stop  offset="1" style="stop-color:#B63825"/>
			</linearGradient>
			<path opacity="0.3" fill="url(#SVGID_3_)" d="M62.729,91.962c-17.696-0.716-47.406-21.674-24.597-57.326
				c15.61-24.396,31.75-26.581,47.503-1.97C110.546,71.589,81.451,92.721,62.729,91.962z"/>
		</g>
		<g>
			<path fill="#D9672A" d="M42.844,60.531c-0.461-3.982,0.676-7.378,4.296-7.834c8.717-1.099,10.272,11.607,3.045,12.521
				C46.563,65.672,43.359,64.979,42.844,60.531z"/>
			<path fill="#FFF8EA" d="M43.301,60.782c-0.463-3.979,0.675-7.379,4.297-7.839c8.715-1.094,10.271,11.609,3.043,12.523
				C47.021,65.922,43.817,65.225,43.301,60.782z"/>
			<path fill="#79ABC6" d="M45.899,61.715c-0.389-2.228,0.779-4.551,2.613-5.188c1.832-0.64,3.629,0.651,4.021,2.88
				c0.387,2.229-0.779,4.552-2.614,5.19C48.089,65.234,46.29,63.941,45.899,61.715z"/>
			<path fill="#F9BE81" d="M58.352,66.698c-0.015,2.069-4.602,3.938-10.247,4.187c-5.642,0.244-10.201-1.23-10.188-3.299
				c0.018-2.067,4.602-3.936,10.245-4.182C53.803,63.158,58.367,64.631,58.352,66.698z"/>
			<path fill="#9BCCE1" d="M47.218,59.115c-0.105-0.606,0.211-1.242,0.71-1.416c0.501-0.175,0.991,0.178,1.099,0.785
				c0.105,0.611-0.213,1.243-0.714,1.417C47.813,60.076,47.324,59.724,47.218,59.115z"/>
			<path fill="#D9672A" d="M69.995,60.918c-0.685-4.459,0.302-8.135,3.989-8.324c8.882-0.459,11.146,13.788,3.784,14.171
				C74.079,66.952,70.759,65.901,69.995,60.918z"/>
			<path fill="#FFF8EA" d="M69.751,60.749c-0.657-4.013,0.313-7.371,3.908-7.673c8.659-0.72,10.832,12.088,3.655,12.691
				C73.718,66.065,70.482,65.229,69.751,60.749z"/>
			<path fill="#79ABC6" d="M72.01,61.214c-0.271-2.269,1.021-4.406,2.884-4.774c1.865-0.365,3.593,1.178,3.864,3.446
				c0.269,2.27-1.021,4.409-2.887,4.775C74.01,65.027,72.279,63.484,72.01,61.214z"/>
			<path fill="#F9BE81" d="M84.985,67.334C84.9,69.4,80.251,71.065,74.604,71.07c-5.646,0-10.155-1.672-10.068-3.738
				c0.089-2.065,4.734-3.736,10.383-3.736C80.563,63.596,85.071,65.267,84.985,67.334z"/>
			<path fill="#EFA461" d="M57.786,69.31c-0.01-1.321,1.792-2.593,4.032-2.842c2.238-0.249,4.067,0.624,4.078,1.945
				c0.015,1.321-1.791,2.591-4.029,2.841C59.626,71.498,57.801,70.63,57.786,69.31z"/>
			<path fill="#F9BE81" d="M65.373,67.658c0.002,1.127-1.629,2.197-3.636,2.385c-2.01,0.189-3.64-0.57-3.639-1.701
				c0-1.126,1.629-2.194,3.641-2.386C63.744,65.768,65.375,66.528,65.373,67.658z"/>
			<path fill="#9BCCE1" d="M73.464,58.822c-0.073-0.617,0.278-1.2,0.784-1.301c0.512-0.1,0.98,0.321,1.055,0.938
				c0.075,0.623-0.275,1.206-0.786,1.306C74.01,59.867,73.536,59.441,73.464,58.822z"/>
			<path fill="#EFA461" d="M82.154,70.206c-0.341,1.179-1.972,1.362-3.765,0.779c-1.801-0.582-3.089-1.712-2.748-2.889
				c0.338-1.179,2.071-1.664,3.871-1.079C81.313,67.6,82.493,69.027,82.154,70.206z"/>
			<path fill="#EFA461" d="M47.263,68.685c0.2,1.184-1.192,2.232-3.068,2.723c-1.878,0.496-3.527,0.247-3.729-0.938
				c-0.197-1.182,1.16-2.541,3.037-3.033C45.379,66.944,47.063,67.499,47.263,68.685z"/>
			<path fill="#EFA461" d="M61.313,70.066c0.102-0.369-0.394-0.83-1.105-1.029c-0.714-0.197-1.375-0.06-1.48,0.312
				c-0.101,0.366,0.394,0.827,1.106,1.025C60.55,70.574,61.211,70.436,61.313,70.066z"/>
			
				<ellipse transform="matrix(0.8572 -0.5149 0.5149 0.8572 -26.7325 42.7506)" fill="#EFA461" cx="63.73" cy="69.585" rx="1.341" ry="0.693"/>
		</g>
		<g>
			<path fill="#884E3A" d="M72.416,48.122c3.25,1.287,6.69,2.152,10.765,2.637l0.549-2.033c-3.882-0.497-7.204-1.228-10.336-2.279
				L72.416,48.122z"/>
		</g>
		<g>
			<path fill="#884E3A" d="M53.729,47.309c-3.499,1.638-7.199,2.859-11.582,3.752l-0.59-2.038c4.179-0.888,7.752-1.956,11.121-3.345
				L53.729,47.309z"/>
		</g>
		<ellipse fill="#542D24" cx="75.054" cy="73.577" rx="0.483" ry="0.462"/>
		<ellipse fill="#542D24" cx="52.924" cy="76.301" rx="0.484" ry="0.462"/>
		<g>
			<path fill="#542D24" d="M53.003,76.652l0.271-0.323c2.412,1.524,13.135,5.506,21.604-2.869l0.246,0.264
				c-3.177,3.145-6.809,5.552-11.44,5.776C60.192,79.668,56.772,79.043,53.003,76.652z"/>
		</g>
	</g>
	<path fill="#E2C8B7" d="M51.075,217.664c0-0.929-2.941-1.682-6.569-1.682c-3.627,0-4.598,0.753-4.598,1.682
		c0,0.928,0.971,1.681,4.598,1.681C48.134,219.345,51.075,218.592,51.075,217.664z"/>
	<path fill="#E2C8B7" d="M80.073,217.82c0-0.903,3.202-1.636,7.152-1.636c3.948,0,5.006,0.732,5.006,1.636
		c0,0.902-1.058,1.635-5.006,1.635C83.275,219.455,80.073,218.723,80.073,217.82z"/>
	<path fill="#F9BE81" d="M11.25,133.166c-0.493,0.146-1.278,0.285-2.055,0.464c-1.377,0.318-2.613,1.259-2.33,1.814
		c0.235,0.469,1.116-0.252,2.089-0.493c0.854-0.217,1.142-0.313,1.224-0.098c0.059,0.151-0.952,0.635-2.059,1.216
		c-1.415,0.744-2.222,1.484-1.911,2.037c0.299,0.527,1.076-0.212,2.43-0.755c1.174-0.466,1.649-0.745,1.959-0.224
		c0.146,0.245-0.585,0.647-1.568,1.516c-1.146,1.007-1.618,1.937-1.265,2.305c0.512,0.53,0.701-0.331,2.173-1.298
		c1.889-1.248,3.505-2.696,4.938-2.526c1.325,0.159,1.423,3.113,2.427,2.651c0.794-0.365,1.149-4.04-0.519-5.82
		C15.744,132.847,14.908,132.08,11.25,133.166z"/>
	<path fill="#F9BE81" d="M114.465,132.832c0.434,0.253,1.147,0.565,1.842,0.913c1.233,0.62,2.168,1.797,1.753,2.259
		c-0.349,0.39-1.002-0.496-1.868-0.949c-0.76-0.402-1.01-0.561-1.145-0.375c-0.095,0.131,0.743,0.822,1.649,1.629
		c1.157,1.031,1.734,1.919,1.292,2.372c-0.424,0.432-0.974-0.449-2.124-1.275c-1-0.712-1.382-1.087-1.813-0.663
		c-0.204,0.199,0.389,0.749,1.102,1.799c0.831,1.219,1.039,2.21,0.604,2.478c-0.628,0.386-0.583-0.476-1.736-1.731
		c-1.478-1.618-2.644-3.364-4.058-3.533c-1.309-0.154-2.177,2.627-3.014,1.958c-0.664-0.53-0.04-4.099,2.021-5.403
		C110.253,131.496,111.254,130.961,114.465,132.832z"/>
	<path opacity="0.4" fill="#B8C13E" d="M38.908,173.413c0,0-10.375-14.625-1.5-17.25s23.375,17.792,23.375,17.792
		C48.616,175.458,43.542,175.785,38.908,173.413z"/>
	<path opacity="0.4" fill="#B8C13E" d="M93.544,171.247c0,0,2.489-11.542-2.886-13.042c-7.229-2.018-15,13.875-15,13.875
		C84.658,170.58,89.908,170.955,93.544,171.247z"/>
	<path fill="#EDD5B3" d="M76.633,200.204l1.984,0.359c0,0,5.165,11.446-0.136,7.808C74.132,205.384,76.633,200.204,76.633,200.204z"
		/>
	<path fill="#EDD5B3" d="M59.689,200.02l-1.955,0.618c0,0-3.699,12.029,1.169,7.722C62.898,204.823,59.689,200.02,59.689,200.02z"/>
</g>
</svg>
