<?xml version="1.0" encoding="utf-8"?>
<!-- Generator: Adobe Illustrator 16.0.0, SVG Export Plug-In . SVG Version: 6.00 Build 0)  -->
<!DOCTYPE svg PUBLIC "-//W3C//DTD SVG 1.1//EN" "http://www.w3.org/Graphics/SVG/1.1/DTD/svg11.dtd">
<svg version="1.1" id="Layer_1" xmlns="http://www.w3.org/2000/svg" xmlns:xlink="http://www.w3.org/1999/xlink" x="0px" y="0px"
	 width="573px" height="530px" viewBox="-193 -182.5 573 530" enable-background="new -193 -182.5 573 530" xml:space="preserve">
<g>
	<path opacity="0.2" fill="#112F41" enable-background="new    " d="M-42.717,84.628l-1.542-0.151
		c-0.525-0.052-1.05-0.145-1.573-0.244c-3.881-0.746-95.127-18.677-121.073-76.978c-0.001-0.02-0.002-0.021-0.003-0.025
		c-0.026-0.068-0.051-0.121-0.076-0.173c-0.074-0.172-0.165-0.346-0.223-0.5l-0.022-0.048c-0.024-0.047-0.043-0.078-0.052-0.126
		c-0.042-0.075-0.072-0.151-0.099-0.243l-0.15-0.356c-0.05-0.142-0.101-0.266-0.167-0.374l-0.005-0.044
		c-0.052-0.127-0.1-0.274-0.152-0.401l-0.071-0.174c-0.051-0.145-0.102-0.273-0.153-0.42l-0.267-0.724
		c-0.007-0.05-0.03-0.097-0.052-0.128c-0.006-0.069-0.029-0.122-0.052-0.171l-0.253-0.818c-0.025-0.058-0.05-0.154-0.083-0.249
		c-0.014-0.051-0.036-0.082-0.041-0.133c-0.1-0.348-0.218-0.697-0.297-1.015c-0.042-0.104-0.071-0.224-0.097-0.326
		c-0.118-0.402-0.222-0.826-0.326-1.291c-0.023-0.081-0.048-0.179-0.071-0.275c-0.099-0.404-0.189-0.847-0.278-1.274
		c-0.001-0.022-0.011-0.045-0.017-0.051c-2.671-12.999,0.619-25.421,9.057-34.637c0.704-1.023,1.526-1.99,2.464-2.861
		c2.326-2.222,4.984-4.009,6.184-4.757c6.396-4.212,17.482-7.848,25.916-10.208c2.869-1.324,11.11-5.483,20.073-10.14
		c0.082-0.05,0.177-0.098,0.273-0.146c0.529-0.271,1.078-0.501,1.646-0.722c1.071-0.727,1.74-1.243,2.073-1.519
		c4.506-3.74,9.356-6.574,14.385-8.389c14.719-5.281,44.652-10.264,93.283,6.074l73.464-69.381
		c12.146-11.449,29.331-15.013,44.873-9.263l42.527,15.69c2.206,0.823,4.294,2.013,6.185,3.533c1.739,1.396,3.238,3.063,4.476,4.887
		c2.196,3.309,3.491,7.169,3.736,11.183c0.546,9.107-4.371,17.473-12.451,21.316l-2.98,1.414c-4.096,1.966-7.623,5.556-9.863,10.115
		l-30.384,62.025c28.488,11.756,54.182,21.689,75.508,29.936c7.612,2.938,14.537,5.624,20.67,8.021
		c5.875,2.312,12.203,1.092,16.979-3.267c5.53-5.081,10.603-9.437,15.039-12.948c11.897-9.439,27.098-12.648,41.69-8.89
		l27.885,7.173c7.074,1.838,12.749,7.097,15.149,14.114c2.44,7.077,1.232,14.824-3.297,20.744l-33.521,43.737l5.836,14.192
		c0.75,1.84,1.291,3.734,1.583,5.676c0.515,3.736,0.164,7.612-1.079,11.156c-0.564,1.74-1.396,3.387-2.447,5.073
		c-1.393,2.144-3.147,4.042-5.273,5.677c-2.207,1.748-4.743,2.998-7.433,3.793c-0.544,0.151-1.09,0.3-1.598,0.44
		c-0.188,0.009-0.342,0.057-0.498,0.1c-2.229,0.404-4.472,0.458-6.62,0.249l-17.676-1.983c-1.641-0.158-3.281-0.499-5.032-1.003
		c-0.199-0.092-0.444-0.145-0.651-0.24c-5.873-1.85-10.953-5.48-14.691-10.314l-130.129-13.051l-1.246,151.208l7.866,19.027
		c3.44,8.361,2.183,17.919-3.34,24.947c-0.453,0.592-1.086,1.247-1.649,1.843c-0.636,0.649-1.684,1.699-3.036,2.694
		c-0.094,0.052-0.187,0.103-0.248,0.193c-0.889,0.604-1.688,1.054-2.281,1.354c-0.943,0.546-2.144,1.189-3.64,1.693
		c-1.444,0.533-2.696,0.787-3.683,0.937c-0.9,0.159-2.14,0.354-3.694,0.402c-2.491,0.005-4.98-0.346-7.415-1.094l-52.568-16.435
		c-4.508-1.4-8.668-3.943-12.056-7.371c-3.211-3.235-5.72-7.267-7.239-11.608L-42.717,84.628z"/>
	
		<path fill="#FFFFFF" stroke="#FFFFFF" stroke-width="12.0375" stroke-linecap="round" stroke-linejoin="round" stroke-miterlimit="10" d="
		M-177.851-28.542c-0.02-0.03-0.027-0.055-0.048-0.086c-0.031-0.058-0.062-0.159-0.092-0.244c-0.023-0.029-0.027-0.057-0.051-0.088
		c-0.053-0.13-0.107-0.267-0.164-0.407c-0.002-0.023-0.004-0.028-0.021-0.053c-0.06-0.141-0.118-0.327-0.192-0.494
		c-0.006-0.026-0.009-0.052-0.031-0.079c-0.059-0.19-0.136-0.383-0.206-0.58c-0.014-0.048-0.017-0.076-0.037-0.104
		c-0.062-0.219-0.144-0.442-0.222-0.687c-0.002-0.027-0.005-0.055-0.024-0.08c-0.072-0.249-0.154-0.521-0.227-0.795
		c-0.001-0.026-0.019-0.053-0.024-0.079c-0.081-0.278-0.158-0.578-0.223-0.903c-0.018-0.003-0.018-0.027-0.018-0.03
		c-0.08-0.328-0.154-0.657-0.225-1.01c0-0.002,0-0.004-0.001-0.026c-1.202-5.851-1.259-14.927,6.78-22.148
		c-0.073-0.17-0.056-0.384,0.082-0.518c1.576-1.506,3.831-2.878,3.831-2.878c5.634-3.88,21.271-8.283,23.897-8.997
		c0.299-0.081,0.573-0.187,0.847-0.298c4.541-1.941,22.368-11.208,24.12-12.113c0.087-0.053,0.195-0.055,0.299-0.027l0.357,0.111
		c2.803-1.721,5.332-3.442,7.298-5.06c2.956-2.462,6.208-4.486,9.76-5.767c14.903-5.337,53.566-11.972,124.118,20.833
		c0.953,0.438,1.908,0.878,2.845,1.339C49.264-58.107,73.656-47.328,96.865-37.49l-21.401-9.646l0,0L-1.319-81.732l89.004-84.076
		c7.814-7.36,18.648-9.625,28.603-5.938l27.177,10.016l0,0l19.52,7.212c0.437,0.163,0.819,0.383,1.148,0.655
		c0.329,0.272,0.606,0.577,0.827,0.93c0.485,0.688,0.717,1.511,0.769,2.353c0.107,1.667-0.614,3.365-2.255,4.155l-3.275,1.557
		c-8.642,4.104-15.747,11.268-20.227,20.373L97.26-37.325c51.178,21.655,96.408,38.582,125.659,50.042
		c13.62,5.355,28.56,2.489,39.438-7.489c4.922-4.512,10.332-9.247,15.411-13.24c8.106-6.426,18.441-8.661,28.389-6.095l30.579,7.876
		c2.779,0.711,3.933,4.376,2.134,6.724l-39.867,52.013l0,0l-3.946,5.19l10.829,26.227c0.214,0.49,0.332,0.984,0.391,1.476
		c0.157,0.981,0.05,1.961-0.231,2.794c-0.159,0.437-0.371,0.866-0.598,1.245c-0.327,0.496-0.761,0.887-1.205,1.262
		c-0.536,0.389-1.093,0.709-1.746,0.871c-0.059,0.005-0.116,0.055-0.214,0.059c-0.439,0.063-0.885,0.106-1.374,0.054l-19.419-2.138
		c-0.706-0.1-1.367-0.262-2.065-0.435c-0.054-0.043-0.107-0.05-0.163-0.057c-3.728-1.148-6.897-4.097-8.532-8.092l-1.262-3.136
		c-0.115-0.003-0.269,0-0.385-0.004L94.243,60.269l-1.581,189.79c-0.003,1.475,0.273,2.948,0.825,4.272l9.343,22.59
		c1.101,2.729,0.552,5.516-0.929,7.425v0.001c-0.11,0.157-0.271,0.226-0.385,0.38c-0.274,0.283-0.546,0.604-0.872,0.827
		c-0.164,0.113-0.375,0.208-0.543,0.277c-0.329,0.212-0.654,0.429-0.991,0.542c-0.317,0.107-0.604,0.11-0.926,0.164
		c-0.274,0.054-0.546,0.157-0.824,0.159c-0.604,0.004-1.254-0.099-1.907-0.274l-57.699-18.044c-1.887-0.601-3.608-1.685-5.028-3.11
		c-1.421-1.424-2.543-3.186-3.233-5.209l-74.395-213.74l-14.383-1.448c0,0-94.066-17.877-118.482-73.223c0,0-0.013-0.027-0.03-0.078
		C-177.815-28.439-177.827-28.492-177.851-28.542z"/>
	<g>
		<g>
			<path fill="#ED563C" d="M-1.319-81.732L97.26-37.323l42.713-87.172c4.479-9.105,11.586-16.269,20.227-20.373l3.275-1.557
				c3.281-1.56,2.959-6.81-0.489-8.093l-46.696-17.227c-9.956-3.687-20.788-1.423-28.604,5.938L-1.319-81.732z"/>
			<path fill="#D14D33" d="M118.086-134.066c4.438-9.106,11.545-16.269,20.187-20.391l3.276-1.54
				c2.183-1.038,2.742-3.686,1.916-5.715l19.521,7.195c3.448,1.283,3.771,6.533,0.49,8.093l-3.276,1.557
				c-8.641,4.104-15.747,11.268-20.227,20.373L97.26-37.323L75.484-47.14L118.086-134.066z"/>
		</g>
		<g>
			<path fill="#F4F4F4" d="M262.358,5.227c4.921-4.512,10.331-9.246,15.409-13.239c8.107-6.426,18.443-8.661,28.391-6.095
				l30.577,7.876c2.78,0.711,3.935,4.376,2.135,6.724l-53.762,70.168c-3.934,5.114-9.895,7.788-16.027,7.163L-59.283,44.87
				c0,0-94.067-17.877-118.483-73.223c0,0-13.256-27.044,21.516-36.31c7.053-1.864,13.867-4.542,20.482-7.742
				c8.23-3.992,18.104-9.241,23.625-13.832c2.959-2.461,6.208-4.486,9.76-5.748c14.903-5.356,53.566-11.974,124.119,20.815
				c0.952,0.457,1.907,0.896,2.863,1.338c79.269,37.593,155.732,65.845,198.322,82.548C236.539,18.052,251.479,15.205,262.358,5.227
				z"/>
			<path fill="#EBEBEB" d="M-161.466-62.997c-0.116,6.722,2.48,12.027,2.48,12.027c24.417,55.346,118.48,73.204,118.48,73.204
				l328.348,32.972c3.983,0.387,7.868-0.575,11.158-2.701L285.106,70.66c-3.933,5.113-9.895,7.788-16.027,7.163L-59.287,44.869
				c0,0-94.066-17.877-118.482-73.223C-177.768-28.353-189.603-52.549-161.466-62.997z"/>
			<path fill="#098587" d="M-170.684-54.873l62.721,13.178c2.849,0.6,5.66-1.098,6.652-4.053l7.786-22.881
				c0.774-2.299-0.461-4.896-2.648-5.553l-23.627-7.104c-0.101-0.028-0.195-0.008-0.297,0.026
				c-1.752,0.924-19.58,10.172-24.121,12.113c-0.274,0.13-0.548,0.216-0.847,0.298c-2.625,0.733-18.259,5.136-23.897,8.997
				c0,0-2.255,1.391-3.831,2.896c-0.185,0.165-0.191,0.463-0.051,0.659l0,0C-172.297-55.555-171.533-55.041-170.684-54.873z"/>
			<path fill="#06ABAD" d="M-116.933-44.268c2.85,0.603,5.644-1.097,6.651-4.071l7.788-22.861c0.77-2.299-0.461-4.896-2.649-5.554
				l-14.956-4.505c0,0,0,0,0.001,0c0.103-0.034,0.197-0.055,0.297-0.026l23.627,7.104c2.188,0.657,3.422,3.254,2.648,5.553
				l-7.786,22.881c-0.993,2.956-3.803,4.653-6.652,4.053l-62.723-13.179c-0.705-0.14-1.34-0.524-1.857-1.072L-116.933-44.268z"/>
		</g>
		<g>
			<g>
				<path fill="#098587" d="M-60.792-49.679c1.449,4.698,6.043,7.3,10.278,5.846c4.214-1.474,6.458-6.453,5.009-11.152
					c-1.447-4.679-6.041-7.3-10.258-5.826C-59.994-59.358-62.242-54.359-60.792-49.679z"/>
				<path fill="#06ABAD" d="M-49.993-53.833c-1.12-3.612-4.108-5.988-7.357-6.209c0.473-0.306,1.015-0.578,1.587-0.77
					c4.215-1.474,8.812,1.147,10.258,5.826c1.449,4.699-0.795,9.679-5.009,11.152c-0.977,0.33-1.961,0.439-2.92,0.362
					C-50.264-45.497-48.737-49.766-49.993-53.833z"/>
			</g>
			<g>
				<path fill="#098587" d="M-15.892-39.292c1.449,4.68,6.043,7.3,10.277,5.827c4.215-1.454,6.458-6.454,5.03-11.134
					c-1.449-4.698-6.063-7.3-10.278-5.846C-15.096-48.97-17.341-43.97-15.892-39.292z"/>
				<path fill="#06ABAD" d="M-5.094-43.445c-1.12-3.612-4.105-5.989-7.358-6.208c0.493-0.324,1.017-0.577,1.589-0.769
					c4.214-1.474,8.829,1.127,10.278,5.826c1.429,4.679-0.815,9.679-5.03,11.135c-0.977,0.349-1.942,0.458-2.918,0.381
					C-5.365-35.107-3.837-39.376-5.094-43.445z"/>
			</g>
			<g>
				<path fill="#098587" d="M30.809-24.552c1.45,4.699,6.043,7.301,10.277,5.826c4.215-1.453,6.459-6.454,5.011-11.133
					c-1.449-4.697-6.043-7.299-10.258-5.846C31.607-34.23,29.361-29.23,30.809-24.552z"/>
				<path fill="#06ABAD" d="M41.609-28.706c-1.12-3.612-4.104-5.989-7.357-6.208c0.493-0.306,1.016-0.577,1.588-0.771
					c4.215-1.472,8.809,1.148,10.258,5.827c1.449,4.68-0.795,9.679-5.011,11.153c-0.978,0.331-1.961,0.44-2.919,0.364
					C41.338-20.367,42.865-24.636,41.609-28.706z"/>
			</g>
			<g>
				<path fill="#098587" d="M77.974-8.719c1.449,4.7,6.043,7.299,10.258,5.846c4.223-1.473,6.459-6.472,5.029-11.152
					c-1.449-4.68-6.042-7.299-10.257-5.826C78.769-18.397,76.525-13.398,77.974-8.719z"/>
				<path fill="#06ABAD" d="M88.752-12.853c-1.12-3.631-4.105-5.989-7.357-6.228c0.492-0.305,1.035-0.576,1.589-0.77
					c4.234-1.473,8.828,1.147,10.276,5.826c1.431,4.699-0.814,9.679-5.029,11.152c-0.959,0.33-1.942,0.439-2.9,0.382
					C88.501-4.535,90.009-8.804,88.752-12.853z"/>
			</g>
			<g>
				<path fill="#098587" d="M124.656,6.022c1.468,4.698,6.063,7.299,10.278,5.846c4.215-1.473,6.458-6.454,5.029-11.152
					c-1.469-4.68-6.063-7.299-10.278-5.827C125.472-3.638,123.227,1.342,124.656,6.022z"/>
				<path fill="#06ABAD" d="M135.475,1.887c-1.14-3.63-4.144-5.989-7.377-6.209c0.491-0.324,1.034-0.595,1.588-0.79
					c4.215-1.472,8.81,1.148,10.276,5.827c1.43,4.699-0.813,9.679-5.029,11.152c-0.978,0.33-1.961,0.439-2.899,0.381
					C135.203,10.205,136.73,5.936,135.475,1.887z"/>
			</g>
			<g>
				<path fill="#098587" d="M161.893,16.602c1.43,4.699,6.024,7.3,10.277,5.846c4.215-1.474,6.458-6.473,5.03-11.152
					c-1.469-4.68-6.063-7.3-10.277-5.826C162.668,6.923,160.425,11.923,161.893,16.602z"/>
				<path fill="#06ABAD" d="M172.672,12.467c-1.102-3.631-4.104-5.989-7.34-6.228c0.494-0.305,0.997-0.576,1.59-0.769
					c4.214-1.473,8.81,1.146,10.278,5.826c1.428,4.698-0.815,9.678-5.03,11.153c-0.979,0.331-1.962,0.44-2.9,0.382
					C172.4,20.785,173.929,16.517,172.672,12.467z"/>
			</g>
		</g>
		<g>
			<path fill="#D14D33" d="M85.823,37.025C63.728,20.924,2.894-17.197-47.555,8.394c-5.059,2.549-7.411,8.995-5.387,14.822
				l82.414,236.846c1.417,4.047,4.504,7.121,8.28,8.318l57.7,18.044c5.191,1.598,9.616-4.051,7.375-9.465l-9.342-22.626
				c-0.552-1.324-0.828-2.798-0.825-4.272L94.296,54.36C94.351,47.441,91.13,40.885,85.823,37.025z"/>
			<path fill="#ED563C" d="M29.473,260.062L-52.941,23.216c-2.024-5.827,0.328-12.273,5.387-14.822
				C-24.56-3.278,0.595-1.694,23.259,5.003C9.346,4.431-4.737,6.729-18.104,13.509c-5.04,2.569-7.412,8.996-5.369,14.822
				l82.414,236.826c1.398,4.046,4.485,7.159,8.26,8.354l34.699,10.836c-1.476,1.863-3.876,2.891-6.448,2.076l-57.7-18.046
				C33.977,267.183,30.89,264.105,29.473,260.062z"/>
		</g>
		<g>
			<g>
				<path fill="#F2B133" d="M291.612,49.358l14.272,34.564c1.594,3.928-1.143,8.193-4.978,7.761l-19.419-2.138
					c-4.697-0.538-8.807-3.822-10.761-8.582l-15.149-37.347c-1.648-4.104,1.469-8.478,5.463-7.632l20.011,4.189
					C285.699,41.155,289.644,44.599,291.612,49.358z"/>
			</g>
			<path fill="#E6A830" d="M296.691,90.426c3.835,0.436,6.572-3.83,4.978-7.759l-14.272-34.565
				c-1.576-3.751-4.369-6.673-7.764-8.229l1.418,0.299c4.648,0.982,8.593,4.426,10.562,9.186l14.272,34.564
				c1.594,3.928-1.143,8.193-4.978,7.761l-19.419-2.138c-1.424-0.163-2.787-0.602-4.089-1.251L296.691,90.426z"/>
		</g>
	</g>
</g>
</svg>
