<?xml version="1.0" encoding="utf-8"?>
<!-- Generator: Adobe Illustrator 16.0.0, SVG Export Plug-In . SVG Version: 6.00 Build 0)  -->
<!DOCTYPE svg PUBLIC "-//W3C//DTD SVG 1.1//EN" "http://www.w3.org/Graphics/SVG/1.1/DTD/svg11.dtd">
<svg version="1.1" id="Layer_1" xmlns="http://www.w3.org/2000/svg" xmlns:xlink="http://www.w3.org/1999/xlink" x="0px" y="0px"
	 width="600px" height="600px" viewBox="-91.836 -91.836 600 600" enable-background="new -91.836 -91.836 600 600"
	 xml:space="preserve">
<circle opacity="0.1" fill="#3490DC" enable-background="new    " cx="208.164" cy="208.164" r="300"/>
<g>
	<path fill="#3490DC" d="M342.292,61.662h-11.08v272.069c0,18.076-14.715,32.788-32.787,32.788H186.209H96.988v10.092
		c0,11.542,9.374,20.924,20.923,20.924h112.163h112.162c11.56,0,20.928-9.382,20.928-20.924V82.582
		C363.164,71.032,353.825,61.662,342.292,61.662z"/>
	<path fill="#3490DC" d="M186.209,354.657h112.173c11.546,0,20.925-9.37,20.925-20.926V61.662V39.714
		c0-11.549-9.379-20.921-20.925-20.921H186.209h-37.295v6.919c0.083,0.711,0.118,1.464,0.118,2.21v45.606v11.703
		c0,16.255-13.207,29.469-29.461,29.469H107.86h-45.6c-0.597,0-1.227-0.043-1.823-0.075h-7.273v219.105
		c0,11.556,9.377,20.926,20.927,20.926h22.932H186.209L186.209,354.657z M190.446,283.545h-73.128c-5.462,0-9.893-4.436-9.893-9.885
		c0-5.459,4.431-9.898,9.893-9.898h73.167c5.456,0,9.89,4.439,9.89,9.898C200.375,279.109,195.903,283.545,190.446,283.545z
		 M263.616,233.076H117.318c-5.462,0-9.893-4.426-9.893-9.89c0-5.452,4.431-9.885,9.893-9.885h146.298
		c5.453,0,9.886,4.433,9.886,9.885C273.502,228.65,269.069,233.076,263.616,233.076z M117.318,159.708h146.298
		c5.453,0,9.886,4.429,9.886,9.893c0,5.45-4.433,9.884-9.886,9.884H117.318c-5.462,0-9.893-4.434-9.893-9.884
		C107.426,164.138,111.856,159.708,117.318,159.708z"/>
	<path fill="#3490DC" d="M62.261,102.834h57.311c0.035,0,0.115,0,0.156,0c9.569-0.076,17.323-7.826,17.406-17.403
		c0-0.035,0-0.115,0-0.156V27.923c0-5.298-4.358-8.816-8.864-8.816c-2.169,0-4.349,0.792-6.165,2.61L56.014,87.804
		C50.478,93.344,54.391,102.834,62.261,102.834z"/>
</g>
</svg>
