<?xml version="1.0" encoding="utf-8"?>
<!-- Generator: Adobe Illustrator 16.0.0, SVG Export Plug-In . SVG Version: 6.00 Build 0)  -->
<!DOCTYPE svg PUBLIC "-//W3C//DTD SVG 1.1//EN" "http://www.w3.org/Graphics/SVG/1.1/DTD/svg11.dtd">
<svg version="1.1" id="Layer_1" xmlns="http://www.w3.org/2000/svg" xmlns:xlink="http://www.w3.org/1999/xlink" x="0px" y="0px"
	 width="599.999px" height="600px" viewBox="-91.836 -91.836 599.999 600" enable-background="new -91.836 -91.836 599.999 600"
	 xml:space="preserve">
<circle opacity="0.1" fill="#3490DC" enable-background="new    " cx="208.164" cy="208.164" r="300"/>
<path fill="#3490DC" d="M383.559,79.541h-46.771l-5.235-10.458c-3.96-7.922-12.056-12.928-20.915-12.928h-39.185L251.516,36.22
	c-7.375-7.367-19.967-2.149-19.967,8.265v109.504l93.542,33.406v-26.003h23.387c25.835,0,46.771-20.938,46.771-46.771V91.235
	C395.25,84.773,390.017,79.541,383.559,79.541z M301.708,114.62c-6.462,0-11.694-5.232-11.694-11.693s5.232-11.692,11.694-11.692
	c6.46,0,11.69,5.232,11.69,11.692S308.168,114.62,301.708,114.62z M91.235,173.086c-12.891,0-23.385-10.495-23.385-23.386
	c0-12.915-10.473-23.387-23.386-23.387c-12.914,0-23.386,10.472-23.386,23.387c0,30.444,19.606,56.16,46.772,65.844v156.32
	c0,6.461,5.231,11.693,11.692,11.693h46.772c6.458,0,11.692-5.232,11.692-11.693v-81.85h116.93v81.85
	c0,6.461,5.232,11.693,11.692,11.693h46.77c6.462,0,11.693-5.232,11.693-11.693V212.219l-109.583-39.133H91.235z"/>
</svg>
