<?xml version="1.0" encoding="utf-8"?>
<!-- Generator: Adobe Illustrator 16.0.0, SVG Export Plug-In . SVG Version: 6.00 Build 0)  -->
<!DOCTYPE svg PUBLIC "-//W3C//DTD SVG 1.1//EN" "http://www.w3.org/Graphics/SVG/1.1/DTD/svg11.dtd">
<svg version="1.1" id="Layer_1" xmlns="http://www.w3.org/2000/svg" xmlns:xlink="http://www.w3.org/1999/xlink" x="0px" y="0px"
	 width="600px" height="600px" viewBox="-91.836 -91.836 600 600" enable-background="new -91.836 -91.836 600 600"
	 xml:space="preserve">
<circle opacity="0.1" fill="#3490DC" enable-background="new    " cx="208.164" cy="208.164" r="300"/>
<g id="Layer_2">
	<g>
		<g>
			<path fill="#3490DC" d="M399.742,160.83l-35.552-35.551c-4.229-4.229-10.968-4.58-15.612-0.814
				c-16.061,13.023-39.211,11.798-53.864-2.849c-14.649-14.648-15.867-37.804-2.849-53.866c3.767-4.645,3.416-11.384-0.813-15.613
				l-35.553-35.551c-4.558-4.56-11.956-4.561-16.516,0l-222.4,222.398c-4.561,4.56-4.561,11.958,0,16.516l35.551,35.549
				c0.004,0.006,0.008,0.012,0.011,0.014c4.56,4.561,11.956,4.561,16.517,0c0.424-0.424,0.81-0.876,1.157-1.348
				c0.797-0.956,1.633-1.873,2.495-2.737c15.725-15.723,41.31-15.723,57.034-0.002c15.723,15.724,15.723,41.314-0.001,57.036
				c-0.989,0.993-2.055,1.949-3.167,2.852c-2.571,2.086-4.135,5.162-4.308,8.461c-0.172,3.304,1.066,6.529,3.407,8.867
				l35.549,35.549c4.561,4.562,11.957,4.562,16.517,0L399.74,177.343C404.304,172.785,404.304,165.39,399.742,160.83z
				 M249.568,234.788c0,0.917-0.445,1.774-1.191,2.302c-0.484,0.344-1.057,0.522-1.633,0.522c-0.311,0-0.625-0.055-0.927-0.157
				l-36.304-12.656c-0.332,11.313-1.264,21.749-2.69,30.059c-0.258,1.508-0.532,2.923-0.817,4.25l18.905,10.504
				c0.487,0.271,0.788,0.785,0.788,1.343v6.398c0,0.495-0.241,0.959-0.644,1.25c-0.261,0.184-0.572,0.285-0.887,0.285
				c-0.172,0-0.34-0.03-0.503-0.087l-22.095-7.703c-1.015,1.277-2.406,2.351-4.258,2.351c-1.853,0-3.245-1.074-4.259-2.351
				l-22.095,7.703c-0.469,0.167-0.988,0.091-1.392-0.197c-0.406-0.291-0.645-0.757-0.645-1.25v-6.398
				c0-0.558,0.301-1.074,0.789-1.343l18.903-10.504c-0.286-1.327-0.559-2.742-0.817-4.25c-1.427-8.311-2.354-18.747-2.69-30.059
				l-36.303,12.656c-0.863,0.298-1.818,0.166-2.563-0.366c-0.745-0.527-1.188-1.385-1.188-2.302v-11.772
				c0-1.028,0.555-1.971,1.451-2.47l8.2-4.554v-3.708c0-2.496,2.021-4.515,4.515-4.515c2.073,0,3.814,1.395,4.347,3.298l6.9-3.834
				v-3.418c0-2.495,2.021-4.516,4.516-4.516c1.981,0,3.66,1.278,4.27,3.052l6.122-3.402c0.453-8.765,1.277-16.804,2.423-23.477
				c0.91-5.292,1.983-9.489,3.194-12.47c0.614-1.514,2.484-6.119,6.323-6.119c3.838,0,5.708,4.606,6.323,6.119
				c1.211,2.98,2.285,7.177,3.194,12.47c1.146,6.672,1.969,14.712,2.423,23.477l6.118,3.402c0.606-1.775,2.286-3.052,4.272-3.052
				c2.494,0,4.516,2.021,4.516,4.516v3.418l6.897,3.834c0.53-1.903,2.278-3.298,4.349-3.298c2.496,0,4.513,2.021,4.513,4.515v3.708
				l8.203,4.554c0.893,0.498,1.453,1.442,1.453,2.47v11.772H249.568L249.568,234.788z M326.152,203.663
				c-4.755,4.756-12.473,4.756-17.224,0L212.664,107.4c-4.755-4.756-4.755-12.467,0-17.223c4.755-4.756,12.468-4.756,17.223,0
				l96.271,96.267C330.909,191.201,330.909,198.911,326.152,203.663z"/>
		</g>
	</g>
</g>
</svg>
