<?xml version="1.0" encoding="utf-8"?>
<!-- Generator: Adobe Illustrator 16.0.0, SVG Export Plug-In . SVG Version: 6.00 Build 0)  -->
<!DOCTYPE svg PUBLIC "-//W3C//DTD SVG 1.1//EN" "http://www.w3.org/Graphics/SVG/1.1/DTD/svg11.dtd">
<svg version="1.1" id="Layer_1" xmlns="http://www.w3.org/2000/svg" xmlns:xlink="http://www.w3.org/1999/xlink" x="0px" y="0px"
	 width="600px" height="600px" viewBox="-91.836 -91.836 600 600" enable-background="new -91.836 -91.836 600 600"
	 xml:space="preserve">
<circle opacity="0.1" fill="#3490DC" enable-background="new    " cx="208.164" cy="208.164" r="300"/>
<path fill="#3490DC" d="M368.16,188.157h-18.432c-5.509-12.503-13.501-23.561-23.372-32.809l11.813-47.194h-20.002
	c-18.386,0-34.628,8.438-45.633,21.443c-4.745-0.688-9.438-1.44-14.378-1.44h-80.006c-48.379,0-88.682,34.378-97.995,79.997H53.155
	c-9.251,0-16.564-8.438-14.695-18c1.379-7.119,8.068-11.996,15.315-11.996h0.628c2.058,0,3.746-1.688,3.746-3.754v-12.498
	c0-2.059-1.688-3.747-3.746-3.747c-17.812,0-33.69,12.747-35.941,30.375c-2.748,21.375,13.88,39.615,34.693,39.615h24.998
	c0,32.628,15.872,61.317,40.008,79.574v50.432c0,5.516,4.5,10.016,9.99,10.016h40.008c5.493,0,9.993-4.5,9.993-10.016v-29.99h80.006
	v29.99c0,5.516,4.5,10.016,10.002,10.016h39.994c5.515,0,10.015-4.5,10.015-10.016v-50.432c7.371-5.573,13.922-12.121,19.547-19.565
	h30.445c5.504,0,10.004-4.5,10.004-9.995v-80.009C378.164,192.658,373.664,188.157,368.16,188.157z M288.156,228.151
	c-5.496,0-9.996-4.497-9.996-9.994c0-5.502,4.5-10.003,9.996-10.003c5.509,0,10.009,4.501,10.009,10.003
	C298.165,223.655,293.665,228.151,288.156,228.151z M178.151,108.154h80.006c3.375,0,6.68,0.249,9.948,0.503
	c0-0.188,0.054-0.312,0.054-0.503c0-33.123-26.877-59.999-59.993-59.999c-33.135,0-60.012,26.876-60.012,59.999
	c0,1.316,0.316,2.565,0.384,3.878C158.033,109.594,167.912,108.154,178.151,108.154z"/>
</svg>
