<?xml version="1.0" encoding="utf-8"?>
<!-- Generator: Adobe Illustrator 16.0.0, SVG Export Plug-In . SVG Version: 6.00 Build 0)  -->
<!DOCTYPE svg PUBLIC "-//W3C//DTD SVG 1.1//EN" "http://www.w3.org/Graphics/SVG/1.1/DTD/svg11.dtd">
<svg version="1.1" id="Layer_1" xmlns="http://www.w3.org/2000/svg" xmlns:xlink="http://www.w3.org/1999/xlink" x="0px" y="0px"
	 width="2015.66px" height="405.041px" viewBox="0 0 2015.66 405.041" enable-background="new 0 0 2015.66 405.041"
	 xml:space="preserve">
<g>
	<path fill="#1B8EFF" d="M553.505,211.062c-9.271,7.193-18.199,12.576-26.864,16.195c-8.666,3.617-18.393,5.428-29.124,5.428
		c-9.852,0-18.498-1.953-25.902-5.856c-7.443-3.859-13.189-9.146-17.196-15.767c-4.056-6.66-6.059-13.854-6.059-21.625
		c0-10.488,3.331-19.441,9.946-26.813c6.663-7.414,15.794-12.357,27.394-14.896c2.438-0.574,8.489-1.826,18.117-3.797
		c9.627-1.968,17.921-3.766,24.796-5.397c6.873-1.631,14.34-3.617,22.396-5.965c-0.463-10.115-2.525-17.522-6.104-22.25
		c-3.62-4.725-11.082-7.089-22.396-7.089c-9.739,0-17.063,1.361-22.012,4.063c-4.899,2.724-9.132,6.783-12.639,12.229
		c-3.508,5.424-5.979,9.004-7.396,10.723c-1.479,1.734-4.565,2.613-9.372,2.613c-4.293,0-7.992-1.398-11.147-4.156
		c-3.155-2.754-4.71-6.278-4.71-10.597c0-6.729,2.4-13.278,7.158-19.653c4.798-6.373,12.205-11.598,22.346-15.715
		c10.097-4.133,22.701-6.186,37.771-6.186c16.819,0,30.065,1.996,39.69,5.968c9.672,3.974,16.447,10.276,20.472,18.886
		c3.979,8.611,5.963,20.032,5.963,34.266c0,8.974-0.021,16.609-0.099,22.875c-0.026,6.264-0.121,13.248-0.189,20.902
		c0,7.238,1.201,14.738,3.56,22.539c2.399,7.852,3.604,12.876,3.604,15.088c0,3.938-1.846,7.545-5.57,10.766
		c-3.688,3.223-7.854,4.854-12.545,4.854c-3.938,0-7.804-1.892-11.678-5.571C561.882,223.429,557.842,218.08,553.505,211.062z
		 M551.005,155.604c-5.622,2.037-13.813,4.199-24.515,6.49c-10.7,2.338-18.133,4.021-22.25,5.092
		c-4.116,1.074-8.058,3.188-11.814,6.297c-3.721,3.158-5.58,7.498-5.58,13.119c0,5.799,2.184,10.764,6.587,14.848
		c4.404,4.037,10.131,6.104,17.256,6.104c7.595,0,14.595-1.666,20.999-4.998c6.402-3.332,11.117-7.607,14.128-12.832
		c3.429-5.844,5.188-15.359,5.188-28.643L551.005,155.604L551.005,155.604z"/>
	<path fill="#1B8EFF" d="M764.948,185.209c0,4.76-1.408,9.885-4.271,15.332c-2.865,5.397-7.194,10.567-13.071,15.474
		c-5.832,4.948-13.188,8.907-22.104,11.87c-8.876,3.015-18.902,4.521-30.035,4.521c-23.661,0-42.178-6.938-55.454-20.714
		c-13.278-13.819-19.941-32.313-19.941-55.553c0-15.713,3.044-29.604,9.128-41.688c6.092-12.063,14.896-21.407,26.389-28.016
		c11.527-6.584,25.271-9.876,41.274-9.876c9.915,0,19.03,1.451,27.337,4.349c8.271,2.899,15.288,6.643,21.061,11.224
		c5.769,4.582,10.125,9.468,13.169,14.681c3.043,5.19,4.563,10.021,4.563,14.516c0,4.604-1.693,8.488-5.098,11.652
		c-3.441,3.188-7.572,4.783-12.443,4.783c-3.188,0-5.813-0.826-7.932-2.455c-2.115-1.646-4.458-4.275-7.068-7.928
		c-4.688-7.127-9.568-12.461-14.693-16.004c-5.079-3.564-11.581-5.334-19.415-5.334c-11.354,0-20.485,4.421-27.396,13.264
		c-6.951,8.844-10.381,20.943-10.381,36.307c0,7.196,0.896,13.793,2.646,19.853c1.793,6.053,4.375,11.166,7.73,15.426
		c3.362,4.265,7.451,7.522,12.207,9.707c4.761,2.185,10.025,3.313,15.715,3.313c7.703,0,14.271-1.791,19.75-5.336
		c5.479-3.586,10.286-8.984,14.52-16.291c2.354-4.34,4.866-7.702,7.593-10.143c2.725-2.434,6.051-3.65,9.948-3.65
		c4.688,0,8.598,1.795,11.677,5.338C763.411,177.409,764.948,181.204,764.948,185.209z"/>
	<path fill="#1B8EFF" d="M905.368,164.159h-74.97c0.063,8.699,1.842,16.357,5.241,23.021c3.438,6.664,7.939,11.633,13.646,15.039
		c5.649,3.363,11.896,5.048,18.738,5.048c4.581,0,8.748-0.562,12.544-1.634c3.798-1.071,7.466-2.756,11.054-5.049
		c3.54-2.287,6.794-4.738,9.811-7.354c3.01-2.656,6.867-6.197,11.67-10.668c1.928-1.729,4.762-2.549,8.417-2.549
		c3.938,0,7.122,1.076,9.521,3.223c2.434,2.146,3.646,5.189,3.646,9.131c0,3.479-1.317,7.496-4.039,12.155
		c-2.721,4.609-6.823,9.056-12.299,13.313c-5.479,4.264-12.354,7.787-20.617,10.621c-8.313,2.784-17.813,4.229-28.593,4.229
		c-24.642,0-43.748-7.063-57.432-21.1c-13.684-14.033-20.477-33.076-20.477-57.14c0-11.31,1.686-21.817,5.05-31.504
		c3.36-9.693,8.271-18.011,14.732-24.928c6.46-6.928,14.401-12.234,23.854-15.941c9.449-3.688,19.939-5.538,31.479-5.538
		c14.961,0,27.793,3.159,38.539,9.479c10.7,6.319,18.736,14.482,24.07,24.497c5.334,10.018,7.979,20.219,7.979,30.611
		c0,9.641-2.757,15.889-8.271,18.752C923.164,162.705,915.395,164.159,905.368,164.159z M830.4,142.39h69.489
		c-0.932-13.102-4.454-22.912-10.619-29.41c-6.12-6.519-14.192-9.756-24.222-9.756c-9.517,0-17.379,3.292-23.5,9.899
		C835.431,119.71,831.682,129.466,830.4,142.39z"/>
	<path fill="#1B8EFF" d="M1092.644,182.565c0,10.559-2.577,19.594-7.688,27.15c-5.157,7.517-12.77,13.25-22.822,17.104
		c-10.063,3.906-22.329,5.857-36.721,5.857c-13.743,0-25.563-2.109-35.364-6.344c-9.854-4.229-17.103-9.469-21.771-15.813
		c-4.688-6.295-7.013-12.649-7.013-18.979c0-4.229,1.459-7.85,4.467-10.813c3.016-3.013,6.813-4.517,11.395-4.517
		c4.005,0,7.116,1.006,9.271,2.933c2.146,1.971,4.187,4.726,6.151,8.313c3.938,6.84,8.646,11.918,14.129,15.28
		c5.479,3.364,12.938,5.05,22.396,5.05c7.656,0,13.979-1.699,18.896-5.099c4.896-3.44,7.351-7.317,7.351-11.726
		c0-6.729-2.563-11.676-7.642-14.752c-5.127-3.076-13.521-6.056-25.229-8.844c-13.171-3.25-23.934-6.712-32.196-10.332
		c-8.271-3.572-14.913-8.354-19.854-14.229c-4.975-5.91-7.438-13.158-7.438-21.771c0-7.681,2.29-14.931,6.87-21.771
		c4.578-6.839,11.324-12.277,20.278-16.361c8.953-4.063,19.75-6.104,32.347-6.104c9.959,0,18.853,1.042,26.769,3.1
		c7.913,2.061,14.497,4.815,19.799,8.269c5.306,3.476,9.313,7.305,12.063,11.533c2.762,4.204,4.139,8.321,4.139,12.35
		c0,4.407-1.444,8.001-4.424,10.813c-2.937,2.812-7.117,4.203-12.541,4.203c-3.938,0-7.289-1.127-10.047-3.362
		c-2.758-2.259-5.93-5.623-9.469-10.116c-2.896-3.738-6.341-6.729-10.232-8.986c-3.938-2.233-9.271-3.363-16.049-3.363
		c-6.904,0-12.677,1.466-17.255,4.422c-4.582,2.955-6.87,6.623-6.87,11.027c0,4.018,1.685,7.32,5.047,9.898
		c3.361,2.559,7.912,4.688,13.604,6.369c5.729,1.691,13.611,3.765,23.594,6.195c11.889,2.9,21.605,6.367,29.166,10.379
		c7.518,4.01,13.248,8.793,17.107,14.271C1090.692,169.257,1092.644,175.504,1092.644,182.565z"/>
	<path fill="#1B8EFF" d="M1248.489,182.565c0,10.559-2.577,19.594-7.688,27.15c-5.157,7.517-12.771,13.25-22.823,17.104
		c-10.062,3.906-22.328,5.857-36.72,5.857c-13.789,0-25.563-2.109-35.371-6.344c-9.85-4.229-17.115-9.469-21.768-15.813
		c-4.693-6.295-7.021-12.649-7.021-18.979c0-4.229,1.496-7.85,4.471-10.813c3.018-3.013,6.812-4.517,11.394-4.517
		c4.005,0,7.082,1.006,9.271,2.933c2.146,1.971,4.188,4.726,6.153,8.313c3.938,6.84,8.646,11.918,14.128,15.28
		c5.479,3.364,12.938,5.05,22.396,5.05c7.654,0,13.938-1.699,18.889-5.099c4.902-3.44,7.354-7.317,7.354-11.726
		c0-6.729-2.563-11.676-7.646-14.752c-5.121-3.076-13.521-6.056-25.196-8.844c-13.193-3.25-23.959-6.712-32.229-10.332
		c-8.271-3.572-14.91-8.354-19.851-14.229c-4.979-5.91-7.446-13.158-7.446-21.771c0-7.681,2.288-14.931,6.867-21.771
		c4.581-6.839,11.326-12.277,20.28-16.361c8.953-4.063,19.707-6.104,32.371-6.104c9.937,0,18.823,1.042,26.735,3.1
		c7.913,2.061,14.498,4.815,19.804,8.269c5.302,3.476,9.309,7.305,12.063,11.533c2.757,4.204,4.133,8.321,4.133,12.35
		c0,4.407-1.438,8.001-4.424,10.813c-2.934,2.812-7.102,4.203-12.543,4.203c-3.938,0-7.287-1.127-10.043-3.362
		c-2.761-2.259-5.933-5.623-9.47-10.116c-2.896-3.738-6.344-6.729-10.28-8.986c-3.896-2.233-9.229-3.363-15.989-3.363
		c-6.918,0-12.688,1.466-17.271,4.422c-4.582,2.955-6.873,6.623-6.873,11.027c0,4.018,1.688,7.32,5.052,9.898
		c3.361,2.559,7.912,4.688,13.646,6.369c5.688,1.691,13.563,3.765,23.551,6.195c11.888,2.9,21.608,6.367,29.166,10.379
		c7.516,4.01,13.203,8.793,17.11,14.271C1246.579,169.257,1248.489,175.504,1248.489,182.565z"/>
	<path fill="#1B8EFF" d="M1424.426,154.741c0,11.426-1.794,21.947-5.334,31.574c-3.542,9.676-8.697,17.939-15.431,24.895
		c-6.771,6.904-14.779,12.225-24.174,15.904c-9.341,3.686-19.858,5.572-31.567,5.572c-11.609,0-22.063-1.904-31.332-5.621
		c-9.272-3.767-17.271-9.115-24.076-16.103c-6.763-6.979-11.919-15.217-15.431-24.701c-3.507-9.482-5.281-19.992-5.281-31.523
		c0-11.598,1.793-22.233,5.334-31.86c3.59-9.649,8.668-17.884,15.332-24.726c6.611-6.813,14.674-12.088,24.125-15.787
		c9.445-3.707,19.906-5.549,31.332-5.549c11.597,0,22.115,1.885,31.567,5.623c9.451,3.739,17.541,9.074,24.313,16.002
		c6.729,6.931,11.824,15.162,15.332,24.703C1422.69,132.708,1424.426,143.243,1424.426,154.741z M1385.931,154.741
		c0-15.633-3.411-27.799-10.283-36.498c-6.873-8.697-16.133-13.047-27.729-13.047c-7.481,0-14.108,1.933-19.802,5.814
		c-5.731,3.885-10.142,9.612-13.217,17.204c-3.074,7.569-4.607,16.421-4.607,26.526c0,10.029,1.521,18.761,4.563,26.24
		c3.042,7.524,7.369,13.229,13.021,17.202c5.698,3.976,12.334,5.965,20.034,5.965c11.603,0,20.854-4.351,27.729-13.125
		C1382.518,182.297,1385.931,170.17,1385.931,154.741z"/>
	<path opacity="0.8" fill="#F58021" enable-background="new    " d="M1451.526,80.183h9.127V68.674
		c0-11.975,1.521-21.497,4.566-28.57c3.043-7.071,8.156-12.207,15.427-15.45c7.271-3.221,17.203-4.831,29.842-4.831
		c22.379,0,33.547,5.479,33.547,16.413c0,3.565-1.146,6.607-3.508,9.13c-2.322,2.525-5.078,3.797-8.271,3.797
		c-1.504,0-4.084-0.288-7.734-0.841c-3.649-0.554-6.729-0.842-9.271-0.842c-6.903,0-11.345,2.042-13.313,6.104
		c-1.973,4.084-2.979,9.898-2.979,17.491v9.107h9.418c14.604,0,21.909,4.406,21.909,13.216c0,6.264-1.95,10.235-5.813,11.918
		c-3.907,1.687-9.261,2.531-16.103,2.531h-9.418v101.535c0,7.545-1.768,13.328-5.386,17.303c-3.618,4.021-8.252,6.006-13.979,6.006
		c-5.399,0-9.938-1.979-13.561-6.006c-3.569-3.975-5.384-9.756-5.384-17.303V107.849h-10.521c-5.732,0-10.144-1.273-13.218-3.853
		s-4.61-5.927-4.61-10.044C1432.303,84.789,1438.714,80.183,1451.526,80.183z"/>
	<path opacity="0.8" fill="#F58021" enable-background="new    " d="M1647.26,211.062c-9.271,7.193-18.244,12.576-26.91,16.195
		c-8.666,3.617-18.35,5.428-29.121,5.428c-9.854,0-18.454-1.953-25.902-5.856c-7.443-3.859-13.193-9.146-17.198-15.767
		c-4.05-6.66-6.06-13.854-6.06-21.625c0-10.488,3.33-19.441,9.994-26.813c6.615-7.414,15.75-12.357,27.348-14.896
		c2.438-0.574,8.486-1.826,18.114-3.797c9.671-1.968,17.923-3.766,24.798-5.397c6.871-1.631,14.336-3.617,22.396-5.965
		c-0.464-10.115-2.484-17.522-6.104-22.25c-3.618-4.725-11.082-7.089-22.396-7.089c-9.738,0-17.063,1.361-21.963,4.063
		c-4.905,2.724-9.132,6.783-12.645,12.229c-3.508,5.424-6.008,9.004-7.442,10.723c-1.479,1.734-4.566,2.613-9.323,2.613
		c-4.341,0-8.045-1.398-11.194-4.156c-3.104-2.754-4.707-6.278-4.707-10.597c0-6.729,2.399-13.278,7.203-19.653
		c4.761-6.373,12.208-11.598,22.302-15.715c10.097-4.133,22.699-6.186,37.771-6.186c16.825,0,30.111,1.996,39.741,5.968
		c9.627,3.974,16.446,10.276,20.424,18.886c3.976,8.611,5.96,20.032,5.96,34.266c0,8.974-0.021,16.609-0.053,22.875
		c-0.076,6.264-0.127,13.248-0.235,20.902c0,7.238,1.201,14.738,3.604,22.539c2.354,7.852,3.563,12.876,3.563,15.088
		c0,3.938-1.844,7.545-5.526,10.766c-3.729,3.223-7.896,4.854-12.594,4.854c-3.938,0-7.803-1.892-11.631-5.571
		C1655.636,223.429,1651.552,218.08,1647.26,211.062z M1644.717,155.604c-5.624,2.037-13.771,4.199-24.513,6.49
		c-10.701,2.338-18.137,4.021-22.25,5.092c-4.119,1.074-8.061,3.188-11.771,6.297c-3.768,3.158-5.623,7.498-5.623,13.119
		c0,5.799,2.178,10.764,6.585,14.848c4.401,4.037,10.172,6.104,17.261,6.104c7.586,0,14.586-1.666,20.993-4.998
		c6.407-3.332,11.118-7.607,14.129-12.832c3.476-5.844,5.188-15.359,5.188-28.643L1644.717,155.604L1644.717,155.604z
		 M1621.693,21.795h18.938c4.807,0,7.16,0.696,7.16,2.091c0,0.754-2.61,3.796-7.834,9.13c-5.271,5.334-10.524,10.438-15.858,15.307
		c-5.373,4.87-9.063,7.825-11.101,8.843c-5.338,2.725-11.067,4.086-17.151,4.086c-4.008,0-6.011-1.185-6.011-3.531
		c0-1.57,1.215-4.349,3.646-8.266l6.298-11.799c3.651-6.839,6.84-11.188,9.563-13.047
		C1612.066,22.723,1616.182,21.795,1621.693,21.795z"/>
	<path opacity="0.8" fill="#F58021" enable-background="new    " d="M1858.708,185.209c0,4.76-1.457,9.885-4.279,15.332
		c-2.863,5.397-7.233,10.567-13.065,15.474c-5.88,4.948-13.229,8.907-22.104,11.87c-8.924,3.015-18.949,4.521-30.084,4.521
		c-23.661,0-42.136-6.938-55.454-20.714c-13.278-13.819-19.938-32.313-19.938-55.553c0-15.713,3.043-29.604,9.127-41.688
		c6.091-12.063,14.896-21.407,26.434-28.016c11.482-6.584,25.271-9.876,41.273-9.876c9.913,0,19.025,1.451,27.3,4.349
		c8.267,2.899,15.276,6.643,21.05,11.224c5.766,4.582,10.172,9.468,13.215,14.681c3.043,5.19,4.563,10.021,4.563,14.516
		c0,4.604-1.694,8.488-5.143,11.652c-3.396,3.188-7.574,4.783-12.402,4.783c-3.188,0-5.854-0.826-7.971-2.455
		c-2.063-1.646-4.457-4.275-7.063-7.928c-4.693-7.127-9.579-12.461-14.7-16.004c-5.085-3.564-11.586-5.334-19.418-5.334
		c-11.344,0-20.44,4.421-27.396,13.264c-6.903,8.844-10.384,20.943-10.384,36.307c0,7.196,0.896,13.793,2.646,19.853
		c1.792,6.053,4.374,11.166,7.734,15.426c3.359,4.265,7.446,7.522,12.203,9.707c4.808,2.185,10.024,3.313,15.767,3.313
		c7.653,0,14.229-1.791,19.703-5.336c5.479-3.586,10.332-8.984,14.559-16.291c2.322-4.34,4.828-7.702,7.547-10.143
		c2.729-2.434,6.059-3.65,9.998-3.65c4.646,0,8.559,1.795,11.632,5.338C1857.124,177.409,1858.708,181.204,1858.708,185.209z"/>
	<path opacity="0.8" fill="#F58021" enable-background="new    " d="M1911.474,58.99c-5.334,0-9.898-1.626-13.696-4.902
		c-3.796-3.275-5.675-7.913-5.675-13.911c0-5.422,1.953-9.9,5.817-13.407c3.899-3.509,8.394-5.262,13.554-5.262
		c4.979,0,9.384,1.595,13.216,4.781c3.827,3.164,5.722,7.802,5.722,13.889c0,5.899-1.855,10.509-5.575,13.839
		C1921.067,57.325,1916.633,58.99,1911.474,58.99z M1930.409,98.589v110.792c0,7.658-1.82,13.455-5.457,17.397
		c-3.629,3.938-8.287,5.906-13.905,5.906c-5.62,0-10.188-2.051-13.653-6.055c-3.549-4.008-5.276-9.771-5.276-17.254V99.718
		c0-7.592,1.729-13.301,5.276-17.132c3.471-3.853,8.033-5.769,13.653-5.769c5.623,0,10.278,1.916,13.905,5.769
		C1928.585,86.416,1930.409,91.75,1930.409,98.589z"/>
	<path opacity="0.8" fill="#F58021" enable-background="new    " d="M1970.01,209.382V43.132c0-7.68,1.739-13.48,5.142-17.419
		c3.396-3.918,8.039-5.888,13.841-5.888c5.795,0,10.487,1.933,14.032,5.814c3.539,3.886,5.334,9.724,5.334,17.492v166.25
		c0,7.769-1.813,13.584-5.427,17.44c-3.577,3.906-8.255,5.859-13.939,5.859c-5.621,0-10.188-2.053-13.69-6.057
		C1971.782,222.629,1970.01,216.862,1970.01,209.382z"/>
</g>
<g>
	<path fill="#1B8EFF" stroke="#1B8EFF" stroke-width="7" stroke-miterlimit="10" d="M127.887,26.641
		c24.229,0.644,46.232,7.915,65.77,22.3c2.509,1.847,3.863,0.5,5.571-0.698c21.342-14.969,45.112-22.238,71.104-21.539
		c35.617,0.956,65.063,15.445,87.636,42.83c19.718,23.923,27.865,51.896,25.706,82.813c-1.856,26.523-11.619,49.809-29.104,69.83
		c-2.195,2.512-4.669,4.785-7.037,7.146c-42.5,42.391-85,84.781-127.509,127.166c-11.091,11.057-25.688,13.768-39.15,7.355
		c-3.622-1.727-6.634-4.229-9.436-7.027c-43.234-43.18-86.543-86.285-129.67-129.568C3.65,188.995-4.121,131.163,23.409,84.655
		c19.108-32.276,47.794-51.408,85.178-56.873c4.248-0.621,8.561-0.832,12.85-1.119C123.578,26.523,125.736,26.641,127.887,26.641z"
		/>
	<path fill="#FEFEFE" stroke="#1B8EFF" stroke-width="7" stroke-miterlimit="10" d="M267.121,47.323
		c44.023-0.82,84.611,29.918,94.405,74.831c7.537,34.554-1.413,65.045-26.222,90.211c-42.822,43.438-86.092,86.438-129.137,129.655
		c-3.771,3.785-8.024,5.527-13.28,4.119c-4.68-1.252-7.609-4.328-8.771-9.021c-1.118-4.535,0.573-8.116,3.76-11.296
		c20.915-20.863,41.774-41.781,62.696-62.639c3.398-3.393,5.183-7.066,3.481-11.922c-2.292-6.535-10.408-8.854-15.783-4.408
		c-1.104,0.912-2.093,1.959-3.108,2.979c-20.299,20.291-40.585,40.604-60.896,60.884c-6.336,6.323-14.185,6.342-19.427,0.139
		c-3.399-4.026-3.555-10.086-0.271-14.241c1.03-1.312,2.235-2.486,3.418-3.671c20.457-20.478,40.931-40.938,61.385-61.412
		c4.229-4.231,4.962-8.352,3.089-12.934c-2.695-6.591-11.39-6.679-15.188-3.498c-1.006,0.842-1.937,1.78-2.863,2.711
		c-20.391,20.379-40.783,40.762-61.157,61.155c-3.778,3.785-8.013,6.063-13.521,4.357c-8.27-2.552-11.27-12.25-5.895-19.082
		c0.955-1.218,2.042-2.341,3.141-3.438c20.375-20.394,40.762-40.769,61.133-61.158c4.614-4.617,5.453-9.045,2.707-13.836
		c-2.98-5.203-9.742-6.537-14.521-2.826c-1.03,0.803-1.961,1.752-2.892,2.68c-20.47,20.461-40.953,40.912-61.382,61.418
		c-2.928,2.937-6.171,4.851-10.422,4.676c-4.679-0.19-8.203-2.217-10.398-6.446c-2.252-4.34-1.95-8.537,0.696-12.549
		c0.847-1.283,1.981-2.395,3.079-3.484c13.352-13.379,26.722-26.729,40.07-40.104c1.193-1.195,2.291-2.195,4.231-2.24
		c12.511-0.293,22.749-5.66,31.438-14.379c8.189-8.219,16.462-16.354,24.556-24.666c2.009-2.065,3.101-2.424,5.688-0.428
		c12.997,10.018,27.28,16.678,44.287,15.355c13.151-1.024,24.008-6.785,33.035-16.123c3.914-4.049,3.831-9.752,0.285-13.605
		c-3.396-3.691-9.413-4.148-13.747-1.02c-0.676,0.49-1.277,1.082-1.904,1.637c-11.813,10.471-24.271,12.105-38.384,5.063
		c-6.926-3.461-12.823-8.278-18.352-13.623c-5.082-4.916-11.097-4.906-16.088,0.063c-10.855,10.795-21.653,21.647-32.49,32.459
		c-5.021,5.006-10.608,8.955-18.029,9.297c-7.676,0.353-14.322-2.006-19.725-7.598c-1.689-1.748-1.854-3.093,0.104-5.054
		c26.147-26.117,52.197-52.332,78.279-78.513c16.192-16.262,35.774-25.625,58.489-28.422
		C260.145,46.96,263.656,47.323,267.121,47.323z"/>
	<path fill="#FEFEFE" stroke="#1B8EFF" stroke-width="7" stroke-miterlimit="10" d="M180.89,64.958
		c-5.688,5.643-11.389,11.259-17.05,16.917c-19.034,19.005-37.626,38.487-57.226,56.894c-15.314,14.381-8.746,31.348,4.807,40.252
		c2.969,1.947,3.377,2.687,0.685,5.297c-10.563,10.23-20.825,20.765-31.283,31.104c-3.087,3.052-5.838,6.312-7.876,10.144
		c-0.598,1.121-0.996,1.778-2.26,0.563c-12.847-12.351-25.898-24.483-33.372-41.218c-10.382-23.245-12.387-47.143-4.017-71.176
		c12.104-34.746,36.487-56.727,72.521-64.427c26.499-5.662,51.539-0.869,74.143,14.677C180.25,64.183,180.457,64.497,180.89,64.958z
		"/>
</g>
<g>
	<path fill="#536273" d="M1363.027,324.717c0,16.073-34.686,54.146-110.543,58.374c-20.304,1.127-48.504-5.641-48.504-31.303
		c0-9.023-1.41-10.436,31.302-53.579c-7.896-0.563-25.939-1.41-25.939-10.998c0-12.126,39.479-12.69,47.938-15.229
		c18.33-17.766,36.941-41.453,65.145-41.453c-1.978,4.797-3.947,8.463-27.354,35.813c63.729-8.741,78.677-27.918,78.113-35.53
		c-0.282-6.203-8.181-16.071-40.893-13.815c-6.483,0.563-36.378,4.229-79.239,19.739c1.688,0.847,3.946,1.976,3.946,4.229
		c0,4.229-6.483,5.922-10.149,6.485c-17.484,2.818-22.844,5.355-39.198,10.715c-2.538,0.847-5.64,1.977-8.741,1.977
		c-4.795,0-7.051-2.817-7.051-7.613c0-1.976,4.229-12.125,12.975-23.688c5.923-7.896,14.102-18.608,23.688-22.274
		c27.354-10.437,80.087-21.435,109.415-21.435c48.504,0,60.063,19.177,60.063,34.404c0,45.684-85.443,57.241-118.438,63.729
		l-5.641,5.075C1293.937,292.005,1363.027,297.646,1363.027,324.717z M1245.719,319.642c-3.666,3.947-9.87,10.15-9.87,16.073
		c0,12.126,22.275,15.511,31.302,15.511c25.101-0.283,64.017-18.609,64.017-29.893c0-14.664-58.095-18.896-69.653-18.896
		L1245.719,319.642z"/>
	<path fill="#536273" d="M1396.585,318.795c-9.867,15.511-21.715,22.843-33.84,34.968l-1.129-12.408
		c7.332-5.922,13.254-12.972,18.611-20.586c-5.922-0.563-7.613-2.816-7.613-8.742c0-20.303,28.766-40.604,35.531-40.604
		c2.82,0,5.076,2.256,5.076,4.795c0,2.819-0.851,5.357-1.978,7.896c26.511-3.665,42.021-7.049,44.84-3.665
		c4.229,5.358,6.201,9.87,6.77,14.946c0,8.739-5.358,12.973-11.845,18.33c-8.179,7.049-21.995,20.865-21.995,32.146
		c0,4.512,4.512,7.896,8.741,7.896c12.125,0,29.893-18.33,39.194-25.381l1.978,10.434c-10.717,12.127-43.146,43.432-59.222,43.432
		c-11.846,0-19.178-10.997-19.178-21.714c0-19.179,14.664-34.121,25.944-47.657l-0.563-0.563L1396.585,318.795z"/>
	<path fill="#536273" d="M1520.944,360.813c-5.357,4.229-23.405,18.895-29.892,18.895c-7.896,0-24.252-18.611-24.816-33.275
		c-1.128-35.25,72.191-71.346,104.903-72.188c12.972-0.282,18.33,10.148,18.33,13.531c0,3.389-7.332,6.205-9.87,7.055
		c5.354,2.256,8.178,5.354,8.178,11.563c0,9.022-24.533,28.767-24.533,42.021c0,4.793,4.229,6.769,8.741,6.769
		c11.845,0,27.918-14.384,40.044-22.562l2.256,10.435c-12.126,13.817-49.913,43.991-63.729,43.991
		c-9.31,0-13.536-6.771-13.536-14.944c0-9.021,6.769-23.972,10.435-31.584l-0.563-0.563L1520.944,360.813z M1486.822,353.479
		c0.282,1.41,1.41,6.483,5.644,5.642c5.641-1.127,14.383-0.281,70.218-56.683l-0.563-0.563
		C1495.001,322.461,1486.822,339.664,1486.822,353.479z"/>
	<path fill="#536273" d="M1710.447,331.485l2.82,10.716c-17.202,17.2-47.939,42.862-70.499,41.735
		c-18.896-0.849-39.762-11.563-44.838-32.147c-1.692,1.69-3.666,3.666-6.204,3.666c-2.82,0-4.794-2.82-4.794-5.356
		c0-3.666,4.512-7.615,6.768-9.871l61.194-56.117c0.563-9.306,5.922-18.328,16.073-18.328c8.46,0,10.148,2.537,10.998,10.437
		c1.128,10.718,5.354,20.306,5.354,32.712c0,23.123-18.608,40.325-36.659,51.323c18.049,3.104,29.047-5.356,42.862-15.793
		L1710.447,331.485z M1614.568,337.408c10.438,0.563,16.64,9.305,21.996,16.637c16.92-10.435,21.432-15.229,22.277-31.583
		c-0.849-5.923-1.978-13.536-3.666-23.124L1614.568,337.408z"/>
	<path fill="#536273" d="M1793.072,343.33c-12.688,15.51-37.506,40.889-58.938,40.889c-16.642,0-24.252-19.176-24.252-33.557
		c0-34.404,35.25-67.962,52.17-67.962c4.794,0,12.407,1.691,12.407,7.896c0,14.103-27.917,39.197-39.766,47.376
		c-2.256,11.563,1.979,17.77,14.946,17.77c14.946,0,29.609-14.946,40.891-23.124L1793.072,343.33z M1766.001,264.933
		c0-11.563,13.535-21.713,24.533-21.713c5.075,0,9.309,3.666,9.309,8.742c0,11.279-10.438,25.098-22.563,25.098
		C1770.512,277.06,1766.001,271.702,1766.001,264.933z"/>
	<path fill="#536273" d="M1881.618,338.253c-15.51,16.074-42.018,44.555-66.269,44.555c-20.586,0-25.099-20.021-25.099-36.658
		c0-29.607,12.688-61.477,31.021-84.032c24.815-30.737,51.604-56.968,60.629-56.968c4.794,0,5.922,6.771,5.642,10.438
		c-1.976,26.791-9.308,51.604-70.5,110.826c-2.535,4.793-3.385,12.688-1.975,19.457c2.538,6.482,6.485,12.127,14.104,12.127
		c15.51,0,37.224-18.05,48.504-28.201L1881.618,338.253z M1823.245,300.465c20.021-18.612,37.51-45.685,42.582-61.757
		c-13.814,6.768-29.893,32.146-43.146,61.191L1823.245,300.465z"/>
</g>
</svg>
