<?xml version="1.0" encoding="utf-8"?>
<!-- Generator: Adobe Illustrator 16.0.0, SVG Export Plug-In . SVG Version: 6.00 Build 0)  -->
<!DOCTYPE svg PUBLIC "-//W3C//DTD SVG 1.1//EN" "http://www.w3.org/Graphics/SVG/1.1/DTD/svg11.dtd">
<svg version="1.1" id="Layer_1" xmlns="http://www.w3.org/2000/svg" xmlns:xlink="http://www.w3.org/1999/xlink" x="0px" y="0px"
	 width="484.012px" height="438.023px" viewBox="-96.5 23.095 484.012 438.023"
	 enable-background="new -96.5 23.095 484.012 438.023" xml:space="preserve">
<g>
	<path fill="#1B8EFF" stroke="#1B8EFF" stroke-width="7" stroke-miterlimit="10" d="M59.952,26.653
		c30.654,0.815,58.493,10.015,83.215,28.215c3.174,2.337,4.888,0.633,7.049-0.883c27.002-18.94,57.077-28.137,89.963-27.252
		c45.064,1.209,82.321,19.541,110.882,54.19c24.948,30.268,35.255,65.661,32.523,104.778c-2.349,33.559-14.7,63.021-36.823,88.352
		c-2.776,3.179-5.908,6.056-8.904,9.042c-53.772,53.635-107.546,107.27-161.33,160.896c-14.032,13.989-32.502,17.419-49.534,9.306
		c-4.583-2.186-8.394-5.351-11.938-8.891C60.352,389.774,5.556,335.235-49.01,280.472c-48.229-48.399-58.063-121.572-23.229-180.416
		c24.177-40.838,60.471-65.044,107.771-71.958c5.375-0.786,10.831-1.053,16.259-1.416C54.499,26.504,57.23,26.653,59.952,26.653z"/>
	<path fill="#FEFEFE" stroke="#1B8EFF" stroke-width="7" stroke-miterlimit="10" d="M236.116,52.821
		c55.7-1.038,107.054,37.854,119.445,94.679c9.537,43.719-1.788,82.298-33.177,114.14
		c-54.181,54.959-108.928,109.363-163.391,164.045c-4.771,4.789-10.152,6.992-16.802,5.212c-5.922-1.585-9.628-5.477-11.098-11.414
		c-1.415-5.738,0.725-10.27,4.757-14.292c26.462-26.397,52.855-52.863,79.326-79.254c4.3-4.293,6.557-8.939,4.405-15.086
		c-2.9-8.269-13.169-11.201-19.971-5.576c-1.396,1.154-2.646,2.479-3.933,3.77c-25.683,25.674-51.35,51.375-77.048,77.033
		c-8.017,8-17.948,8.023-24.581,0.176c-4.3-5.094-4.498-12.762-0.342-18.018c1.303-1.661,2.828-3.146,4.324-4.646
		c25.883-25.908,51.787-51.796,77.667-77.699c5.351-5.354,6.277-10.568,3.907-16.365c-3.408-8.34-14.411-8.45-19.216-4.426
		c-1.272,1.063-2.452,2.252-3.623,3.43c-25.799,25.783-51.601,51.574-77.379,77.375c-4.779,4.789-10.138,7.673-17.105,5.515
		c-10.465-3.229-14.261-15.5-7.459-24.144c1.208-1.541,2.583-2.963,3.975-4.352c25.779-25.803,51.573-51.582,77.348-77.38
		c5.838-5.842,6.9-11.443,3.426-17.506c-3.771-6.583-12.326-8.271-18.374-3.575c-1.303,1.016-2.481,2.217-3.658,3.391
		c-25.899,25.889-51.816,51.764-77.663,77.708c-3.704,3.717-7.809,6.138-13.187,5.916c-5.921-0.24-10.379-2.805-13.156-8.156
		c-2.85-5.49-2.468-10.801,0.881-15.877c1.07-1.623,2.506-3.029,3.896-4.408c16.894-16.928,33.81-33.817,50.697-50.74
		c1.51-1.512,2.899-2.777,5.354-2.834c15.829-0.371,28.783-7.161,39.776-18.193c10.362-10.399,20.83-20.691,31.07-31.208
		c2.542-2.613,3.923-3.067,7.195-0.542c16.445,12.675,34.518,21.102,56.034,19.428c16.641-1.295,30.376-8.584,41.797-20.399
		c4.953-5.123,4.848-12.338,0.361-17.213c-4.297-4.67-11.91-5.249-17.393-1.291c-0.855,0.62-1.616,1.369-2.41,2.071
		c-14.946,13.248-30.708,15.316-48.565,6.406c-8.763-4.379-16.224-10.473-23.219-17.236c-6.43-6.22-14.041-6.207-20.355,0.08
		c-13.734,13.658-27.396,27.389-41.107,41.068c-6.354,6.334-13.422,11.331-22.813,11.763c-9.712,0.447-18.121-2.538-24.957-9.612
		c-2.137-2.212-2.346-3.914,0.132-6.395c33.083-33.044,66.042-66.213,99.042-99.338c20.485-20.575,45.262-32.422,74.003-35.96
		C227.29,52.362,231.732,52.821,236.116,52.821z"/>
	<path fill="#FEFEFE" stroke="#1B8EFF" stroke-width="7" stroke-miterlimit="10" d="M127.013,75.134
		c-7.197,7.14-14.411,14.245-21.573,21.404c-24.082,24.046-47.605,48.695-72.403,71.985c-19.376,18.195-11.066,39.663,6.082,50.929
		c3.757,2.463,4.272,3.399,0.867,6.702c-13.365,12.943-26.349,26.272-39.581,39.354c-3.905,3.861-7.386,7.986-9.965,12.834
		c-0.756,1.419-1.261,2.25-2.858,0.714c-16.255-15.627-32.769-30.978-42.225-52.15c-13.136-29.411-15.672-59.647-5.083-90.055
		c15.315-43.961,46.166-71.773,91.757-81.516c33.528-7.164,65.21-1.1,93.81,18.57C126.203,74.153,126.465,74.55,127.013,75.134z"/>
</g>
</svg>
