<?xml version="1.0" encoding="utf-8"?>
<!-- Generator: Adobe Illustrator 16.0.0, SVG Export Plug-In . SVG Version: 6.00 Build 0)  -->
<!DOCTYPE svg PUBLIC "-//W3C//DTD SVG 1.1//EN" "http://www.w3.org/Graphics/SVG/1.1/DTD/svg11.dtd">
<svg version="1.1" id="Layer_1" xmlns="http://www.w3.org/2000/svg" xmlns:xlink="http://www.w3.org/1999/xlink" x="0px" y="0px"
	 width="2015.661px" height="396.854px" viewBox="134.784 74.784 2015.661 396.854"
	 enable-background="new 134.784 74.784 2015.661 396.854" xml:space="preserve">
<path fill="#1B8EFF" d="M333.21,74.784c-109.589,0-198.426,88.838-198.426,198.425c0,23.287,4.025,45.633,11.396,66.396
	c14.201,26.919,43.521,24.81,74.878,11.423c1.057-2.092,2.519-4.461,4.356-7.07l-0.006,0.006l-22.582-23.771
	c-3.057-3.221-2.582-8.393,1.01-11.003l2.408-1.746c4.367-3.169,9.907-4.263,15.147-2.979l32.086,7.847
	c9.373-9.314,20.15-19.315,31.628-29.379l-64.192-21.875c-5.079-1.729-6.646-8.146-2.941-12.025l3.798-3.974
	c6.318-6.613,15.101-10.309,24.246-10.209l97.878,1.057c25.747-18.574,49.666-32.853,64.973-36.716
	c4.094-1.03,8.218-1.956,12.238-2.669l-24.558,19.501l1.692,9.49l37.818-30.458c10.87-0.141,18.262,2.848,20.563,11.973
	C467.442,249.9,286.999,345.42,248.289,361.921c-20.84,29.967-32.927,61.084-15.729,81.927c0.212,0.256,1.41,1.215,1.792,1.434
	c29.105,16.757,62.858,26.356,98.859,26.356c109.585,0,198.425-88.84,198.425-198.424C531.635,163.622,442.797,74.784,333.21,74.784
	z M421.923,341.342l-4.052,3.283c-2.525,2.052-6.103,2.199-8.786,0.354l-44.042-30.251c-2.143-1.475-2.118-4.649,0.049-6.088
	l44.541-29.549c1.959-1.304,4.626-0.447,5.461,1.754l13.527,35.562C432.004,325.293,429.301,335.347,421.923,341.342z"/>
<g>
	<path fill="#1B8EFF" d="M695.591,341.012c-9.271,7.194-18.199,12.577-26.864,16.196c-8.666,3.617-18.39,5.428-29.124,5.428
		c-9.849,0-18.498-1.954-25.902-5.859c-7.446-3.86-13.193-9.146-17.198-15.765c-4.054-6.66-6.057-13.854-6.057-21.626
		c0-10.488,3.331-19.442,9.946-26.813c6.663-7.414,15.794-12.357,27.394-14.896c2.437-0.575,8.489-1.826,18.117-3.797
		c9.627-1.968,17.921-3.766,24.796-5.398c6.873-1.631,14.34-3.618,22.396-5.965c-0.463-10.116-2.525-17.523-6.104-22.25
		c-3.62-4.725-11.082-7.089-22.396-7.089c-9.739,0-17.063,1.361-22.009,4.063c-4.902,2.724-9.131,6.784-12.638,12.229
		c-3.508,5.423-5.979,9.004-7.4,10.723c-1.476,1.734-4.565,2.613-9.372,2.613c-4.293,0-7.992-1.399-11.147-4.156
		c-3.155-2.754-4.71-6.279-4.71-10.597c0-6.729,2.4-13.279,7.158-19.654c4.798-6.373,12.205-11.597,22.346-15.715
		c10.095-4.132,22.701-6.185,37.771-6.185c16.823,0,30.069,1.996,39.694,5.968c9.672,3.974,16.447,10.276,20.468,18.886
		c3.979,8.611,5.963,20.032,5.963,34.265c0,8.974-0.019,16.61-0.095,22.875c-0.03,6.264-0.122,13.248-0.193,20.903
		c0,7.238,1.201,14.738,3.56,22.539c2.399,7.851,3.604,12.876,3.604,15.088c0,3.939-1.843,7.544-5.57,10.765
		c-3.687,3.221-7.854,4.854-12.545,4.854c-3.938,0-7.804-1.89-11.678-5.573C703.968,353.38,699.928,348.031,695.591,341.012z
		 M693.091,285.556c-5.622,2.037-13.81,4.199-24.511,6.49c-10.702,2.338-18.133,4.021-22.25,5.092
		c-4.118,1.074-8.058,3.188-11.818,6.296c-3.718,3.159-5.58,7.498-5.58,13.12c0,5.798,2.184,10.763,6.587,14.847
		c4.404,4.037,10.131,6.104,17.256,6.104c7.595,0,14.595-1.666,20.999-4.998c6.402-3.332,11.117-7.608,14.128-12.832
		c3.429-5.844,5.188-15.359,5.188-28.643L693.091,285.556L693.091,285.556z"/>
	<path fill="#1B8EFF" d="M907.037,315.16c0,4.76-1.409,9.885-4.272,15.332c-2.865,5.397-7.194,10.568-13.071,15.473
		c-5.832,4.949-13.188,8.908-22.104,11.871c-8.876,3.015-18.902,4.521-30.035,4.521c-23.661,0-42.178-6.937-55.454-20.713
		c-13.278-13.821-19.941-32.312-19.941-55.554c0-15.713,3.043-29.604,9.128-41.688c6.088-12.063,14.896-21.408,26.385-28.016
		c11.531-6.584,25.275-9.876,41.278-9.876c9.915,0,19.03,1.451,27.336,4.349c8.271,2.899,15.289,6.642,21.058,11.223
		c5.769,4.582,10.125,9.468,13.169,14.681c3.043,5.19,4.563,10.021,4.563,14.516c0,4.603-1.697,8.488-5.098,11.652
		c-3.441,3.188-7.572,4.783-12.443,4.783c-3.188,0-5.813-0.826-7.932-2.455c-2.115-1.646-4.458-4.275-7.068-7.928
		c-4.688-7.127-9.572-12.461-14.697-16.004c-5.079-3.564-11.581-5.334-19.415-5.334c-11.354,0-20.485,4.421-27.396,13.264
		c-6.951,8.843-10.381,20.943-10.381,36.306c0,7.197,0.895,13.793,2.646,19.853c1.793,6.053,4.376,11.166,7.734,15.426
		c3.362,4.264,7.451,7.523,12.207,9.707c4.761,2.184,10.025,3.313,15.715,3.313c7.703,0,14.271-1.791,19.75-5.335
		c5.479-3.586,10.286-8.985,14.516-16.292c2.354-4.339,4.867-7.702,7.593-10.142c2.725-2.434,6.051-3.65,9.948-3.65
		c4.69,0,8.598,1.795,11.677,5.337C905.501,307.36,907.037,311.155,907.037,315.16z"/>
	<path fill="#1B8EFF" d="M1047.458,294.111h-74.97c0.063,8.698,1.842,16.357,5.241,23.021c3.441,6.664,7.942,11.632,13.646,15.039
		c5.65,3.363,11.897,5.047,18.739,5.047c4.581,0,8.748-0.561,12.544-1.633c3.797-1.073,7.465-2.756,11.053-5.049
		c3.54-2.287,6.794-4.738,9.808-7.354c3.01-2.656,6.867-6.197,11.67-10.668c1.928-1.728,4.762-2.548,8.417-2.548
		c3.938,0,7.122,1.076,9.52,3.222c2.431,2.147,3.647,5.19,3.647,9.131c0,3.479-1.317,7.496-4.039,12.157
		c-2.721,4.611-6.823,9.054-12.299,13.313c-5.479,4.262-12.354,7.787-20.617,10.621c-8.313,2.785-17.814,4.229-28.593,4.229
		c-24.639,0-43.748-7.063-57.429-21.098c-13.683-14.033-20.476-33.076-20.476-57.14c0-11.309,1.685-21.817,5.049-31.503
		c3.361-9.694,8.269-18.011,14.733-24.928c6.46-6.928,14.404-12.234,23.855-15.942c9.45-3.685,19.94-5.538,31.478-5.538
		c14.961,0,27.793,3.159,38.539,9.479c10.703,6.319,18.739,14.482,24.073,24.497c5.334,10.017,7.979,20.219,7.979,30.611
		c0,9.641-2.757,15.889-8.268,18.752C1065.253,292.656,1057.484,294.111,1047.458,294.111z M972.489,272.341h69.489
		c-0.931-13.102-4.454-22.912-10.619-29.41c-6.12-6.519-14.192-9.756-24.222-9.756c-9.514,0-17.379,3.292-23.5,9.899
		C977.52,249.661,973.771,259.417,972.489,272.341z"/>
	<path fill="#1B8EFF" d="M1234.733,312.516c0,10.559-2.577,19.594-7.688,27.151c-5.16,7.516-12.769,13.25-22.825,17.106
		c-10.063,3.906-22.329,5.859-36.718,5.859c-13.746,0-25.563-2.112-35.367-6.344c-9.854-4.229-17.1-9.468-21.771-15.812
		c-4.69-6.296-7.013-12.651-7.013-18.981c0-4.229,1.459-7.849,4.467-10.813c3.015-3.012,6.81-4.516,11.391-4.516
		c4.005,0,7.119,1.006,9.272,2.933c2.146,1.97,4.185,4.725,6.151,8.313c3.938,6.84,8.646,11.918,14.129,15.28
		c5.479,3.363,12.94,5.05,22.396,5.05c7.656,0,13.979-1.699,18.892-5.098c4.899-3.441,7.351-7.318,7.351-11.726
		c0-6.729-2.563-11.676-7.642-14.752c-5.127-3.076-13.521-6.055-25.229-8.844c-13.171-3.25-23.934-6.711-32.198-10.332
		c-8.27-3.572-14.914-8.354-19.856-14.229c-4.974-5.911-7.439-13.159-7.439-21.771c0-7.68,2.29-14.93,6.871-21.77
		c4.579-6.839,11.325-12.278,20.279-16.361c8.953-4.063,19.75-6.104,32.346-6.104c9.959,0,18.85,1.042,26.766,3.1
		c7.913,2.06,14.497,4.815,19.799,8.268c5.306,3.476,9.311,7.305,12.063,11.533c2.76,4.205,4.137,8.322,4.137,12.35
		c0,4.407-1.444,8.001-4.423,10.813c-2.934,2.812-7.118,4.204-12.54,4.204c-3.94,0-7.29-1.128-10.047-3.363
		c-2.757-2.258-5.928-5.623-9.468-10.116c-2.898-3.739-6.34-6.729-10.233-8.986c-3.938-2.234-9.272-3.363-16.049-3.363
		c-6.905,0-12.675,1.465-17.254,4.421c-4.582,2.955-6.871,6.623-6.871,11.027c0,4.018,1.683,7.321,5.047,9.899
		c3.362,2.558,7.912,4.688,13.604,6.369c5.73,1.691,13.611,3.765,23.593,6.195c11.888,2.901,21.606,6.368,29.166,10.379
		c7.517,4.01,13.248,8.793,17.108,14.271C1232.781,299.208,1234.733,305.455,1234.733,312.516z"/>
	<path fill="#1B8EFF" d="M1390.578,312.516c0,10.559-2.577,19.594-7.688,27.151c-5.157,7.516-12.769,13.25-22.823,17.106
		c-10.062,3.906-22.328,5.859-36.72,5.859c-13.789,0-25.563-2.112-35.371-6.344c-9.849-4.229-17.115-9.468-21.768-15.812
		c-4.693-6.296-7.018-12.651-7.018-18.981c0-4.229,1.496-7.849,4.47-10.813c3.015-3.012,6.809-4.516,11.391-4.516
		c4.005,0,7.082,1.006,9.271,2.933c2.146,1.97,4.185,4.725,6.153,8.313c3.938,6.84,8.647,11.918,14.128,15.28
		c5.479,3.363,12.938,5.05,22.396,5.05c7.655,0,13.938-1.699,18.886-5.098c4.905-3.441,7.354-7.318,7.354-11.726
		c0-6.729-2.563-11.676-7.646-14.752c-5.121-3.076-13.521-6.055-25.196-8.844c-13.193-3.25-23.959-6.711-32.229-10.332
		c-8.27-3.572-14.913-8.354-19.85-14.229c-4.979-5.911-7.447-13.159-7.447-21.771c0-7.68,2.289-14.93,6.868-21.77
		c4.581-6.839,11.326-12.278,20.28-16.361c8.953-4.063,19.707-6.104,32.371-6.104c9.936,0,18.825,1.042,26.738,3.1
		c7.913,2.06,14.498,4.815,19.801,8.268c5.302,3.476,9.309,7.305,12.063,11.533c2.757,4.205,4.133,8.322,4.133,12.35
		c0,4.407-1.438,8.001-4.424,10.813c-2.933,2.812-7.101,4.204-12.543,4.204c-3.938,0-7.287-1.128-10.043-3.363
		c-2.76-2.258-5.932-5.623-9.469-10.116c-2.898-3.739-6.344-6.729-10.281-8.986c-3.896-2.234-9.229-3.363-15.99-3.363
		c-6.918,0-12.686,1.465-17.27,4.421c-4.582,2.955-6.873,6.623-6.873,11.027c0,4.018,1.688,7.321,5.051,9.899
		c3.362,2.558,7.912,4.688,13.646,6.369c5.688,1.691,13.563,3.765,23.551,6.195c11.887,2.901,21.608,6.368,29.166,10.379
		c7.515,4.01,13.203,8.793,17.11,14.271C1388.669,299.208,1390.578,305.455,1390.578,312.516z"/>
	<path fill="#1B8EFF" d="M1566.512,284.693c0,11.425-1.794,21.947-5.334,31.573c-3.542,9.676-8.697,17.94-15.428,24.895
		c-6.773,6.905-14.782,12.225-24.173,15.904c-9.341,3.686-19.862,5.573-31.571,5.573c-11.609,0-22.063-1.905-31.332-5.622
		c-9.272-3.763-17.271-9.115-24.076-16.099c-6.76-6.981-11.919-15.217-15.428-24.701c-3.506-9.482-5.284-19.992-5.284-31.524
		c0-11.597,1.793-22.233,5.334-31.86c3.59-9.649,8.668-17.884,15.332-24.725c6.615-6.814,14.674-12.088,24.125-15.787
		c9.449-3.707,19.909-5.55,31.332-5.55c11.597,0,22.118,1.885,31.571,5.623c9.451,3.74,17.541,9.075,24.313,16.003
		c6.729,6.93,11.825,15.162,15.332,24.702C1564.779,262.659,1566.512,273.194,1566.512,284.693z M1528.02,284.693
		c0-15.634-3.411-27.8-10.283-36.499c-6.873-8.697-16.133-13.047-27.729-13.047c-7.481,0-14.108,1.933-19.799,5.815
		c-5.734,3.885-10.141,9.612-13.216,17.204c-3.075,7.569-4.61,16.421-4.61,26.527c0,10.029,1.521,18.76,4.563,26.24
		c3.042,7.524,7.369,13.229,13.022,17.202c5.7,3.975,12.334,5.966,20.035,5.966c11.601,0,20.854-4.349,27.729-13.125
		C1524.607,312.248,1528.02,300.121,1528.02,284.693z"/>
	<path opacity="0.8" fill="#F58021" enable-background="new    " d="M1593.615,210.134h9.127v-11.509
		c0-11.975,1.521-21.497,4.566-28.57c3.043-7.071,8.157-12.207,15.427-15.45c7.271-3.221,17.203-4.831,29.842-4.831
		c22.379,0,33.547,5.479,33.547,16.413c0,3.565-1.146,6.607-3.508,9.13c-2.322,2.525-5.078,3.797-8.271,3.797
		c-1.503,0-4.084-0.288-7.734-0.841c-3.65-0.554-6.729-0.842-9.272-0.842c-6.906,0-11.344,2.042-13.313,6.104
		c-1.973,4.084-2.979,9.898-2.979,17.491v9.107h9.418c14.607,0,21.913,4.406,21.913,13.215c0,6.265-1.954,10.236-5.813,11.919
		c-3.907,1.686-9.261,2.531-16.1,2.531h-9.418v101.535c0,7.545-1.767,13.328-5.385,17.303c-3.618,4.021-8.252,6.005-13.982,6.005
		c-5.399,0-9.938-1.982-13.557-6.005c-3.572-3.975-5.384-9.756-5.384-17.303V237.8h-10.523c-5.733,0-10.141-1.273-13.216-3.853
		s-4.612-5.927-4.612-10.044C1574.392,214.74,1580.8,210.134,1593.615,210.134z"/>
	<path opacity="0.8" fill="#F58021" enable-background="new    " d="M1789.348,341.012c-9.271,7.194-18.244,12.577-26.91,16.196
		c-8.666,3.617-18.348,5.428-29.121,5.428c-9.854,0-18.454-1.954-25.902-5.859c-7.447-3.86-13.197-9.146-17.202-15.765
		c-4.046-6.66-6.056-13.854-6.056-21.626c0-10.488,3.33-19.442,9.994-26.813c6.615-7.414,15.75-12.357,27.348-14.896
		c2.438-0.575,8.486-1.826,18.114-3.797c9.671-1.968,17.923-3.766,24.798-5.398c6.871-1.631,14.336-3.618,22.396-5.965
		c-0.464-10.116-2.484-17.523-6.104-22.25c-3.618-4.725-11.082-7.089-22.396-7.089c-9.738,0-17.063,1.361-21.963,4.063
		c-4.905,2.724-9.131,6.784-12.641,12.229c-3.508,5.423-6.008,9.004-7.446,10.723c-1.476,1.734-4.566,2.613-9.323,2.613
		c-4.341,0-8.045-1.399-11.194-4.156c-3.107-2.754-4.707-6.279-4.707-10.597c0-6.729,2.399-13.279,7.203-19.654
		c4.76-6.373,12.208-11.597,22.301-15.715c10.094-4.132,22.7-6.185,37.771-6.185c16.825,0,30.112,1.996,39.741,5.968
		c9.627,3.974,16.449,10.276,20.424,18.886c3.976,8.611,5.96,20.032,5.96,34.265c0,8.974-0.019,16.61-0.052,22.875
		c-0.077,6.264-0.127,13.248-0.236,20.903c0,7.238,1.201,14.738,3.604,22.539c2.354,7.851,3.56,12.876,3.56,15.088
		c0,3.939-1.844,7.544-5.526,10.765c-3.732,3.221-7.896,4.854-12.594,4.854c-3.938,0-7.803-1.89-11.631-5.573
		C1797.725,353.38,1793.641,348.031,1789.348,341.012z M1786.803,285.556c-5.624,2.037-13.767,4.199-24.51,6.49
		c-10.702,2.338-18.136,4.021-22.25,5.092c-4.119,1.074-8.06,3.188-11.774,6.296c-3.765,3.159-5.623,7.498-5.623,13.12
		c0,5.798,2.178,10.763,6.585,14.847c4.404,4.037,10.172,6.104,17.261,6.104c7.586,0,14.586-1.666,20.993-4.998
		s11.118-7.608,14.129-12.832c3.475-5.844,5.189-15.359,5.189-28.643V285.556L1786.803,285.556z M1763.782,151.746h18.937
		c4.807,0,7.16,0.696,7.16,2.091c0,0.754-2.61,3.796-7.834,9.13c-5.271,5.334-10.524,10.438-15.858,15.307
		c-5.373,4.87-9.064,7.825-11.101,8.843c-5.335,2.725-11.067,4.086-17.151,4.086c-4.008,0-6.011-1.185-6.011-3.531
		c0-1.57,1.215-4.349,3.648-8.266l6.298-11.799c3.651-6.839,6.84-11.188,9.563-13.047
		C1754.155,152.674,1758.271,151.746,1763.782,151.746z"/>
	<path opacity="0.8" fill="#F58021" enable-background="new    " d="M2000.796,315.16c0,4.76-1.457,9.885-4.281,15.332
		c-2.863,5.397-7.233,10.568-13.065,15.473c-5.88,4.949-13.229,8.908-22.104,11.871c-8.924,3.015-18.949,4.521-30.084,4.521
		c-23.661,0-42.134-6.937-55.454-20.713c-13.278-13.821-19.938-32.312-19.938-55.554c0-15.713,3.043-29.604,9.127-41.688
		c6.087-12.063,14.896-21.408,26.43-28.016c11.486-6.584,25.275-9.876,41.277-9.876c9.913,0,19.025,1.451,27.296,4.349
		c8.267,2.899,15.28,6.642,21.05,11.223c5.766,4.582,10.172,9.468,13.215,14.681c3.043,5.19,4.564,10.021,4.564,14.516
		c0,4.603-1.698,8.488-5.143,11.652c-3.396,3.188-7.574,4.783-12.402,4.783c-3.189,0-5.854-0.826-7.971-2.455
		c-2.065-1.646-4.457-4.275-7.063-7.928c-4.693-7.127-9.579-12.461-14.7-16.004c-5.085-3.564-11.586-5.334-19.418-5.334
		c-11.344,0-20.44,4.421-27.394,13.264c-6.906,8.843-10.383,20.943-10.383,36.306c0,7.197,0.896,13.793,2.646,19.853
		c1.792,6.053,4.374,11.166,7.737,15.426c3.36,4.264,7.447,7.523,12.204,9.707c4.805,2.184,10.024,3.313,15.765,3.313
		c7.654,0,14.228-1.791,19.704-5.335c5.478-3.586,10.331-8.985,14.556-16.292c2.323-4.339,4.828-7.702,7.547-10.142
		c2.727-2.434,6.059-3.65,9.998-3.65c4.646,0,8.558,1.795,11.632,5.337C1999.212,307.36,2000.796,311.155,2000.796,315.16z"/>
	<path opacity="0.8" fill="#F58021" enable-background="new    " d="M2053.563,188.941c-5.334,0-9.898-1.626-13.696-4.902
		c-3.796-3.275-5.675-7.913-5.675-13.911c0-5.422,1.953-9.9,5.818-13.407c3.902-3.509,8.393-5.262,13.553-5.262
		c4.979,0,9.384,1.595,13.216,4.781c3.827,3.164,5.722,7.802,5.722,13.889c0,5.899-1.859,10.509-5.576,13.839
		C2063.156,187.276,2058.719,188.941,2053.563,188.941z M2072.499,228.54v110.792c0,7.658-1.824,13.455-5.457,17.397
		c-3.629,3.938-8.287,5.907-13.909,5.907c-5.62,0-10.188-2.048-13.653-6.052c-3.549-4.008-5.277-9.771-5.277-17.254V229.669
		c0-7.592,1.729-13.301,5.277-17.132c3.471-3.853,8.033-5.768,13.653-5.768c5.623,0,10.282,1.915,13.909,5.768
		C2070.674,216.367,2072.499,221.701,2072.499,228.54z"/>
	<path opacity="0.8" fill="#F58021" enable-background="new    " d="M2112.096,339.333v-166.25c0-7.68,1.742-13.48,5.142-17.419
		c3.396-3.918,8.039-5.888,13.841-5.888c5.795,0,10.487,1.933,14.032,5.814c3.539,3.886,5.334,9.724,5.334,17.492v166.25
		c0,7.769-1.813,13.584-5.427,17.441c-3.577,3.906-8.254,5.86-13.939,5.86c-5.621,0-10.188-2.051-13.693-6.055
		C2113.872,352.58,2112.096,346.814,2112.096,339.333z"/>
</g>
</svg>
