<?xml version="1.0" encoding="utf-8"?>
<!-- Generator: Adobe Illustrator 16.0.0, SVG Export Plug-In . SVG Version: 6.00 Build 0)  -->
<!DOCTYPE svg PUBLIC "-//W3C//DTD SVG 1.1//EN" "http://www.w3.org/Graphics/SVG/1.1/DTD/svg11.dtd">
<svg version="1.1" id="Layer_1" xmlns="http://www.w3.org/2000/svg" xmlns:xlink="http://www.w3.org/1999/xlink" x="0px" y="0px"
	 width="2125.33px" height="481.021px" viewBox="-109.67 0 2125.33 481.021" enable-background="new -109.67 0 2125.33 481.021"
	 xml:space="preserve">
<g>
	<path fill="#1B8EFF" d="M553.506,211.062c-9.271,7.193-18.199,12.576-26.864,16.195c-8.666,3.617-18.394,5.428-29.124,5.428
		c-9.853,0-18.498-1.953-25.902-5.855c-7.442-3.859-13.188-9.146-17.195-15.768c-4.057-6.66-6.06-13.854-6.06-21.625
		c0-10.488,3.331-19.441,9.946-26.813c6.663-7.414,15.794-12.357,27.394-14.896c2.438-0.574,8.489-1.826,18.117-3.797
		c9.627-1.968,17.921-3.766,24.796-5.397c6.873-1.631,14.34-3.617,22.396-5.965c-0.463-10.115-2.525-17.522-6.104-22.25
		c-3.62-4.725-11.082-7.089-22.396-7.089c-9.739,0-17.063,1.361-22.013,4.063c-4.898,2.724-9.132,6.783-12.639,12.229
		c-3.508,5.424-5.979,9.004-7.396,10.723c-1.479,1.734-4.565,2.613-9.372,2.613c-4.293,0-7.992-1.398-11.147-4.156
		c-3.155-2.754-4.71-6.278-4.71-10.597c0-6.729,2.4-13.278,7.158-19.653c4.798-6.373,12.205-11.598,22.346-15.715
		c10.098-4.133,22.701-6.186,37.771-6.186c16.818,0,30.064,1.996,39.689,5.968c9.672,3.974,16.447,10.276,20.473,18.886
		c3.979,8.611,5.963,20.032,5.963,34.266c0,8.974-0.021,16.609-0.1,22.875c-0.025,6.264-0.121,13.248-0.188,20.902
		c0,7.238,1.201,14.738,3.56,22.539c2.399,7.852,3.604,12.876,3.604,15.088c0,3.938-1.847,7.545-5.57,10.766
		c-3.688,3.223-7.854,4.854-12.545,4.854c-3.938,0-7.804-1.892-11.678-5.57C561.883,223.429,557.843,218.08,553.506,211.062z
		 M551.006,155.604c-5.622,2.037-13.813,4.199-24.516,6.49c-10.7,2.338-18.133,4.021-22.25,5.092
		c-4.116,1.074-8.058,3.188-11.813,6.297c-3.722,3.158-5.58,7.498-5.58,13.119c0,5.799,2.184,10.764,6.587,14.848
		c4.404,4.037,10.131,6.104,17.256,6.104c7.595,0,14.595-1.666,20.999-4.998c6.402-3.332,11.117-7.607,14.128-12.832
		c3.429-5.844,5.188-15.359,5.188-28.643L551.006,155.604L551.006,155.604z"/>
	<path fill="#1B8EFF" d="M764.948,185.209c0,4.76-1.408,9.885-4.271,15.332c-2.865,5.397-7.194,10.567-13.071,15.474
		c-5.832,4.948-13.188,8.907-22.104,11.87c-8.876,3.015-18.902,4.521-30.035,4.521c-23.661,0-42.178-6.938-55.454-20.714
		c-13.278-13.819-19.941-32.313-19.941-55.553c0-15.713,3.044-29.604,9.128-41.688c6.093-12.063,14.896-21.407,26.39-28.016
		c11.526-6.584,25.271-9.876,41.273-9.876c9.915,0,19.03,1.451,27.337,4.349c8.271,2.899,15.288,6.643,21.062,11.224
		c5.769,4.582,10.125,9.468,13.169,14.681c3.043,5.19,4.563,10.021,4.563,14.516c0,4.604-1.692,8.488-5.098,11.652
		c-3.441,3.188-7.572,4.783-12.443,4.783c-3.188,0-5.813-0.826-7.932-2.455c-2.115-1.646-4.458-4.275-7.068-7.928
		c-4.688-7.127-9.567-12.461-14.692-16.004c-5.079-3.564-11.581-5.334-19.415-5.334c-11.354,0-20.485,4.421-27.396,13.264
		c-6.951,8.844-10.381,20.943-10.381,36.307c0,7.196,0.896,13.793,2.646,19.853c1.793,6.053,4.375,11.166,7.729,15.426
		c3.362,4.265,7.451,7.522,12.207,9.707c4.761,2.185,10.025,3.313,15.715,3.313c7.703,0,14.271-1.791,19.75-5.336
		c5.479-3.586,10.286-8.984,14.521-16.291c2.354-4.34,4.866-7.702,7.593-10.143c2.725-2.434,6.051-3.65,9.948-3.65
		c4.688,0,8.598,1.795,11.677,5.338C763.411,177.409,764.948,181.204,764.948,185.209z"/>
	<path fill="#1B8EFF" d="M905.368,164.159h-74.97c0.063,8.699,1.842,16.357,5.241,23.021c3.438,6.664,7.938,11.633,13.646,15.039
		c5.649,3.363,11.896,5.048,18.738,5.048c4.581,0,8.748-0.562,12.544-1.634c3.798-1.071,7.466-2.756,11.054-5.049
		c3.54-2.287,6.794-4.738,9.812-7.354c3.01-2.656,6.867-6.197,11.67-10.668c1.928-1.729,4.762-2.549,8.417-2.549
		c3.938,0,7.122,1.076,9.521,3.223c2.435,2.146,3.646,5.189,3.646,9.131c0,3.479-1.317,7.496-4.039,12.155
		c-2.721,4.608-6.823,9.056-12.299,13.313c-5.479,4.264-12.354,7.787-20.617,10.621c-8.313,2.784-17.813,4.229-28.593,4.229
		c-24.643,0-43.748-7.063-57.433-21.1c-13.684-14.033-20.477-33.076-20.477-57.14c0-11.31,1.686-21.817,5.05-31.504
		c3.36-9.693,8.271-18.011,14.732-24.928c6.46-6.928,14.4-12.234,23.854-15.941c9.449-3.688,19.939-5.538,31.479-5.538
		c14.961,0,27.793,3.159,38.539,9.479c10.699,6.319,18.735,14.482,24.069,24.497c5.334,10.018,7.979,20.219,7.979,30.611
		c0,9.641-2.757,15.889-8.271,18.752C923.164,162.705,915.395,164.159,905.368,164.159z M830.4,142.39h69.489
		c-0.932-13.102-4.454-22.912-10.619-29.41c-6.12-6.519-14.192-9.756-24.222-9.756c-9.518,0-17.379,3.292-23.5,9.899
		C835.431,119.71,831.682,129.466,830.4,142.39z"/>
	<path fill="#1B8EFF" d="M1092.644,182.565c0,10.559-2.577,19.594-7.688,27.15c-5.156,7.517-12.77,13.25-22.821,17.104
		c-10.063,3.906-22.329,5.856-36.722,5.856c-13.742,0-25.563-2.108-35.363-6.344c-9.854-4.229-17.104-9.469-21.771-15.813
		c-4.688-6.295-7.013-12.648-7.013-18.979c0-4.229,1.459-7.85,4.467-10.813c3.017-3.013,6.813-4.517,11.396-4.517
		c4.005,0,7.115,1.006,9.271,2.933c2.146,1.971,4.188,4.726,6.151,8.313c3.938,6.84,8.646,11.918,14.129,15.28
		c5.479,3.365,12.938,5.05,22.396,5.05c7.656,0,13.979-1.699,18.896-5.099c4.896-3.44,7.351-7.317,7.351-11.726
		c0-6.729-2.563-11.676-7.642-14.752c-5.127-3.076-13.521-6.056-25.229-8.844c-13.171-3.25-23.934-6.712-32.195-10.332
		c-8.271-3.572-14.913-8.354-19.854-14.229c-4.975-5.91-7.438-13.158-7.438-21.771c0-7.681,2.29-14.931,6.87-21.771
		c4.577-6.839,11.323-12.277,20.277-16.361c8.953-4.063,19.75-6.104,32.348-6.104c9.959,0,18.853,1.042,26.769,3.1
		c7.913,2.061,14.497,4.815,19.799,8.269c5.306,3.476,9.313,7.305,12.063,11.533c2.762,4.204,4.139,8.321,4.139,12.35
		c0,4.407-1.444,8.001-4.424,10.813c-2.938,2.812-7.117,4.203-12.541,4.203c-3.938,0-7.289-1.127-10.047-3.362
		c-2.758-2.259-5.931-5.623-9.469-10.116c-2.896-3.738-6.342-6.729-10.232-8.986c-3.938-2.233-9.271-3.363-16.049-3.363
		c-6.904,0-12.678,1.466-17.255,4.422c-4.582,2.955-6.87,6.623-6.87,11.027c0,4.018,1.685,7.32,5.047,9.898
		c3.361,2.559,7.912,4.688,13.604,6.369c5.729,1.691,13.611,3.765,23.595,6.195c11.889,2.9,21.604,6.367,29.166,10.379
		c7.518,4.01,13.248,8.793,17.106,14.271C1090.692,169.257,1092.644,175.504,1092.644,182.565z"/>
	<path fill="#1B8EFF" d="M1248.489,182.565c0,10.559-2.577,19.594-7.688,27.15c-5.157,7.517-12.771,13.25-22.823,17.104
		c-10.062,3.906-22.328,5.856-36.72,5.856c-13.789,0-25.563-2.108-35.371-6.344c-9.85-4.229-17.115-9.469-21.768-15.813
		c-4.693-6.295-7.021-12.648-7.021-18.979c0-4.229,1.496-7.85,4.471-10.813c3.019-3.013,6.813-4.517,11.395-4.517
		c4.005,0,7.082,1.006,9.271,2.933c2.146,1.971,4.188,4.726,6.153,8.313c3.938,6.84,8.646,11.918,14.128,15.28
		c5.479,3.365,12.938,5.05,22.396,5.05c7.654,0,13.938-1.699,18.89-5.099c4.901-3.44,7.354-7.317,7.354-11.726
		c0-6.729-2.563-11.676-7.646-14.752c-5.121-3.076-13.521-6.056-25.196-8.844c-13.192-3.25-23.959-6.712-32.229-10.332
		c-8.271-3.572-14.91-8.354-19.852-14.229c-4.979-5.91-7.446-13.158-7.446-21.771c0-7.681,2.288-14.931,6.867-21.771
		c4.581-6.839,11.326-12.277,20.28-16.361c8.953-4.063,19.707-6.104,32.371-6.104c9.937,0,18.823,1.042,26.735,3.1
		c7.912,2.061,14.498,4.815,19.804,8.269c5.302,3.476,9.309,7.305,12.063,11.533c2.757,4.204,4.134,8.321,4.134,12.35
		c0,4.407-1.438,8.001-4.425,10.813c-2.934,2.812-7.102,4.203-12.543,4.203c-3.938,0-7.286-1.127-10.043-3.362
		c-2.761-2.259-5.933-5.623-9.47-10.116c-2.896-3.738-6.344-6.729-10.28-8.986c-3.896-2.233-9.229-3.363-15.988-3.363
		c-6.918,0-12.688,1.466-17.271,4.422c-4.582,2.955-6.873,6.623-6.873,11.027c0,4.018,1.688,7.32,5.052,9.898
		c3.361,2.559,7.912,4.688,13.646,6.369c5.688,1.691,13.563,3.765,23.551,6.195c11.888,2.9,21.608,6.367,29.166,10.379
		c7.516,4.01,13.203,8.793,17.11,14.271C1246.579,169.257,1248.489,175.504,1248.489,182.565z"/>
	<path fill="#1B8EFF" d="M1424.427,154.741c0,11.426-1.794,21.947-5.334,31.574c-3.542,9.676-8.697,17.939-15.432,24.895
		c-6.771,6.904-14.778,12.225-24.174,15.904c-9.341,3.686-19.857,5.572-31.566,5.572c-11.609,0-22.063-1.904-31.332-5.621
		c-9.272-3.768-17.271-9.115-24.076-16.104c-6.764-6.979-11.919-15.217-15.432-24.701c-3.507-9.481-5.28-19.992-5.28-31.522
		c0-11.598,1.793-22.233,5.334-31.86c3.59-9.649,8.668-17.884,15.332-24.726c6.61-6.813,14.674-12.088,24.125-15.787
		c9.444-3.707,19.905-5.549,31.332-5.549c11.597,0,22.114,1.885,31.566,5.623c9.451,3.739,17.541,9.074,24.313,16.002
		c6.729,6.931,11.824,15.162,15.332,24.703C1422.69,132.708,1424.427,143.243,1424.427,154.741z M1385.931,154.741
		c0-15.633-3.411-27.799-10.283-36.498c-6.873-8.697-16.133-13.047-27.729-13.047c-7.481,0-14.108,1.933-19.803,5.814
		c-5.73,3.885-10.142,9.612-13.217,17.204c-3.074,7.569-4.606,16.421-4.606,26.526c0,10.029,1.521,18.761,4.563,26.24
		c3.042,7.524,7.369,13.229,13.021,17.202c5.697,3.976,12.334,5.965,20.033,5.965c11.604,0,20.854-4.352,27.729-13.125
		C1382.518,182.297,1385.931,170.17,1385.931,154.741z"/>
	<path opacity="0.8" fill="#F58021" enable-background="new    " d="M1451.526,80.183h9.127V68.674
		c0-11.975,1.521-21.497,4.566-28.57c3.043-7.071,8.156-12.207,15.427-15.45c7.271-3.221,17.203-4.831,29.842-4.831
		c22.379,0,33.547,5.479,33.547,16.413c0,3.565-1.146,6.607-3.508,9.13c-2.322,2.525-5.078,3.797-8.271,3.797
		c-1.504,0-4.084-0.288-7.734-0.841c-3.649-0.554-6.729-0.842-9.271-0.842c-6.902,0-11.345,2.042-13.313,6.104
		c-1.973,4.084-2.979,9.898-2.979,17.491v9.107h9.418c14.604,0,21.908,4.406,21.908,13.216c0,6.264-1.949,10.235-5.813,11.918
		c-3.907,1.687-9.261,2.531-16.104,2.531h-9.418v101.535c0,7.545-1.768,13.328-5.386,17.303c-3.618,4.021-8.252,6.006-13.979,6.006
		c-5.399,0-9.938-1.979-13.562-6.006c-3.568-3.975-5.384-9.756-5.384-17.303V107.849h-10.521c-5.731,0-10.144-1.273-13.218-3.853
		s-4.609-5.927-4.609-10.044C1432.303,84.789,1438.715,80.183,1451.526,80.183z"/>
	<path opacity="0.8" fill="#F58021" enable-background="new    " d="M1647.26,211.062c-9.271,7.193-18.244,12.576-26.91,16.195
		c-8.666,3.617-18.35,5.428-29.121,5.428c-9.854,0-18.454-1.953-25.902-5.855c-7.442-3.859-13.192-9.146-17.197-15.768
		c-4.051-6.66-6.061-13.854-6.061-21.625c0-10.488,3.33-19.441,9.994-26.813c6.615-7.414,15.75-12.357,27.348-14.896
		c2.438-0.574,8.486-1.826,18.114-3.797c9.671-1.968,17.923-3.766,24.798-5.397c6.871-1.631,14.336-3.617,22.396-5.965
		c-0.464-10.115-2.484-17.522-6.104-22.25c-3.618-4.725-11.082-7.089-22.396-7.089c-9.738,0-17.063,1.361-21.963,4.063
		c-4.905,2.724-9.133,6.783-12.646,12.229c-3.508,5.424-6.008,9.004-7.442,10.723c-1.479,1.734-4.565,2.613-9.322,2.613
		c-4.341,0-8.045-1.398-11.194-4.156c-3.104-2.754-4.707-6.278-4.707-10.597c0-6.729,2.399-13.278,7.203-19.653
		c4.761-6.373,12.208-11.598,22.302-15.715c10.098-4.133,22.699-6.186,37.771-6.186c16.824,0,30.11,1.996,39.74,5.968
		c9.627,3.974,16.446,10.276,20.425,18.886c3.976,8.611,5.96,20.032,5.96,34.266c0,8.974-0.021,16.609-0.054,22.875
		c-0.075,6.264-0.127,13.248-0.234,20.902c0,7.238,1.201,14.738,3.604,22.539c2.354,7.852,3.563,12.876,3.563,15.088
		c0,3.938-1.844,7.545-5.526,10.766c-3.729,3.223-7.896,4.854-12.594,4.854c-3.938,0-7.803-1.892-11.631-5.57
		C1655.636,223.429,1651.552,218.08,1647.26,211.062z M1644.718,155.604c-5.624,2.037-13.771,4.199-24.514,6.49
		c-10.7,2.338-18.137,4.021-22.25,5.092c-4.118,1.074-8.061,3.188-11.771,6.297c-3.768,3.158-5.623,7.498-5.623,13.119
		c0,5.799,2.178,10.764,6.585,14.848c4.401,4.037,10.172,6.104,17.261,6.104c7.586,0,14.586-1.666,20.993-4.998
		c6.407-3.332,11.118-7.607,14.129-12.832c3.477-5.844,5.188-15.359,5.188-28.643L1644.718,155.604L1644.718,155.604z
		 M1621.693,21.795h18.938c4.807,0,7.16,0.696,7.16,2.091c0,0.754-2.61,3.796-7.834,9.13c-5.271,5.334-10.524,10.438-15.858,15.307
		c-5.373,4.87-9.063,7.825-11.101,8.843c-5.339,2.725-11.067,4.086-17.151,4.086c-4.008,0-6.011-1.185-6.011-3.531
		c0-1.57,1.215-4.349,3.646-8.266l6.298-11.799c3.651-6.839,6.84-11.188,9.563-13.047
		C1612.066,22.723,1616.182,21.795,1621.693,21.795z"/>
	<path opacity="0.8" fill="#F58021" enable-background="new    " d="M1858.708,185.209c0,4.76-1.457,9.885-4.278,15.332
		c-2.863,5.397-7.233,10.567-13.065,15.474c-5.88,4.948-13.229,8.907-22.104,11.87c-8.924,3.015-18.949,4.521-30.084,4.521
		c-23.661,0-42.137-6.938-55.454-20.714c-13.278-13.819-19.938-32.313-19.938-55.553c0-15.713,3.043-29.604,9.127-41.688
		c6.092-12.063,14.896-21.407,26.435-28.016c11.481-6.584,25.271-9.876,41.272-9.876c9.913,0,19.025,1.451,27.301,4.349
		c8.267,2.899,15.275,6.643,21.05,11.224c5.766,4.582,10.172,9.468,13.215,14.681c3.043,5.19,4.563,10.021,4.563,14.516
		c0,4.604-1.693,8.488-5.143,11.652c-3.396,3.188-7.574,4.783-12.402,4.783c-3.188,0-5.854-0.826-7.971-2.455
		c-2.063-1.646-4.457-4.275-7.063-7.928c-4.693-7.127-9.579-12.461-14.7-16.004c-5.085-3.564-11.586-5.334-19.418-5.334
		c-11.344,0-20.44,4.421-27.396,13.264c-6.902,8.844-10.384,20.943-10.384,36.307c0,7.196,0.896,13.793,2.646,19.853
		c1.792,6.053,4.374,11.166,7.733,15.426c3.359,4.265,7.446,7.522,12.203,9.707c4.809,2.185,10.024,3.313,15.768,3.313
		c7.652,0,14.229-1.791,19.702-5.336c5.479-3.586,10.332-8.984,14.56-16.291c2.322-4.34,4.828-7.702,7.547-10.143
		c2.729-2.434,6.059-3.65,9.998-3.65c4.646,0,8.559,1.795,11.632,5.338C1857.124,177.409,1858.708,181.204,1858.708,185.209z"/>
	<path opacity="0.8" fill="#F58021" enable-background="new    " d="M1911.474,58.99c-5.334,0-9.898-1.626-13.696-4.902
		c-3.796-3.275-5.675-7.913-5.675-13.911c0-5.422,1.953-9.9,5.817-13.407c3.898-3.509,8.394-5.262,13.554-5.262
		c4.979,0,9.384,1.595,13.216,4.781c3.827,3.164,5.722,7.802,5.722,13.889c0,5.899-1.854,10.509-5.575,13.839
		C1921.067,57.325,1916.634,58.99,1911.474,58.99z M1930.409,98.589v110.792c0,7.658-1.819,13.455-5.457,17.397
		c-3.629,3.938-8.287,5.906-13.904,5.906c-5.62,0-10.188-2.052-13.653-6.056c-3.549-4.008-5.276-9.771-5.276-17.254V99.718
		c0-7.592,1.729-13.301,5.276-17.132c3.471-3.853,8.033-5.769,13.653-5.769c5.623,0,10.277,1.916,13.904,5.769
		C1928.585,86.416,1930.409,91.75,1930.409,98.589z"/>
	<path opacity="0.8" fill="#F58021" enable-background="new    " d="M1970.01,209.382V43.132c0-7.68,1.738-13.48,5.142-17.419
		c3.396-3.918,8.039-5.888,13.841-5.888c5.795,0,10.487,1.933,14.032,5.814c3.539,3.886,5.334,9.724,5.334,17.492v166.25
		c0,7.769-1.813,13.584-5.427,17.44c-3.577,3.906-8.255,5.859-13.939,5.859c-5.621,0-10.188-2.054-13.689-6.058
		C1971.782,222.629,1970.01,216.862,1970.01,209.382z"/>
</g>
<g>
	<path fill="#1B8EFF" stroke="#1B8EFF" stroke-width="7" stroke-miterlimit="10" d="M59.952,26.653
		c30.655,0.815,58.494,10.015,83.215,28.215c3.174,2.337,4.888,0.633,7.049-0.883c27.002-18.94,57.077-28.137,89.963-27.252
		c45.064,1.209,82.321,19.541,110.882,54.19c24.948,30.268,35.255,65.661,32.524,104.778c-2.349,33.559-14.701,63.021-36.824,88.352
		c-2.776,3.178-5.908,6.055-8.904,9.042c-53.773,53.635-107.546,107.269-161.33,160.896c-14.033,13.989-32.502,17.419-49.535,9.306
		c-4.583-2.186-8.393-5.351-11.938-8.891C60.352,389.774,5.556,335.235-49.01,280.472c-48.229-48.4-58.062-121.572-23.229-180.416
		c24.177-40.838,60.471-65.044,107.771-71.958c5.375-0.786,10.832-1.053,16.259-1.416C54.499,26.504,57.23,26.653,59.952,26.653z"/>
	<path fill="#FEFEFE" stroke="#1B8EFF" stroke-width="7" stroke-miterlimit="10" d="M236.116,52.821
		c55.701-1.038,107.054,37.854,119.446,94.679c9.537,43.719-1.788,82.298-33.177,114.139
		c-54.181,54.959-108.928,109.364-163.391,164.046c-4.771,4.789-10.152,6.992-16.801,5.211c-5.922-1.584-9.628-5.476-11.098-11.414
		c-1.415-5.738,0.725-10.269,4.757-14.292c26.462-26.397,52.855-52.863,79.326-79.254c4.3-4.293,6.557-8.939,4.405-15.085
		c-2.9-8.269-13.169-11.201-19.97-5.577c-1.397,1.154-2.647,2.479-3.933,3.77c-25.683,25.674-51.35,51.375-77.048,77.033
		c-8.017,8-17.948,8.023-24.581,0.176c-4.3-5.094-4.498-12.762-0.342-18.018c1.303-1.661,2.828-3.146,4.324-4.646
		c25.883-25.909,51.788-51.796,77.667-77.7c5.351-5.354,6.278-10.568,3.908-16.365c-3.409-8.34-14.411-8.45-19.216-4.426
		c-1.273,1.064-2.452,2.252-3.623,3.43c-25.799,25.784-51.601,51.574-77.379,77.376c-4.779,4.789-10.138,7.672-17.106,5.514
		c-10.464-3.229-14.26-15.5-7.459-24.144c1.208-1.541,2.583-2.962,3.975-4.351c25.779-25.803,51.573-51.582,77.348-77.38
		c5.838-5.842,6.9-11.443,3.425-17.506c-3.771-6.583-12.326-8.271-18.374-3.575c-1.302,1.016-2.481,2.217-3.658,3.391
		c-25.899,25.889-51.816,51.764-77.663,77.709c-3.704,3.716-7.808,6.137-13.186,5.916c-5.921-0.241-10.379-2.805-13.157-8.156
		c-2.849-5.491-2.467-10.802,0.881-15.877c1.071-1.624,2.506-3.03,3.896-4.409c16.893-16.928,33.809-33.817,50.697-50.74
		c1.51-1.512,2.899-2.777,5.354-2.834c15.829-0.371,28.783-7.161,39.776-18.193c10.362-10.399,20.83-20.691,31.07-31.208
		c2.542-2.613,3.923-3.067,7.196-0.542c16.445,12.675,34.517,21.102,56.034,19.428c16.64-1.295,30.376-8.584,41.797-20.399
		c4.953-5.123,4.847-12.338,0.361-17.213c-4.297-4.67-11.91-5.249-17.393-1.291c-0.855,0.62-1.616,1.369-2.41,2.071
		c-14.946,13.248-30.708,15.316-48.565,6.406c-8.763-4.379-16.224-10.473-23.219-17.236c-6.43-6.22-14.041-6.207-20.355,0.08
		c-13.735,13.658-27.396,27.389-41.108,41.068c-6.354,6.334-13.422,11.331-22.812,11.763c-9.712,0.447-18.121-2.538-24.957-9.612
		c-2.137-2.212-2.346-3.914,0.131-6.395c33.083-33.044,66.042-66.213,99.042-99.338c20.486-20.575,45.262-32.422,74.003-35.96
		C227.29,52.362,231.732,52.821,236.116,52.821z"/>
	<path fill="#FEFEFE" stroke="#1B8EFF" stroke-width="7" stroke-miterlimit="10" d="M127.013,75.134
		c-7.197,7.14-14.411,14.245-21.573,21.404c-24.082,24.046-47.606,48.695-72.404,71.985c-19.376,18.195-11.066,39.663,6.082,50.929
		c3.757,2.463,4.273,3.399,0.868,6.702c-13.366,12.943-26.349,26.272-39.581,39.354c-3.906,3.861-7.386,7.986-9.965,12.834
		c-0.756,1.419-1.261,2.25-2.859,0.713c-16.255-15.626-32.768-30.977-42.224-52.15c-13.136-29.411-15.672-59.647-5.083-90.055
		c15.315-43.961,46.166-71.773,91.757-81.516c33.528-7.164,65.209-1.1,93.809,18.57C126.203,74.153,126.465,74.55,127.013,75.134z"
		/>
</g>
<path fill="#1B8EFF" d="M2007.415,361.199c0,43.835-35.535,79.37-79.369,79.37H527.73c-43.835,0-79.37-35.535-79.37-79.37l0,0
	c0-43.835,35.535-79.37,79.37-79.37h1400.315C1971.88,281.829,2007.415,317.364,2007.415,361.199L2007.415,361.199z"/>
<g>
	<path fill="#FFFFFF" d="M943.027,403.705h-25.202c-3.638,0-6.235-0.815-7.791-2.447c-1.557-1.631-2.334-4.228-2.334-7.791v-61.992
		c0-3.637,0.796-6.253,2.391-7.847c1.594-1.594,4.172-2.392,7.735-2.392h26.721c3.938,0,7.35,0.245,10.238,0.731
		c2.888,0.488,5.475,1.426,7.763,2.813c1.95,1.162,3.675,2.635,5.175,4.415c1.5,1.782,2.644,3.751,3.432,5.907
		c0.788,2.157,1.181,4.436,1.181,6.835c0,8.251-4.126,14.288-12.376,18.113c10.838,3.451,16.257,10.164,16.257,20.14
		c0,4.612-1.181,8.767-3.544,12.46c-2.362,3.694-5.55,6.423-9.563,8.185c-2.513,1.051-5.4,1.792-8.663,2.223
		S947.377,403.705,943.027,403.705z M924.407,333.781v21.32h15.301c4.163,0,7.378-0.394,9.648-1.182
		c2.269-0.787,4.002-2.287,5.203-4.5c0.937-1.575,1.407-3.337,1.407-5.288c0-4.162-1.482-6.928-4.444-8.297
		c-2.963-1.369-7.482-2.054-13.557-2.054H924.407z M941.789,367.084h-17.382v24.076h17.945c11.288,0,16.933-4.068,16.933-12.207
		c0-4.162-1.463-7.181-4.388-9.057C951.971,368.021,947.602,367.084,941.789,367.084z"/>
	<path fill="#FFFFFF" d="M1062.659,368.434h-5.851v26.496c0,3.487-0.77,6.057-2.307,7.707c-1.538,1.649-3.544,2.475-6.02,2.475
		c-2.663,0-4.725-0.863-6.188-2.588s-2.194-4.256-2.194-7.594v-63.455c0-3.6,0.807-6.206,2.419-7.819
		c1.612-1.611,4.22-2.419,7.819-2.419h27.171c3.75,0,6.956,0.16,9.619,0.479c2.663,0.319,5.063,0.966,7.201,1.94
		c2.588,1.089,4.875,2.645,6.863,4.67c1.987,2.024,3.496,4.379,4.528,7.06c1.03,2.682,1.547,5.522,1.547,8.522
		c0,6.151-1.735,11.063-5.204,14.738c-3.469,3.676-8.729,6.282-15.779,7.819c2.963,1.575,5.795,3.901,8.495,6.976
		c2.7,3.075,5.109,6.348,7.229,9.816c2.118,3.469,3.769,6.601,4.95,9.395s1.771,4.717,1.771,5.766c0,1.088-0.347,2.166-1.04,3.234
		c-0.694,1.069-1.642,1.913-2.841,2.532c-1.201,0.618-2.588,0.928-4.163,0.928c-1.876,0-3.451-0.441-4.726-1.322
		c-1.275-0.88-2.372-1.997-3.291-3.347c-0.919-1.351-2.165-3.338-3.74-5.963l-6.694-11.139c-2.4-4.087-4.548-7.2-6.441-9.338
		s-3.816-3.601-5.766-4.388C1068.078,368.827,1065.621,368.434,1062.659,368.434z M1072.221,333.781h-15.413v22.671h14.964
		c4.012,0,7.388-0.347,10.125-1.041c2.737-0.693,4.828-1.875,6.272-3.544c1.443-1.668,2.166-3.966,2.166-6.892
		c0-2.287-0.582-4.303-1.744-6.047c-1.163-1.744-2.775-3.047-4.838-3.91C1081.803,334.194,1077.96,333.781,1072.221,333.781z"/>
	<path fill="#FFFFFF" d="M1225.382,394.367l-3.938-10.351h-33.527l-3.938,10.575c-1.538,4.126-2.851,6.91-3.938,8.354
		s-2.868,2.166-5.344,2.166c-2.101,0-3.957-0.769-5.569-2.307c-1.612-1.537-2.419-3.281-2.419-5.231
		c0-1.125,0.188-2.287,0.563-3.487s0.993-2.869,1.856-5.007l21.096-53.554c0.6-1.537,1.321-3.384,2.165-5.541
		c0.845-2.156,1.744-3.946,2.7-5.372c0.957-1.425,2.213-2.578,3.77-3.46c1.556-0.881,3.479-1.322,5.766-1.322
		c2.325,0,4.266,0.441,5.822,1.322c1.557,0.882,2.813,2.017,3.77,3.403c0.956,1.388,1.763,2.879,2.419,4.473
		c0.655,1.594,1.49,3.722,2.503,6.385l21.546,53.216c1.688,4.051,2.531,6.995,2.531,8.832c0,1.912-0.798,3.666-2.391,5.26
		c-1.595,1.594-3.517,2.391-5.767,2.391c-1.313,0-2.438-0.234-3.375-0.703c-0.938-0.47-1.726-1.105-2.362-1.912
		c-0.639-0.807-1.322-2.044-2.054-3.713S1225.907,395.643,1225.382,394.367z M1192.304,371.472h24.64l-12.433-34.034
		L1192.304,371.472z"/>
	<path fill="#FFFFFF" d="M1367.684,378.953c0,4.988-1.285,9.47-3.854,13.445c-2.569,3.976-6.329,7.088-11.279,9.338
		s-10.82,3.375-17.607,3.375c-8.139,0-14.851-1.537-20.139-4.612c-3.751-2.213-6.798-5.166-9.142-8.86
		c-2.344-3.693-3.516-7.285-3.516-10.772c0-2.025,0.703-3.76,2.109-5.204c1.406-1.443,3.197-2.165,5.372-2.165
		c1.763,0,3.253,0.563,4.473,1.688c1.218,1.125,2.259,2.794,3.122,5.007c1.049,2.625,2.184,4.819,3.403,6.581
		c1.218,1.764,2.934,3.217,5.147,4.359c2.212,1.145,5.119,1.716,8.719,1.716c4.95,0,8.973-1.152,12.066-3.459
		c3.095-2.307,4.642-5.185,4.642-8.635c0-2.737-0.835-4.96-2.504-6.667c-1.669-1.706-3.825-3.009-6.469-3.909
		c-2.645-0.9-6.18-1.856-10.604-2.869c-5.926-1.387-10.885-3.01-14.879-4.866s-7.163-4.388-9.507-7.594
		c-2.344-3.207-3.516-7.191-3.516-11.954c0-4.537,1.237-8.569,3.713-12.095c2.475-3.524,6.056-6.234,10.744-8.129
		c4.688-1.893,10.2-2.841,16.539-2.841c5.063,0,9.44,0.629,13.135,1.885c3.693,1.257,6.76,2.925,9.197,5.007
		c2.438,2.081,4.22,4.267,5.345,6.554c1.125,2.288,1.688,4.52,1.688,6.694c0,1.988-0.703,3.778-2.109,5.372s-3.16,2.391-5.26,2.391
		c-1.913,0-3.366-0.479-4.359-1.435c-0.994-0.956-2.073-2.521-3.235-4.697c-1.5-3.112-3.3-5.541-5.4-7.285
		c-2.101-1.743-5.476-2.615-10.125-2.615c-4.313,0-7.792,0.947-10.436,2.841s-3.966,4.172-3.966,6.835c0,1.65,0.45,3.075,1.35,4.275
		c0.9,1.2,2.138,2.231,3.713,3.094c1.575,0.863,3.169,1.538,4.782,2.025c1.611,0.487,4.275,1.2,7.987,2.138
		c4.65,1.088,8.86,2.287,12.63,3.6c3.769,1.313,6.975,2.907,9.619,4.782c2.644,1.875,4.706,4.247,6.188,7.115
		C1366.943,371.274,1367.684,374.791,1367.684,378.953z"/>
	<path fill="#FFFFFF" d="M1432.075,394.93v-64.974c0-3.375,0.769-5.906,2.307-7.594c1.537-1.688,3.524-2.532,5.963-2.532
		c2.512,0,4.547,0.835,6.104,2.504c1.556,1.669,2.334,4.21,2.334,7.622v64.974c0,3.413-0.778,5.963-2.334,7.65
		c-1.557,1.688-3.592,2.531-6.104,2.531c-2.4,0-4.379-0.854-5.936-2.56S1432.075,398.305,1432.075,394.93z"/>
	<path fill="#FFFFFF" d="M1533.367,329.956v60.023h33.865c2.7,0,4.772,0.656,6.216,1.969s2.166,2.963,2.166,4.95
		c0,2.025-0.713,3.666-2.138,4.922c-1.426,1.257-3.507,1.885-6.244,1.885h-40.334c-3.638,0-6.254-0.806-7.848-2.419
		c-1.595-1.612-2.391-4.219-2.391-7.819v-63.511c0-3.375,0.76-5.906,2.278-7.594c1.519-1.688,3.516-2.532,5.991-2.532
		c2.512,0,4.547,0.835,6.104,2.504C1532.589,324.003,1533.367,326.544,1533.367,329.956z"/>
</g>
<path fill="#FFFFFF" d="M560.653,361.199c0,16.464-13.316,29.731-29.743,29.731c-16.434,0-29.752-13.268-29.752-29.731
	c0-16.422,13.319-29.731,29.752-29.731C547.337,331.468,560.653,344.777,560.653,361.199z"/>
<path fill="#FFFFFF" d="M1945.709,361.199c0,16.464-13.337,29.731-29.763,29.731c-16.421,0-29.734-13.268-29.734-29.731
	c0-16.422,13.313-29.731,29.734-29.731C1932.372,331.468,1945.709,344.777,1945.709,361.199z"/>
</svg>
